<svg width="123.05" height="123.05" style="enable-background: new 0 0 123.05 123.05;" xml:space="preserve" xmlns="http://www.w3.org/2000/svg">
    <path d="m90.684 36.852-4.145-4.095c-1.121-1.122-2.974-1.122-4.145 0L61.72 53.43 40.656 32.366c-1.122-1.121-2.975-1.121-4.145 0l-4.144 4.145c-1.122 1.122-1.122 2.974 0 4.145L53.382 61.67 32.757 82.395c-1.122 1.121-1.122 2.974 0 4.144l4.144 4.145c1.122 1.121 2.975 1.121 4.145 0L61.72 70.009l20.674 20.675c1.122 1.121 2.975 1.121 4.145 0l4.145-4.145c1.121-1.121 1.121-2.974 0-4.144L69.96 61.72l20.675-20.674a2.989 2.989 0 0 0 .049-4.194z" style="fill: #fff; stroke-width: 0.487604;"/>
    <circle style="fill: none; stroke: #fff; stroke-width: 12.304; stroke-miterlimit: 4; stroke-dasharray: none; stroke-opacity: 1;" cx="61.525" cy="61.525" r="55.373"/>
</svg>
