<svg version="1.0" width="80" height="80" xmlns="http://www.w3.org/2000/svg">
    <circle style="fill: none; stroke: #fff; stroke-width: 7.99928; stroke-miterlimit: 4; stroke-dasharray: none; stroke-opacity: 1;" cx="40" cy="40" r="36"/>
    <g style="fill: #fff;">
        <path d="M110.028 115.171c-4.76-4.767-12.483-4.752-17.227 0-32.314 32.33-32.314 84.898-.016 117.197a12.13 12.13 0 0 0 8.614 3.569c3.123 0 6.234-1.19 8.613-3.569 4.76-4.76 4.76-12.469 0-17.228-22.795-22.803-22.795-59.923.016-82.742 4.76-4.758 4.76-12.475 0-17.227z" style="fill: #fff;" transform="translate(22 22) scale(.07421)"/>
        <path d="M471.481 405.861 324.842 259.23c37.405-66.25 28.109-151.948-28.217-208.317C263.787 18.075 220.133 0 173.718 0 127.287 0 83.633 18.075 50.81 50.913c-67.717 67.74-67.701 177.979.02 245.738 32.85 32.823 76.488 50.897 122.919 50.897 30.489 0 59.708-7.939 85.518-22.595L405.824 471.51c18.113 18.121 47.493 18.129 65.641 0a46.499 46.499 0 0 0 13.608-32.823 46.477 46.477 0 0 0-13.592-32.826zM85.28 262.191c-48.729-48.756-48.729-128.079-.016-176.828 23.62-23.627 55.029-36.634 88.453-36.634 33.407 0 64.816 13.007 88.451 36.627 48.715 48.756 48.699 128.094-.015 176.85-23.62 23.612-55.014 36.612-88.406 36.612-33.406 0-64.828-13.007-88.467-36.627z" style="fill: #fff;" transform="translate(22 22) scale(.07421)"/>
    </g>
</svg>
