<svg xmlns="http://www.w3.org/2000/svg" viewBox="0 0 250 52">
    <path d="M81.3 2.348a5.636 5.636 0 0 1 1.193 3.865 6.18 6.18 0 0 1-1.337 4.169 4.47 4.47 0 0 1-3.596 1.485 4.171 4.171 0 0 1-3.358-1.39 6.02 6.02 0 0 1-1.161-3.96 5.987 5.987 0 0 1 1.257-4.089A4.471 4.471 0 0 1 77.974.991 4.188 4.188 0 0 1 81.3 2.348zm-5.73.99a4.948 4.948 0 0 0-.779 3.051 5.702 5.702 0 0 0 .716 3.194 2.532 2.532 0 0 0 2.212 1.006 2.617 2.617 0 0 0 2.292-1.006 5.126 5.126 0 0 0 .716-3.034 5.526 5.526 0 0 0-.716-3.194 2.564 2.564 0 0 0-2.212-.99 2.617 2.617 0 0 0-2.228.974zm9.406.766h1.591l.366 1.15 1.321 3.736h.127l1.448-3.737.367-1.15h1.59l.701 7.619H91.15l-.127-2.38-.16-2.955h-.158l-1.814 4.52h-1.162l-1.703-4.52h-.095l-.319 2.811-.19 2.603h-1.274l.828-7.697zm13.689-.031c.33.07.65.177.955.32l-.27 1.405h-.176a3.175 3.175 0 0 0-1.591-.511 1.587 1.587 0 0 0-1.369.655 3.203 3.203 0 0 0-.493 1.852c-.04.692.138 1.38.51 1.965a1.673 1.673 0 0 0 1.447.702 3.713 3.713 0 0 0 1.767-.495l.143.096-.16 1.358c-.639.25-1.318.38-2.004.383a3 3 0 0 1-2.42-1.038 4.29 4.29 0 0 1-.922-2.78 4.37 4.37 0 0 1 .923-2.954 3.183 3.183 0 0 1 2.546-1.07c.374-.006.748.032 1.114.112zm2.64 4.455V4.232l1.591-.16v7.651h-1.591V8.527zm3.357-.958a61.712 61.712 0 0 0 2.992 3.849v.208a7.92 7.92 0 0 1-.923.16h-.764a47.092 47.092 0 0 1-2.912-4.073v-.112l2.212-2.81.414-.735h1.75l-2.769 3.513zm4.456.957V4.135h1.591v5.319h.096l2.976-5.35h1.591v7.618h-1.591V6.387h-.112l-3.007 5.335h-1.592l.048-3.195zm8.64.001V4.136h1.591v5.318h.112l3.071-5.35h1.591v7.618h-1.591V6.387l-3.183 5.335h-1.591V8.528zm5.697-7.091a2.266 2.266 0 0 1-.971 1.102 2.888 2.888 0 0 1-1.591.399 2.891 2.891 0 0 1-1.592-.383 2.516 2.516 0 0 1-.954-1.118l1.002-.591h.207c.082.317.26.602.509.814.283.185.618.274.955.256a1.59 1.59 0 0 0 .923-.24c.25-.221.432-.51.525-.83h.064l.923.59zm11.123 3.53c.623.805.928 1.81.86 2.827a4.423 4.423 0 0 1-.923 3.019 3.26 3.26 0 0 1-2.61 1.053 3.174 3.174 0 0 1-2.467-1.006 4.164 4.164 0 0 1-.859-2.874 4.423 4.423 0 0 1 .923-3.019 3.293 3.293 0 0 1 2.578-1.006 3.063 3.063 0 0 1 2.498 1.006zm-4.439 2.7a4.516 4.516 0 0 0 .461 2.299 1.593 1.593 0 0 0 1.416.75 1.588 1.588 0 0 0 1.401-.638c.348-.57.509-1.234.461-1.9a4.516 4.516 0 0 0-.461-2.3 1.594 1.594 0 0 0-1.337-.751c-1.305 0-1.941.846-1.941 2.54zm12.794-2.477c.562.777.832 1.727.764 2.683a4.438 4.438 0 0 1-.891 2.971 3.293 3.293 0 0 1-2.61 1.022 3.177 3.177 0 0 1-1.91-.527 3.085 3.085 0 0 1-1.066-1.597c-.265-.983-.388-2-.366-3.018-.019-.887.072-1.772.271-2.636.15-.598.452-1.148.875-1.597a4.09 4.09 0 0 1 1.591-.99l1.592-.559c.35-.128.652-.255.923-.383a6.29 6.29 0 0 0 .859-.559l.254.08v1.357a6.931 6.931 0 0 1-1.75.751l-1.591.463a1.992 1.992 0 0 0-1.162.91 3.92 3.92 0 0 0-.271 1.837v.272h.096a4.216 4.216 0 0 1 2.132-1.406 2.84 2.84 0 0 1 2.26.926zm-1.305 4.903a3.207 3.207 0 0 0 .462-1.884 3.337 3.337 0 0 0-.382-1.82 1.438 1.438 0 0 0-1.257-.624 1.952 1.952 0 0 0-1.019.272 4.201 4.201 0 0 0-.987.91c-.005.756.065 1.51.207 2.252.058.45.259.871.573 1.198a1.59 1.59 0 0 0 1.082.383 1.59 1.59 0 0 0 1.321-.687zm9.04-1.708v3.338h-1.591V5.239h-1.687v.543a30.79 30.79 0 0 1-.541 3.561 4.92 4.92 0 0 1-.827 1.837c-.292.38-.72.632-1.194.702h-.398l-.254-1.293c.381-.117.715-.351.955-.671.275-.462.464-.97.557-1.501.182-.967.314-1.942.397-2.923l.144-1.357h4.535l-.096 4.248zm6.956-3.881a1.853 1.853 0 0 1 .653 1.597c0 .208 0 .862-.096 1.98-.095 1.118-.095 1.741-.095 1.933a.686.686 0 0 0 .111.447.46.46 0 0 0 .366.112c.164.017.329.017.493 0l.144.112-.16.926a2.44 2.44 0 0 1-1.034.367c-.31-.02-.603-.15-.828-.367a1.485 1.485 0 0 1-.381-.863h-.112a4.776 4.776 0 0 1-1.703 1.246 2.652 2.652 0 0 1-1.782-.59 1.943 1.943 0 0 1-.652-1.598 1.756 1.756 0 0 1 1.591-1.836l2.594-.575V6.389a1.253 1.253 0 0 0-.302-.927 1.16 1.16 0 0 0-.876-.32 2.83 2.83 0 0 0-1.114.256 5.873 5.873 0 0 0-1.241.815l-.127-.096-.207-1.166a5.175 5.175 0 0 1 2.96-.99 2.666 2.666 0 0 1 1.798.543zm-3.023 4.264a.698.698 0 0 0-.43.224.753.753 0 0 0-.127.479c-.015.286.082.567.27.782a1.022 1.022 0 0 0 .732.272 2.337 2.337 0 0 0 1.591-1.006V8.257l-2.036.511zm10.089-4.695c.329.07.649.177.954.32l-.27 1.405h-.159a3.351 3.351 0 0 0-1.592-.511 1.587 1.587 0 0 0-1.368.655 3.206 3.206 0 0 0-.478 1.852 3.212 3.212 0 0 0 .541 2.029 1.598 1.598 0 0 0 1.433.702 3.714 3.714 0 0 0 1.75-.495l.143.096-.159 1.357c-.639.25-1.319.38-2.005.384a2.95 2.95 0 0 1-2.403-1.038 4.215 4.215 0 0 1-.923-2.843 4.471 4.471 0 0 1 .923-2.955 3.182 3.182 0 0 1 2.546-1.07c.359-.002.716.035 1.067.112zm7.716.159-.096 1.086h-2.212v6.436h-1.591V5.366h-2.228l-.095-.128.095-1.086h6.047l.08.08zm7.557 4.152v3.338h-1.591V8.527h-3.183v3.195h-1.591V4.104h1.591v3.194h3.183V4.104h1.591v4.28zm7.814-3.418c.622.805.928 1.81.86 2.827a4.42 4.42 0 0 1-.86 3.018 3.257 3.257 0 0 1-2.609 1.054 3.034 3.034 0 0 1-2.451-1.006 4.075 4.075 0 0 1-.875-2.875 4.497 4.497 0 0 1 .923-3.018 3.282 3.282 0 0 1 2.609-1.054 3.065 3.065 0 0 1 2.403 1.054zm-4.376 2.699a4.516 4.516 0 0 0 .462 2.3 1.586 1.586 0 0 0 1.416.75 1.586 1.586 0 0 0 1.4-.639c.348-.569.51-1.234.462-1.9a4.516 4.516 0 0 0-.462-2.3 1.587 1.587 0 0 0-1.4-.75c-1.241 0-1.878.846-1.878 2.539zm7.034.863V4.136h1.591v5.318h.096l3.039-5.286h1.591v7.618h-1.591V6.387h-.111l-3.088 5.383h-1.591l.064-3.242zm5.617-7.091a2.152 2.152 0 0 1-.955 1.102 2.95 2.95 0 0 1-1.591.399 2.933 2.933 0 0 1-1.591-.383 2.61 2.61 0 0 1-.955-1.118l.859-.591h.191c.087.32.27.604.525.814.276.188.607.278.939.256a1.59 1.59 0 0 0 .923-.24 1.59 1.59 0 0 0 .525-.83h.175l.955.59zm6.24 2.667h1.592l.366 1.15 1.336 3.736h.112l1.448-3.737.366-1.15h1.591l.7 7.619h-1.336v-2.38l-.287-2.955h-.127l-1.846 4.6h-1.162l-1.702-4.6h-.096l-.318 2.811-.191 2.603h-1.273l.827-7.697zm10.31 1.023 1.592 4.79h.111l1.591-4.679.271-1.181h1.448l-2.498 7.282a7.453 7.453 0 0 1-.876 1.789 3.768 3.768 0 0 1-1.177 1.07 7.802 7.802 0 0 1-1.814.67h-.144a3.65 3.65 0 0 1-.7-.99v-.175a5.171 5.171 0 0 0 1.846-.639 3.918 3.918 0 0 0 1.241-1.341l-2.768-7.587h1.591l.286.99zm11.285 4.454a1.958 1.958 0 0 1-.844 1.598 3.933 3.933 0 0 1-2.323.606 6.13 6.13 0 0 1-1.225-.127 3.678 3.678 0 0 1-1.003-.368l.271-1.261h.127c.256.18.542.315.843.399.318.08.644.123.971.128.419.022.836-.083 1.194-.304a.974.974 0 0 0 .461-.83.93.93 0 0 0-.254-.64 1.385 1.385 0 0 0-.732-.366h-1.767v-.112l.096-1.038h1.591c.224-.094.417-.249.557-.447a1.03 1.03 0 0 0 .207-.64c0-.59-.43-.878-1.305-.878a4.668 4.668 0 0 0-1.926.48h-.159l.112-1.278a4.928 4.928 0 0 1 2.052-.431 3.553 3.553 0 0 1 2.037.51 1.593 1.593 0 0 1 .732 1.406c.003.386-.108.763-.318 1.086a2.163 2.163 0 0 1-.891.75 1.75 1.75 0 0 1 1.076.597c.275.324.424.736.42 1.16zm7.273-1.595h-4.615a2.845 2.845 0 0 0 .605 1.916 2.172 2.172 0 0 0 1.687.64 4.161 4.161 0 0 0 2.212-.672l.175.096-.255 1.358a5.755 5.755 0 0 1-2.339.527 3.423 3.423 0 0 1-2.658-1.038 4.05 4.05 0 0 1-.955-2.827 4.245 4.245 0 0 1 .955-2.907 3.267 3.267 0 0 1 2.578-1.07 2.843 2.843 0 0 1 2.196.783 2.922 2.922 0 0 1 .748 2.14 7.116 7.116 0 0 1-.079.91l-.255.144zm-1.241-1.294a1.812 1.812 0 0 0-.35-1.182 1.372 1.372 0 0 0-1.035-.399 1.59 1.59 0 0 0-1.241.495 2.47 2.47 0 0 0-.668 1.374h3.262l.032-.288zm3.5 1.836V4.136h1.592v5.318h.095l3.04-5.286h1.591v7.618h-1.591V6.387h-.128l-3.087 5.383h-1.591l.079-3.242zm5.618-7.091a2.156 2.156 0 0 1-.955 1.102 2.903 2.903 0 0 1-1.591.399 2.841 2.841 0 0 1-1.512-.383 2.555 2.555 0 0 1-.971-1.118l.86-.591h.19c.087.32.271.604.526.814.278.182.607.271.939.256a1.59 1.59 0 0 0 .923-.24c.257-.214.441-.505.525-.83h.191l.875.59zM73.584 27.15l-.08-4.392h1.591v5.318h.096l3.04-5.286h1.59v7.602h-1.59v-5.494h-.112l-2.992 5.446h-1.591l.047-3.194zm13.605.973a1.922 1.922 0 0 1-.844 1.677 3.889 3.889 0 0 1-2.307.607 5.31 5.31 0 0 1-1.29-.064 3.682 3.682 0 0 1-1.002-.351l.287-1.262h.11c.266.171.556.3.86.383.315.095.642.143.971.144.42.018.837-.094 1.194-.32a.941.941 0 0 0 .445-.814.897.897 0 0 0-.255-.655 1.367 1.367 0 0 0-.732-.351h-1.639l-.127-.128.111-1.038h1.592a1.21 1.21 0 0 0 .54-.431c.14-.19.212-.42.208-.655 0-.575-.43-.878-1.29-.878a4.558 4.558 0 0 0-1.925.479h-.175l.127-1.262a4.933 4.933 0 0 1 2.053-.431 3.38 3.38 0 0 1 2.021.511 1.595 1.595 0 0 1 .732 1.405c.01.387-.102.767-.318 1.086-.22.326-.53.581-.891.735.404.047.779.234 1.06.528.282.295.453.678.484 1.085zm7.178-4.599c.617.808.922 1.812.86 2.827a4.499 4.499 0 0 1-.907 3.018 3.277 3.277 0 0 1-2.626 1.07 3.031 3.031 0 0 1-2.45-1.006 4.227 4.227 0 0 1-.876-2.826 4.499 4.499 0 0 1 .923-3.019 3.325 3.325 0 0 1 2.626-1.054 3.028 3.028 0 0 1 2.45.99zm-4.424 2.715c-.059.795.1 1.59.462 2.3a1.595 1.595 0 0 0 1.4.735 1.586 1.586 0 0 0 1.4-.623 3.204 3.204 0 0 0 .462-1.917c.06-.794-.1-1.59-.461-2.3a1.593 1.593 0 0 0-1.4-.734c-1.242 0-1.863.846-1.863 2.54zm12.778-2.474c.542.777.795 1.72.716 2.667a4.453 4.453 0 0 1-.891 2.986 3.329 3.329 0 0 1-2.61 1.022 3.174 3.174 0 0 1-1.91-.527 3.196 3.196 0 0 1-1.05-1.597 10.18 10.18 0 0 1-.35-2.97 10.87 10.87 0 0 1 .27-2.636 3.804 3.804 0 0 1 .876-1.597 3.944 3.944 0 0 1 1.59-.99l1.592-.575c.317-.099.625-.221.923-.367.291-.154.573-.325.844-.511h.159l.095 1.357a7.072 7.072 0 0 1-1.734.751l-1.512.463a1.86 1.86 0 0 0-1.178.91 3.86 3.86 0 0 0-.302 1.805v.288h.095a4.391 4.391 0 0 1 2.117-1.406 2.774 2.774 0 0 1 2.26.927zm-1.242 4.982a3.198 3.198 0 0 0 .446-1.9 3.396 3.396 0 0 0-.43-1.885 1.417 1.417 0 0 0-1.241-.622 1.92 1.92 0 0 0-1.019.287 3.395 3.395 0 0 0-.986.91c-.017.756.047 1.51.19 2.252.074.45.279.866.59 1.198.299.249.678.38 1.066.367a1.583 1.583 0 0 0 1.384-.607zm9.643-5.207c.556.79.826 1.749.764 2.715a4.418 4.418 0 0 1-.971 3.082 3.458 3.458 0 0 1-2.753 1.102 6.614 6.614 0 0 1-1.289-.144v3.05h-1.591l.095-6.196-.111-4.312 1.591-.144v1.086h.111c.3-.266.625-.501.971-.702a4.764 4.764 0 0 1 1.003-.432 2.648 2.648 0 0 1 2.18.895zm-1.321 5.03a3.383 3.383 0 0 0 .525-2.028 3.582 3.582 0 0 0-.43-1.932 1.368 1.368 0 0 0-1.225-.655 1.84 1.84 0 0 0-.891.224 4.48 4.48 0 0 0-.939.75v3.993c.446.221.935.341 1.432.351a1.793 1.793 0 0 0 1.528-.703zm8.342-5.493a1.854 1.854 0 0 1 .652 1.597c0 .192 0 .863-.095 1.98-.096 1.119-.096 1.741-.096 1.933a.613.613 0 0 0 .112.431.46.46 0 0 0 .366.128h.493l.143.112-.159.926a2.683 2.683 0 0 1-1.034.367 1.306 1.306 0 0 1-.764-.527 1.438 1.438 0 0 1-.382-.846h-.111a5.002 5.002 0 0 1-1.719 1.246 2.634 2.634 0 0 1-1.782-.607 1.96 1.96 0 0 1-.637-1.597 1.792 1.792 0 0 1 1.592-1.837l2.593-.575v-.894a1.232 1.232 0 0 0-.302-.91 1.176 1.176 0 0 0-.875-.32 2.63 2.63 0 0 0-1.13.256c-.439.215-.85.483-1.225.798h-.128l-.222-1.166a5.143 5.143 0 0 1 2.959-.99 2.716 2.716 0 0 1 1.751.495zm-3.024 4.248a.778.778 0 0 0-.429.224.738.738 0 0 0-.128.495 1.012 1.012 0 0 0 .271.767.938.938 0 0 0 .732.287 2.357 2.357 0 0 0 1.591-1.006v-1.278l-2.037.511zm11.057.799a1.934 1.934 0 0 1-.828 1.677 3.966 3.966 0 0 1-2.323.607 5.277 5.277 0 0 1-1.241-.144 3.682 3.682 0 0 1-1.003-.351l.287-1.262h.111c.265.172.555.3.859.383.316.094.642.142.971.144.421.018.837-.093 1.194-.32a.938.938 0 0 0 .445-.814.907.907 0 0 0-.254-.655 1.369 1.369 0 0 0-.732-.351h-1.687l-.128-.128.112-1.038h1.591c.22-.092.413-.24.557-.431a1.17 1.17 0 0 0 .191-.655c0-.575-.43-.878-1.289-.878a4.611 4.611 0 0 0-1.925.479h-.16l.112-1.262a4.935 4.935 0 0 1 2.053-.431 3.477 3.477 0 0 1 2.037.511 1.603 1.603 0 0 1 .732 1.405c.004.389-.113.768-.335 1.087a2.04 2.04 0 0 1-.891.734 1.751 1.751 0 0 1 1.544 1.693zm1.782-.974v-4.392h1.591v5.318h.096l3.039-5.286h1.592v7.602h-1.592v-5.494h-.127l-3.055 5.446h-1.592l.048-3.194zm13.559-4.36-.095 1.086h-2.196v6.437h-1.592v-6.389h-2.243v-1.197h6.047l.079.063zm6.479 3.77h-4.599c-.031.685.184 1.36.605 1.9a2.18 2.18 0 0 0 1.687.655 4.161 4.161 0 0 0 2.212-.67l.175.095-.255 1.358a5.756 5.756 0 0 1-2.339.527 3.378 3.378 0 0 1-2.642-1.055 4.031 4.031 0 0 1-.97-2.858 4.207 4.207 0 0 1 .954-2.907 3.271 3.271 0 0 1 2.578-1.07 2.892 2.892 0 0 1 2.133.75 2.969 2.969 0 0 1 .748 2.157 7.05 7.05 0 0 1-.08.894l-.207.224zm-1.257-1.31a1.6 1.6 0 0 0-.35-1.166 1.305 1.305 0 0 0-1.034-.399 1.694 1.694 0 0 0-1.242.48 2.544 2.544 0 0 0-.668 1.389h3.183l.111-.304zm8.815 1.707v3.322h-1.591v-6.484h-1.687v.543a26.935 26.935 0 0 1-.557 3.562 4.666 4.666 0 0 1-.748 1.836c-.301.37-.725.62-1.194.703h-.397l-.255-1.294c.383-.121.717-.362.955-.686.278-.455.467-.96.557-1.485a25.66 25.66 0 0 0 .382-2.923l.159-1.358h4.456l-.08 4.264zm7.591-.813a1.88 1.88 0 0 1 .652 1.597 2.243 2.243 0 0 1-.907 1.917c-.74.499-1.624.74-2.514.686h-2.419v-7.617h1.591v2.938h1.703a2.921 2.921 0 0 1 1.894.48zm-1.289 2.603a1.272 1.272 0 0 0 .35-.942 1.128 1.128 0 0 0-.366-.91 1.406 1.406 0 0 0-1.034-.32h-1.258v2.573h1.242a1.78 1.78 0 0 0 1.066-.4zm9.595-1.789v3.322h-1.591v-3.194h-3.183v3.194h-1.591v-7.618h1.591v3.194h3.183v-3.194h1.591v4.296zm7.369-.815a1.887 1.887 0 0 1 .605 1.597 2.322 2.322 0 0 1-.843 1.917 3.7 3.7 0 0 1-2.387.687h-2.34v-7.618h1.592v2.938h1.591a2.664 2.664 0 0 1 1.782.48zm-1.289 2.604c.213-.267.321-.602.303-.943a1.265 1.265 0 0 0-.318-.91 1.198 1.198 0 0 0-.923-.32h-1.146v2.573h1.146a1.49 1.49 0 0 0 .938-.4zm4.424-1.837v3.322h-1.591v-7.506l1.591-.144v4.328zm3.771-3.48 1.352 2.06 1.273-2.093.382-.718h1.496l-2.26 3.72 2.419 3.818-1.766.144-.366-.847-1.385-2.14-1.4 2.22-.35.687h-1.496l2.323-3.85-2.323-3.704 1.782-.096.319.798zm8.894 3.72v-4.392h1.591v5.318h.112l3.039-5.286h1.591v7.602h-1.591v-5.494h-.111l-3.183 5.382h-1.591l.143-3.13zm12.653-4.503c.332.063.653.17.955.32l-.286 1.389h-.159a3.287 3.287 0 0 0-1.592-.511 1.586 1.586 0 0 0-1.368.67 2.966 2.966 0 0 0-.494 1.837c-.042.697.137 1.39.51 1.98a1.701 1.701 0 0 0 1.448.703 3.695 3.695 0 0 0 1.75-.495l.159.096-.175 1.357a5.58 5.58 0 0 1-2.005.384 2.967 2.967 0 0 1-2.403-1.039 4.292 4.292 0 0 1-.859-2.842 4.356 4.356 0 0 1 .923-2.955 3.187 3.187 0 0 1 2.546-1.07c.356.02.708.08 1.05.176zm2.674 4.503v-4.313l1.591-.143-.079 4.312v3.322h-1.592l.08-3.178zm3.357-.959a76.808 76.808 0 0 0 2.992 3.85v.19a5.284 5.284 0 0 1-.923.176h-.748a47.29 47.29 0 0 1-2.976-4.12v-.112l2.212-2.779.414-.718h1.767l-2.738 3.513z" style="fill: #fff;"/>
    <path d="m218.381 23.7 1.592 4.791h.111l1.591-4.695.287-1.166h1.448l-2.61 7.235a7.779 7.779 0 0 1-.875 1.788 3.71 3.71 0 0 1-1.178 1.054 7.09 7.09 0 0 1-1.814.687h-.159a4.19 4.19 0 0 1-.684-.99v-.192a5.542 5.542 0 0 0 1.846-.623 3.687 3.687 0 0 0 1.225-1.357l-2.753-7.57 1.591-.08.382 1.118zm10.135-1.053c.331.063.652.17.954.32l-.286 1.389h-.159a3.176 3.176 0 0 0-1.591-.511 1.587 1.587 0 0 0-1.369.67 2.959 2.959 0 0 0-.493 1.837c-.042.697.136 1.39.509 1.98a1.701 1.701 0 0 0 1.448.703 3.76 3.76 0 0 0 1.766-.495l.144.096-.159 1.357c-.64.25-1.319.38-2.006.384a2.982 2.982 0 0 1-2.418-1.039 4.288 4.288 0 0 1-.86-2.842 4.356 4.356 0 0 1 .923-2.955 3.182 3.182 0 0 1 2.546-1.07c.356.02.708.08 1.051.176zm6.62 0c.332.063.653.17.955.32l-.27 1.389h-.175a3.177 3.177 0 0 0-1.592-.511 1.586 1.586 0 0 0-1.368.67 3.075 3.075 0 0 0-.494 1.837c-.046.7.139 1.396.526 1.98a1.589 1.589 0 0 0 1.432.703 3.71 3.71 0 0 0 1.766-.495l.143.096-.159 1.357a5.58 5.58 0 0 1-2.005.384 2.997 2.997 0 0 1-2.419-1.039 4.292 4.292 0 0 1-.859-2.842 4.436 4.436 0 0 1 .923-2.955 3.187 3.187 0 0 1 2.546-1.07c.356.02.708.079 1.05.176zm7.719.143-.095 1.086h-2.212v6.437h-1.592v-6.389h-2.228l-.095-.111.095-1.086h6.047l.08.063zm7.144 5.334a1.82 1.82 0 0 1-.908 1.677 5.311 5.311 0 0 1-2.657.527h-2.387V22.71h2.944a3.396 3.396 0 0 1 1.973.48 1.598 1.598 0 0 1 .7 1.405c.002.378-.115.746-.334 1.054-.246.327-.576.58-.955.735a1.75 1.75 0 0 1 1.624 1.741zm-2.022.895a1.1 1.1 0 0 0 .478-.958c0-.64-.414-1.007-1.273-1.102h-1.592v2.315h1.035c.466.048.936-.04 1.352-.255zm-.254-5.063a2.254 2.254 0 0 0-1.273-.271h-.828v2.22h1.401c.324-.052.624-.203.859-.432a1.1 1.1 0 0 0 .302-.814.874.874 0 0 0-.461-.703zM73.585 45.66l-.08-4.392h1.591v5.318h.096l3.04-5.286h1.59v7.618h-1.59V43.47h-.112l-3.087 5.383H73.44l.144-3.194zm9.165-4.424h1.592l.366 1.15 1.337 3.737h.111l1.369-3.737.382-1.15h1.591l.7 7.618h-1.32l-.144-2.38-.27-3.034h-.112l-1.862 4.6h-1.145l-1.623-4.6h-.096l-.318 2.875-.191 2.587h-1.273l.907-7.666zm15.149 3.881h-4.631a2.85 2.85 0 0 0 .62 1.917 2.13 2.13 0 0 0 1.592.639 4.206 4.206 0 0 0 2.228-.671l.159.096-.255 1.357a5.74 5.74 0 0 1-2.323.527 3.411 3.411 0 0 1-2.578-1.07 4.065 4.065 0 0 1-.97-2.858 4.242 4.242 0 0 1 .954-2.907 3.277 3.277 0 0 1 2.594-1.07 2.617 2.617 0 0 1 2.12.77 2.637 2.637 0 0 1 .744 2.136 4.94 4.94 0 0 1 0 .91l-.254.224zm-1.258-1.293a1.713 1.713 0 0 0-.35-1.182 1.337 1.337 0 0 0-1.034-.4 1.747 1.747 0 0 0-1.241.496 2.48 2.48 0 0 0-.653 1.373h3.183l.095-.287zm9.822 1.692v3.338h-1.591V45.66h-3.183v3.194h-1.591v-7.618h1.591v3.194h3.183v-3.194h1.591v4.28zm2.465.144v-4.392h1.592v5.318h.111l3.04-5.286h1.591v7.618h-1.591V43.47h-.112l-3.183 5.383h-1.591l.143-3.194zm22.534 3.193h-1.591l-.207-3.194-.509-4.79h-.112l-2.705 6.819h-1.353l-2.45-6.836h-.144l-.493 4.632-.27 3.37h-1.433l1.114-10.525h1.942l.493 1.597 1.973 5.542h.143l2.133-5.67.493-1.597h2.005l.971 10.652zm3.705-1.548a.907.907 0 0 1 .239.671.991.991 0 0 1-.239.703.916.916 0 0 1-.684.271.906.906 0 0 1-.668-.24.98.98 0 0 1 .206-1.433.968.968 0 0 1 .51-.163.825.825 0 0 1 .636.191zm13.288 1.55h-1.735l-.318-1.198-.461-1.47h-4.249l-.494 1.39-.27 1.278h-1.623l3.755-10.525h2.005l3.39 10.525zm-2.865-4.04-1.511-4.888h-.128l-1.718 4.887h3.357zm5.796 2.489a.904.904 0 0 1 .239.67.936.936 0 0 1-.255.703.856.856 0 0 1-.668.272.906.906 0 0 1-.669-.24.98.98 0 0 1-.239-.687.916.916 0 0 1 .255-.686.946.946 0 0 1 .7-.272.825.825 0 0 1 .637.24zm12.014-3.097c.382.472.575 1.07.541 1.677 0 2.028-1.591 3.034-4.519 3.034h-2.578l.127-3.194-.143-7.394h3.294a3.712 3.712 0 0 1 2.371.67 2.33 2.33 0 0 1 .86 1.949 2.74 2.74 0 0 1-.414 1.597 2.547 2.547 0 0 1-1.178.974 2.665 2.665 0 0 1 1.639.687zm-1.83 2.922a1.503 1.503 0 0 0 .653-1.342c0-.957-.605-1.5-1.814-1.676h-1.926v3.418h1.178a3.18 3.18 0 0 0 1.909-.4zm-.413-7.202a2.398 2.398 0 0 0-1.496-.352h-1.114v3.194h1.687a1.942 1.942 0 0 0 1.066-.622c.253-.346.377-.77.35-1.198a1.34 1.34 0 0 0-.493-1.022zm10.515 2.187a4.21 4.21 0 0 1 .764 2.715 4.466 4.466 0 0 1-.971 3.082 3.504 3.504 0 0 1-2.753 1.086 7.81 7.81 0 0 1-1.289-.128v3.035h-1.591l.111-6.245-.111-4.296 1.591-.16v1.102h.112c.292-.28.618-.52.97-.718a7.312 7.312 0 0 1 1.003-.431 2.635 2.635 0 0 1 2.164.958zm-1.321 5.015a3.347 3.347 0 0 0 .526-2.029 3.563 3.563 0 0 0-.43-1.916 1.39 1.39 0 0 0-1.225-.671 1.875 1.875 0 0 0-.892.24 4.45 4.45 0 0 0-.938.75v3.977a3.39 3.39 0 0 0 1.432.367 1.762 1.762 0 0 0 1.527-.718zm4.393-4.87 1.591 4.79h.112l1.591-4.679.27-1.181h1.512l-2.61 7.234a7.45 7.45 0 0 1-.875 1.789 3.779 3.779 0 0 1-1.177 1.07 7.81 7.81 0 0 1-1.815.67h-.143a3.65 3.65 0 0 1-.7-.99v-.175a5.542 5.542 0 0 0 1.846-.623c.51-.354.934-.818 1.241-1.358l-2.769-7.585 1.592-.08.334 1.118zm12.174.079c.564.769.835 1.715.764 2.667a4.438 4.438 0 0 1-.891 2.97 3.283 3.283 0 0 1-2.61 1.023 2.763 2.763 0 0 1-1.904-.524 2.781 2.781 0 0 1-1.072-1.664 10.7 10.7 0 0 1-.334-2.955c-.019-.886.072-1.771.271-2.635a3.765 3.765 0 0 1 .875-1.597 4.083 4.083 0 0 1 1.591-.99l1.591-.559c.351-.128.653-.255.923-.383.293-.152.574-.322.844-.511l.159.08.095 1.357a6.499 6.499 0 0 1-1.734.75l-1.591.48a1.9 1.9 0 0 0-1.178.894 3.903 3.903 0 0 0-.366 1.837v.287h.111a4.215 4.215 0 0 1 2.117-1.405 2.774 2.774 0 0 1 2.339.878zm-1.257 4.887a3.199 3.199 0 0 0 .461-1.884 3.326 3.326 0 0 0-.429-1.885 1.438 1.438 0 0 0-1.257-.623 2.11 2.11 0 0 0-1.019.272 4.197 4.197 0 0 0-.986.91c-.006.756.064 1.51.206 2.252.065.448.265.866.573 1.198a1.59 1.59 0 0 0 1.082.383 1.59 1.59 0 0 0 1.369-.623zm9.264-2.108h-4.631a2.852 2.852 0 0 0 .621 1.916 2.134 2.134 0 0 0 1.591.639 4.156 4.156 0 0 0 2.212-.67l.175.095-.254 1.358a5.747 5.747 0 0 1-2.324.526 3.406 3.406 0 0 1-2.657-1.053 3.982 3.982 0 0 1-.971-2.86 4.24 4.24 0 0 1 .955-2.906 3.258 3.258 0 0 1 2.578-1.07 2.619 2.619 0 0 1 2.132.763A2.644 2.644 0 0 1 195.1 44c.001.305-.025.61-.079.91l-.096.208zm-1.257-1.294a1.714 1.714 0 0 0-.35-1.182 1.34 1.34 0 0 0-1.034-.399 1.75 1.75 0 0 0-1.242.495 2.37 2.37 0 0 0-.652 1.373h3.183l.095-.287zm8.781 1.693v3.338h-1.591V42.37h-1.734v.543a31.009 31.009 0 0 1-.542 3.561 4.933 4.933 0 0 1-.763 1.821c-.292.38-.72.633-1.194.703h-.398l-.254-1.294c.381-.116.715-.351.954-.67.276-.463.465-.972.557-1.502.182-.967.315-1.942.398-2.923l.143-1.357h4.536l-.112 4.264zm7.704 0v3.338h-1.591v-2.715h-1.305c-.414.798-.955 1.693-1.591 2.699l-.175.112a3.55 3.55 0 0 1-1.432-.288v-.16a33.159 33.159 0 0 0 2.037-2.603 2.59 2.59 0 0 1-1.178-.846 2.483 2.483 0 0 1 .414-3.194 3.063 3.063 0 0 1 2.053-.687h2.753l.015 4.344zm-3.596-2.859a1.312 1.312 0 0 0-.366 1.007c-.022.363.092.721.318 1.006.245.273.577.454.939.51h1.257v-2.842h-1.114a1.492 1.492 0 0 0-1.034.32z" style="fill: #fff;"/>
    <path fill-rule="evenodd" clip-rule="evenodd" d="M8.339 48.455h5.156V27.438h2.212v21.017h4.885V27.438c.127-9.39-12.126-9.39-12.253 0v21.017zm28.93 0h5.172V27.438h2.196v21.017h4.901V27.438c.128-9.39-12.141-9.39-12.269 0v21.017zm-14.465 0h5.156V27.438h2.275v21.017h4.775V27.438c.127-9.39-12.142-9.39-12.27 0l.064 21.017zM0 11.69h58.036V.975H0V11.69zm0 4.919h57.989v-2.763H0v2.763z" style="fill: #fff;"/>
</svg>
