<svg xmlns="http://www.w3.org/2000/svg" width="123.05" height="123.05" style="enable-background: new 0 0 123.05 123.05;" xml:space="preserve">
  <path d="m121.325 10.925-8.5-8.399c-2.3-2.3-6.1-2.3-8.5 0l-42.4 42.399L18.726 1.726c-2.301-2.301-6.101-2.301-8.5 0l-8.5 8.5c-2.301 2.3-2.301 6.1 0 8.5l43.1 43.1-42.3 42.5c-2.3 2.3-2.3 6.1 0 8.5l8.5 8.5c2.3 2.3 6.1 2.3 8.5 0l42.399-42.4 42.4 42.4c2.3 2.3 6.1 2.3 8.5 0l8.5-8.5c2.3-2.3 2.3-6.1 0-8.5l-42.5-42.4 42.4-42.399a6.13 6.13 0 0 0 .1-8.602z" style="fill: #d2d2d2;"/>
</svg>
