<svg xmlns="http://www.w3.org/2000/svg" width="261" height="149.936"><path fill-rule="evenodd" clip-rule="evenodd" d="M113.972 140.03h7.117v5.337h-7.117zm-3.022-29.297h.458v3.303h-.573v1.536h.42v17.816h-.344v-17.586h-.382v-2.035h.574zm0-30.217h.458v3.302h-.573v1.536h.575v20.695h-.306V85.508h-.422v-2.035h.573zm2.486 0h.306v2.957h.575v2.035h-.384v20.541h-.344V85.354h.42v-1.727h-.573v-3.11zm-17.331 30.217h.305v2.957h.575v2.112h-.42v17.662h-.459v-17.892h.421v-1.536h-.422zm-2.485 0h.305v3.11h-.574v1.729h.42v17.816h-.344v-17.586h-.382v-2.035h.573v-3.034zm0-30.217h.305v3.11h-.574v1.728h.42v20.695h-.344V85.508h-.382v-2.035h.573v-2.957zm2.485 0h.305v2.957h.575v2.035h-.42v20.541h-.459V85.354h.421v-1.536h-.422zm14.577 32.215v.5H96.795v-.5zm-17.484 0v.5H10.865v-.5zm13.505 7.677v12.826h-6.16v-12.67l6.16-.154zm-17.216 0v12.826h-6.199v-12.67l6.199-.154zm-68.865 0v12.826h-6.275v-12.67l6.275-.154zm17.254 0v12.826h-6.313v-12.67l6.313-.154zm17.216 0v12.826h-6.275v-12.67l6.275-.154zm17.255 0v12.826h-6.275v-12.67l6.275-.154zm39.98 17.665v.768H10.865v-.461zm-4.018-18.853h.421v14.015h-.42zm-95.645 0h.42v14.015h-.65l.23-14.014zm9.565 0h.382v14.015h-.383V119.22zm7.65 0h.422v14.015h-.42V119.22zm9.528 0h.42v14.015h-.42zm7.65 0h.384v14.015h-.383zm9.527 0h.42v14.015h-.42zm7.653 0h.42v14.015h-.42zm9.565 0h.382v14.015H73.8V119.22zm7.65 0h.421v14.015h-.42V119.22zm9.527 0h.421v14.015h-.42zm7.651 0h.383v14.015h-.383zm-75.75-1.036v.844H11.936v-.844zm17.253 0v.844H29.154v-.844h10.982zm17.216 0v.844H46.37v-.844h10.982zm17.255 0v.844H63.662v-.844zm17.254 0v.844H80.802v-.844H91.86zm17.218 0v.844H98.133v-.844zm-2.413-26.418v14.092h-6.121V91.919l6.122-.153zm-17.215 0v14.092h-6.161V91.919l6.16-.153zm8.99-1.19h.421v15.358h-.42V90.575zm-7.345 0h.382v15.358h-.383V90.575zm-9.87 0h.381v15.358h-.383V90.575zm-7.386 0h.422v15.358h-.421V90.575zm-9.871 0h.422v15.358h-.42V90.575zm-7.383 0h.42v15.358h-.42V90.575zm-9.87 0h.42v15.358h-.382l-.039-15.359zm-7.345 0h.382v15.358h-.383V90.575zm-9.87 0h.38v15.358h-.382V90.575zm-7.387 0h.422v15.358h-.383l-.037-15.359zm-9.87 0h.46v15.358h-.422l-.034-15.359zm10.637-1.382v.844H11.937v-.844h10.942zm17.254 0v.844H29.154v-.844h10.982zm17.216 0v.844H46.369v-.844h10.982zm17.255 0v.844H63.66v-.844zm17.254 0v.844H80.8v-.844h11.058zm17.217 0v.844H98.132v-.844zm-.766 1.383h.42v15.357h-.381l-.039-15.359zm-87.994 1.19v14.09h-5.969V91.92l5.97-.153zm17.255 0v14.09h-6.007V91.92zm17.215 0v14.09h-5.967V91.92l5.968-.153zm17.256 0v14.09h-5.97V91.92zm52.299 0v12.823h-5.969V91.92l5.97-.154zM9.565 81.245h.46v58.17h-.458v-58.17zm-.497 4.876v.5H5.74v52.717H3.98V86.506h-.65v-5.261h1.3v4.877h4.436zm105.747 20.658v.46H10.865v-.46h103.949zm-5.164-18.162h-.996v-.5h.499v-.344H98.096v.344h.536v.5h-.994v-2.342h12.013zm-17.256 0h-.994v-.5h.497v-.344H80.803v.344h.497v.5h-.994v-2.342h11.976zm-17.253 0h-.996v-.5h.536v-.344H63.626v.344h.497v.5h-.994v-2.342h12.013zm-17.217 0h-.995v-.5h.497v-.344H46.369v.344h.536v.5h-.995v-2.342h11.936l.078 2.342zm-17.255 0h-.994v-.5h.497v-.344H29.154v.344h.497v.5h-.994v-2.342H40.67zm-17.255 0h-.994v-.5h.536v-.344h-11.02v.344h.497v.5H11.4v-2.342h12.013v2.342zm102.763 2.266h.536v14.013h-.42zm-9.87 0h.42v14.013h-.42V90.885zm11.171-2.266h-.995v-.5h.498v-.344h-11.06v.344h.537v.5h-.994v-2.342h12.013v2.342zm-.536.883v.845h-10.98V89.5h10.982zm-10.56 15.704v6.527h-.918v-6.527zm1.607 3.11h-.422v.346h.422zm0 .805h-.422v.347h.422zm0 .847h-.422v.344h.422v-.345zm0 .805h-.422v.346h.422zm.344.346h.421v-.346h-.42zm0-.805h.421v-.347h-.42zm0-.847h.421v-.344h-.42v.345zm0-.805h.421v-.346h-.42zm.764 2.457h.46v-.346h-.498l.04.346zm0-.805h.46v-.347h-.498l.04.347zm0-.847h.46v-.344h-.498l.04.345zm0-.805h.46v-.346h-.498l.04.346zm.766 2.457h.458v-.346h-.458zm0-.805h.458v-.347h-.458zm0-.847h.458v-.344h-.458v.345zm0-.805h.458v-.346h-.458zm.765 2.457h.458v-.346h-.458zm0-.805h.458v-.347h-.458zm0-.847h.458v-.344h-.458v.345zm0-.805h.458v-.346h-.458zm.765 2.457h.458v-.346h-.458zm0-.805h.458v-.347h-.458zm0-.847h.458v-.344h-.458v.345zm0-.805h.458v-.346h-.458zm.765 2.457h.46v-.346h-.459v.346zm0-.805h.46v-.347h-.459v.347zm0-.847h.46v-.344h-.459v.345zm0-.805h.46v-.346h-.459v.346zm.765 2.457h.46v-.346h-.497zm0-.805h.46v-.347h-.497zm0-.847h.46v-.344h-.497l.037.345zm0-.805h.46v-.346h-.497zm.805 2.457h.42v-.346h-.421v.346zm0-.805h.42v-.347h-.421v.347zm0-.847h.42v-.344h-.421v.345zm0-.805h.42v-.346h-.421v.346zm.764 2.457h.42v-.346h-.42zm0-.805h.42v-.347h-.42zm0-.847h.42v-.344h-.42v.345zm0-.805h.42v-.346h-.42zm1.99-.346h-.421v.346h.42zm0 .805h-.421v.347h.42zm0 .847h-.421v.344h.42v-.345zm0 .805h-.421v.346h.42zm.305.346h.46v-.346h-.535l.076.346zm0-.805h.46v-.347h-.535l.076.347zm0-.847h.46v-.344h-.535l.076.345zm0-.805h.46v-.346h-.535l.076.346zm.766 2.457h.458v-.346h-.458zm0-.805h.458v-.347h-.458zm0-.847h.458v-.344h-.458v.345zm0-.805h.458v-.346h-.458zm.765 2.457h.458v-.346h-.458zm0-.805h.458v-.347h-.458zm0-.847h.458v-.344h-.458v.345zm0-.805h.458v-.346h-.458zm.765 2.457h.46v-.346h-.459v.346zm0-.805h.46v-.347h-.459v.347zm0-.847h.46v-.344h-.459v.345zm0-.805h.46v-.346h-.459v.346zm.765 2.457h.46v-.346h-.459v.346zm0-.805h.46v-.347h-.459v.347zm0-.847h.46v-.344h-.459v.345zm0-.805h.46v-.346h-.459v.346zm.612-.846h4.401v-1.344h-8.8v1.344h4.4zm0-2.149h4.401v-.46h.918v.46h8.263v.805h-8.263v1.344h8.225v.5h-.306v.346h.306v.46h-.306v.346h.306v.5h-.306v.344h.306v.461h-.306v.346h.306v.5h-27.087v-.5h.306v-.346h-.306v-.46h.306v-.346h-.306v-.5h.306v-.344h-.306v-.461h.306v-.346h-.306v-.5h8.263v-1.344h-8.263v-.805h8.263v-.46h.88v.46h4.402zm.612 2.995v-.346h-.534v.346zm0 .805v-.344h-.534v.345h.534zm0 .847v-.347h-.534v.347zm0 .805v-.346h-.534v.346zm.767-2.457v-.346h-.422v.346h.42zm0 .805v-.344h-.422v.345h.42zm0 .847v-.347h-.422v.347h.42zm0 .805v-.346h-.422v.346h.42zm.763-2.457v-.346h-.419v.346h.42zm0 .805v-.344h-.419v.345h.42zm0 .847v-.347h-.419v.347h.42zm0 .805v-.346h-.419v.346h.42zm.767-2.457v-.346h-.421v.346zm0 .805v-.344h-.421v.345h.42zm0 .847v-.347h-.421v.347zm0 .805v-.346h-.421v.346zm.803-2.457v-.346h-.46v.346h.46zm0 .805v-.344h-.46v.345h.46zm0 .847v-.347h-.46v.347h.46zm0 .805v-.346h-.46v.346h.46zm.306-.346v.346h.383v-.346zm0-.805v.344h.383v-.345h-.383zm0-.847v.347h.383v-.347zm0-.805v.346h.383v-.346zm1.99.346v-.346h-.459v.346zm0 .805v-.344h-.459v.345h.458zm0 .847v-.347h-.459v.347zm0 .805v-.346h-.459v.346zm.764-2.457v-.346h-.458v.346zm0 .805v-.344h-.458v.345h.458zm0 .847v-.347h-.458v.347zm0 .805v-.346h-.458v.346zm.765-2.457v-.346h-.458v.346zm0 .805v-.344h-.458v.345h.458zm0 .847v-.347h-.458v.347zm0 .805v-.346h-.458v.346zm.767-2.457v-.346h-.575v.346h.573zm0 .805v-.344h-.575v.345h.573zm0 .847v-.347h-.575v.347h.573zm0 .805v-.346h-.575v.346h.573zm.764-2.457v-.346h-.42v.346zm0 .805v-.344h-.42v.345h.42zm0 .847v-.347h-.42v.347zm0 .805v-.346h-.42v.346zm.765-2.457v-.346h-.42v.346zm0 .805v-.344h-.42v.345h.42zm0 .847v-.347h-.42v.347zm0 .805v-.346h-.42v.346zm.804-2.457v-.346h-.46v.346zm0 .805v-.344h-.46v.345h.46zm0 .847v-.347h-.46v.347zm0 .805v-.346h-.46v.346zm.765-2.457v-.346h-.46v.346zm0 .805v-.344h-.46v.345h.46zm0 .847v-.347h-.46v.347zm0 .805v-.346h-.46v.346zm.765-2.457v-.346h-.612v.346zm0 .805v-.344h-.612v.345h.612zm0 .847v-.347h-.612v.347zm0 .805v-.346h-.612v.346zm.306-.346v.346h.46v-.346zm0-.805v.344h.46v-.345h-.46zm0-.847v.347h.46v-.347zm0-.805v.346h.46v-.346zM112.824 134v1H10.864v-1.076zm1.99-25.61v1.575H10.864v-1.575zm-4.132-26.262v.5H96.795v-.5zm-17.562 0v.5H10.866v-.5h82.257zm-30.834-23.92v.69H59.53v-.69h2.755zm.65 1.92h-.651v-.309H59.53v.309h-.65v-.961h4.054v.96zm-16.567.305v.693h-5.356v-.692h5.356zm0 3.841-.458.192v-2.035h.458v-.383h-5.356v.383h.536v2.918h-.497v-2.418h-.689v-1.69h6.657v1.69h-.65zm10.675-7.258v.692h-5.317v-.692zm0 4.532-.458.191v-2.723h.495v-.385h-5.356v.385h.536v3.838l-1.07.347v-.538h.573v-2.88h-.689v-1.957h6.771v1.688h-.687l-.115 2.035zm24.026-8.831v.691h-4.094v-.691h4.095zm.536 7.372h-.804V58.9h-.382v-4.34h.497v-.191h-3.94v.384h.497v4.184h-.497v1.192h-.651v-1.92h.65v-2.881h-.764V53.64h5.509v1.688h-.689v2.88h.574zm19.358-7.257v.691h-5.356v-.69zm.536 7.41h-.65v-1.228h-.42v-4.34h.534v-.305h-5.356v.344h.497V58.9h-.382v1.229h-.651v-1.92h.575v-2.881h-.689v-1.65h6.657v1.651h-.689v2.88h.574zm23.49-7.986v.768h-5.546v-.768h5.547zm-6.35-20.58v-3.842h-3.826v4.11l3.826-.27zm23.681 0 3.827.383v-4.262h-3.827zM130.54 0h.266v30.333h.422l3.1.346v-3.84h.535v3.84l6.886.767v-3.531h-.46v-.807l2.833-.653 2.946.5v.958h-.307v4.07l2.218.307.192.961h-16.68V31.6h-4.056v1.652h-16.566l.191-.96 2.219-.306v-4.072h-.345v-.958l2.946-.5 2.833.653v.844h-.46v3.38l6.886-.769v-3.84h.575v3.84l3.137-.347h.42V0zm4.054 41.314a4.262 4.262 0 0 1 1.659-2.492 4.234 4.234 0 0 1 5.564.536 4.276 4.276 0 0 1 1.156 2.763v1.113h-.344v-1.113a3.846 3.846 0 0 0-1.12-2.716 3.82 3.82 0 0 0-5.412 0 3.846 3.846 0 0 0-1.12 2.716v1.075h-.611v-1.114a3.846 3.846 0 0 0-1.122-2.715 3.818 3.818 0 0 0-5.41 0 3.846 3.846 0 0 0-1.12 2.715v1.114h-.458V42.12a3.847 3.847 0 0 0-1.122-2.716 3.818 3.818 0 0 0-5.41 0 3.846 3.846 0 0 0-1.12 2.716v1.113h-.308V42.12a4.308 4.308 0 0 1 1.254-2.965 4.277 4.277 0 0 1 2.954-1.26c.978 0 1.925.342 2.678.965a4.233 4.233 0 0 1 1.455 2.453 4.304 4.304 0 0 1 1.379-2.367 4.277 4.277 0 0 1 2.524-1.05 4.251 4.251 0 0 1 4.054 3.417zm-10.177.999v8.83h-4.398v-8.87c0-.58.23-1.136.639-1.546a2.177 2.177 0 0 1 1.541-.641 2.225 2.225 0 0 1 2.22 2.227zm6.123-2.227c.582 0 1.14.229 1.555.638.416.41.652.967.663 1.55v8.87h-4.476v-8.87a2.194 2.194 0 0 1 1.399-2.045 2.21 2.21 0 0 1 .857-.143zm-15.035-4.684h.458v21.04h-.458zm-2.488 0h.841v21.04h-.918zm17.521 79.556h15.802v.614h-15.802l6.811 2.535-6.81-1.844-6.924 1.844 6.923-2.535h-15.683v-.614h15.686zm18.289-80.863v.846h-36.652v-.846zM130.54 57.478h18.25v.5h-36.54v-.5h18.286zm17.52-22.076v21.04h-.804v-21.04zm-2.449 0v21.04h-.497v-21.04zm-8.99 6.91a2.194 2.194 0 0 1 1.337-2.057 2.216 2.216 0 0 1 3.062 2.019v8.87h-4.476zm-6.084 9.79h2.756v.769h-5.587v-.768h2.832zm5.51 0h5.509v.769h-5.585zm5.509 3.84h.841v.731H118.68v-.73h.84v-.96h5.549v.96h2.715v-.96h5.434v.96h2.754v-.96h5.509l.076.96zm57.656 4.685 51.725 13.323h-3.826l-46.637-11.518H60.678L14.004 73.95h-3.828l51.496-13.286h50.426V59.36h36.728v1.305l50.386-.037zm-39.675-.576v-1.842h.536v-2.881h-.65v-1.65h6.657v1.651h-.688v2.88h.573v1.88h-.65v-1.228h-.344v-4.186h.535v-.305h-5.51v.344h.498V58.9h-.382v1.229zm.536-7.41h5.356v.69h-5.432zm19.13 7.257v-1.69h.574v-2.88h-.688V53.64h5.546v1.688h-.535v2.88h.574v1.843h-.574v-1.19h-.422v-4.3h.422v-.192h-4.246v.384h.42v4.184h-.42v1.192zm.535-7.372h4.362v.69h-4.246zm24.026 8.83v-1.881h-.534v-1.651h6.694v1.69h-.688v2.879h.574v.539l-1.071-.348v-3.838h.535v-.385h-5.433v.385h.535v2.726l-.612-.115zm0-4.53h5.395v.691h-5.318zm10.943 7.295v-1.037h-.689v-1.69h6.657v1.69h-.651v2.42h-.497v-3.072h.497v-.383h-5.356v.383h.536v1.88zm0-3.84h5.356v.692h-5.356zm-16.49-.345v-.96h4.056v.96h-.65v-.306h-2.984v.306zm.65-1.92h2.755v.691h-2.983zm-68.329 18.737H258.59v1.729H2.257v-1.729zm124.61-5.989h2.027v1.382h-.382l.382 3.84h-89.792v-3.84h-2.87v3.84h-.344v-3.84h-14.003v3.84h-.307v-3.84h-2.907v3.84h-.344v-6.259h-11.745a4.46 4.46 0 0 0-1.474-2.765 4.429 4.429 0 0 0-5.852 0 4.46 4.46 0 0 0-1.474 2.765h-11.745v6.143h-.306v-3.84h-2.908v3.84h-.345v-3.84H96.756v3.84h-.305v-3.84h-2.87v3.84H3.864l.383-3.84h-.42v-1.38h2.026v1.38h-.382l.345 3.225h87.42V72.03h-.688v-1.457h21.463v-.847h-.575v-1.458h12.091v.192a5.257 5.257 0 0 1 1.912-2.567 5.227 5.227 0 0 1 6.083 0 5.259 5.259 0 0 1 1.913 2.568v-.194h12.052v1.46h-.536v.96h21.425v1.459h-.69v3.225h87.46l.345-3.225h-.42zm-124.608-3.61a2.978 2.978 0 0 1 2.756 1.849 3.007 3.007 0 0 1-.647 3.263 2.98 2.98 0 0 1-5.094-2.117 3 3 0 0 1 .875-2.117 2.977 2.977 0 0 1 2.11-.877zm0 12.248h127.13v.807H3.29v-.805h127.246zm0 2.727h16.068v.5h-32.252v-.5zm37.378 0h82.14v.5h-82.216zm-17.6 0h13.927v.5h-14.002zm-4.13 26.262h103.87v1.575H146.11zm1.989 25.61h101.881v1H148.1zm0 6.067H257.71v5.3h-11.096v-2.688h-6.197v2.879h-11.056v-2.88h-6.16v2.88h-11.057v-2.88h-6.198v2.88h-11.057v-2.88h-6.16v2.88h-11.095v-2.88h-6.158v2.88h-11.058v-2.88h-6.198v2.88h-6.772v-7.333h-.841v-23.268h.841v-.884h-.841v-1.344h-32.252v1.344h-.842v.884h.842v23.268h-.842v7.141h-6.808v-2.687h-6.16v2.879H89.488v-2.88H83.29v2.88H72.233v-2.88h-6.16v2.88H54.98v-2.88h-6.16v2.88H37.762v-2.88h-6.199v2.88H20.507v-2.88h-6.16v2.88H3.213v-5.49h109.65v-2.496h.841v-22.115h-.84v-1.883h.84v-1.344h33.553v1.344h.842v1.881h-.842v22.116h.842zm-3.52-34.863h.88v6.527h-.88zm-10.674-15.857H145v.844h-11.017zm-.497-.884v-2.342h12.013v2.342h-.996v-.5H145v-.344h-11.017v.345h.382v.5h-.88zm11.133 2.265v14.015h-.384V90.73zm-9.871 0v14.015h-.383V90.73zm102.916-2.265v-2.342h11.86v2.342h-.995v-.5h.612v-.344h-11.133v.345h.497v.5h-.841zm-17.255 0v-2.342h11.899v2.342h-1.033v-.5h.534v-.344h-11.056v.345h.497v.5h-.841zm-17.217 0v-2.342h12.013v2.342h-.994v-.5h.497v-.344h-11.171v.345h.497v.5h-.842zm-17.255 0v-2.342h12.014v2.342h-.995v-.5h.497v-.344H186.28v.345h.499v.5h-.843zm-17.216 0v-2.342h12.014v2.342h-.995v-.5h.536v-.344h-11.248v.345h.536v.5h-.843zm-17.254 0v-2.342h12.013v2.342h-.995v-.5h.498v-.344H151.81v.345h.497v.5h-.84zm-5.203 18.161h103.794v.461H146.11zm105.784-20.657h4.438v-4.722h1.301v5.414h-.65v52.68h-1.799V86.466h-3.29zm-.65-4.722v58.17h-.497v-58.17zM136.391 91.919h6.198v12.825h-6.197V91.92zm52.338 0h6.16v14.091h-6.16zm17.217 0h6.198v14.091h-6.198zm17.255 0h6.16v14.091h-6.16zm17.216 0h6.197v14.091h-6.197zm-87.994-1.19v15.36h-.384v-15.36zm-.765-1.38h11.017v.843H151.81zm17.253 0h10.98v.843h-10.827zm17.256 0h10.98v.843h-10.828zm17.216 0h11.324v.843h-11.171zm17.254 0h10.981v.843h-10.827zm17.216 0h11.287v.843h-11.133zm10.637 1.38v15.36h-.383v-15.36zm-9.87 0v15.36h-.384v-15.36zm-7.346 0v15.36h-.422v-15.36zm-9.871 0v15.36h-.422v-15.36zm-7.384 0v15.36h-.421v-15.36zm-9.871 0v15.36h-.383v-15.36zm-7.385 0v15.36h-.381v-15.36zm-9.831 0v15.36h-.421v-15.36zm-7.385 0v15.36h-.42v-15.36zm-9.87 0v15.36h-.421v-15.36zm-7.384 0v15.36h-.383v-15.36zm9.029 1.192h6.16v14.09h-6.006zm-17.254 0h6.197v14.09h-6.045zm-2.41 26.415h11.017v.845H151.81zm17.253 0h10.98v.845h-10.827zm17.256 0h10.98v.845h-10.828zm17.216 0h11.324v.845h-11.171zm17.254 0h10.981v.845h-10.827zm17.216 0h11.287v.845h-11.133zm-75.714 1.037v14.015h-.42v-14.015zm7.653 0v14.015h-.384v-14.015zm9.564 0v14.015h-.23v-14.015zm7.652 0v14.015h-.42v-14.015zm9.526 0v14.015h-.383v-14.015zm7.653 0v14.015h-.383v-14.015zm9.564 0v14.015h-.421v-14.015zm7.652 0v14.015h-.422v-14.015zm9.564 0v14.015h-.42v-14.015zm7.652 0v14.015h-.422v-14.015zm9.527 0v14.015h-.383v-14.015zm-95.647 0v14.015h-.383v-14.015zm-3.826 18.853h101.423v.614H148.75zm39.98-17.662h6.16v12.824h-6.084zm17.216 0h6.198v12.824h-6.121zm17.255 0h6.159v12.824H223.2zm17.217 0h6.197v12.824h-6.12zm-68.865 0h6.158v12.824h-6.158zm-17.256 0h6.198v12.824h-6.198zm-23.681 27.184H261v2.188H0v-2.188zm37.302-35.018h82.216v.5h-82.294zm-17.523 0h13.888v.5h-13.964zm14.653-32.214v3.302h-.574v1.536h.42v20.695h-.344V85.508h-.42v-2.035h.574v-2.957zm2.487 0v2.957h.573v2.035h-.42v20.541h-.306V85.354h.382v-1.727h-.573v-3.11h.344zm0 30.217v2.957h.573v2.112h-.42v17.662h-.306v-17.892h.382v-1.727h-.573v-3.11h.344zm-2.487 0v3.303h-.574v1.536h.42v17.816h-.344v-17.586h-.42v-2.035h.574v-2.957zm-17.523-30.217v3.11h-.573v1.728h.382v20.695h-.306V85.508h-.42v-2.035h.573v-2.957zm2.487 0v2.957h.575v2.035h-.421v20.541h-.42V85.354h.42v-1.536h-.42v-3.302zm.191 30.217v2.957h.575v2.112h-.422v17.662h-.305v-17.892h.42v-1.536h-.726v-3.303zm-3.06 29.298v5.336h-7.192v-5.336zm-16.49-19.2h5.204l1.721.538.88.768.497 1.152v-3.84h-.994v.193h-14.5v.422h-.994v3.84l.458-1.152.919-.768 1.682-.537h1.416zm7.117-2.802h2.295v1.69h-.726v5.299h-.421v20.502h-16.682v-20.502h-.382v-5.145h-.765v-1.69h2.333v.422h14.195z" style="fill:#fff;stroke-width:1.3883"/></svg>