<svg xmlns="http://www.w3.org/2000/svg" width="261" height="109.145"><path fill-rule="evenodd" clip-rule="evenodd" d="M117.02 60.104h4.15v-1.919a9.108 9.108 0 0 1 2.976-5.925 9.313 9.313 0 0 1 6.239-2.391 9.32 9.32 0 0 1 6.24 2.391 9.111 9.111 0 0 1 2.976 5.925v1.92h4.189V48.098h-26.77z" style="fill:#fff;stroke-width:1.18636"/><path d="M120.408 61.083h-2.666v1.958h2.666zm22.662 0h-2.666v1.958h2.666z" style="fill:#fff;stroke-width:1.18636"/><path fill-rule="evenodd" clip-rule="evenodd" d="M251.898 20.664h-10.853v17.84h10.853zm-6.169 16.635h-2.819v-3.274h2.82zm0-4.44h-2.819v-3.05h2.82zm0-4.216h-2.819V25.82h2.82zm0-3.951h-2.819v-2.824h2.82zm4.112 12.607h-2.818v-3.274h2.818zm0-4.44h-2.818v-3.05h2.818zm0-4.216h-2.818V25.82h2.818zm0-3.951h-2.818v-2.824h2.818zm2.057 14.601h-10.853v4.291h10.853v-4.292zm-.534 1.355h-.875v2.409h-1.257v-2.409h-1.142v2.409h-1.142v-2.409h-1.143v2.409h-1.142v-2.409h-1.105v2.409h-1.142v-2.409h-.838v-.676h9.634zm-17.516-19.984h-10.7v17.84h10.7zm-5.978 16.635h-2.628v-3.274h2.817zm0-4.44h-2.628v-3.05h2.817zm0-4.216h-2.628V25.82h2.817zm0-3.951h-2.628v-2.824h2.817zm4.074 12.607h-2.894v-3.274h2.78zm0-4.44h-2.894v-3.05h2.78zm0-4.216h-2.894V25.82h2.78zm0-3.951h-2.894v-2.824h2.78zm1.904 14.601h-10.7v4.291h10.7v-4.292zm-.533 1.355h-.838v2.409h-1.142v-2.409h-1.142v2.409h-1.143v-2.409h-1.142v2.409h-1.143v-2.409h-1.142v2.409h-1.143v-2.409h-.761v-.676h9.596zm-17.327-19.984h-10.7v17.84h10.7zm-5.98 16.635h-2.817v-3.274h2.818zm0-4.516h-2.817v-3.05h2.818zm0-4.14h-2.817V25.82h2.818v2.823zm0-3.951h-2.817v-2.824h2.818zm4.114 12.607h-2.818v-3.274h2.818zm0-4.44h-2.818v-3.05h2.818zm0-4.216h-2.818V25.82h2.818zm0-3.951h-2.818v-2.824h2.818zm1.866 14.601h-10.7v4.291h10.7v-4.292zm-.534 1.355h-.837v2.409h-1.143v-2.409h-1.142v2.409h-1.143v-2.409h-1.18v2.409h-1.105v-2.409h-1.142v2.409h-1.141v-2.409h-.801v-.676h9.634zm-17.363-20.364H187.39v17.84h10.7zm-5.98 16.635h-2.817v-3.274h2.817zm0-4.441h-2.817v-3.05h2.817zm0-4.215h-2.817v-2.785h2.817zm0-3.951h-2.817v-2.823h2.817zm4.076 12.607h-2.78v-3.274h2.78zm0-4.441h-2.78v-3.05h2.78zm0-4.215h-2.78v-2.785h2.78zm0-3.951h-2.78v-2.823h2.78zm1.904 14.981H187.39v4.291h10.7v-4.292zm-.534 1.355h-.838v2.409h-1.142v-2.409h-1.105v2.409h-1.142v-2.409h-1.143v2.409h-1.218v-2.409h-1.143v2.409h-1.142v-2.409h-.8v-.676h9.597zM180.23 20.284h-10.701v17.84h10.701zm-6.017 16.635h-2.818v-3.274h2.818zm0-4.441h-2.818v-3.05h2.818zm0-4.215h-2.818v-2.785h2.818zm0-3.951h-2.818v-2.823h2.818zm4.113 12.607h-2.818v-3.274h2.818zm0-4.441h-2.818v-3.05h2.818zm0-4.215h-2.818v-2.785h2.818zm0-3.951h-2.818v-2.823h2.818zm1.904 14.981h-10.701v4.291h10.701v-4.292zm-.533 1.355h-.838v2.409h-1.142v-2.409h-1.142v2.409h-1.143v-2.409h-1.142v2.409h-1.105v-2.409h-1.256v2.409h-1.142v-2.409h-.838v-.676h9.595zm-17.36-20.364h-10.7v17.84h10.7zM156.36 36.92h-2.819v-3.274h2.82zm0-4.441h-2.819v-3.05h2.82zm0-4.215h-2.819v-2.785h2.82zm0-3.951h-2.819V21.49h2.82zm4.15 12.607h-2.818v-3.274h2.818zm0-4.441h-2.818v-3.05h2.818zm0-4.215h-2.818v-2.785h2.818zm0-3.951h-2.818V21.49h2.818zm1.828 19.272v-4.292h-10.7v4.291h10.7zm-10.129-3.764h9.635v.678h-.877v2.408h-1.143v-2.408h-1.103v2.408h-1.142v-2.408h-1.143v2.408h-1.142v-2.408h-1.143v2.408h-1.256v-2.408h-.839l.153-.677zm17.321 61.083h10.701v-17.84H169.53zm5.98-16.635h2.817v2.785h-2.818zm0 3.95h2.817v2.824h-2.818zm0 3.992h2.817v3.049h-2.818zm0 4.215h2.817V99.7h-2.818zm-4.114-12.157h2.818v2.785h-2.818zm0 3.95h2.818v2.824h-2.818zm0 3.992h2.818v3.049h-2.818zm0 4.215h2.818V99.7h-2.818zm15.995 4.478h10.7v-17.84h-10.7zm6.017-16.635h2.78v2.785h-2.78zm0 3.95h2.78v2.824h-2.78zm0 3.992h2.78v3.049h-2.78zm0 4.215h2.78V99.7h-2.78zm-4.113-12.157h2.817v2.785h-2.817zm0 3.95h2.817v2.824h-2.817zm0 3.992h2.817v3.049h-2.817zm0 4.215h2.817V99.7h-2.817zm15.993 4.478h10.701v-17.84h-10.7zm5.978-16.635h2.82v2.785h-2.82zm0 3.95h2.82v2.824h-2.82zm0 3.992h2.82v3.049h-2.82zm0 4.215h2.82V99.7h-2.82zm-4.112-12.157h2.856v2.785h-2.818zm0 3.95h2.856v2.824h-2.818zm0 3.992h2.856v3.049h-2.818zm0 4.215h2.856V99.7h-2.818zm15.995 4.478h10.7v-17.84h-10.7zm5.902-16.635h2.78v2.785h-2.78zm0 3.95h2.78v2.824h-2.78zm0 3.992h2.78v3.049h-2.78zm0 4.215h2.78V99.7h-2.78zm-3.808-12.157h2.817v2.785h-2.817zm0 3.95h2.817v2.824h-2.817zm0 3.992h2.817v3.049h-2.817zm0 4.215h2.817V99.7h-2.817zm26.656-13.287h-10.89v23.335h10.89zm-6.207 16.635h-2.817v-3.275h2.817zm0-4.44h-2.817v-3.05h2.817zm0-4.216h-2.817v-2.823h2.817zm0-3.99h-2.817v-2.785h2.817zm4.113 12.647h-2.817V96.5h2.817zm0-4.442h-2.817v-3.049h2.817zm0-4.215h-2.817v-2.823h2.817zm0-3.99h-2.817v-2.785h2.817zm-98.168 13.776h10.701v-17.84h-10.7zm6.017-16.635h2.856v2.785h-2.818zm0 3.95h2.856v2.824h-2.818zm0 3.992h2.856v3.049h-2.818zm0 4.215h2.856V99.7h-2.818zm-4.113-12.157h2.82v2.785h-2.82zm0 3.95h2.82v2.824h-2.82zm0 3.992h2.82v3.049h-2.82zm0 4.215h2.82V99.7h-2.82z" style="fill:#fff;stroke-width:1.18636"/><path fill-rule="evenodd" clip-rule="evenodd" d="M261 16.898v-1.202h-1.485V3.614h.875V2.408h-.875V0H1.37v2.408h-.8v1.206h.877v12.08H0v1.204h1.371v1.017H0v1.242h1.371v26.346H.57v1.24h.877v62.402h258.067V46.744h.876v-1.242h-.876V19.159H261v-1.245h-1.485v-1.017H261zM2.856 1.468H257.99v.94H2.856zm0 2.146H257.99v12.08H149.616V4.854h-1.105v40.649h-2.323V4.817h-31.376v40.685h-2.247V4.855h-1.143v10.84H2.856zm142.19 10.575L130.424 6.66l-14.547 7.528V5.946h29.169zm0 .64v.865h-29.17v-.866h29.17zm-29.17 2.07h29.17v1.016h-29.17zm0 2.258h29.17v26.346h-29.17zM2.857 16.898h108.49v1.017H2.856zm0 2.26h108.49v26.345H2.856zM116.6 84.267h1.18v23.41h-1.18zm21.058-1.205h-14.242V59.579a6.43 6.43 0 0 1 .734-2.51 6.533 6.533 0 0 1 1.674-2.024 6.618 6.618 0 0 1 2.343-1.21 6.667 6.667 0 0 1 2.637-.202 6.506 6.506 0 0 1 2.496.321 6.451 6.451 0 0 1 2.18 1.245 6.367 6.367 0 0 1 1.531 1.975 6.288 6.288 0 0 1 .647 2.405v23.485zm0 1.204v1.807a1.744 1.744 0 0 0-.686.623c-.167.265-.26.57-.266.882a1.69 1.69 0 0 0 .218.973 1.7 1.7 0 0 0 .734.684v18.441h-1.409V91.57a5.612 5.611 0 0 0-1.672-3.992 5.748 5.748 0 0 0-4.04-1.654 5.746 5.746 0 0 0-4.038 1.654 5.613 5.613 0 0 0-1.674 3.992v16.108h-1.37V89.236c.33-.117.619-.33.823-.613a1.685 1.685 0 0 0 .319-.969 1.713 1.713 0 0 0-.326-.963 1.744 1.744 0 0 0-.817-.617v-1.732zm6.816 23.41h-1.18v-23.41h1.18zm-3.808 0H138.8v-18.44c.383-.085.727-.293.975-.594a1.72 1.72 0 0 0 .396-1.063 1.756 1.756 0 0 0-.403-1.055 1.793 1.793 0 0 0-.968-.6v-1.657h1.866zm-9.367-14.15c.402-.148.73-.445.913-.828h1.638v10.65h-2.818zm1.028-1.883a1.656 1.656 0 0 0-1.104-1.242v-2.483a3.335 3.335 0 0 1 2.822 2.458c.112.426.135.87.071 1.305zm-2.285-1.242a1.71 1.71 0 0 0-1.066 1.242h-1.98a3.278 3.278 0 0 1 .634-2.47 3.374 3.374 0 0 1 2.221-1.293zm-.952 2.297c.18.37.492.665.876.828v9.823h-2.818v-10.65zm-6.664-6.7a1.75 1.75 0 0 0-.816.617 1.721 1.721 0 0 0-.03 1.977c.206.296.502.522.846.643v18.441H120.6v-23.41h1.827zm135.602 21.678H146.99V63.604h-2.703v19.459h-1.182V63.605h-2.665v19.458h-1.866V59.579a7.492 7.492 0 0 0-2.386-5.033 7.667 7.667 0 0 0-5.23-2.043 7.7 7.7 0 0 0-3.09.256 7.64 7.64 0 0 0-2.73 1.45 7.549 7.549 0 0 0-1.92 2.408 7.47 7.47 0 0 0-.79 2.962v23.485H120.6V63.605h-2.666v19.458h-1.18V63.605h-2.705v44.072H2.857V46.743h111.956v14.339h-.84v1.807h2.667V60.93h-.686V46.743h29.17v14.339h-.761v1.807h2.665V60.93h-.761V46.743H258.03v60.933zm0-62.175H149.616V19.159h108.413v26.345zm0-27.587H149.616v-1.017h108.413z" style="fill:#fff;stroke-width:1.18636"/><path fill-rule="evenodd" clip-rule="evenodd" d="M236.669 106.36V59.578a7.494 7.494 0 0 0-2.2-4.801 7.654 7.654 0 0 0-4.846-2.2l.267-2.633h-2.78l.305 2.633a7.657 7.657 0 0 0-4.846 2.2 7.486 7.486 0 0 0-2.198 4.8v43.32h-1.6v-43.32a7.486 7.486 0 0 0-2.2-4.801 7.657 7.657 0 0 0-4.845-2.2l.304-2.634h-2.78l.268 2.634a7.656 7.656 0 0 0-4.894 2.176 7.492 7.492 0 0 0-2.228 4.825v43.32h-1.561v-43.32a7.486 7.486 0 0 0-2.199-4.801 7.657 7.657 0 0 0-4.846-2.2l.267-2.634h-2.704l.305 2.634a7.657 7.657 0 0 0-4.846 2.2 7.486 7.486 0 0 0-2.198 4.8v43.32h-1.6v-43.32a7.486 7.486 0 0 0-2.2-4.8 7.657 7.657 0 0 0-4.845-2.2l.304-2.634h-2.78l.268 2.634a7.657 7.657 0 0 0-4.847 2.2 7.494 7.494 0 0 0-2.2 4.8v43.32h-1.56v-43.32a7.486 7.486 0 0 0-2.199-4.8 7.657 7.657 0 0 0-4.846-2.2l.267-2.634h-2.78l.305 2.634a7.657 7.657 0 0 0-4.846 2.2 7.494 7.494 0 0 0-2.2 4.8v43.32h-.341v3.538h88.155zm-15.233-46.782a6.333 6.333 0 0 1 2.11-4.311 6.485 6.485 0 0 1 4.555-1.635 6.665 6.665 0 0 1 2.636.201 6.623 6.623 0 0 1 2.344 1.21 6.53 6.53 0 0 1 1.673 2.023 6.466 6.466 0 0 1 .734 2.512v43.32h-14.052zm-17.86 0a6.295 6.295 0 0 1 2.1-4.323 6.442 6.442 0 0 1 4.565-1.623 6.703 6.703 0 0 1 2.632.213 6.663 6.663 0 0 1 2.338 1.21 6.58 6.58 0 0 1 1.674 2.02 6.501 6.501 0 0 1 .744 2.503v43.32h-14.015zm-17.897 0a6.333 6.333 0 0 1 2.11-4.311 6.483 6.483 0 0 1 4.554-1.635 6.74 6.74 0 0 1 2.695.15c.878.233 1.7.639 2.413 1.196a6.62 6.62 0 0 1 1.736 2.044c.43.79.694 1.661.772 2.556v43.32H185.87zm-17.86 0a6.333 6.333 0 0 1 2.11-4.311 6.483 6.483 0 0 1 4.554-1.635 6.67 6.67 0 0 1 4.971 1.425 6.58 6.58 0 0 1 1.674 2.016c.415.777.668 1.63.743 2.505v43.32h-14.014zm-17.897 0a6.335 6.335 0 0 1 2.15-4.353 6.482 6.482 0 0 1 4.629-1.593 6.703 6.703 0 0 1 2.7.139 6.65 6.65 0 0 1 2.418 1.194 6.558 6.558 0 0 1 1.735 2.049c.43.794.69 1.667.762 2.564v43.32h-14.09z" style="fill:#fff;stroke-width:1.18636"/><path d="M238.116 21.414h-1.41v23.223h1.41zm.758-1.58h-2.931v1.054h2.931zm1.104 60.93h-2.932v1.054h2.932zm15.575 0h-2.931v1.054h2.931zm.344-59.35h-1.408v23.223h1.408zm.76-1.58h-2.933v1.054h2.933zm-54.303 1.58h-1.409v23.223h1.41zm.763-1.58h-2.932v1.054h2.932zm-18.735 1.58h-1.41v23.223h1.41zm.763-1.58h-2.931v1.054h2.931zm-18.544 1.58h-1.41v23.223h1.41zm.758-1.58h-2.931v1.054h2.931zm52.971 1.58h-1.41v23.223h1.41zm.763-1.58h-2.931v1.054h2.931zm-.763-13.397h-1.41v8.543h1.41zm.763-1.617h-2.931v1.054h2.931zm17.023 1.617h-1.41v8.543h1.41zm.758-1.617h-2.931v1.054h2.931zm17.023 1.617h-1.408v8.543h1.408zm.76-1.617h-2.933v1.054h2.933zM166.6 6.437h-1.41v8.543h1.41zm.758-1.617h-2.931v1.054h2.931zm17.023 1.617h-1.41v8.543h1.41zm.763-1.617h-2.931v1.054h2.931zm17.21 1.617h-1.41v8.543h1.41zm.762-1.617h-2.932v1.054h2.932z" style="fill:#fff;stroke-width:1.18636"/><path fill-rule="evenodd" clip-rule="evenodd" d="M162.639 4.74h-11.424v10.24h11.424zm-1.104 9.221h-9.064V5.832h9.064zm18.964-9.22h-11.423v10.238h11.423zm-.951 9.22h-9.178V5.832h9.178zm19.039-9.22h-11.424v10.238h11.424zm-1.295 9.22h-9.064V5.832h9.064zm18.965-9.22h-11.424v10.238h11.424zm-1.104 9.22h-8.949V5.832h9.025zm19.002-9.22H222.73v10.238h11.425zm-1.296 9.22h-8.872V5.832h8.872zm19.04-9.22h-11.424v10.238h11.424zm-.99 9.22h-9.063V5.832h9.063zm.99 59.957h-.686V59.994a4.863 4.863 0 0 0-1.062-2.927 4.958 4.958 0 0 0-2.633-1.703l.267-2.446h-2.78l.267 2.447a4.914 4.914 0 0 0-2.594 1.794 4.817 4.817 0 0 0-.948 2.986v13.924h-.685v5.081h10.853zm-1.867-4.665V72.3h-2.818v-3.048zm-2.818-1.168v-2.822h2.818v2.823h-2.818zm2.818-3.988h-2.818V61.31h2.818zm0-3.765h-2.857V56.57c1.639.037 2.666 1.693 2.666 3.65zm-3.808-3.763v3.763h-2.856c-.38-2.07.647-3.725 2.475-3.8zm-2.894 4.78h2.818v2.784h-2.818zm0 3.95h2.818v2.824h-2.818zm0 3.991h2.818v3.05h-2.818zm8.263 6.473h-1.218v2.183h-1.143v-2.371h-1.142v2.371h-1.142v-2.371h-1.143v2.371h-1.104v-2.371h-1.143v2.371h-1.142v-2.371h-.838v-.677h9.634zm-89.941-15.055a4.611 4.611 0 0 0-1.207-3.539 4.695 4.695 0 0 0-1.568-1.115 4.73 4.73 0 0 0-5.349 1.115 4.59 4.59 0 0 0-1.206 3.54v13.21h-.686v5.08h10.701v-5.08h-.685V60.705zm-3.809 8.091v-2.784h2.666v2.784zm2.82 1.168v3.049h-2.82v-3.05zm-2.82-5.12v-2.823h2.666v2.824zm0-7.527a3.373 3.373 0 0 1 2.222 1.293 3.297 3.297 0 0 1 .635 2.471h-2.857zm-1.142 0v3.764h-2.894a3.277 3.277 0 0 1 .535-2.46 3.355 3.355 0 0 1 2.131-1.379zm-2.894 4.781h2.78v2.822h-2.78V62.1zm0 3.989h2.78v2.785h-2.78zm0 3.951h2.78v3.05h-2.78zm7.617 6.625-.381.263a6.914 6.914 0 0 1-7.617 0l-.38-.263a.52.52 0 0 1 0-.753.537.537 0 0 1 .761 0l.381.263a5.905 5.905 0 0 0 2.361.904 1.31 1.31 0 0 1-.229-.64c0-.29.117-.568.324-.772a1.11 1.11 0 0 1 1.562 0 1.087 1.087 0 0 1 .323.771 1.31 1.31 0 0 1-.228.641 5.912 5.912 0 0 0 2.361-.904l.38-.263a.573.573 0 0 1 .763 0 .53.53 0 0 1-.572.677zM233.164 79h.684v-5.082h-.685V60.706a4.59 4.59 0 0 0-1.208-3.539 4.729 4.729 0 0 0-6.915 0 4.61 4.61 0 0 0-.981 1.644 4.57 4.57 0 0 0-.225 1.896v13.21h-.686v5.08h10.015zm-3.81-10.2v-2.785h2.819v2.784zm2.819 1.167v3.049h-3.123v-3.05zm-3.123-5.12v-2.823h2.818v2.824zm0-7.527a3.4 3.4 0 0 1 1.254.418c.386.22.723.513.992.865a3.283 3.283 0 0 1 .648 2.481h-2.894zm-1.142 0v3.764h-2.666a3.281 3.281 0 0 1 .55-2.472 3.354 3.354 0 0 1 2.154-1.367zm-2.666 4.705h2.817v2.824h-2.817zm0 3.99h2.817v2.784h-2.817zm0 3.95h2.817v3.05h-2.817zm-.914 5.873a.537.537 0 0 1 .762 0l.38.263a5.662 5.662 0 0 0 2.362.903 1.01 1.01 0 0 1-.23-.64 1.09 1.09 0 0 1 .616-1.19 1.115 1.115 0 0 1 1.32.291 1.074 1.074 0 0 1 .236.9 1.01 1.01 0 0 1-.23.64 5.479 5.479 0 0 0 2.362-.904l.38-.263a.615.615 0 0 1 .8 0 .561.561 0 0 1 0 .752l-.419.264a6.755 6.755 0 0 1-3.808 1.167 6.87 6.87 0 0 1-3.807-1.167l-.38-.264a.535.535 0 0 1-.586-.482.534.534 0 0 1 .051-.27zM215.302 79h.686v-5.083h-.724v-13.21a4.567 4.567 0 0 0-1.36-3.247 4.675 4.675 0 0 0-3.285-1.344 4.672 4.672 0 0 0-3.285 1.344 4.562 4.562 0 0 0-1.361 3.247v13.21h-.686v5.081h10.015zm-3.808-10.2v-2.786h2.818v2.785zm2.818 1.166v3.048h-2.818v-3.048zm-2.818-5.118v-2.824h2.818v2.824zm0-7.528a3.346 3.346 0 0 1 2.222 1.293c.265.35.458.749.567 1.174.11.423.132.864.067 1.296h-2.856zm-1.142 0v3.763h-2.856c-.267-1.957.762-3.725 2.513-3.839zm-2.894 4.78h2.55v2.823h-2.817zm0 3.99h2.55v2.784h-2.817zm0 3.95h2.55v3.05h-2.817zm-1.257 5.797a.578.578 0 0 1 .761 0l.42.263a5.49 5.49 0 0 0 2.361.904 1.01 1.01 0 0 1-.229-.64 1.055 1.055 0 0 1 1.067-1.092c.293 0 .573.115.78.32a1.09 1.09 0 0 1 .324.772 1.01 1.01 0 0 1-.229.64 5.674 5.674 0 0 0 2.361-.904l.38-.263a.537.537 0 0 1 .763 0 .52.52 0 0 1 0 .753l-.381.264a6.875 6.875 0 0 1-3.808 1.166 6.953 6.953 0 0 1-3.809-1.166l-.38-.264a.57.57 0 0 1-.381-.753zm-8.796-15.129a4.59 4.59 0 0 0-1.207-3.54 4.693 4.693 0 0 0-3.458-1.506c-.651 0-1.294.134-1.89.393a4.681 4.681 0 0 0-1.568 1.113 4.611 4.611 0 0 0-1.207 3.54v13.21h-.685v5.08h10.7v-5.08h-.685V60.706zm-3.808 8.091v-2.784h2.817v2.784zm2.817 1.168v3.049h-2.817v-3.05zm-2.817-5.12v-2.823h2.817v2.824zm0-7.527a3.4 3.4 0 0 1 1.254.418 3.337 3.337 0 0 1 1.57 2.04c.11.427.135.871.07 1.305h-2.894zm-1.143 0v3.764H189.6a3.28 3.28 0 0 1 .506-2.439 3.354 3.354 0 0 1 2.082-1.4zm-2.855 4.781h2.78v2.822h-2.78V62.1zm0 3.989h2.78v2.785h-2.78zm0 3.951h2.78v3.05h-2.78zm7.615 6.625-.38.263a6.947 6.947 0 0 1-3.808 1.167 6.871 6.871 0 0 1-3.808-1.167l-.38-.263a.52.52 0 0 1 0-.753.537.537 0 0 1 .76 0l.382.263a5.899 5.899 0 0 0 2.36.904 1.008 1.008 0 0 1-.229-.64c0-.29.117-.568.324-.772a1.108 1.108 0 0 1 1.199-.237 1.068 1.068 0 0 1 .578.593 1.056 1.056 0 0 1 .07.415 1.008 1.008 0 0 1-.229.641 5.476 5.476 0 0 0 2.361-.904l.42-.263a.578.578 0 0 1 .76 0 .555.555 0 0 1-.347.64.578.578 0 0 1-.26.037zm-17.67-15.958a4.57 4.57 0 0 0-.225-1.895 4.632 4.632 0 0 0-.981-1.645 4.672 4.672 0 0 0-1.569-1.113 4.73 4.73 0 0 0-5.348 1.113 4.59 4.59 0 0 0-1.206 3.54v13.21h-.686v5.08h10.701v-5.08h-.686V60.706zm-3.808 8.091v-2.784h2.819v2.784zm2.819 1.168v3.049h-2.819v-3.05zm-2.819-5.12v-2.823h2.819v2.824zm0-7.527a3.373 3.373 0 0 1 2.222 1.293 3.297 3.297 0 0 1 .635 2.471h-2.857zm-1.142 0v3.764h-2.856c-.267-1.957.762-3.725 2.59-3.839zm-2.894 4.781h2.818v2.822H171.7V62.1zm0 3.989h2.818v2.785H171.7zm0 3.951h2.818v3.05H171.7zm7.616 6.625-.38.263a6.837 6.837 0 0 1-7.617 0l-.419-.263a.561.561 0 0 1 0-.753.612.612 0 0 1 .8 0l.38.263a5.482 5.482 0 0 0 2.362.904 1.008 1.008 0 0 1-.23-.64 1.09 1.09 0 0 1 .618-1.19 1.107 1.107 0 0 1 .938 0 1.087 1.087 0 0 1 .616 1.19 1.016 1.016 0 0 1-.228.64 5.488 5.488 0 0 0 2.36-.904l.382-.263a.52.52 0 0 1 .38-.158.543.543 0 0 1 .381.158.53.53 0 0 1-.571.677z" style="fill:#fff;stroke-width:1.18636"/><path d="M251.822 80.843h-10.815v1.055h10.815z" style="fill:#fff;stroke-width:1.18636"/><path fill-rule="evenodd" clip-rule="evenodd" d="M112.105 59.578a7.488 7.488 0 0 0-2.2-4.801 7.656 7.656 0 0 0-4.845-2.2l.305-2.634h-2.78l.305 2.634a7.657 7.657 0 0 0-4.894 2.176 7.49 7.49 0 0 0-2.227 4.825v43.32h-1.524v-43.32a7.488 7.488 0 0 0-2.2-4.801 7.656 7.656 0 0 0-4.846-2.2l.305-2.634h-2.78l.267 2.634a7.656 7.656 0 0 0-4.846 2.2 7.488 7.488 0 0 0-2.199 4.8v43.32h-1.56v-43.32a7.488 7.488 0 0 0-2.2-4.8 7.656 7.656 0 0 0-4.845-2.2l.265-2.634h-2.778l.305 2.634a7.656 7.656 0 0 0-4.847 2.2 7.488 7.488 0 0 0-2.198 4.8v43.32h-1.6v-43.32a7.488 7.488 0 0 0-2.2-4.8 7.656 7.656 0 0 0-4.846-2.2l.305-2.634h-2.78l.267 2.634a7.656 7.656 0 0 0-4.846 2.2 7.488 7.488 0 0 0-2.199 4.8v43.32h-1.56v-43.32a7.488 7.488 0 0 0-2.2-4.8 7.656 7.656 0 0 0-4.847-2.2l.267-2.634h-2.817l.305 2.634a7.656 7.656 0 0 0-4.847 2.2 7.488 7.488 0 0 0-2.198 4.8v46.782h88.193v-3.537h-.38V59.579zm-15.232 0a6.494 6.494 0 0 1 .743-2.503 6.552 6.552 0 0 1 1.674-2.018 6.654 6.654 0 0 1 2.339-1.213 6.702 6.702 0 0 1 2.631-.213 6.482 6.482 0 0 1 4.603 1.608 6.333 6.333 0 0 1 2.138 4.339v43.32H96.95zm-17.898 0a6.53 6.53 0 0 1 .757-2.507 6.604 6.604 0 0 1 1.685-2.017 6.692 6.692 0 0 1 2.346-1.21 6.74 6.74 0 0 1 2.639-.213 6.48 6.48 0 0 1 4.554 1.636 6.333 6.333 0 0 1 2.11 4.31v43.32H78.974zm-17.86 0a6.492 6.492 0 0 1 .744-2.503 6.552 6.552 0 0 1 1.674-2.018 6.655 6.655 0 0 1 2.339-1.213 6.702 6.702 0 0 1 2.631-.213 6.48 6.48 0 0 1 4.556 1.636 6.333 6.333 0 0 1 2.109 4.31v43.32H61.193zm-17.859 0a6.454 6.454 0 0 1 .707-2.475 6.525 6.525 0 0 1 1.62-2.01 6.61 6.61 0 0 1 2.283-1.235 6.663 6.663 0 0 1 2.586-.264h.191a6.48 6.48 0 0 1 4.556 1.635 6.332 6.332 0 0 1 2.11 4.31v43.359H43.332zm-10.51-5.946a6.482 6.482 0 0 1 4.58 1.62 6.333 6.333 0 0 1 2.123 4.326v43.32H25.434v-43.32a6.49 6.49 0 0 1 .745-2.503 6.565 6.565 0 0 1 1.673-2.018 6.654 6.654 0 0 1 2.339-1.213 6.7 6.7 0 0 1 2.63-.213h-.075zM9.254 38.503h10.7V20.664h-10.7zm5.979-16.635h2.818v2.824h-2.818zm0 3.952h2.818v2.823h-2.818zm0 3.99h2.818v2.973h-2.818zm0 4.215h2.818v3.274h-2.818zm-4.074-12.157h2.818v2.824h-2.818zm0 3.952h2.818v2.823h-2.818zm0 3.99h2.818v2.973h-2.818zm0 4.215h2.818v3.274h-2.818zm-1.905 9.56h10.7v-4.293h-10.7v4.291zm.534-3.765h9.824v.678h-1.028v2.408h-1.142v-2.408h-1.143v2.408h-1.142v-2.408h-1.142v2.408H12.91v-2.408h-1.143v2.408h-1.143v-2.408h-.838v-.677zm17.439-1.317h10.7V20.664H27.226v17.84zm5.901-16.635h2.819v2.824h-2.819zm0 3.952h2.819v2.823h-2.819zm0 3.99h2.819v2.973h-2.819zm0 4.215h2.819v3.274h-2.819zm-4.112-12.157h2.818v2.824h-2.818zm0 3.952h2.818v2.823h-2.818zm0 3.99h2.818v2.973h-2.818zm0 4.215h2.818v3.274h-2.818zm-1.789 9.56h10.7v-4.293H27.226v4.291zm.533-3.765h9.633v.678h-.838v2.408h-1.142v-2.408H34.27v2.408h-1.103v-2.408h-1.142v2.408h-1.143v-2.408H29.74v2.408h-1.143v-2.408h-.837v-.677zm17.252-1.317h10.7V20.664h-10.7zm5.98-16.635h2.894v2.824h-2.819zm0 3.952h2.894v2.823h-2.819zm0 3.99h2.894v2.973h-2.819zm0 4.215h2.894v3.274h-2.819zm-4.076-12.157h2.78v2.824h-2.78zm0 3.952h2.78v2.823h-2.78zm0 3.99h2.78v2.973h-2.78zm0 4.215h2.78v3.274h-2.78zm-1.904 9.56h10.7v-4.293h-10.7v4.291zm.534-3.765h9.596v.678h-.8v2.408H53.2v-2.408h-1.144v2.408h-1.14v-2.408h-1.143v2.408h-1.105v-2.408h-1.142v2.408h-1.258v-2.408h-.837l.115-.677zm17.322-1.696h10.7v-17.84h-10.7zm6.017-16.635h2.818v2.823h-2.818zm0 3.99h2.818v2.784h-2.818zm0 3.762h2.818v3.05h-2.818zm0 4.216h2.818v3.274h-2.818zm-4.113-11.968h2.818v2.823h-2.818zm0 3.99h2.818v2.784h-2.818zm0 3.762h2.818v3.05h-2.818zm0 4.216h2.818v3.274h-2.818zm-1.904 10.127h10.7v-4.292h-10.7v4.291zm.534-3.764h9.519v.678h-.838v2.408h-1.142v-2.408h-1.142v2.408h-1.104v-2.408h-1.143v2.408h-1.143v-2.408h-1.103v2.408h-1.143v-2.408h-.761v-.677zm17.363-1.696h10.701v-17.84h-10.7zm5.98-16.635h2.817v2.823h-2.817zm0 3.99h2.817v2.784h-2.817zm0 3.762h2.817v3.05h-2.817zm0 4.216h2.817v3.274h-2.817zM82.63 21.489h2.818v2.823H82.63zm0 3.99h2.818v2.784H82.63zm0 3.762h2.818v3.05H82.63zm0 4.216h2.818v3.274H82.63zm-1.865 10.127h10.701v-4.292h-10.7v4.291zm.495-3.764h9.634v.678h-.837v2.408h-1.103v-2.408H87.81v2.408h-1.143v-2.408h-1.142v2.408h-1.18v-2.408H83.24v2.408H82.1v-2.408h-.877l.038-.677zm17.37-19.536v17.84h10.702v-17.84zm4.76 16.635h-2.817v-3.274h2.817zm0-4.441h-2.817v-3.05h2.817zm0-4.215h-2.817v-2.785h2.817zm0-3.951h-2.817v-2.823h2.817zm4.074 12.607h-2.78v-3.274h2.782v3.274zm0-4.441h-2.78v-3.05h2.782v3.05zm0-4.215h-2.78v-2.785h2.782v2.785zm0-3.951h-2.78v-2.823h2.782v2.823zm-8.833 19.272h10.7v-4.292h-10.7v4.291zm.534-3.764h9.633v.678h-.839v2.408h-1.142v-2.408h-1.143v2.408h-1.142v-2.408h-1.143v2.408h-1.142v-2.408h-1.143v2.408h-1.142v-2.408h-.838l.038-.677z" style="fill:#fff;stroke-width:1.18636"/><path fill-rule="evenodd" clip-rule="evenodd" d="M80.765 100.903h10.701V83.064h-10.7zm5.98-16.635h2.817v2.785h-2.817zm0 3.95h2.817v2.824h-2.817zm0 3.992h2.817v3.049h-2.817zm0 4.215h2.817v3.274h-2.817zM82.63 84.267h2.818v2.784H82.63zm0 3.95h2.818v2.824H82.63zm0 3.992h2.818v3.048H82.63zm0 4.215h2.818v3.274H82.63zm-19.762 4.48h10.7v-17.84h-10.7zm6.017-16.636h2.818v2.785h-2.818zm0 3.95h2.818v2.824h-2.818zm0 3.992h2.818v3.049h-2.818zm0 4.215h2.818v3.274h-2.818zm-4.113-12.158h2.818v2.784h-2.818zm0 3.95h2.818v2.824h-2.818zm0 3.992h2.818v3.048h-2.818zm0 4.215h2.818v3.274h-2.818zm-19.76-13.36v17.84h10.7v-17.84zM49.696 99.7h-2.78v-3.274h2.78zm0-4.442h-2.78V92.21h2.78zm0-4.215h-2.78V88.22h2.78zm0-3.99h-2.78v-2.784h2.78zM53.885 99.7h-2.818v-3.274h2.818zm0-4.442h-2.818V92.21h2.818zm0-4.215h-2.818V88.22h2.818zm0-3.99h-2.818v-2.784h2.818zm-26.658 13.851h10.7v-17.84H27.226v17.84zm6.015-16.635h2.819v2.785h-2.818v-2.785zm0 3.95h2.819v2.824h-2.818V88.22zm0 3.992h2.819v3.049h-2.818v-3.05zm0 4.215h2.819V99.7h-2.818v-3.274zm-4.11-12.158h2.817v2.784H29.13zm0 3.95h2.817v2.824H29.13zm0 3.992h2.817v3.048H29.13zm0 4.215h2.817v3.274H29.13zM9.366 106.4h10.701V83.063h-10.7zm5.978-22.13h2.818v2.784h-2.818zm0 3.95h2.818v2.823h-2.818zm0 3.99h2.818v3.05h-2.818zm0 4.216h2.818V99.7h-2.818zM11.27 84.267h2.781v2.784h-2.78zm0 3.95h2.781v2.824h-2.78zm0 3.992h2.781v3.048h-2.78zm0 4.215h2.781v3.274h-2.78zm87.362 4.48h10.7v-17.84h-10.7zm6.016-16.636h2.78v2.785h-2.78zm0 3.95h2.78v2.824h-2.78zm0 3.992h2.78v3.049h-2.78zm0 4.215h2.78v3.274h-2.78zm-4.112-12.158h2.855v2.784h-2.817zm0 3.95h2.855v2.824h-2.817zm0 3.992h2.855v3.048h-2.817zm0 4.215h2.855v3.274h-2.817z" style="fill:#fff;stroke-width:1.18636"/><path d="M24.293 21.414h-1.41v23.223h1.41zm.763-1.58h-2.933v1.054h2.933zm-1.103 60.93h-2.93v1.054h2.93v-1.053zm-15.576 0H5.445v1.054h2.93v-1.053zM6.51 21.415H5.103v23.223H6.51zm.764-1.58H4.342v1.054h2.933zm52.78 1.58h-1.408v23.223h1.408zm.758-1.58h-2.93v1.054h2.93zm17.214 1.58h-1.41v23.223h1.41zm.758-1.58h-2.932v1.054h2.932zm17.023 1.58H94.4v23.223h1.41zm.763-1.58h-2.93v1.054h2.93v-1.053zm-54.492 1.58h-1.41v23.223h1.409V21.414zm.763-1.58H39.91v1.054h2.932zm-.763-13.397h-1.41v8.543h1.409V6.437zm.763-1.617H39.91v1.054h2.932zM24.293 6.437h-1.41v8.543h1.41zm.763-1.617h-2.933v1.054h2.933zM6.511 6.437H5.103v8.543H6.51zm.764-1.617H4.342v1.054h2.933zm88.533 1.617H94.4v8.543h1.41zm.763-1.617H93.64v1.054h2.93V4.82zM78.027 6.437h-1.41v8.543h1.41zm.758-1.617h-2.932v1.054h2.932zm-18.73 1.617h-1.408v8.543h1.408zm.758-1.617h-2.93v1.054h2.93z" style="fill:#fff;stroke-width:1.18636"/><path fill-rule="evenodd" clip-rule="evenodd" d="M98.361 4.74v10.24h11.235V4.741zm10.13 9.221h-8.91V5.832h9.023zm-27.952 1.017h11.424V4.74H80.54v10.238zm1.103-9.146h9.064v8.13h-9.14l.077-8.13zm-19.038 9.146h11.424V4.74H62.603v10.238zm1.104-9.146h9.215v8.13h-9.215zm-19.001 9.146H56.13V4.74H44.706v10.238zm1.142-9.146h9.025v8.13H45.85zm-19.003 9.146h11.425V4.74H26.846v10.238zm1.104-9.146h9.063v8.13H27.95zM8.949 14.978h11.424V4.74H8.95v10.238zm1.142-9.146h9.025v8.13H10.09zm9.864 68.086h-.685V59.994a4.855 4.855 0 0 0-.972-2.872 4.95 4.95 0 0 0-2.493-1.758l.265-2.446h-2.854l.267 2.447a4.913 4.913 0 0 0-2.595 1.794 4.817 4.817 0 0 0-.946 2.986v13.924h-.688v5.081h10.7zm-1.942-4.665V72.3h-2.78v-3.048zm-2.78-1.168v-2.822h2.78v2.823h-2.78zm2.78-3.988h-2.78V61.31h2.78zm0-3.765h-2.895V56.57a3.34 3.34 0 0 1 2.215 1.232 3.259 3.259 0 0 1 .68 2.419zm-4.036-3.763v3.763H11.12c0-2.07 1.065-3.725 2.856-3.8zm-2.856 4.78h2.818v2.784H11.12zm0 3.95h2.818v2.824H11.12zm0 3.991h2.818v3.05H11.12zm8.263 6.473h-.838v2.183h-1.104v-2.371h-1.143v2.371h-1.142v-2.371h-1.142v2.371h-1.143v-2.371h-1.103v2.371h-1.144v-2.371H9.75v-.677h9.633v.865zm89.262-1.845V60.706a4.578 4.578 0 0 0-.227-1.895 4.615 4.615 0 0 0-.98-1.644 4.672 4.672 0 0 0-1.57-1.113 4.73 4.73 0 0 0-5.346 1.113 4.578 4.578 0 0 0-1.207 3.539v13.211h-.685v5.08h10.7v-5.08h-.685zm-4.037-5.119v-2.784h2.817v2.784zm2.817 1.168v3.049h-2.817v-3.05zm-2.817-5.12v-2.823h2.817v2.824zm0-7.527c1.827 0 2.855 1.732 2.855 3.764h-2.931zm-1.143 0v3.764h-2.855c-.076-1.957.951-3.725 2.78-3.839zm-2.894 4.781h2.818v2.822h-2.817V62.1zm0 3.989h2.818v2.785h-2.817V66.09zm0 3.951h2.818v3.05h-2.817v-3.05zm7.616 6.625-.38.263A6.835 6.835 0 0 1 104 78.086a6.835 6.835 0 0 1-3.808-1.157l-.38-.263a.565.565 0 0 1-.19-.753.613.613 0 0 1 .798 0l.38.263a5.482 5.482 0 0 0 2.361.904 1.008 1.008 0 0 1-.227-.64 1.08 1.08 0 0 1 .235-.899 1.103 1.103 0 0 1 .85-.395 1.115 1.115 0 0 1 .85.395 1.088 1.088 0 0 1 .235.898 1.008 1.008 0 0 1-.228.641 5.482 5.482 0 0 0 2.36-.904l.38-.263a.613.613 0 0 1 .801 0 .558.558 0 0 1-.229.677zm-17.407-2.748V60.706a4.578 4.578 0 0 0-.226-1.895 4.615 4.615 0 0 0-.981-1.644 4.672 4.672 0 0 0-1.568-1.113 4.73 4.73 0 0 0-5.348 1.113 4.608 4.608 0 0 0-.98 1.644 4.578 4.578 0 0 0-.227 1.896v13.21h-.686v5.08h10.701v-5.08h-.685zM86.745 68.8v-2.784h2.78V68.8zm2.78 1.168v3.049h-2.78v-3.05zm-2.78-5.12v-2.823h2.78v2.824zm0-7.527a3.393 3.393 0 0 1 1.252.418c.386.22.724.513.993.865a3.297 3.297 0 0 1 .648 2.481H86.63zm-1.143 0v3.764h-2.857a3.276 3.276 0 0 1 .564-2.483 3.373 3.373 0 0 1 2.18-1.356zm-2.857 4.781h2.82v2.822h-2.82V62.1zm0 3.989h2.82v2.785h-2.82zm0 3.951h2.82v3.05h-2.82zm7.617 6.625-.381.263a6.913 6.913 0 0 1-3.808 1.142 6.913 6.913 0 0 1-3.809-1.142l-.38-.263a.527.527 0 0 1-.118-.581.524.524 0 0 1 .119-.172.574.574 0 0 1 .76 0l.381.263a5.921 5.921 0 0 0 2.361.904 1.27 1.27 0 0 1-.19-.64 1.042 1.042 0 0 1 .298-.77 1.067 1.067 0 0 1 .768-.32c.293 0 .574.113.781.318a1.084 1.084 0 0 1 .323.771 1.31 1.31 0 0 1-.228.641 5.905 5.905 0 0 0 2.361-.904l.38-.263a.534.534 0 0 1 .588-.118.534.534 0 0 1 .175.119.52.52 0 0 1-.21.593.537.537 0 0 1-.21.083zM72.92 73.918V60.706a4.578 4.578 0 0 0-.226-1.895 4.615 4.615 0 0 0-.98-1.644 4.672 4.672 0 0 0-1.57-1.113 4.73 4.73 0 0 0-5.347 1.113 4.608 4.608 0 0 0-.98 1.644 4.578 4.578 0 0 0-.226 1.896v13.21h-.686v5.08h10.7v-5.08h-.685zM68.884 68.8v-2.784H71.7V68.8zm2.817 1.168v3.049h-2.817v-3.05zm-2.817-5.12v-2.823H71.7v2.824zm0-7.527c1.827 0 2.855 1.732 2.855 3.764h-2.855zm-1.143 0v3.764h-2.855a3.276 3.276 0 0 1 .562-2.483 3.373 3.373 0 0 1 2.18-1.356zm-2.894 4.781h2.818v2.822h-2.818V62.1zm0 3.989h2.818v2.785h-2.818zm0 3.951h2.818v3.05h-2.818zm7.616 6.625-.419.263a6.756 6.756 0 0 1-3.808 1.167 6.873 6.873 0 0 1-3.808-1.167l-.38-.263a.53.53 0 0 1-.161-.377.52.52 0 0 1 .16-.376.534.534 0 0 1 .762 0l.38.263a5.687 5.687 0 0 0 2.361.904 1.008 1.008 0 0 1-.227-.64 1.08 1.08 0 0 1 .234-.899 1.103 1.103 0 0 1 .851-.395 1.115 1.115 0 0 1 .85.395 1.088 1.088 0 0 1 .234.898 1.008 1.008 0 0 1-.227.641 5.482 5.482 0 0 0 2.36-.904l.38-.263a.613.613 0 0 1 .801 0 .558.558 0 0 1-.343.677zM55.027 79h.686v-5.082h-.686V60.706a4.58 4.58 0 0 0-1.206-3.539 4.672 4.672 0 0 0-1.569-1.113 4.73 4.73 0 0 0-5.348 1.113 4.608 4.608 0 0 0-.98 1.644 4.578 4.578 0 0 0-.225 1.896v13.21h-.687v5.08h10.015zm-4.036-10.2v-2.785h2.895v2.784zm2.78 1.167v3.049h-2.78v-3.05zm-2.78-5.12v-2.823h2.895v2.824zm0-7.527a3.372 3.372 0 0 1 2.221 1.293 3.297 3.297 0 0 1 .635 2.471H50.99zm-1.142 0v3.764h-2.895a3.274 3.274 0 0 1 .59-2.506 3.376 3.376 0 0 1 2.229-1.333zm-2.895 4.781h2.819v2.822h-2.82V62.1zm0 3.989h2.819v2.785h-2.82zm0 3.951h2.819v3.05h-2.82zm-.914 5.873a.574.574 0 0 1 .762 0l.419.262a5.482 5.482 0 0 0 2.36.904 1.008 1.008 0 0 1-.227-.64 1.042 1.042 0 0 1 .298-.77 1.067 1.067 0 0 1 .767-.32c.293 0 .574.113.78.318a1.084 1.084 0 0 1 .325.771 1.008 1.008 0 0 1-.228.641 5.905 5.905 0 0 0 2.36-.904l.38-.263a.534.534 0 0 1 .763 0 .527.527 0 0 1 .119.581.53.53 0 0 1-.119.172l-.38.263a6.873 6.873 0 0 1-3.809 1.167 6.95 6.95 0 0 1-3.808-1.167l-.38-.263a.578.578 0 0 1-.455-.293.559.559 0 0 1-.003-.535l.076.075zM37.165 79h.647v-5.083h-.685v-13.21a4.57 4.57 0 0 0-1.36-3.247 4.674 4.674 0 0 0-3.287-1.344 4.674 4.674 0 0 0-3.284 1.344 4.565 4.565 0 0 0-1.36 3.247v13.21h-.61v5.081h10.053-.114zM33.09 68.8v-2.786h2.819v2.785zm2.819 1.166v3.048H33.09v-3.048zm-2.819-5.118v-2.824h2.819v2.824zm0-7.528c1.828 0 2.857 1.732 2.857 3.763H33.09zm-1.142 0v3.763h-2.856a3.274 3.274 0 0 1 .577-2.495 3.376 3.376 0 0 1 2.203-1.344zm-2.895 4.78h2.819v2.823h-2.818V62.1zm0 3.99h2.819v2.784h-2.818V66.09zm0 3.95h2.819v3.05h-2.818v-3.05zm-.874 5.873a.531.531 0 0 1 .587-.118.53.53 0 0 1 .174.118l.38.263a5.909 5.909 0 0 0 2.36.903 1.008 1.008 0 0 1-.227-.64c0-.289.116-.567.324-.772a1.11 1.11 0 0 1 1.198-.236 1.068 1.068 0 0 1 .579.593 1.044 1.044 0 0 1 .07.415 1.008 1.008 0 0 1-.229.641 5.483 5.483 0 0 0 2.36-.904l.42-.263a.574.574 0 0 1 .761 0 .56.56 0 0 1 0 .752l-.38.263a6.95 6.95 0 0 1-3.808 1.168 6.873 6.873 0 0 1-3.808-1.168l-.38-.263a.54.54 0 0 1-.49-.274.522.522 0 0 1 .031-.554z" style="fill:#fff;stroke-width:1.18636"/><path d="M20.07 80.765H9.254v1.053h10.815v-1.053z" style="fill:#fff;stroke-width:1.18636"/><path fill-rule="evenodd" clip-rule="evenodd" d="M135.107 72.752V59.994a4.613 4.613 0 0 0-1.207-3.539 4.692 4.692 0 0 0-1.568-1.114 4.73 4.73 0 0 0-5.348 1.113 4.591 4.591 0 0 0-1.207 3.539V73.92h-.686V79h10.701v-5.08h-.685zm-1.257-3.5v3.05h-2.817v-3.05zm-2.817-1.166v-2.823h2.817v2.823zm2.817-3.99h-2.817v-2.785h2.817zm-2.893-7.527c1.789 0 2.855 1.732 2.855 3.763h-2.855zm-1.143 0v3.763h-2.856c.075-2.069 1.104-3.725 3.084-3.8zm-2.894 4.78h2.817v2.786h-2.742zm0 3.952h2.817v2.823h-2.742zm0 3.99h2.817v3.048h-2.742zm8.263 6.472h-.838v2.183h-1.142v-2.37h-1.143v2.37h-1.142v-2.37h-.876v2.37h-1.104v-2.37h-1.143v2.37h-1.142v-2.37h-.838v-.678h9.635l-.267.866zM125.055 38.05h10.7V20.172h-10.7zm5.979-16.56h2.817v2.823h-2.817zm0 3.99h2.817v2.823h-2.817zm0 3.99h2.817v3.01h-2.817zm0 4.214h2.817v3.275h-2.817zM126.92 21.49h2.817v2.823h-2.817zm0 3.99h2.817v2.823h-2.817zm0 3.99h2.817v3.01h-2.817zm0 4.214h2.817v3.275h-2.817z" style="fill:#fff;stroke-width:1.18636"/><path d="M135.756 38.877h-10.701v4.704h10.7zm-13.14-18.704h-4.341v23.41h4.34zm19.955 0h-4.34v23.41h4.34z" style="fill:#fff;stroke-width:1.18636"/><path fill-rule="evenodd" clip-rule="evenodd" d="M237.808 89.238v17.273h1.408V89.238a1.685 1.685 0 0 0 0-3.086v-3.765h-1.408v3.764a1.685 1.685 0 0 0 0 3.086zm15.576 0v17.273h1.408V89.238a1.685 1.685 0 0 0 0-3.086v-3.765h-1.408v3.764a1.685 1.685 0 0 0-1.009 1.542 1.685 1.685 0 0 0 1.009 1.544zM7.577 85.998v-3.764h-1.37v3.764a1.679 1.679 0 0 0 0 2.936v17.35h1.37V89.236c.342-.107.64-.317.85-.6a1.643 1.643 0 0 0 0-1.963 1.674 1.674 0 0 0-.85-.6zm15.576.078v-3.763h-1.371v3.763a1.59 1.59 0 0 0-.788.6 1.566 1.566 0 0 0-.278.944c-.003.338.098.67.287.951.19.283.462.5.779.629v17.238h1.371v-17.2c.28-.142.515-.358.679-.624a1.679 1.679 0 0 0-.679-2.387z" style="fill:#fff;stroke-width:1.18636"/></svg>