<?xml version="1.0" encoding="UTF-8" standalone="no"?>
<svg
   xmlns:dc="http://purl.org/dc/elements/1.1/"
   xmlns:cc="http://creativecommons.org/ns#"
   xmlns:rdf="http://www.w3.org/1999/02/22-rdf-syntax-ns#"
   xmlns:svg="http://www.w3.org/2000/svg"
   xmlns="http://www.w3.org/2000/svg"
   xmlns:sodipodi="http://sodipodi.sourceforge.net/DTD/sodipodi-0.dtd"
   xmlns:inkscape="http://www.inkscape.org/namespaces/inkscape"
   viewBox="0 0 261 149.936"
   version="1.1"
   id="svg4"
   sodipodi:docname="first.svg"
   width="261"
   height="149.936"
   inkscape:version="1.0.2 (e86c870879, 2021-01-15, custom)">
  <metadata
     id="metadata10">
    <rdf:RDF>
      <cc:Work
         rdf:about="">
        <dc:format>image/svg+xml</dc:format>
        <dc:type
           rdf:resource="http://purl.org/dc/dcmitype/StillImage" />
        <dc:title></dc:title>
      </cc:Work>
    </rdf:RDF>
  </metadata>
  <defs
     id="defs8" />
  <sodipodi:namedview
     pagecolor="#ffffff"
     bordercolor="#666666"
     borderopacity="1"
     objecttolerance="10"
     gridtolerance="10"
     guidetolerance="10"
     inkscape:pageopacity="0"
     inkscape:pageshadow="2"
     inkscape:window-width="1366"
     inkscape:window-height="744"
     id="namedview6"
     showgrid="false"
     inkscape:zoom="2.4372617"
     inkscape:cx="110.4957"
     inkscape:cy="88.905476"
     inkscape:window-x="0"
     inkscape:window-y="0"
     inkscape:window-maximized="1"
     inkscape:current-layer="svg4" />
  <path
     fill-rule="evenodd"
     clip-rule="evenodd"
     d="m 113.97231,140.03066 h 7.11642 v 5.33662 h -7.11642 z m -3.02232,-29.29725 h 0.45814 v 3.30277 h -0.57337 v 1.53545 h 0.42065 v 17.81603 h -0.34429 v -17.58557 h -0.38178 v -2.03524 h 0.57336 z m 0,-30.217687 h 0.45814 v 3.302761 h -0.57337 v 1.535457 h 0.57476 V 106.0493 h -0.30543 V 85.508043 h -0.42204 v -2.035245 h 0.57336 z m 2.48644,0 h 0.30543 v 2.957075 h 0.57475 v 2.035245 h -0.38317 V 106.0493 h -0.3443 V 85.353941 h 0.42066 v -1.727042 h -0.57337 V 80.517112 Z M 96.10492,110.73341 h 0.305426 v 2.95708 h 0.574755 v 2.1116 h -0.420654 v 17.66193 h -0.458138 v -17.89239 h 0.420654 v -1.53545 H 96.10492 Z m -2.485053,0 h 0.305426 v 3.10979 h -0.574756 v 1.72843 h 0.420654 v 17.81603 h -0.344297 v -17.58557 h -0.381782 v -2.03524 h 0.573367 v -3.03344 z m 0,-30.217687 h 0.305426 v 3.109788 h -0.574756 v 1.72843 h 0.420654 V 106.0493 H 93.426894 V 85.508043 h -0.381782 v -2.035245 h 0.573367 v -2.957075 z m 2.485053,0 h 0.305426 v 2.957075 h 0.574755 v 2.035245 H 96.564447 V 106.0493 H 96.106309 V 85.353941 h 0.420654 V 83.818484 H 96.10492 Z m 14.57713,32.215457 v 0.49978 H 96.794904 v -0.49978 z m -17.484226,0 v 0.49978 H 10.864819 v -0.49978 z m 13.505366,7.67728 v 12.8251 h -6.15988 v -12.66961 l 6.15988,-0.1541 z m -17.216286,0 v 12.8251 h -6.19875 v -12.66961 l 6.19875,-0.1541 z m -68.865127,0 v 12.8251 H 14.34667 v -12.66961 l 6.275107,-0.1541 z m 17.253766,0 v 12.8251 h -6.312591 v -12.66961 l 6.312591,-0.1541 z m 17.216281,0 v 12.8251 h -6.275106 v -12.66961 l 6.275106,-0.1541 z m 17.255155,0 v 12.8251 h -6.275107 v -12.66961 l 6.275107,-0.1541 z m 39.980201,17.6647 v 0.76773 H 10.864819 v -0.46091 z m -4.01773,-18.85308 h 0.42065 v 14.01487 h -0.42065 z m -95.645397,0 h 0.420654 v 14.01487 h -0.651111 l 0.230457,-14.01348 z m 9.565373,0 h 0.381781 v 14.01487 h -0.38317 v -14.01487 z m 7.649521,0 h 0.422042 v 14.01487 h -0.420654 v -14.01487 z m 9.527888,0 h 0.420654 v 14.01487 h -0.420654 z m 7.65091,0 h 0.38317 v 14.01487 h -0.38317 z m 9.5265,0 h 0.420654 v 14.01487 h -0.420654 z m 7.652298,0 h 0.420654 v 14.01487 h -0.420654 z m 9.565372,0 h 0.381782 v 14.01487 h -0.38317 v -14.01487 z m 7.649521,0 h 0.422043 v 14.01487 h -0.420655 v -14.01487 z m 9.527888,0 h 0.420655 v 14.01487 h -0.420655 z m 7.65091,0 h 0.38317 v 14.01487 h -0.38317 z m -75.751085,-1.03567 v 0.84408 H 11.936585 v -0.84408 z m 17.253766,0 v 0.84408 h -10.97866 v -0.84408 h 10.981436 z m 17.216282,0 v 0.84408 H 46.369149 v -0.84408 h 10.981436 z m 17.255154,0 v 0.84408 H 63.661787 v -0.84408 z m 17.253766,0 v 0.84408 H 80.801713 v -0.84408 h 11.057792 z m 17.217673,0 v 0.84408 H 98.133223 v -0.84408 z m -2.41286,-26.417921 v 14.091221 h -6.12101 V 91.919202 l 6.12239,-0.152713 z m -17.214898,0 V 105.85771 H 83.286766 V 91.919202 l 6.159878,-0.152713 z m 8.989229,-1.189771 h 0.422042 V 105.93407 H 98.438649 V 90.57533 Z m -7.344096,0 h 0.381782 v 15.357352 h -0.38317 V 90.57533 Z m -9.870798,0 h 0.381782 v 15.357352 h -0.38317 V 90.57533 Z m -7.385745,0 h 0.422043 V 105.93407 H 73.838011 V 90.57533 Z m -9.870798,0 h 0.422043 V 105.93407 H 63.967213 V 90.57533 Z m -7.382968,0 h 0.420655 V 105.93407 H 56.582856 V 90.57533 Z m -9.870797,0 h 0.420654 v 15.357352 h -0.381782 l -0.03887,-15.35874 z m -7.344096,0 h 0.381782 V 105.93407 H 39.366574 V 90.57533 Z m -9.870798,0 h 0.381782 v 15.357352 h -0.38317 V 90.57533 Z m -7.385745,0 h 0.422043 v 15.357352 h -0.38317 l -0.03748,-15.35874 z m -9.870798,0 h 0.459527 v 15.357352 h -0.420654 l -0.03471,-15.35874 z m 10.637139,-1.382745 v 0.844086 H 11.936585 v -0.844086 h 10.942564 z m 17.253766,0 v 0.844086 H 29.154255 v -0.844086 h 10.981436 z m 17.216282,0 v 0.844086 h -10.97866 v -0.844086 h 10.981436 z m 17.255154,0 v 0.844086 H 63.660399 v -0.844086 z m 17.253766,0 v 0.844086 H 80.800324 v -0.844086 h 11.057793 z m 17.217671,0 v 0.844086 H 98.131835 v -0.844086 z m -0.76634,1.382745 h 0.42065 v 15.357352 h -0.38178 l -0.0389,-15.35874 z M 20.313574,91.766489 V 105.85771 H 14.345282 V 91.919202 l 5.969681,-0.152713 z m 17.255155,0 V 105.85771 H 31.561564 V 91.919202 Z m 17.214893,0 V 105.85771 H 48.816718 V 91.919202 l 5.968293,-0.152713 z m 17.256543,0 V 105.85771 H 66.070484 V 91.919202 Z m 52.298565,0 V 104.5902 h -5.96829 V 91.919202 l 5.96968,-0.152713 z M 9.5653723,81.245968 H 10.024899 V 139.41565 H 9.5667606 V 81.245968 Z M 9.0683617,86.12167 v 0.499787 H 5.7392234 V 139.33929 H 3.9788617 V 86.506229 H 3.3291383 V 81.24458 h 1.3008351 v 4.87709 H 9.0655851 Z M 114.81501,106.77954 v 0.46092 H 10.864819 v -0.46092 H 114.81362 Z m -5.16447,-18.16171 h -0.99541 v -0.499787 h 0.4984 V 87.773745 H 98.095739 v 0.344298 h 0.535883 v 0.499787 h -0.994021 v -2.342059 h 12.012939 z m -17.255152,0 h -0.994021 v -0.499787 h 0.497011 V 87.773745 H 80.803101 v 0.344298 h 0.497011 V 88.61783 H 80.30609 v -2.342059 h 11.975458 z m -17.253766,0 h -0.995409 v -0.499787 h 0.535883 V 87.773745 H 63.625691 v 0.344298 h 0.497011 v 0.499787 h -0.994021 v -2.342059 h 12.012941 z m -17.216282,0 h -0.995409 v -0.499787 h 0.49701 V 87.773745 H 46.369149 v 0.344298 h 0.535883 v 0.499787 h -0.99541 v -2.342059 h 11.936585 l 0.07775,2.342059 z m -17.255154,0 h -0.994021 v -0.499787 h 0.497011 V 87.773745 H 29.154255 v 0.344298 h 0.497011 v 0.499787 h -0.994021 v -2.342059 h 12.012941 z m -17.255154,0 h -0.994021 v -0.499787 h 0.535883 V 87.773745 H 11.936585 v 0.344298 h 0.497011 v 0.499787 h -1.032894 v -2.342059 h 12.012942 v 2.342059 z m 102.763198,2.265702 h 0.53588 v 14.013478 h -0.42065 z m -9.8708,0 h 0.42066 v 14.013478 h -0.42066 V 90.88492 Z m 11.17163,-2.265702 h -0.99541 v -0.499787 h 0.4984 v -0.344298 h -11.05918 v 0.344298 h 0.53589 v 0.499787 h -0.99403 v -2.342059 h 12.01295 v 2.342059 z m -0.53588,0.882957 v 0.845474 h -10.98005 v -0.845474 h 10.98144 z M 116.3824,105.20521 v 6.52639 h -0.91767 v -6.52639 z m 1.60765,3.10979 h -0.42204 v 0.34569 h 0.42204 z m 0,0.80521 h -0.42204 v 0.34708 h 0.42204 z m 0,0.84686 h -0.42204 v 0.3443 h 0.42204 v -0.34568 z m 0,0.80522 h -0.42204 v 0.34568 h 0.42204 z m 0.3443,0.34568 h 0.42065 v -0.34568 h -0.42065 z m 0,-0.80521 h 0.42065 v -0.34707 h -0.42065 z m 0,-0.84686 h 0.42065 v -0.3443 h -0.42065 v 0.34569 z m 0,-0.80521 H 118.755 V 108.315 h -0.42065 z m 0.76356,2.45728 h 0.45953 v -0.34568 h -0.49701 l 0.0389,0.34568 z m 0,-0.80521 h 0.45953 v -0.34707 h -0.49701 l 0.0389,0.34707 z m 0,-0.84686 h 0.45953 v -0.3443 h -0.49701 l 0.0389,0.34569 z m 0,-0.80521 h 0.45953 V 108.315 h -0.49701 l 0.0389,0.34569 z m 0.76634,2.45728 h 0.45814 v -0.34568 h -0.45814 z m 0,-0.80521 h 0.45814 v -0.34707 h -0.45814 z m 0,-0.84686 h 0.45814 v -0.3443 h -0.45814 v 0.34569 z m 0,-0.80521 h 0.45814 V 108.315 h -0.45814 z m 0.76495,2.45728 h 0.45814 v -0.34568 h -0.45814 z m 0,-0.80521 h 0.45814 v -0.34707 h -0.45814 z m 0,-0.84686 h 0.45814 v -0.3443 h -0.45814 v 0.34569 z m 0,-0.80521 h 0.45814 V 108.315 h -0.45814 z m 0.76495,2.45728 h 0.45814 v -0.34568 h -0.45814 z m 0,-0.80521 h 0.45814 v -0.34707 h -0.45814 z m 0,-0.84686 h 0.45814 v -0.3443 h -0.45814 v 0.34569 z m 0,-0.80521 h 0.45814 V 108.315 h -0.45814 z m 0.76496,2.45728 h 0.45952 v -0.34568 h -0.45814 v 0.34568 z m 0,-0.80521 h 0.45952 v -0.34707 h -0.45814 v 0.34707 z m 0,-0.84686 h 0.45952 v -0.3443 h -0.45814 v 0.34569 z m 0,-0.80521 h 0.45952 V 108.315 h -0.45814 v 0.34569 z m 0.76495,2.45728 h 0.45953 v -0.34568 h -0.49702 z m 0,-0.80521 h 0.45953 v -0.34707 h -0.49702 z m 0,-0.84686 h 0.45953 v -0.3443 h -0.49702 l 0.0375,0.34569 z m 0,-0.80521 h 0.45953 V 108.315 h -0.49702 z m 0.80521,2.45728 h 0.41927 v -0.34568 h -0.42066 v 0.34568 z m 0,-0.80521 h 0.41927 v -0.34707 h -0.42066 v 0.34707 z m 0,-0.84686 h 0.41927 v -0.3443 h -0.42066 v 0.34569 z m 0,-0.80521 h 0.41927 V 108.315 h -0.42066 v 0.34569 z m 0.76357,2.45728 h 0.42065 v -0.34568 h -0.42065 z m 0,-0.80521 h 0.42065 v -0.34707 h -0.42065 z m 0,-0.84686 h 0.42065 v -0.3443 h -0.42065 v 0.34569 z m 0,-0.80521 h 0.42065 V 108.315 h -0.42065 z m 1.98943,-0.34569 h -0.42066 v 0.34569 h 0.42066 z m 0,0.80521 h -0.42066 v 0.34708 h 0.42066 z m 0,0.84686 h -0.42066 v 0.3443 h 0.42066 v -0.34568 z m 0,0.80522 h -0.42066 v 0.34568 h 0.42066 z m 0.30542,0.34568 h 0.46092 v -0.34568 h -0.53589 l 0.0764,0.34568 z m 0,-0.80521 h 0.46092 v -0.34707 h -0.53589 l 0.0764,0.34707 z m 0,-0.84686 h 0.46092 v -0.3443 h -0.53589 l 0.0764,0.34569 z m 0,-0.80521 h 0.46092 V 108.315 h -0.53589 l 0.0764,0.34569 z m 0.76634,2.45728 h 0.45814 v -0.34568 h -0.45814 z m 0,-0.80521 h 0.45814 v -0.34707 h -0.45814 z m 0,-0.84686 h 0.45814 v -0.3443 h -0.45814 v 0.34569 z m 0,-0.80521 h 0.45814 V 108.315 h -0.45814 z m 0.76495,2.45728 h 0.45814 v -0.34568 h -0.45814 z m 0,-0.80521 h 0.45814 v -0.34707 h -0.45814 z m 0,-0.84686 h 0.45814 v -0.3443 h -0.45814 v 0.34569 z m 0,-0.80521 h 0.45814 V 108.315 h -0.45814 z m 0.76496,2.45728 h 0.45952 v -0.34568 h -0.45814 v 0.34568 z m 0,-0.80521 h 0.45952 v -0.34707 h -0.45814 v 0.34707 z m 0,-0.84686 h 0.45952 v -0.3443 h -0.45814 v 0.34569 z m 0,-0.80521 h 0.45952 V 108.315 h -0.45814 v 0.34569 z m 0.76495,2.45728 h 0.45952 v -0.34568 h -0.45813 v 0.34568 z m 0,-0.80521 h 0.45952 v -0.34707 h -0.45813 v 0.34707 z m 0,-0.84686 h 0.45952 v -0.3443 h -0.45813 v 0.34569 z m 0,-0.80521 h 0.45952 V 108.315 h -0.45813 v 0.34569 z m 0.61224,-0.84548 h 4.4009 v -1.34387 h -8.80042 v 1.34387 h 4.40091 z m 0,-2.14908 h 4.4009 v -0.46092 h 0.91767 v 0.46092 h 8.26315 v 0.80521 h -8.26315 v 1.34387 h 8.22566 v 0.49979 h -0.30681 v 0.34569 h 0.30681 v 0.46091 h -0.30681 v 0.34569 h 0.30681 v 0.49978 h -0.30681 v 0.3443 h 0.30681 v 0.46092 h -0.30681 v 0.34568 h 0.30681 v 0.49979 h -27.08708 v -0.49979 h 0.30543 v -0.34568 h -0.30543 v -0.46092 h 0.30543 v -0.34568 h -0.30543 v -0.49979 h 0.30543 v -0.3443 h -0.30543 v -0.46091 h 0.30543 V 108.315 h -0.30543 v -0.49979 h 8.26315 v -1.34387 h -8.26315 v -0.80521 h 8.26315 v -0.46092 h 0.88018 v 0.46092 h 4.40091 z m 0.61224,2.99456 V 108.315 h -0.5345 v 0.34569 z m 0,0.80521 v -0.3443 h -0.5345 v 0.34569 h 0.5345 z m 0,0.84686 v -0.34707 h -0.5345 v 0.34707 z m 0,0.80521 v -0.34568 h -0.5345 v 0.34568 z m 0.76634,-2.45728 V 108.315 h -0.42205 v 0.34569 h 0.42066 z m 0,0.80521 v -0.3443 h -0.42205 v 0.34569 h 0.42066 z m 0,0.84686 v -0.34707 h -0.42205 v 0.34707 h 0.42066 z m 0,0.80521 v -0.34568 h -0.42205 v 0.34568 h 0.42066 z m 0.76356,-2.45728 V 108.315 h -0.41926 v 0.34569 h 0.42065 z m 0,0.80521 v -0.3443 h -0.41926 v 0.34569 h 0.42065 z m 0,0.84686 v -0.34707 h -0.41926 v 0.34707 h 0.42065 z m 0,0.80521 v -0.34568 h -0.41926 v 0.34568 h 0.42065 z m 0.76634,-2.45728 V 108.315 h -0.42065 v 0.34569 z m 0,0.80521 v -0.3443 h -0.42065 v 0.34569 h 0.42065 z m 0,0.84686 v -0.34707 h -0.42065 v 0.34707 z m 0,0.80521 v -0.34568 h -0.42065 v 0.34568 z m 0.80383,-2.45728 V 108.315 h -0.45953 v 0.34569 h 0.45814 z m 0,0.80521 v -0.3443 h -0.45953 v 0.34569 h 0.45814 z m 0,0.84686 v -0.34707 h -0.45953 v 0.34707 h 0.45814 z m 0,0.80521 v -0.34568 h -0.45953 v 0.34568 h 0.45814 z m 0.30542,-0.34568 v 0.34568 h 0.38317 v -0.34568 z m 0,-0.80522 v 0.3443 h 0.38317 v -0.34568 h -0.38317 z m 0,-0.84686 v 0.34708 h 0.38317 v -0.34708 z m 0,-0.80521 v 0.34569 h 0.38317 V 108.315 Z m 1.98943,0.34569 V 108.315 h -0.45814 v 0.34569 z m 0,0.80521 v -0.3443 h -0.45814 v 0.34569 h 0.45814 z m 0,0.84686 v -0.34707 h -0.45814 v 0.34707 z m 0,0.80521 v -0.34568 h -0.45814 v 0.34568 z m 0.76495,-2.45728 V 108.315 h -0.45813 v 0.34569 z m 0,0.80521 v -0.3443 h -0.45813 v 0.34569 h 0.45813 z m 0,0.84686 v -0.34707 h -0.45813 v 0.34707 z m 0,0.80521 v -0.34568 h -0.45813 v 0.34568 z m 0.76496,-2.45728 V 108.315 h -0.45814 v 0.34569 z m 0,0.80521 v -0.3443 h -0.45814 v 0.34569 h 0.45814 z m 0,0.84686 v -0.34707 h -0.45814 v 0.34707 z m 0,0.80521 v -0.34568 h -0.45814 v 0.34568 z m 0.76634,-2.45728 V 108.315 h -0.57476 v 0.34569 h 0.57337 z m 0,0.80521 v -0.3443 h -0.57476 v 0.34569 h 0.57337 z m 0,0.84686 v -0.34707 h -0.57476 v 0.34707 h 0.57337 z m 0,0.80521 v -0.34568 h -0.57476 v 0.34568 h 0.57337 z m 0.76495,-2.45728 V 108.315 h -0.42065 v 0.34569 z m 0,0.80521 v -0.3443 h -0.42065 v 0.34569 h 0.42065 z m 0,0.84686 v -0.34707 h -0.42065 v 0.34707 z m 0,0.80521 v -0.34568 h -0.42065 v 0.34568 z m 0.76495,-2.45728 V 108.315 h -0.42065 v 0.34569 z m 0,0.80521 v -0.3443 h -0.42065 v 0.34569 h 0.42065 z m 0,0.84686 v -0.34707 h -0.42065 v 0.34707 z m 0,0.80521 v -0.34568 h -0.42065 v 0.34568 z m 0.80383,-2.45728 V 108.315 h -0.45953 v 0.34569 z m 0,0.80521 v -0.3443 h -0.45953 v 0.34569 h 0.45953 z m 0,0.84686 v -0.34707 h -0.45953 v 0.34707 z m 0,0.80521 v -0.34568 h -0.45953 v 0.34568 z m 0.76495,-2.45728 V 108.315 h -0.45953 v 0.34569 z m 0,0.80521 v -0.3443 h -0.45953 v 0.34569 h 0.45953 z m 0,0.84686 v -0.34707 h -0.45953 v 0.34707 z m 0,0.80521 v -0.34568 h -0.45953 v 0.34568 z m 0.76495,-2.45728 V 108.315 h -0.61224 v 0.34569 z m 0,0.80521 v -0.3443 h -0.61224 v 0.34569 h 0.61224 z m 0,0.84686 v -0.34707 h -0.61224 v 0.34707 z m 0,0.80521 v -0.34568 h -0.61224 v 0.34568 z m 0.30543,-0.34568 v 0.34568 h 0.45952 v -0.34568 z m 0,-0.80522 v 0.3443 h 0.45952 v -0.34568 h -0.45952 z m 0,-0.84686 v 0.34708 h 0.45952 v -0.34708 z m 0,-0.80521 v 0.34569 h 0.45952 V 108.315 Z m -30.10941,25.68629 v 0.99957 H 10.864819 v -1.07593 z m 1.98943,-25.60993 v 1.57433 H 10.864819 v -1.57433 z m -4.13157,-26.262434 v 0.499787 H 96.794904 v -0.499787 z m -17.56197,0 v 0.499787 H 10.866207 V 82.128926 H 93.122856 Z M 62.285984,58.208553 v 0.691373 h -2.755771 v -0.691373 h 2.754383 z m 0.649723,1.920016 h -0.651111 v -0.308202 h -2.754383 v 0.308202 h -0.649724 v -0.960702 h 4.05383 v 0.960702 z m -16.566558,0.305426 v 0.69276 h -5.356053 v -0.691372 h 5.356053 z m 0,3.84142 -0.458138,0.191585 v -2.035245 h 0.458138 v -0.38317 h -5.356053 v 0.38317 h 0.535883 v 2.918202 h -0.497011 v -2.418414 h -0.688596 v -1.689559 h 6.656889 v 1.689559 h -0.651112 z m 10.674622,-7.258021 v 0.691372 H 51.72659 v -0.691372 z m 0,4.531404 -0.458138,0.191585 v -2.72384 h 0.495622 v -0.384559 h -5.356053 v 0.384559 h 0.535883 v 3.838643 l -1.070378,0.347075 v -0.53866 h 0.573367 v -2.87933 h -0.688595 v -1.9575 h 6.770728 v 1.68817 H 57.159 l -0.115229,2.035245 z m 24.025883,-8.830963 v 0.691372 h -4.09409 v -0.691372 h 4.095479 z m 0.535883,7.371862 h -0.803824 v -1.189771 h -0.381782 v -4.33982 h 0.49701 v -0.191585 h -3.939989 v 0.384559 h 0.497011 v 4.18433 h -0.497011 v 1.191159 H 76.32584 v -1.920016 h 0.649724 V 55.327835 H 76.212 v -1.68817 h 5.508766 v 1.68817 H 81.03217 v 2.880718 h 0.573367 z m 19.358423,-7.256633 v 0.691372 h -5.35605 v -0.691372 z m 0.53589,7.410734 h -0.64973 v -1.228644 h -0.42065 v -4.339819 h 0.53449 V 54.36991 h -5.35605 v 0.344297 h 0.49701 v 4.185719 h -0.381782 v 1.228643 h -0.651111 v -1.920016 h 0.574755 v -2.880718 h -0.688596 v -1.650686 h 6.656884 v 1.652074 h -0.68859 v 2.87933 h 0.57337 z m 23.49,-7.986878 v 0.767729 H 119.4436 V 52.25692 h 5.54763 z m -6.35008,-20.580127 v -3.841421 h -3.82615 v 4.109362 l 3.82615,-0.26933 z m 23.68159,0 3.82615,0.38317 v -4.262075 h -3.82615 z M 130.53887,0 h 0.26656 v 30.33292 h 0.42204 l 3.09868,0.345686 v -3.840032 h 0.53588 v 3.840032 l 6.88596,0.767729 v -3.53183 h -0.45953 v -0.806601 l 2.83213,-0.6525 2.94597,0.499787 v 0.957926 h -0.30682 v 4.070489 l 2.2185,0.306814 0.19159,0.960702 h -16.6804 v -1.652074 h -4.05522 v 1.652074 h -16.56656 l 0.19159,-0.960702 2.2185,-0.305425 v -4.071878 h -0.3443 v -0.957926 l 2.94597,-0.499787 2.83213,0.6525 v 0.844085 h -0.45953 v 3.379117 l 6.88596,-0.767728 v -3.840032 h 0.57475 v 3.840032 l 3.13756,-0.347075 h 0.42065 V 0 Z m 4.05383,41.314356 a 4.2620745,4.2620745 0 0 1 1.65902,-2.491994 4.2343085,4.2343085 0 0 1 5.5643,0.535883 4.2759574,4.2759574 0 0 1 1.15645,2.762712 v 1.113415 h -0.3443 v -1.113415 a 3.8455851,3.8455851 0 0 0 -1.12036,-2.71551 3.8205957,3.8205957 0 0 0 -5.41158,0 3.8455851,3.8455851 0 0 0 -1.12036,2.71551 V 43.1955 h -0.61085 v -1.113415 a 3.8455851,3.8455851 0 0 0 -1.12174,-2.715511 3.8178191,3.8178191 0 0 0 -5.4102,0 3.8455851,3.8455851 0 0 0 -1.12036,2.715511 V 43.1955 h -0.45813 v -1.074543 c 0,-1.01901 -0.404,-1.994984 -1.12175,-2.71551 a 3.8178191,3.8178191 0 0 0 -5.4102,0 3.8455851,3.8455851 0 0 0 -1.12035,2.71551 v 1.113415 h -0.30682 v -1.113415 a 4.3078883,4.3078883 0 0 1 1.25364,-2.965404 4.2773457,4.2773457 0 0 1 2.95429,-1.259186 c 0.97737,0 1.92419,0.341521 2.67803,0.964867 a 4.2329202,4.2329202 0 0 1 1.45494,2.453122 4.3037234,4.3037234 0 0 1 1.37858,-2.367047 4.2773457,4.2773457 0 0 1 2.52392,-1.050942 4.2509681,4.2509681 0 0 1 4.05383,3.417989 z m -10.17622,0.998187 v 8.829574 h -4.39813 V 42.27367 c 0,-0.580308 0.23046,-1.137016 0.63862,-1.546564 a 2.1768511,2.1768511 0 0 1 1.54101,-0.641393 2.2254415,2.2254415 0 0 1 2.21989,2.22683 z m 6.12239,-2.22683 c 0.5817,0 1.13979,0.229069 1.5549,0.638617 0.41649,0.409548 0.6525,0.966255 0.6636,1.54934 v 8.869835 H 128.2815 V 42.27367 a 2.1935106,2.1935106 0 0 1 1.39802,-2.044963 c 0.27349,-0.104122 0.56642,-0.152712 0.85796,-0.142994 z m -15.03526,-4.684117 h 0.45813 v 21.041042 h -0.45813 z m -2.48783,0 h 0.84131 v 21.041042 h -0.91767 z m 17.5217,79.556414 h 15.80161 v 0.61362 h -15.80161 l 6.81099,2.53503 -6.81099,-1.84365 -6.92344,1.84365 6.92344,-2.53503 h -15.6836 v -0.61362 h 15.68638 z m 18.28805,-80.862803 v 0.845474 h -36.65106 v -0.845474 z m -18.28666,23.383102 h 18.24918 v 0.499787 h -36.53723 v -0.499787 h 18.28666 z m 17.52032,-22.076713 v 21.041042 h -0.80382 V 35.401596 Z m -2.44896,0 v 21.041042 h -0.49701 V 35.401596 Z m -8.99061,6.910947 a 2.1935106,2.1935106 0 0 1 1.33693,-2.057458 2.2157234,2.2157234 0 0 1 3.06258,2.018585 v 8.869835 h -4.47587 z m -6.08352,9.790276 h 2.75577 v 0.767729 h -5.58651 v -0.767729 h 2.83212 z m 5.51015,0 h 5.50877 v 0.767729 h -5.58513 z m 5.50877,3.840032 h 0.8413 v 0.730245 h -23.71768 v -0.730245 h 0.84131 v -0.959314 h 5.54764 v 0.959314 h 2.71551 v -0.959314 h 5.4338 v 0.959314 h 2.75438 v -0.959314 h 5.50877 l 0.0763,0.959314 z m 57.65601,4.684117 51.7252,13.323495 h -3.82615 L 200.47299,62.431755 H 60.678335 L 14.003761,73.950463 H 10.176223 L 61.672356,60.664452 h 50.425754 v -1.305 h 36.72742 v 1.305 l 50.38688,-0.03748 z m -39.67478,-0.576144 v -1.842271 h 0.53588 v -2.880718 h -0.64972 v -1.650686 h 6.65689 v 1.652074 h -0.6886 v 2.87933 h 0.57337 v 1.881144 h -0.64972 v -1.228644 h -0.3443 v -4.185718 h 0.53449 V 54.36991 h -5.50876 v 0.344297 h 0.49701 v 4.185719 h -0.38178 v 1.228643 z m 0.53588,-7.410734 h 5.35606 v 0.691373 h -5.43241 z m 19.12936,7.258022 v -1.689559 h 0.57475 v -2.880718 h -0.68859 v -1.68817 h 5.54625 v 1.68817 h -0.5345 v 2.880718 h 0.57337 v 1.842271 h -0.57337 v -1.189771 h -0.42204 v -4.300947 h 0.42204 v -0.191585 h -4.2468 v 0.384559 h 0.42066 v 4.18433 h -0.42066 v 1.191159 z m 0.53588,-7.371862 h 4.36203 v 0.689984 h -4.2468 z m 24.02589,8.829574 v -1.881143 h -0.5345 v -1.650686 h 6.69437 v 1.689558 h -0.68859 v 2.87933 h 0.57475 v 0.53866 l -1.07176,-0.347075 v -3.838644 h 0.53588 v -0.384558 h -5.4338 v 0.384558 h 0.53588 v 2.726617 l -0.61223,-0.115228 z m 0,-4.530015 h 5.39492 v 0.691372 h -5.31857 z m 10.94256,7.295505 v -1.037059 h -0.6886 v -1.689558 h 6.65689 v 1.689558 H 220.023 v 2.419804 h -0.49701 v -3.072304 h 0.49701 v -0.38317 h -5.35605 v 0.38317 h 0.53588 v 1.881144 z m 0,-3.840032 h 5.35605 v 0.691372 h -5.35605 z m -16.4902,-0.345686 v -0.959314 h 4.0566 v 0.959314 h -0.65111 V 59.63017 h -2.98345 v 0.305426 z m 0.65111,-1.920016 h 2.75438 v 0.691372 h -2.98345 z m -68.32925,18.737856 h 128.05243 v 1.728431 H 2.2573723 v -1.728431 z m 124.60946,-5.989117 h 2.02691 v 1.381357 h -0.38178 l 0.38178,3.840031 h -89.79233 v -3.840031 h -2.86961 v 3.840031 h -0.3443 v -3.840031 h -14.00237 v 3.840031 h -0.30681 v -3.840031 h -2.9071 v 3.840031 h -0.3443 v -6.258446 h -11.745 a 4.4592128,4.4592128 0 0 0 -1.47437,-2.76549 4.4286702,4.4286702 0 0 0 -5.85168,0 4.4592128,4.4592128 0 0 0 -1.47437,2.76549 h -11.745 v 6.143218 h -0.30542 v -3.840032 h -2.90849 v 3.840032 h -0.3443 V 72.030447 H 96.756032 v 3.840032 h -0.305426 v -3.840032 h -2.869611 v 3.840032 H 3.863633 L 4.2468032,72.030447 H 3.8261489 V 70.64909 h 2.0269149 v 1.381357 H 5.4712819 l 0.3442979,3.225016 H 93.236697 v -3.225016 h -0.688596 v -1.457713 h 21.463089 v -0.846862 h -0.57476 V 68.26816 h 12.09069 v 0.191585 a 5.257484,5.257484 0 0 1 1.91168,-2.566963 5.2269415,5.2269415 0 0 1 6.08352,0 5.2588723,5.2588723 0 0 1 1.91308,2.568351 v -0.194362 h 12.05181 v 1.46049 h -0.53588 v 0.959313 h 21.42421 v 1.459102 h -0.68859 v 3.225015 h 87.45999 l 0.34429,-3.225015 h -0.42065 z M 130.53887,67.154745 a 2.9778989,2.9778989 0 0 1 2.75577,1.847824 3.0070532,3.0070532 0 0 1 -0.64694,3.263888 2.9806755,2.9806755 0 0 1 -5.09367,-2.117154 c 0,-0.794106 0.31515,-1.554893 0.87463,-2.117154 0.55948,-0.562261 1.31888,-0.877404 2.11021,-0.877404 z m 0,12.247564 H 257.67086 V 80.20891 H 3.290266 V 79.403697 H 130.53748 Z m 0,2.726617 h 16.06816 v 0.499787 h -32.25155 v -0.499787 z m 37.37853,0 h 82.14004 v 0.499787 h -82.21639 z m -17.59945,0 h 13.92602 v 0.499787 H 150.2416 Z m -4.13157,26.262434 h 103.87106 v 1.57433 H 146.11002 Z m 1.98943,25.60993 h 101.88163 v 0.99957 H 148.09945 Z m 0,6.06686 h 109.53392 v 5.29913 h -11.09527 v -2.68774 h -6.19736 v 2.87933 h -11.05641 v -2.87933 h -6.15988 v 2.87933 h -11.0564 v -2.87933 h -6.19875 v 2.87933 h -11.0564 v -2.87933 h -6.15988 v 2.87933 H 177.6341 v -2.87933 h -6.15849 v 2.87933 h -11.05779 v -2.87933 h -6.19736 v 2.87933 h -6.77212 v -7.33299 h -0.84131 v -23.26787 h 0.84131 v -0.88435 h -0.84131 v -1.34387 h -32.25155 v 1.34387 h -0.84269 v 0.88435 h 0.84269 v 23.26787 h -0.84269 v 7.1414 h -6.80822 v -2.68774 h -6.15987 v 2.87933 H 89.488293 v -2.87933 h -6.19875 v 2.87933 H 72.233138 v -2.87933 h -6.159877 v 2.87933 H 54.979372 v -2.87933 h -6.159877 v 2.87933 H 37.761702 v -2.87933 h -6.19875 v 2.87933 H 20.506548 v -2.87933 H 14.34667 v 2.87933 H 3.2125213 v -5.49072 H 112.86306 v -2.49477 h 0.84131 v -22.11559 h -0.84131 v -1.88253 h 0.84131 v -1.34387 h 33.55239 v 1.34387 h 0.84269 v 1.88114 h -0.84269 v 22.11559 h 0.84269 z m -3.52072,-34.86294 h 0.88018 v 6.52639 h -0.88018 z M 133.98185,89.348074 h 11.01753 v 0.844086 h -11.01753 z m -0.49701,-0.884345 V 86.12167 h 12.01294 v 2.342059 h -0.99541 v -0.499788 h 0.49701 v -0.344297 h -11.01753 v 0.345686 h 0.38178 v 0.499787 h -0.87879 z m 11.13276,2.265702 V 104.7443 h -0.38317 V 90.729431 Z m -9.8708,0 V 104.7443 h -0.38317 V 90.729431 Z M 237.66271,88.463729 V 86.12167 h 11.86023 v 2.342059 h -0.99541 v -0.499788 h 0.61224 v -0.344297 h -11.13276 v 0.345686 h 0.49701 v 0.499787 h -0.84131 z m -17.25515,0 V 86.12167 h 11.8991 v 2.342059 h -1.03289 v -0.499788 h 0.53449 v -0.344297 h -11.0564 v 0.345686 h 0.49701 v 0.499787 h -0.84131 z m -17.21628,0 V 86.12167 h 12.01294 v 2.342059 h -0.99402 v -0.499788 h 0.49701 v -0.344297 h -11.17164 v 0.345686 h 0.49702 v 0.499787 h -0.84131 z m -17.25516,0 V 86.12167 h 12.01433 v 2.342059 h -0.99541 v -0.499788 h 0.49701 v -0.344297 h -11.17163 v 0.345686 h 0.4984 v 0.499787 h -0.8427 z m -17.21628,0 V 86.12167 h 12.01433 v 2.342059 h -0.99541 v -0.499788 h 0.53588 v -0.344297 h -11.24799 v 0.345686 h 0.53589 v 0.499787 h -0.8427 z m -17.25377,0 V 86.12167 h 12.01295 v 2.342059 h -0.99541 v -0.499788 h 0.4984 v -0.344297 h -11.17164 v 0.345686 h 0.49701 v 0.499787 h -0.84131 z m -5.20334,18.161711 h 103.79471 v 0.46092 H 146.11002 Z M 252.04687,85.967569 h 4.43839 v -4.721601 h 1.30083 v 5.414362 h -0.64972 v 52.67896 h -1.79924 V 86.467356 h -3.29026 z m -0.64973,-4.721601 v 58.169682 h -0.49701 V 81.245968 Z M 136.39055,91.919202 h 6.19875 V 104.7443 h -6.19736 V 91.919202 Z m 52.33883,0 h 6.15988 v 14.091228 h -6.15988 z m 17.21628,0 h 6.19875 v 14.091228 h -6.19875 z m 17.25515,0 h 6.15988 v 14.091228 h -6.15988 z m 17.21629,0 h 6.19736 v 14.091228 h -6.19736 z m -87.99449,-1.189771 v 15.358739 h -0.38317 V 90.729431 Z m -0.76495,-1.381357 h 11.01753 v 0.844086 h -10.86482 z m 17.25377,0 h 10.98004 v 0.844086 h -10.82733 z m 17.25515,0 h 10.98005 v 0.844086 h -10.82734 z m 17.21628,0 h 11.32435 v 0.844086 h -11.17164 z m 17.25377,0 h 10.98143 v 0.844086 h -10.82733 z m 17.21628,0 h 11.28686 v 0.844086 h -11.13276 z m 10.63714,1.381357 v 15.358739 h -0.38317 V 90.729431 Z m -9.8708,0 v 15.358739 h -0.38317 V 90.729431 Z m -7.34548,0 v 15.358739 h -0.42205 V 90.729431 Z m -9.8708,0 v 15.358739 h -0.42204 V 90.729431 Z m -7.38436,0 v 15.358739 h -0.42065 V 90.729431 Z m -9.8708,0 v 15.358739 h -0.38317 V 90.729431 Z m -7.38435,0 v 15.358739 h -0.38178 V 90.729431 Z m -9.83193,0 v 15.358739 h -0.42065 V 90.729431 Z m -7.38435,0 v 15.358739 h -0.42066 V 90.729431 Z m -9.8708,0 v 15.358739 h -0.42066 V 90.729431 Z m -7.38297,0 v 15.358739 h -0.38317 V 90.729431 Z m 9.0281,1.191159 h 6.15988 v 14.09122 h -6.00578 z m -17.25377,0 h 6.19737 v 14.09122 h -6.04465 z m -2.41008,26.41514 h 11.01753 v 0.84548 h -10.86482 z m 17.25377,0 h 10.98004 v 0.84548 h -10.82733 z m 17.25515,0 h 10.98005 v 0.84548 h -10.82734 z m 17.21628,0 h 11.32435 v 0.84548 h -11.17164 z m 17.25377,0 h 10.98143 v 0.84548 h -10.82733 z m 17.21628,0 h 11.28686 v 0.84548 h -11.13276 z m -75.7136,1.03706 v 14.01487 h -0.42066 v -14.01487 z m 7.6523,0 v 14.01487 h -0.38317 v -14.01487 z m 9.56398,0 v 14.01487 h -0.22907 v -14.01487 z m 7.6523,0 v 14.01487 h -0.42066 v -14.01487 z m 9.5265,0 v 14.01487 h -0.38317 v -14.01487 z m 7.6523,0 v 14.01487 h -0.38317 v -14.01487 z m 9.56398,0 v 14.01487 h -0.42065 v -14.01487 z m 7.6523,0 v 14.01487 h -0.42204 v -14.01487 z m 9.56398,0 v 14.01487 h -0.42065 v -14.01487 z m 7.6523,0 v 14.01487 h -0.42204 v -14.01487 z m 9.5265,0 v 14.01487 h -0.38317 v -14.01487 z m -95.64678,0 v 14.01487 h -0.38317 v -14.01487 z m -3.82615,18.85309 h 101.42349 v 0.61363 H 148.74918 Z m 39.9802,-17.66193 h 6.15988 v 12.82371 h -6.08352 z m 17.21628,0 h 6.19736 v 12.82371 h -6.121 z m 17.25516,0 h 6.15849 v 12.82371 h -6.08214 z m 17.21628,0 h 6.19736 v 12.82371 h -6.121 z m -68.86513,0 h 6.15849 v 12.82371 h -6.15849 z m -17.25515,0 h 6.19736 v 12.82371 h -6.19736 z m -23.68159,27.18426 H 261 v 2.18796 H 0 v -2.18796 z m 37.30218,-35.01842 h 82.21639 v 0.49978 H 167.7633 Z m -17.5231,0 h 13.88853 v 0.49978 H 150.2416 Z m 14.65349,-32.214067 v 3.302761 h -0.57476 v 1.535457 h 0.42066 V 106.0493 h -0.3443 V 85.508043 h -0.42066 v -2.035245 h 0.57476 v -2.957075 z m 2.48644,0 v 2.957075 h 0.57336 v 2.035245 h -0.42065 V 106.0493 h -0.30543 V 85.353941 h 0.38179 v -1.727042 h -0.57337 v -3.109787 h 0.3443 z m 0,30.217687 v 2.95708 h 0.57336 v 2.1116 h -0.42065 v 17.66193 h -0.30543 v -17.89239 h 0.38179 v -1.72704 h -0.57337 v -3.10979 h 0.3443 z m -2.48644,0 v 3.30277 h -0.57476 v 1.53545 h 0.42066 v 17.81603 h -0.3443 v -17.58557 h -0.42066 v -2.03524 h 0.57476 v -2.95708 z m -17.5231,-30.217687 v 3.109788 h -0.57337 v 1.72843 h 0.38179 V 106.0493 h -0.30543 V 85.508043 h -0.42065 v -2.035245 h 0.57336 v -2.957075 z m 2.48644,0 v 2.957075 h 0.57476 v 2.035245 h -0.42066 V 106.0493 h -0.42065 V 85.353941 h 0.42065 v -1.535457 h -0.42065 v -3.302761 z m 0.19159,30.217687 v 2.95708 h 0.57475 v 2.1116 h -0.42204 v 17.66193 h -0.30543 v -17.89239 h 0.42066 v -1.53545 h -0.72608 v -3.30277 z m -3.05981,29.29725 v 5.33662 h -7.19277 v -5.33662 z m -16.4902,-19.19877 h 5.20334 l 1.72149,0.53727 0.88018,0.76773 0.49701,1.15229 v -3.84003 h -0.99402 v 0.19297 h -14.50077 v 0.42204 h -0.99403 v 3.84004 l 0.45814,-1.15229 0.91906,-0.76773 1.68261,-0.53727 h 1.41607 z m 7.11641,-2.80297 h 2.29486 v 1.68956 h -0.72608 v 5.29913 h -0.42066 v 20.50238 h -16.68178 v -20.50238 h -0.38179 v -5.14503 h -0.76495 v -1.68956 h 2.33234 v 0.42204 h 14.19535 z"
     style="fill:#ffffff;stroke-width:1.3883"
     id="path2" />
</svg>
