<?xml version="1.0" encoding="UTF-8" standalone="no"?>
<svg
   xmlns:dc="http://purl.org/dc/elements/1.1/"
   xmlns:cc="http://creativecommons.org/ns#"
   xmlns:rdf="http://www.w3.org/1999/02/22-rdf-syntax-ns#"
   xmlns:svg="http://www.w3.org/2000/svg"
   xmlns="http://www.w3.org/2000/svg"
   xmlns:sodipodi="http://sodipodi.sourceforge.net/DTD/sodipodi-0.dtd"
   xmlns:inkscape="http://www.inkscape.org/namespaces/inkscape"
   viewBox="0 0 261 50.999998"
   version="1.1"
   id="svg316"
   sodipodi:docname="second.svg"
   inkscape:version="1.0.2 (e86c870879, 2021-01-15, custom)"
   width="261"
   height="51">
  <metadata
     id="metadata322">
    <rdf:RDF>
      <cc:Work
         rdf:about="">
        <dc:format>image/svg+xml</dc:format>
        <dc:type
           rdf:resource="http://purl.org/dc/dcmitype/StillImage" />
        <dc:title></dc:title>
      </cc:Work>
    </rdf:RDF>
  </metadata>
  <defs
     id="defs320" />
  <sodipodi:namedview
     pagecolor="#ffffff"
     bordercolor="#666666"
     borderopacity="1"
     objecttolerance="10"
     gridtolerance="10"
     guidetolerance="10"
     inkscape:pageopacity="0"
     inkscape:pageshadow="2"
     inkscape:window-width="1920"
     inkscape:window-height="1016"
     id="namedview318"
     showgrid="false"
     inkscape:zoom="4.9655172"
     inkscape:cx="130.5"
     inkscape:cy="73.833333"
     inkscape:window-x="1366"
     inkscape:window-y="0"
     inkscape:window-maximized="1"
     inkscape:current-layer="svg316"
     inkscape:document-rotation="0" />
  <path
     d="m 220.882,38.46 h -3.792 v 3.102 h 3.792 z m 25.863,0 h -3.792 v 3.102 h 3.792 z m -202.816,0 h -3.792 v 3.102 h 3.792 z m -25.863,0 h -3.793 v 3.102 h 3.793 z"
     style="fill:#ffffff"
     id="path2" />
  <path
     d="m 221.41,37.93 h -4.863 v 10.98 h 4.863 z m 25.86,0 h -4.864 v 10.98 h 4.864 z m -202.797,0 h -4.864 v 10.98 h 4.864 z m -25.879,0 H 13.73 v 10.98 h 4.864 z m 55.584,0.582 h -3.354 v 7.555 h 3.354 z M 89.295,37.895 H 84.66 V 46.7 h 4.635 v -8.806 z"
     style="fill:#ffffff"
     id="path4" />
  <path
     d="m 88.662,38.512 h -3.353 v 7.555 h 3.353 z M 11.237,37.895 H 6.602 V 46.7 h 4.635 v -8.806 z"
     style="fill:#ffffff"
     id="path6" />
  <path
     d="M 10.603,38.512 H 7.25 v 7.555 h 3.353 z M 25.72,37.895 H 21.086 V 46.7 h 4.635 v -8.806 z"
     style="fill:#ffffff"
     id="path8" />
  <path
     d="m 25.088,38.512 h -3.354 v 7.555 h 3.354 z M 37.096,37.895 H 32.46 V 46.7 h 4.635 v -8.806 z"
     style="fill:#ffffff"
     id="path10" />
  <path
     d="m 36.467,38.512 h -3.354 v 7.555 h 3.354 z M 51.58,37.895 H 46.945 V 46.7 h 4.635 v -8.806 z"
     style="fill:#ffffff"
     id="path12" />
  <path
     d="m 50.951,38.512 h -3.353 v 7.555 h 3.353 z"
     style="fill:#ffffff"
     id="path14" />
  <path
     fill-rule="evenodd"
     clip-rule="evenodd"
     d="m 25.317,23.28 v 8.154 h 0.281 v 0.463 h -4.371 v -0.463 h 0.28 V 23.28 h 1.458 v -0.977 h -1.457 v -0.205 h 3.827 v 0.205 H 23.86 v 0.977 z"
     style="fill:#ffffff"
     id="path16" />
  <path
     d="M 24.669,23.914 H 22.14 v 7.35 h 2.528 v -7.35 z"
     style="fill:#ffffff"
     id="path18" />
  <path
     fill-rule="evenodd"
     clip-rule="evenodd"
     d="m 36.692,23.28 v 8.154 h 0.281 v 0.463 h -4.371 v -0.463 h 0.28 V 23.28 h 1.458 v -0.977 h -1.458 v -0.205 h 3.81 v 0.205 h -1.457 v 0.977 z"
     style="fill:#ffffff"
     id="path20" />
  <path
     d="m 36.044,23.914 h -2.528 v 7.35 h 2.528 z"
     style="fill:#ffffff"
     id="path22" />
  <path
     fill-rule="evenodd"
     clip-rule="evenodd"
     d="m 74.407,23.28 v 8.154 h 0.281 v 0.463 h -4.372 v -0.463 h 0.281 V 23.28 h 1.458 v -0.977 h -1.458 v -0.205 h 3.81 v 0.205 H 72.95 v 0.977 z"
     style="fill:#ffffff"
     id="path24" />
  <path
     d="m 73.755,23.914 h -2.528 v 7.35 h 2.528 z"
     style="fill:#ffffff"
     id="path26" />
  <path
     fill-rule="evenodd"
     clip-rule="evenodd"
     d="m 51.177,23.28 v 8.154 h 0.28 v 0.463 h -4.371 v -0.463 h 0.28 V 23.28 h 1.458 v -0.977 h -1.457 v -0.205 h 3.81 v 0.205 h -1.458 v 0.977 z"
     style="fill:#ffffff"
     id="path28" />
  <path
     d="M 50.528,23.914 H 48 v 7.35 h 2.528 z"
     style="fill:#ffffff"
     id="path30" />
  <path
     fill-rule="evenodd"
     clip-rule="evenodd"
     d="m 81.657,23.28 v 8.154 h 0.264 v 0.463 H 77.566 V 31.434 H 77.83 V 23.28 h 1.457 V 22.303 H 77.83 v -0.205 h 3.827 v 0.205 H 80.2 v 0.977 z"
     style="fill:#ffffff"
     id="path32" />
  <path
     d="M 81.009,23.914 H 78.48 v 7.35 h 2.528 v -7.35 z"
     style="fill:#ffffff"
     id="path34" />
  <path
     fill-rule="evenodd"
     clip-rule="evenodd"
     d="m 88.891,23.28 v 8.154 h 0.281 v 0.463 h -4.371 v -0.463 h 0.28 V 23.28 h 1.458 v -0.977 h -1.457 v -0.205 h 3.81 v 0.205 h -1.458 v 0.977 z"
     style="fill:#ffffff"
     id="path36" />
  <path
     d="m 88.24,23.914 h -2.53 v 7.35 h 2.53 z"
     style="fill:#ffffff"
     id="path38" />
  <path
     fill-rule="evenodd"
     clip-rule="evenodd"
     d="m 10.833,23.28 v 8.154 h 0.263 v 0.463 H 6.742 V 31.434 H 7.023 V 23.28 h 1.44 v -0.977 h -1.44 v -0.205 h 3.81 v 0.205 H 9.376 v 0.977 z"
     style="fill:#ffffff"
     id="path40" />
  <path
     d="M 10.184,23.914 H 7.656 v 7.35 h 2.528 z"
     style="fill:#ffffff"
     id="path42" />
  <path
     fill-rule="evenodd"
     clip-rule="evenodd"
     d="m 18.083,23.28 v 8.154 h 0.263 v 0.463 h -4.354 v -0.463 h 0.263 V 23.28 h 1.458 v -0.977 h -1.457 v -0.205 h 3.827 v 0.205 h -1.457 v 0.977 z"
     style="fill:#ffffff"
     id="path44" />
  <path
     d="m 17.434,23.914 h -2.528 v 7.35 h 2.528 z"
     style="fill:#ffffff"
     id="path46" />
  <path
     fill-rule="evenodd"
     clip-rule="evenodd"
     d="m 43.946,23.28 v 8.154 h 0.264 v 0.463 h -4.355 v -0.463 h 0.264 V 23.28 h 1.457 v -0.977 h -1.457 v -0.205 h 3.827 v 0.205 H 42.49 v 0.977 h 1.457 z"
     style="fill:#ffffff"
     id="path48" />
  <path
     d="m 43.294,23.914 h -2.528 v 7.35 h 2.528 z M 31.918,22.082 h -0.211 v 11.752 h 0.21 V 22.082 Z m -5.442,0 h -0.21 v 11.752 h 0.21 z m 10.339,11.254 h -4.073 v 0.531 h 4.073 z m -11.375,0 h -4.073 v 0.531 H 25.44 Z M 65.68,13.121 h -9.586 v 0.206 h 9.586 z"
     style="fill:#ffffff"
     id="path50" />
  <path
     fill-rule="evenodd"
     clip-rule="evenodd"
     d="m 68.085,21.501 v -9.32 H 65.33 l -1.58,0.138 h -5.724 l -1.58,-0.137 h -2.721 v 9.32 h 3.265 v 0.205 h -2.826 v 11.992 h -0.65 V 21.707 h -0.439 v -9.868 h 2.616 c 1.716,-0.464 3.487,-0.7 5.267,-0.702 1.78,0.005 3.551,0.24 5.267,0.702 h 2.634 v 10.005 h -0.597 v 11.992 h -0.65 V 21.844 h -2.826 v -0.223 h 3.3 v -0.12 z"
     style="fill:#ffffff"
     id="path52" />
  <path
     fill-rule="evenodd"
     clip-rule="evenodd"
     d="m 64.891,19.564 h -0.316 c 0,-0.474 -0.096,-0.944 -0.282,-1.383 a 3.612,3.612 0 0 0 -0.803,-1.173 3.712,3.712 0 0 0 -1.202,-0.783 3.783,3.783 0 0 0 -2.835,0 c -0.45,0.181 -0.858,0.448 -1.202,0.783 a 3.612,3.612 0 0 0 -0.803,1.173 3.538,3.538 0 0 0 -0.282,1.383 h -0.298 a 3.842,3.842 0 0 1 0.29,-1.517 c 0.2,-0.482 0.494,-0.92 0.868,-1.29 0.374,-0.37 0.82,-0.663 1.311,-0.864 a 4.11,4.11 0 0 1 1.551,-0.303 4.14,4.14 0 0 1 2.83,1.193 3.942,3.942 0 0 1 1.173,2.781 z m 2.843,-4.18 v 0.206 h -1.738 v -3.067 h 0.21 v 2.861 z m -13.694,0 h 1.526 v -2.86 h 0.211 V 15.59 H 54.04 Z"
     style="fill:#ffffff"
     id="path54" />
  <path
     d="M 52.39,20.574 H 1.421 v 0.583 h 50.967 v -0.583 z m 37.657,0 H 69.383 v 0.583 h 20.664 z m 0,-0.976 H 69.383 v 0.205 h 20.664 z m -37.677,0 H 0.367 v 0.205 H 52.371 V 19.598 Z M 2.702,35.633 H 1.754 v 11.204 h 0.948 z"
     style="fill:#ffffff"
     id="path56" />
  <path
     fill-rule="evenodd"
     clip-rule="evenodd"
     d="m 1.982,21.535 h 0.334 v 0.36 h 0.93 v 10.947 h -0.86 v 1.045 H 1.754 V 32.499 H 2.298 V 22.237 H 1.982 Z m 51.074,12.762 15.661,-0.05 21.929,0.05 v 0.292 H 68.699 L 53.074,34.537 1.281,34.589 v -0.291 h 51.775 z m 0,0.601 15.661,-0.035 21.929,0.035 v 0.29 H 68.699 L 53.074,35.154 1.281,35.189 v -0.291 z"
     style="fill:#ffffff"
     id="path58" />
  <path
     d="m 68.208,35.754 h -0.65 V 46.58 h 0.65 z m -13.976,0 h -0.65 V 46.58 h 0.65 z"
     style="fill:#ffffff"
     id="path60" />
  <path
     fill-rule="evenodd"
     clip-rule="evenodd"
     d="M 64.242,44.371 H 63.996 V 40.996 H 57.78 v 3.375 h -0.246 v -3.923 h -0.14 v -0.343 h 6.987 v 0.343 h -0.14 v 3.923 z m -0.896,-4.797 h -0.193 v -3.17 h -4.53 v 3.17 H 58.43 v -3.597 h 4.916 z"
     style="fill:#ffffff"
     id="path62" />
  <path
     d="m 63.328,41.578 h -4.863 v 7.35 h 4.863 z M 63.15,33.336 h -4.529 v 0.531 h 4.53 V 33.336 Z M 63.135,23.281 h -4.494 v 9.457 h 4.494 V 23.28 Z"
     style="fill:#ffffff"
     id="path64" />
  <path
     fill-rule="evenodd"
     clip-rule="evenodd"
     d="m 60.887,17.098 c 0.324,0.009 0.644,0.08 0.94,0.21 0.296,0.13 0.562,0.315 0.784,0.546 0.222,0.231 0.395,0.503 0.509,0.8 0.114,0.296 0.166,0.611 0.155,0.928 h -4.776 a 2.313,2.313 0 0 1 0.145,-0.934 2.36,2.36 0 0 1 0.508,-0.804 c 0.223,-0.232 0.491,-0.417 0.79,-0.546 a 2.47,2.47 0 0 1 0.945,-0.2 z m 18.855,20.13 a 2.56,2.56 0 0 0 -1.701,0.702 2.44,2.44 0 0 0 -0.757,1.645 h -0.123 a 2.575,2.575 0 0 1 0.693,-1.912 c 0.24,-0.257 0.532,-0.464 0.856,-0.61 a 2.722,2.722 0 0 1 1.032,-0.237 2.749,2.749 0 0 1 1.871,0.862 c 0.484,0.516 0.738,1.198 0.71,1.897 H 82.13 a 2.491,2.491 0 0 0 -0.744,-1.61 2.61,2.61 0 0 0 -1.644,-0.737 z m 3.355,7.143 h -0.246 v -3.375 h -6.215 v 3.375 H 76.391 V 40.448 H 76.25 v -0.343 h 6.988 v 0.343 h -0.14 v 3.923 z"
     style="fill:#ffffff"
     id="path66" />
  <path
     d="m 51.3,33.336 h -4.073 v 0.531 H 51.3 Z m 23.23,0 h -4.073 v 0.531 h 4.073 z m 7.654,8.242 H 77.32 v 7.35 h 4.864 z M 81.78,33.336 h -4.073 v 0.531 h 4.073 z m 7.235,0 H 84.94 v 0.531 h 4.074 v -0.531 z"
     style="fill:#ffffff"
     id="path68" />
  <path
     fill-rule="evenodd"
     clip-rule="evenodd"
     d="m 69.299,35.908 a 0.591,0.591 0 0 1 0.14,-0.377 h 6.128 a 0.71,0.71 0 0 1 0.14,0.377 V 36.97 A 0.592,0.592 0 0 1 75.533,37.388 0.622,0.622 0 0 1 75.11,37.57 H 69.843 A 0.622,0.622 0 0 1 69.42,37.388 0.592,0.592 0 0 1 69.246,36.97 Z"
     style="fill:#ffffff"
     id="path70" />
  <path
     d="M 10.956,33.336 H 6.883 v 0.531 h 4.073 z"
     style="fill:#ffffff"
     id="path72" />
  <path
     fill-rule="evenodd"
     clip-rule="evenodd"
     d="m 83.783,35.908 a 0.59,0.59 0 0 1 0.14,-0.377 h 6.128 a 0.71,0.71 0 0 1 0.14,0.377 v 1.062 a 0.592,0.592 0 0 1 -0.173,0.418 0.622,0.622 0 0 1 -0.424,0.182 H 84.327 A 0.622,0.622 0 0 1 83.904,37.388 0.592,0.592 0 0 1 83.731,36.97 Z"
     style="fill:#ffffff"
     id="path74" />
  <path
     d="m 18.206,33.336 h -4.073 v 0.531 h 4.073 z"
     style="fill:#ffffff"
     id="path76" />
  <path
     fill-rule="evenodd"
     clip-rule="evenodd"
     d="m 5.723,35.908 a 0.591,0.591 0 0 1 0.14,-0.377 h 6.127 a 0.71,0.71 0 0 1 0.14,0.377 v 1.062 a 0.592,0.592 0 0 1 -0.18,0.424 0.622,0.622 0 0 1 -0.434,0.176 H 6.25 A 0.622,0.622 0 0 1 5.827,37.388 0.592,0.592 0 0 1 5.653,36.97 Z m 7.234,0 a 0.71,0.71 0 0 1 0.14,-0.377 h 6.128 c 0.09,0.106 0.14,0.24 0.14,0.377 v 1.062 a 0.593,0.593 0 0 1 -0.173,0.418 0.622,0.622 0 0 1 -0.424,0.182 H 13.66 a 0.622,0.622 0 0 1 -0.434,-0.176 0.593,0.593 0 0 1 -0.18,-0.424 l -0.088,-1.062 z m 7.25,0 a 0.59,0.59 0 0 1 0.14,-0.377 h 6.128 a 0.71,0.71 0 0 1 0.14,0.377 v 1.062 a 0.593,0.593 0 0 1 -0.18,0.424 0.622,0.622 0 0 1 -0.434,0.176 H 20.734 A 0.622,0.622 0 0 1 20.31,37.388 0.593,0.593 0 0 1 20.137,36.97 Z m 11.377,0 a 0.59,0.59 0 0 1 0.14,-0.377 h 6.128 a 0.71,0.71 0 0 1 0.14,0.377 v 1.062 a 0.592,0.592 0 0 1 -0.174,0.418 0.622,0.622 0 0 1 -0.423,0.182 H 32.128 A 0.622,0.622 0 0 1 31.705,37.388 0.592,0.592 0 0 1 31.531,36.97 Z m 7.252,0 a 0.59,0.59 0 0 1 0.14,-0.377 h 6.11 c 0.09,0.106 0.14,0.24 0.14,0.377 V 36.97 A 0.592,0.592 0 0 1 45.053,37.388 0.622,0.622 0 0 1 44.63,37.57 H 39.363 A 0.621,0.621 0 0 1 38.939,37.388 0.592,0.592 0 0 1 38.766,36.97 Z"
     style="fill:#ffffff"
     id="path78" />
  <path
     d="m 44.07,33.336 h -4.074 v 0.531 h 4.073 v -0.531 z"
     style="fill:#ffffff"
     id="path80" />
  <path
     fill-rule="evenodd"
     clip-rule="evenodd"
     d="m 46.07,35.908 a 0.591,0.591 0 0 1 0.14,-0.377 h 6.075 a 0.71,0.71 0 0 1 0.14,0.377 v 1.062 a 0.592,0.592 0 0 1 -0.173,0.418 0.622,0.622 0 0 1 -0.423,0.182 H 46.562 A 0.622,0.622 0 0 1 46.139,37.388 0.592,0.592 0 0 1 45.965,36.97 Z M 16.17,17.645 h -3.39 c 1.141,-0.514 1.931,-1.56 3.389,-1.56 1.457,0 2.23,1.046 3.37,1.56 h -3.37 z m 25.861,-0.121 h -3.37 c 1.123,-0.531 1.913,-1.56 3.37,-1.56 1.457,0 2.247,1.029 3.371,1.56 h -3.37 z m 37.711,-0.067 h -3.37 c 1.123,-0.53 1.913,-1.559 3.37,-1.559 1.457,0 2.247,1.028 3.37,1.56 h -3.37 z"
     style="fill:#ffffff"
     id="path82" />
  <path
     fill-rule="evenodd"
     clip-rule="evenodd"
     d="m 6.496,18.312 h 45.893 v 0.633 H 6.285 v -2.312 h 0.21 v 1.679 z"
     style="fill:#ffffff"
     id="path84" />
  <path
     d="M 90.047,18.313 H 69.383 v 0.633 h 20.664 v -0.634 z"
     style="fill:#ffffff"
     id="path86" />
  <path
     fill-rule="evenodd"
     clip-rule="evenodd"
     d="M 32.005,17.987 H 31.777 V 15.76 H 31.18 v -0.48 h -4.161 v 0.48 h -0.615 v 2.227 h -0.21 v -2.57 h 0.614 V 15.023 H 10.445 V 14.132 H 8.321 L 6.109,16.017 H 2.72 v 3.032 H 0.613 v -0.84 h 1.703 v -3.032 h 3.459 l 2.23,-1.884 h 2.826 v 1.182 h 41.557 v 0.548 H 31.39 v 0.394 h 0.615 z"
     style="fill:#ffffff"
     id="path88" />
  <path
     d="M 90.047,14.477 H 69.383 v 0.548 h 20.664 z"
     style="fill:#ffffff"
     id="path90" />
  <path
     fill-rule="evenodd"
     clip-rule="evenodd"
     d="m 76.882,47.25 v 1.679 h -1.966 v -0.788 h -4.828 v 0.788 H 63.75 V 47.25 Z m -37.712,0 v 1.679 h -1.965 v -0.788 h -4.829 v 0.788 h -6.548 v -0.788 h -4.846 v 0.788 H 19.016 V 47.25 Z m 18.857,0 v 1.679 h -6.338 v -0.788 h -4.828 v 0.788 H 44.895 V 47.25 Z m -44.718,0 v 1.679 H 11.343 V 48.141 H 6.496 v 0.788 H 0.633 V 47.25 Z m 77.583,0 v 1.679 H 89.4 v -0.788 h -4.828 v 0.788 H 82.606 V 47.25 Z M 66.907,11.6 a 20.742,20.742 0 0 0 -6.04,-0.926 c -2.037,0.008 -4.062,0.32 -6.004,0.925 2.529,-1.935 3.512,-2.33 6.022,-2.33 2.51,0 3.494,0.395 6.022,2.33 z"
     style="fill:#ffffff"
     id="path92" />
  <path
     d="m 190.826,37.895 h -4.635 V 46.7 h 4.635 v -8.806 z"
     style="fill:#ffffff"
     id="path94" />
  <path
     d="m 190.178,38.512 h -3.354 v 7.555 h 3.354 z m -13.836,-0.617 h -4.635 V 46.7 h 4.635 v -8.806 z"
     style="fill:#ffffff"
     id="path96" />
  <path
     d="m 175.693,38.512 h -3.353 v 7.555 h 3.353 z m 78.704,-0.617 h -4.635 V 46.7 h 4.635 v -8.806 z"
     style="fill:#ffffff"
     id="path98" />
  <path
     d="m 253.767,38.512 h -3.353 v 7.555 h 3.353 z m -13.855,-0.617 h -4.635 V 46.7 h 4.635 v -8.806 z"
     style="fill:#ffffff"
     id="path100" />
  <path
     d="m 239.283,38.512 h -3.353 v 7.555 h 3.353 z m -10.746,-0.617 h -4.635 V 46.7 h 4.635 v -8.806 z"
     style="fill:#ffffff"
     id="path102" />
  <path
     d="m 227.889,38.512 h -3.354 v 7.555 h 3.354 z m -13.836,-0.617 h -4.635 V 46.7 h 4.635 v -8.806 z"
     style="fill:#ffffff"
     id="path104" />
  <path
     d="m 213.404,38.512 h -3.353 v 7.555 h 3.353 z"
     style="fill:#ffffff"
     id="path106" />
  <path
     fill-rule="evenodd"
     clip-rule="evenodd"
     d="m 235.681,23.28 h 1.458 v -0.977 h -1.458 v -0.205 h 3.81 v 0.205 h -1.44 v 0.977 h 1.458 v 8.154 h 0.263 v 0.463 h -4.354 v -0.463 h 0.263 z"
     style="fill:#ffffff"
     id="path108" />
  <path
     d="m 238.86,23.914 h -2.528 v 7.35 h 2.528 z"
     style="fill:#ffffff"
     id="path110" />
  <path
     fill-rule="evenodd"
     clip-rule="evenodd"
     d="m 224.306,23.28 h 1.458 v -0.977 h -1.458 v -0.205 h 3.828 v 0.205 h -1.458 v 0.977 h 1.458 v 8.154 h 0.263 v 0.463 h -4.354 v -0.463 h 0.263 z"
     style="fill:#ffffff"
     id="path112" />
  <path
     d="m 227.485,23.914 h -2.528 v 7.35 h 2.528 z"
     style="fill:#ffffff"
     id="path114" />
  <path
     fill-rule="evenodd"
     clip-rule="evenodd"
     d="m 186.595,23.28 h 1.458 v -0.977 h -1.458 v -0.205 h 3.828 v 0.205 h -1.457 v 0.977 h 1.457 v 8.154 h 0.263 v 0.463 h -4.354 v -0.463 h 0.263 z"
     style="fill:#ffffff"
     id="path116" />
  <path
     d="m 189.77,23.914 h -2.528 v 7.35 h 2.528 z"
     style="fill:#ffffff"
     id="path118" />
  <path
     fill-rule="evenodd"
     clip-rule="evenodd"
     d="m 209.822,23.28 h 1.457 v -0.977 h -1.457 v -0.205 h 3.827 v 0.205 h -1.457 v 0.977 h 1.457 v 8.154 h 0.264 v 0.463 h -4.354 v -0.463 h 0.263 z"
     style="fill:#ffffff"
     id="path120" />
  <path
     d="m 213.001,23.914 h -2.528 v 7.35 h 2.528 z"
     style="fill:#ffffff"
     id="path122" />
  <path
     fill-rule="evenodd"
     clip-rule="evenodd"
     d="m 179.359,23.28 h 1.457 v -0.977 h -1.457 v -0.205 h 3.81 v 0.205 h -1.457 v 0.977 h 1.457 v 8.154 h 0.281 v 0.463 h -4.372 v -0.463 h 0.281 z"
     style="fill:#ffffff"
     id="path124" />
  <path
     d="m 182.52,23.914 h -2.528 v 7.35 h 2.528 z"
     style="fill:#ffffff"
     id="path126" />
  <path
     fill-rule="evenodd"
     clip-rule="evenodd"
     d="m 172.111,23.28 h 1.457 v -0.977 h -1.457 v -0.205 h 3.827 v 0.205 h -1.457 v 0.977 h 1.457 v 8.154 h 0.264 v 0.463 h -4.354 v -0.463 h 0.263 z"
     style="fill:#ffffff"
     id="path128" />
  <path
     d="m 175.286,23.914 h -2.528 v 7.35 h 2.528 z"
     style="fill:#ffffff"
     id="path130" />
  <path
     fill-rule="evenodd"
     clip-rule="evenodd"
     d="m 250.166,23.28 h 1.457 v -0.977 h -1.457 v -0.205 h 3.827 v 0.205 h -1.457 v 0.977 h 1.457 v 8.154 h 0.263 v 0.463 h -4.354 v -0.463 h 0.264 z"
     style="fill:#ffffff"
     id="path132" />
  <path
     d="m 253.345,23.914 h -2.529 v 7.35 h 2.529 z"
     style="fill:#ffffff"
     id="path134" />
  <path
     fill-rule="evenodd"
     clip-rule="evenodd"
     d="m 242.933,23.28 h 1.457 v -0.977 h -1.457 v -0.205 h 3.81 v 0.205 h -1.457 v 0.977 h 1.457 v 8.154 h 0.281 v 0.463 h -4.372 v -0.463 h 0.281 z"
     style="fill:#ffffff"
     id="path136" />
  <path
     d="m 246.11,23.914 h -2.528 v 7.35 h 2.528 z"
     style="fill:#ffffff"
     id="path138" />
  <path
     fill-rule="evenodd"
     clip-rule="evenodd"
     d="m 217.074,23.28 h 1.457 v -0.977 h -1.457 v -0.205 h 3.81 v 0.205 h -1.458 v 0.977 h 1.458 v 8.154 h 0.281 v 0.463 h -4.372 v -0.463 h 0.281 z"
     style="fill:#ffffff"
     id="path140" />
  <path
     d="m 220.231,23.914 h -2.528 v 7.35 h 2.528 z m 9.062,-1.832 h -0.211 v 11.752 h 0.211 z m 5.441,0 h -0.211 v 11.752 h 0.211 z m -6.477,11.254 h -4.073 v 0.531 h 4.073 z m 11.375,0 h -4.073 v 0.531 h 4.073 z M 204.906,13.121 h -9.586 v 0.206 h 9.586 z"
     style="fill:#ffffff"
     id="path142" />
  <path
     fill-rule="evenodd"
     clip-rule="evenodd"
     d="m 192.95,21.501 h 3.301 v 0.223 h -2.827 V 33.716 H 192.74 V 21.724 h -0.439 v -9.885 h 2.616 a 20.658,20.658 0 0 1 5.267,-0.702 c 1.745,0.01 3.48,0.247 5.162,0.702 h 2.615 v 10.005 h -0.438 v 11.992 h -0.738 V 21.844 h -2.826 v -0.206 h 3.283 v -9.456 h -2.722 l -1.58,0.137 h -5.741 l -1.58,-0.137 h -2.721 l 0.052,9.32 z"
     style="fill:#ffffff"
     id="path144" />
  <path
     fill-rule="evenodd"
     clip-rule="evenodd"
     d="m 196.109,19.564 a 3.965,3.965 0 0 1 1.178,-2.777 4.159,4.159 0 0 1 2.825,-1.197 4.11,4.11 0 0 1 1.546,0.308 c 0.489,0.202 0.933,0.496 1.305,0.865 0.372,0.37 0.665,0.807 0.863,1.288 0.198,0.481 0.296,0.995 0.289,1.513 h -0.298 a 3.607,3.607 0 0 0 -1.089,-2.557 3.786,3.786 0 0 0 -2.616,-1.075 3.82,3.82 0 0 0 -2.612,1.11 3.639,3.639 0 0 0 -1.075,2.574 z m -2.828,-4.18 h 1.51 v -2.86 h 0.228 v 3.066 h -1.738 z m 13.68,0 v 0.206 h -1.738 v -3.067 h 0.228 v 2.861 z"
     style="fill:#ffffff"
     id="path146" />
  <path
     d="m 259.596,20.574 h -50.967 v 0.583 h 50.967 z m -67.982,0 h -20.665 v 0.583 h 20.665 z m 0,-0.976 h -20.665 v 0.205 h 20.665 z m 69.018,0 h -52.003 v 0.205 h 52.003 z m -1.371,16.035 h -0.949 v 11.204 h 0.949 z"
     style="fill:#ffffff"
     id="path148" />
  <path
     fill-rule="evenodd"
     clip-rule="evenodd"
     d="m 259.034,21.535 v 0.703 h -0.316 v 10.261 h 0.544 v 1.388 h -0.65 V 32.842 H 257.77 V 21.895 h 0.912 v -0.36 z m -51.091,12.762 h 51.792 v 0.292 H 207.943 L 192.3,34.537 170.371,34.589 V 34.298 H 192.3 l 15.643,-0.052 z m 0,0.601 h 51.792 v 0.29 H 207.943 L 192.3,35.154 170.371,35.189 V 34.898 H 192.3 l 15.643,-0.035 z"
     style="fill:#ffffff"
     id="path150" />
  <path
     d="m 193.458,35.754 h -0.649 V 46.58 h 0.649 z m 13.977,0 h -0.65 V 46.58 h 0.65 z"
     style="fill:#ffffff"
     id="path152" />
  <path
     fill-rule="evenodd"
     clip-rule="evenodd"
     d="m 196.76,44.371 v -3.923 h -0.123 v -0.343 h 6.97 v 0.343 h -0.123 v 3.923 h -0.263 v -3.375 h -6.198 v 3.375 z m 0.912,-4.797 v -3.597 h 4.898 v 3.597 h -0.193 v -3.17 h -4.512 v 3.17 z"
     style="fill:#ffffff"
     id="path154" />
  <path
     d="m 202.555,41.578 h -4.864 v 7.35 h 4.864 z m -0.178,-8.242 h -4.529 v 0.531 h 4.529 z m 0,-10.055 h -4.494 v 9.457 h 4.494 V 23.28 Z"
     style="fill:#ffffff"
     id="path156" />
  <path
     fill-rule="evenodd"
     clip-rule="evenodd"
     d="m 200.115,17.098 a 2.43,2.43 0 0 1 1.741,0.741 2.3,2.3 0 0 1 0.646,1.743 h -4.757 a 2.309,2.309 0 0 1 0.148,-0.927 2.38,2.38 0 0 1 0.503,-0.8 2.488,2.488 0 0 1 1.719,-0.758 z m -18.858,20.127 a 2.61,2.61 0 0 0 -1.688,0.716 2.487,2.487 0 0 0 -0.77,1.63 h -0.106 a 2.49,2.49 0 0 1 0.64,-1.979 c 0.244,-0.267 0.543,-0.481 0.877,-0.628 a 2.658,2.658 0 0 1 2.128,0 2.6,2.6 0 0 1 0.877,0.628 c 0.244,0.267 0.427,0.582 0.537,0.923 0.111,0.341 0.146,0.702 0.103,1.057 h -0.14 a 2.424,2.424 0 0 0 -0.753,-1.649 2.544,2.544 0 0 0 -1.705,-0.698 z m -3.355,7.146 v -3.923 h -0.14 v -0.343 h 6.987 v 0.343 h -0.123 v 3.923 h -0.263 v -3.375 h -6.215 v 3.375 z"
     style="fill:#ffffff"
     id="path158" />
  <path
     d="m 213.772,33.336 h -4.073 v 0.531 h 4.073 z m -23.226,0 h -4.073 v 0.531 h 4.073 z m -6.847,8.242 h -4.863 v 7.35 h 4.863 z m -0.407,-8.242 h -4.073 v 0.531 h 4.073 z m -7.231,0 h -4.073 v 0.531 h 4.073 z"
     style="fill:#ffffff"
     id="path160" />
  <path
     fill-rule="evenodd"
     clip-rule="evenodd"
     d="m 191.703,35.908 v 1.062 a 0.59,0.59 0 0 1 -0.174,0.418 0.62,0.62 0 0 1 -0.423,0.182 h -5.267 a 0.62,0.62 0 0 1 -0.423,-0.182 0.59,0.59 0 0 1 -0.174,-0.418 v -1.062 a 0.59,0.59 0 0 1 0.141,-0.377 h 6.109 c 0.116,0.096 0.191,0.23 0.211,0.377 z"
     style="fill:#ffffff"
     id="path162" />
  <path
     d="m 254.116,33.336 h -4.073 v 0.531 h 4.073 z"
     style="fill:#ffffff"
     id="path164" />
  <path
     fill-rule="evenodd"
     clip-rule="evenodd"
     d="m 177.219,35.908 v 1.062 a 0.595,0.595 0 0 1 -0.174,0.418 0.62,0.62 0 0 1 -0.423,0.182 h -5.267 a 0.62,0.62 0 0 1 -0.423,-0.182 0.59,0.59 0 0 1 -0.174,-0.418 v -1.062 a 0.589,0.589 0 0 1 0.14,-0.377 h 6.11 c 0.116,0.096 0.191,0.23 0.211,0.377 z"
     style="fill:#ffffff"
     id="path166" />
  <path
     d="m 246.866,33.336 h -4.073 v 0.531 h 4.073 z"
     style="fill:#ffffff"
     id="path168" />
  <path
     fill-rule="evenodd"
     clip-rule="evenodd"
     d="m 255.277,35.908 v 1.062 a 0.594,0.594 0 0 1 -0.173,0.418 0.625,0.625 0 0 1 -0.424,0.182 h -5.267 a 0.622,0.622 0 0 1 -0.423,-0.182 0.595,0.595 0 0 1 -0.174,-0.418 v -1.062 a 0.595,0.595 0 0 1 0.141,-0.377 h 6.11 c 0.115,0.096 0.19,0.23 0.21,0.377 z m -7.234,0 v 1.062 a 0.59,0.59 0 0 1 -0.174,0.418 0.62,0.62 0 0 1 -0.423,0.182 h -5.267 a 0.62,0.62 0 0 1 -0.423,-0.182 0.59,0.59 0 0 1 -0.174,-0.418 v -1.062 a 0.71,0.71 0 0 1 0.14,-0.377 h 6.128 a 0.597,0.597 0 0 1 0.193,0.377 z m -7.25,0 v 1.062 a 0.59,0.59 0 0 1 -0.174,0.418 0.62,0.62 0 0 1 -0.423,0.182 h -5.267 a 0.62,0.62 0 0 1 -0.423,-0.182 0.59,0.59 0 0 1 -0.174,-0.418 v -1.062 a 0.594,0.594 0 0 1 0.14,-0.377 h 6.11 c 0.116,0.096 0.191,0.23 0.211,0.377 z m -11.379,0 v 1.062 a 0.59,0.59 0 0 1 -0.174,0.418 0.62,0.62 0 0 1 -0.423,0.182 h -5.267 a 0.62,0.62 0 0 1 -0.423,-0.182 0.59,0.59 0 0 1 -0.174,-0.418 v -1.062 a 0.59,0.59 0 0 1 0.141,-0.377 h 6.109 c 0.116,0.096 0.191,0.23 0.211,0.377 z m -7.23,0 v 1.062 a 0.595,0.595 0 0 1 -0.174,0.418 0.622,0.622 0 0 1 -0.423,0.182 h -5.267 a 0.625,0.625 0 0 1 -0.424,-0.182 0.594,0.594 0 0 1 -0.173,-0.418 v -1.062 a 0.71,0.71 0 0 1 0.14,-0.377 h 6.127 a 0.716,0.716 0 0 1 0.194,0.377 z"
     style="fill:#ffffff"
     id="path170" />
  <path
     d="m 221.007,33.336 h -4.073 v 0.531 h 4.073 z"
     style="fill:#ffffff"
     id="path172" />
  <path
     fill-rule="evenodd"
     clip-rule="evenodd"
     d="m 214.93,35.908 v 1.062 a 0.595,0.595 0 0 1 -0.174,0.418 0.622,0.622 0 0 1 -0.423,0.182 h -5.267 a 0.625,0.625 0 0 1 -0.424,-0.182 0.594,0.594 0 0 1 -0.173,-0.418 v -1.062 a 0.589,0.589 0 0 1 0.14,-0.377 h 6.11 c 0.116,0.096 0.191,0.23 0.211,0.377 z m 29.902,-18.263 h -3.371 c 1.141,-0.514 1.931,-1.56 3.388,-1.56 1.458,0 2.23,1.046 3.371,1.56 z m -25.863,-0.121 h -3.407 c 1.142,-0.531 1.932,-1.56 3.371,-1.56 1.44,0 2.248,1.029 3.389,1.56 z m -37.711,-0.067 h -3.371 c 1.141,-0.53 1.913,-1.559 3.371,-1.559 1.457,0 2.247,1.028 3.388,1.56 h -3.388 z"
     style="fill:#ffffff"
     id="path174" />
  <path
     fill-rule="evenodd"
     clip-rule="evenodd"
     d="m 254.505,18.312 v -1.68 h 0.228 v 2.314 h -46.104 v -0.633 h 45.876 z"
     style="fill:#ffffff"
     id="path176" />
  <path
     d="m 191.614,18.313 h -20.665 v 0.633 h 20.665 v -0.634 z"
     style="fill:#ffffff"
     id="path178" />
  <path
     fill-rule="evenodd"
     clip-rule="evenodd"
     d="m 229.012,17.987 v -2.57 h 0.597 v -0.394 h -20.98 v -0.548 h 41.557 v -1.182 h 2.809 l 2.23,1.884 h 3.476 v 3.033 h 1.685 v 0.84 h -2.089 v -3.033 h -3.388 l -2.23,-1.885 h -2.107 v 0.891 h -16.363 v 0.394 h 0.597 v 2.57 h -0.211 V 15.76 h -0.614 v -0.48 h -4.143 v 0.48 h -0.615 v 2.227 z"
     style="fill:#ffffff"
     id="path180" />
  <path
     d="m 191.614,14.477 h -20.665 v 0.548 h 20.665 z"
     style="fill:#ffffff"
     id="path182" />
  <path
     fill-rule="evenodd"
     clip-rule="evenodd"
     d="m 184.117,47.25 h 13.15 v 1.679 h -6.338 v -0.788 h -4.845 v 0.788 h -1.967 z m 37.715,0 h 20.155 v 1.679 h -1.966 v -0.788 h -4.846 v 0.788 h -6.531 v -0.788 h -4.846 v 0.788 h -1.966 z m -18.855,0 h 13.15 v 1.679 h -1.967 v -0.788 h -4.845 v 0.788 h -6.338 z m 44.714,0 h 12.694 v 1.679 h -5.882 v -0.788 h -4.845 v 0.788 h -1.967 z m -77.582,0 h 8.305 v 1.679 h -1.967 v -0.788 h -4.845 v 0.788 h -1.493 z m 24,-35.65 c 2.529,-1.936 3.406,-2.33 6.005,-2.33 2.598,0 3.511,0.394 6.022,2.33 a 20.316,20.316 0 0 0 -5.987,-0.926 c -2.05,0.008 -4.086,0.32 -6.04,0.925 z m -36.082,35.357 h 12.027 v 1.97 h -4.881 v -1.165 h -4.372 v 1.165 h -2.774 z"
     style="fill:#ffffff"
     id="path184" />
  <path
     d="m 170.11,34.707 h -35.219 v 0.291 h 35.219 z m -37.382,-2.516 h -0.123 v 1.696 h 0.123 z m 0.477,0 h -0.123 v 1.696 h 0.123 z m 0.453,0 h -0.123 v 1.696 h 0.123 z m -6.195,0 h -0.123 v 1.696 h 0.123 z m 0.457,0 h -0.123 v 1.696 h 0.123 z m 0.472,0 h -0.122 v 1.696 h 0.122 z"
     style="fill:#ffffff"
     id="path186" />
  <path
     fill-rule="evenodd"
     clip-rule="evenodd"
     d="m 139.77,14.51 a 0.27,0.27 0 0 1 0,0.12 0.392,0.392 0 0 1 -0.149,0.258 0.41,0.41 0 0 1 -0.29,0.085 h -3.336 a 0.397,0.397 0 0 1 -0.284,-0.086 0.373,0.373 0 0 1 -0.137,-0.257 0.243,0.243 0 0 1 0,-0.12 v -0.291 h 4.178 z"
     style="fill:#ffffff"
     id="path188" />
  <path
     d="m 139.349,15.453 h -3.353 v 4.557 h 3.353 z"
     style="fill:#ffffff"
     id="path190" />
  <path
     fill-rule="evenodd"
     clip-rule="evenodd"
     d="m 121.246,14.51 v -0.291 h 4.179 v 0.377 a 0.395,0.395 0 0 1 -0.149,0.258 0.41,0.41 0 0 1 -0.29,0.084 h -3.336 a 0.411,0.411 0 0 1 -0.291,-0.084 0.39,0.39 0 0 1 -0.148,-0.258 0.242,0.242 0 0 1 0.035,-0.086 z"
     style="fill:#ffffff"
     id="path192" />
  <path
     d="m 125.006,15.453 h -3.354 v 4.557 h 3.354 z m 3.231,0.238 h -2.651 v 0.206 h 2.651 z m -0.265,0.497 h -0.21 v 14.664 h 0.21 V 16.187 Z m -1.894,0 h -0.211 V 31.04 h 0.211 z m 9.339,-0.497 h -2.651 v 0.206 h 2.651 z m -2.159,0.497 h -0.211 v 14.664 h 0.211 V 16.187 Z m 1.878,0 h -0.21 V 31.04 h 0.21 z m -0.983,15.281 h -7.18 v 0.342 h 7.18 z"
     style="fill:#ffffff"
     id="path194" />
  <path
     fill-rule="evenodd"
     clip-rule="evenodd"
     d="m 134.153,32.036 h -7.181 v 1.884 h -0.298 v -2.45 h -0.229 v -0.41 h 2.353 v -8.67 h 3.406 v 8.67 h 2.353 v 0.41 h -0.106 v 2.45 h -0.298 z M 132.59,14.51 c 0.01,0.04 0.01,0.08 0,0.12 a 0.373,0.373 0 0 1 -0.271,0.327 0.392,0.392 0 0 1 -0.15,0.015 h -3.354 a 0.392,0.392 0 0 1 -0.379,-0.2 0.373,0.373 0 0 1 -0.042,-0.142 0.243,0.243 0 0 1 0,-0.12 v -0.291 h 4.179 z"
     style="fill:#ffffff"
     id="path196" />
  <path
     d="m 132.185,15.453 h -3.353 v 4.557 h 3.353 z m 8.289,-2.211 h -19.927 v 0.206 h 19.927 z m -0.055,-2.039 h -19.821 v 0.48 h 19.821 z"
     style="fill:#ffffff"
     id="path198" />
  <path
     fill-rule="evenodd"
     clip-rule="evenodd"
     d="m 136.978,0 v 1.353 h 4.723 v 1.49 h 4.09 V 4.25 h 19.576 V 3.787 h 4.425 v 5.276 h 1.439 V 9.697 H 145.423 V 9.063 h 23.508 V 4.625 h -3.16 V 4.78 H 145.388 V 3.683 h -4.091 v -1.49 h -4.723 V 0.839 h -12.149 v 1.354 h -4.723 v 1.49 h -4.091 V 4.78 H 95.228 V 4.625 h -3.16 v 4.437 h 23.508 V 9.696 H 89.786 V 9.062 h 1.421 V 3.786 h 4.425 v 0.463 h 19.575 V 2.844 h 4.091 v -1.49 h 4.723 V 0 Z"
     style="fill:#ffffff"
     id="path200" />
  <path
     d="m 134.399,34.04 h -7.778 v 0.205 h 7.778 v -0.206 z m -2.196,-1.849 h -3.406 v 1.49 h 3.406 z"
     style="fill:#ffffff"
     id="path202" />
  <path
     fill-rule="evenodd"
     clip-rule="evenodd"
     d="m 130.5,37.398 c 0.288,0.022 0.568,0.103 0.822,0.237 0.254,0.133 0.476,0.318 0.653,0.54 a 1.995,1.995 0 0 1 0.404,1.587 h -3.74 a 2.007,2.007 0 0 1 0.41,-1.571 c 0.174,-0.222 0.393,-0.406 0.642,-0.542 a 2.15,2.15 0 0 1 0.809,-0.25 z"
     style="fill:#ffffff"
     id="path204" />
  <path
     d="m 132.345,42.195 h -3.669 v 6.733 h 3.669 z m 0.647,-1.902 h -4.986 a 0.26,0.26 0 0 0 -0.264,0.257 v 0.805 a 0.26,0.26 0 0 0 0.264,0.257 h 4.986 a 0.26,0.26 0 0 0 0.263,-0.257 V 40.55 a 0.26,0.26 0 0 0 -0.263,-0.257 z"
     style="fill:#ffffff"
     id="path206" />
  <path
     d="m 133.009,39.95 h -5.021 a 0.59,0.59 0 0 0 -0.597,0.582 v 0.822 a 0.59,0.59 0 0 0 0.597,0.583 h 5.021 a 0.59,0.59 0 0 0 0.597,-0.583 v -0.822 a 0.59,0.59 0 0 0 -0.597,-0.583 z m 1.423,-5.38 h -7.795 v 0.634 h 7.795 z m -9.356,-1.644 h -3.494 v 0.514 h 3.494 z"
     style="fill:#ffffff"
     id="path208" />
  <path
     fill-rule="evenodd"
     clip-rule="evenodd"
     d="m 125.284,31.316 v 0.463 h 0.509 v 0.274 h -4.934 v -0.274 h 0.527 v -0.463 z"
     style="fill:#ffffff"
     id="path210" />
  <path
     d="m 125.023,22.39 h -3.371 v 8.652 h 3.371 z m 14.397,10.536 h -3.494 v 0.514 h 3.494 z"
     style="fill:#ffffff"
     id="path212" />
  <path
     fill-rule="evenodd"
     clip-rule="evenodd"
     d="m 135.73,31.316 h 3.897 v 0.463 h 0.51 v 0.274 h -4.934 v -0.274 h 0.527 z"
     style="fill:#ffffff"
     id="path214" />
  <path
     d="m 139.367,22.39 h -3.371 v 8.652 h 3.371 z"
     style="fill:#ffffff"
     id="path216" />
  <path
     fill-rule="evenodd"
     clip-rule="evenodd"
     d="m 110.381,14.51 v -0.291 h 4.178 v 0.257 c 0.01,0.04 0.01,0.08 0,0.12 a 0.356,0.356 0 0 1 -0.042,0.142 0.386,0.386 0 0 1 -0.379,0.2 h -3.353 a 0.397,0.397 0 0 1 -0.284,-0.085 0.372,0.372 0 0 1 -0.138,-0.257 0.252,0.252 0 0 1 0.018,-0.086 z"
     style="fill:#ffffff"
     id="path218" />
  <path
     d="m 114.154,15.453 h -3.353 v 4.557 h 3.353 z"
     style="fill:#ffffff"
     id="path220" />
  <path
     fill-rule="evenodd"
     clip-rule="evenodd"
     d="m 103.199,14.51 v -0.291 h 4.179 v 0.377 a 0.395,0.395 0 0 1 -0.149,0.258 0.41,0.41 0 0 1 -0.29,0.084 h -3.371 a 0.411,0.411 0 0 1 -0.291,-0.084 0.39,0.39 0 0 1 -0.148,-0.258 0.236,0.236 0 0 1 0.07,-0.086 z"
     style="fill:#ffffff"
     id="path222" />
  <path
     d="m 106.92,15.453 h -3.354 v 4.557 h 3.354 z"
     style="fill:#ffffff"
     id="path224" />
  <path
     fill-rule="evenodd"
     clip-rule="evenodd"
     d="m 95.932,14.51 v -0.291 h 4.178 v 0.257 c 0.01,0.04 0.01,0.08 0,0.12 a 0.373,0.373 0 0 1 -0.27,0.327 0.396,0.396 0 0 1 -0.151,0.015 h -3.354 a 0.396,0.396 0 0 1 -0.283,-0.085 0.378,0.378 0 0 1 -0.138,-0.257 c 0,-0.03 0.007,-0.059 0.018,-0.086 z"
     style="fill:#ffffff"
     id="path226" />
  <path
     d="m 99.69,15.453 h -3.354 v 4.557 h 3.353 v -4.557 z m 0.07,17.437 h -3.494 v 0.515 h 3.493 v -0.514 z"
     style="fill:#ffffff"
     id="path228" />
  <path
     fill-rule="evenodd"
     clip-rule="evenodd"
     d="m 99.97,31.281 v 0.463 h 0.508 v 0.274 h -4.915 v -0.274 h 0.509 v -0.463 h 3.897 z"
     style="fill:#ffffff"
     id="path230" />
  <path
     d="m 99.707,22.39 h -3.371 v 8.652 h 3.37 V 22.39 Z m 7.283,10.5 h -3.494 v 0.515 h 3.494 v -0.514 z"
     style="fill:#ffffff"
     id="path232" />
  <path
     fill-rule="evenodd"
     clip-rule="evenodd"
     d="m 107.202,31.281 v 0.463 h 0.509 v 0.274 h -4.934 v -0.274 h 0.527 v -0.463 z"
     style="fill:#ffffff"
     id="path234" />
  <path
     d="m 106.937,22.39 h -3.371 v 8.652 h 3.371 z m 7.289,10.5 h -3.511 v 0.515 h 3.511 v -0.514 z"
     style="fill:#ffffff"
     id="path236" />
  <path
     fill-rule="evenodd"
     clip-rule="evenodd"
     d="m 114.418,31.281 v 0.463 h 0.527 v 0.274 h -4.933 v -0.274 h 0.509 v -0.463 z"
     style="fill:#ffffff"
     id="path238" />
  <path
     d="m 114.156,22.39 h -3.371 v 8.652 h 3.371 z m 1.123,-17.234 h -0.299 v 3.41 h 0.299 z m -0.758,0 h -0.298 v 3.41 h 0.298 z m -0.754,0 h -0.298 v 3.41 h 0.298 z m -0.734,0 h -0.299 v 3.41 h 0.299 z m -0.758,0 h -0.298 v 3.41 h 0.298 z m -0.754,0 h -0.298 v 3.41 h 0.298 z m -0.738,0 h -0.299 v 3.41 h 0.299 z m -3,0 h -0.299 v 3.41 h 0.299 z m -0.758,0 h -0.298 v 3.41 h 0.298 z m -0.754,0 h -0.298 v 3.41 h 0.298 z m -0.738,0 h -0.299 v 3.41 h 0.299 z m -0.754,0 h -0.299 v 3.41 h 0.299 z m -0.754,0 h -0.298 v 3.41 h 0.298 z m -0.738,0 h -0.299 v 3.41 h 0.299 z m -3,0 h -0.299 v 3.41 h 0.299 z m -0.758,0 h -0.298 v 3.41 h 0.298 z m -0.754,0 h -0.298 v 3.41 h 0.298 z m -0.738,0 h -0.299 v 3.41 h 0.299 z m -0.754,0 h -0.299 v 3.41 h 0.299 z m -0.754,0 h -0.298 v 3.41 h 0.298 z m -0.739,0 h -0.298 v 3.41 h 0.299 v -3.41 z"
     style="fill:#ffffff"
     id="path240" />
  <path
     fill-rule="evenodd"
     clip-rule="evenodd"
     d="m 94.947,13.979 v 0.222 h -3.02 v 1.49 h 3.757 v 0.206 H 91.927 V 33.8 h -0.86 V 11.066 h 0.86 v 2.913 z"
     style="fill:#ffffff"
     id="path242" />
  <path
     d="m 120.459,13.98 h -5.057 v 0.206 h 5.057 z m -5.041,-0.652 H 94.894 v 0.206 h 20.524 z m -0.016,2.86 h -0.211 V 31.04 h 0.211 z m 5.195,0 h -0.21 V 31.04 h 0.21 z m 0.368,-0.497 h -6.11 v 0.206 h 6.11 z m -20.172,0.497 h -0.211 V 31.04 h 0.211 z m 1.879,0 h -0.211 V 31.04 h 0.211 z m 0.28,-0.497 h -2.651 v 0.206 h 2.651 z m 5.075,0.497 h -0.211 V 31.04 h 0.211 z m 1.879,0 h -0.211 V 31.04 h 0.211 z m 0.28,-0.497 h -2.651 v 0.206 h 2.651 z m -14.678,0.481 h -0.211 v 14.87 h 0.21 V 16.172 Z M 91.84,35.395 h -0.86 v 10.947 h 0.86 z"
     style="fill:#ffffff"
     id="path244" />
  <path
     fill-rule="evenodd"
     clip-rule="evenodd"
     d="m 105.253,37.398 c 0.285,0.03 0.56,0.115 0.809,0.251 0.25,0.136 0.468,0.32 0.642,0.542 a 2.007,2.007 0 0 1 0.41,1.572 h -3.739 a 1.992,1.992 0 0 1 0.403,-1.587 c 0.177,-0.224 0.4,-0.408 0.654,-0.541 a 2.11,2.11 0 0 1 0.821,-0.237 z"
     style="fill:#ffffff"
     id="path246" />
  <path
     d="m 107.08,42.195 h -3.67 v 6.733 h 3.67 z m 0.65,-1.902 h -4.986 a 0.26,0.26 0 0 0 -0.264,0.257 v 0.805 a 0.26,0.26 0 0 0 0.264,0.257 h 4.986 a 0.26,0.26 0 0 0 0.263,-0.257 V 40.55 a 0.26,0.26 0 0 0 -0.263,-0.257 z"
     style="fill:#ffffff"
     id="path248" />
  <path
     d="m 107.763,39.95 h -5.022 a 0.59,0.59 0 0 0 -0.596,0.582 v 0.822 a 0.59,0.59 0 0 0 0.596,0.583 h 5.022 a 0.59,0.59 0 0 0 0.597,-0.583 v -0.822 a 0.59,0.59 0 0 0 -0.597,-0.583 z m 18.366,-5.243 H 90.91 v 0.291 h 35.219 z m 0.07,-0.597 H 90.91 v 0.29 h 35.29 v -0.29 z"
     style="fill:#ffffff"
     id="path250" />
  <path
     fill-rule="evenodd"
     clip-rule="evenodd"
     d="m 102.989,46.957 v 1.97 h -2.774 v -1.165 h -4.389 v 1.165 h -4.88 v -1.97 z m 25.265,0 v 1.97 h -2.739 v -1.165 h -4.371 v 1.165 h -6.479 v -1.165 h -4.389 v 1.165 h -2.756 v -1.97 z"
     style="fill:#ffffff"
     id="path252" />
  <path
     d="M 115.419,11.309 H 95 v 0.48 h 20.419 z m 0.105,-0.789 H 90.348 v 0.205 h 25.176 z m 25.071,-0.106 h -20.173 v 0.206 h 20.173 z"
     style="fill:#ffffff"
     id="path254" />
  <path
     fill-rule="evenodd"
     clip-rule="evenodd"
     d="m 150.604,14.51 a 0.27,0.27 0 0 1 0,0.12 0.374,0.374 0 0 1 -0.138,0.257 0.385,0.385 0 0 1 -0.284,0.085 h -3.335 a 0.397,0.397 0 0 1 -0.284,-0.085 0.373,0.373 0 0 1 -0.138,-0.257 0.27,0.27 0 0 1 0,-0.12 v -0.291 h 4.179 z"
     style="fill:#ffffff"
     id="path256" />
  <path
     d="m 150.217,15.453 h -3.354 v 4.557 h 3.354 z"
     style="fill:#ffffff"
     id="path258" />
  <path
     fill-rule="evenodd"
     clip-rule="evenodd"
     d="m 157.852,14.51 c 0.01,0.04 0.01,0.08 0,0.12 a 0.374,0.374 0 0 1 -0.138,0.257 0.385,0.385 0 0 1 -0.284,0.085 h -3.318 a 0.39,0.39 0 0 1 -0.379,-0.2 0.373,0.373 0 0 1 -0.042,-0.142 0.243,0.243 0 0 1 0,-0.12 v -0.291 h 4.178 z"
     style="fill:#ffffff"
     id="path260" />
  <path
     d="m 157.431,15.453 h -3.353 v 4.557 h 3.353 z"
     style="fill:#ffffff"
     id="path262" />
  <path
     fill-rule="evenodd"
     clip-rule="evenodd"
     d="m 165.071,14.51 c 0.011,0.04 0.011,0.08 0,0.12 a 0.39,0.39 0 0 1 -0.148,0.258 0.411,0.411 0 0 1 -0.291,0.085 h -3.318 a 0.411,0.411 0 0 1 -0.291,-0.085 0.39,0.39 0 0 1 -0.148,-0.258 v -0.411 h 4.179 z"
     style="fill:#ffffff"
     id="path264" />
  <path
     d="m 164.666,15.453 h -3.354 v 4.557 h 3.354 z m 0.07,17.437 h -3.494 v 0.515 h 3.494 v -0.514 z"
     style="fill:#ffffff"
     id="path266" />
  <path
     fill-rule="evenodd"
     clip-rule="evenodd"
     d="m 161.033,31.281 h 3.897 v 0.463 h 0.527 v 0.274 h -4.934 v -0.274 h 0.51 z"
     style="fill:#ffffff"
     id="path268" />
  <path
     d="m 164.683,22.39 h -3.371 v 8.652 h 3.371 z m -7.181,10.5 h -3.494 v 0.515 h 3.494 v -0.514 z"
     style="fill:#ffffff"
     id="path270" />
  <path
     fill-rule="evenodd"
     clip-rule="evenodd"
     d="m 153.816,31.281 h 3.897 v 0.463 h 0.51 v 0.274 h -4.934 v -0.274 h 0.527 z"
     style="fill:#ffffff"
     id="path272" />
  <path
     d="m 157.449,22.39 h -3.371 v 8.652 h 3.371 z m -7.164,10.5 h -3.512 v 0.515 h 3.512 v -0.514 z"
     style="fill:#ffffff"
     id="path274" />
  <path
     fill-rule="evenodd"
     clip-rule="evenodd"
     d="m 146.583,31.281 h 3.898 v 0.463 h 0.527 v 0.274 h -4.934 v -0.274 h 0.509 z"
     style="fill:#ffffff"
     id="path276" />
  <path
     d="m 150.215,22.39 h -3.371 v 8.652 h 3.371 z M 146.037,5.156 h -0.299 v 3.41 h 0.299 z m 0.738,0 h -0.298 v 3.41 h 0.298 z m 0.754,0 h -0.299 v 3.41 h 0.299 z m 0.758,0 h -0.299 v 3.41 h 0.299 z m 0.734,0 h -0.298 v 3.41 h 0.298 z m 0.758,0 h -0.299 v 3.41 h 0.299 z m 0.754,0 h -0.299 v 3.41 h 0.299 z m 3,0 h -0.299 v 3.41 h 0.299 z m 0.738,0 h -0.298 v 3.41 h 0.298 z m 0.754,0 h -0.298 v 3.41 h 0.298 z m 0.758,0 h -0.299 v 3.41 h 0.299 z m 0.738,0 h -0.298 v 3.41 h 0.298 z m 0.754,0 h -0.298 v 3.41 h 0.298 z m 0.754,0 h -0.299 v 3.41 h 0.299 z m 3.004,0 h -0.299 v 3.41 h 0.299 z m 0.734,0 h -0.298 v 3.41 h 0.298 z m 0.758,0 h -0.298 v 3.41 h 0.298 z m 0.754,0 h -0.299 v 3.41 h 0.299 z m 0.738,0 h -0.298 v 3.41 h 0.298 z m 0.754,0 h -0.298 v 3.41 h 0.298 z m 0.754,0 h -0.298 v 3.41 h 0.298 z"
     style="fill:#ffffff"
     id="path278" />
  <path
     fill-rule="evenodd"
     clip-rule="evenodd"
     d="m 166.052,13.979 h 3.02 v -2.913 h 0.86 V 33.8 h -0.843 l -0.017,-17.903 h -3.74 v -0.205 h 3.74 v -1.49 h -3.02 z"
     style="fill:#ffffff"
     id="path280" />
  <path
     d="m 145.599,13.98 h -5.056 v 0.206 h 5.056 z m 20.507,-0.652 h -20.524 v 0.206 h 20.524 z m -20.298,2.86 h -0.21 V 31.04 h 0.21 z m -5.195,0 h -0.211 V 31.04 h 0.211 z m 5.548,-0.497 h -6.11 v 0.206 h 6.11 z m 14.257,0.497 h -0.211 V 31.04 h 0.211 z m -1.879,0 h -0.211 V 31.04 h 0.211 z m 2.159,-0.497 h -2.651 v 0.206 h 2.651 z m -7.499,0.497 h -0.211 V 31.04 h 0.211 z m -1.895,0 h -0.21 V 31.04 h 0.21 z m 2.16,-0.497 h -2.652 v 0.206 h 2.652 z m 12.255,0.481 h -0.211 v 14.87 h 0.211 z m 4.301,19.223 h -0.86 v 10.947 h 0.86 z"
     style="fill:#ffffff"
     id="path282" />
  <path
     fill-rule="evenodd"
     clip-rule="evenodd"
     d="m 155.765,37.398 a 2.066,2.066 0 0 1 1.463,0.783 1.996,1.996 0 0 1 0.398,1.582 h -3.74 a 2.035,2.035 0 0 1 0.423,-1.573 c 0.175,-0.221 0.395,-0.405 0.645,-0.541 0.25,-0.136 0.526,-0.221 0.811,-0.25 z"
     style="fill:#ffffff"
     id="path284" />
  <path
     d="m 157.591,42.195 h -3.669 v 6.733 h 3.669 z m 0.666,-1.902 h -4.986 a 0.26,0.26 0 0 0 -0.263,0.257 v 0.805 a 0.26,0.26 0 0 0 0.263,0.257 h 4.986 a 0.26,0.26 0 0 0 0.264,-0.257 V 40.55 a 0.26,0.26 0 0 0 -0.264,-0.257 z"
     style="fill:#ffffff"
     id="path286" />
  <path
     d="m 158.274,39.95 h -5.021 a 0.59,0.59 0 0 0 -0.597,0.582 v 0.822 a 0.59,0.59 0 0 0 0.597,0.583 h 5.021 a 0.59,0.59 0 0 0 0.597,-0.583 v -0.822 a 0.59,0.59 0 0 0 -0.597,-0.583 z"
     style="fill:#ffffff"
     id="path288" />
  <path
     fill-rule="evenodd"
     clip-rule="evenodd"
     d="m 132.746,46.957 h 20.752 v 1.97 h -2.774 v -1.165 h -4.389 v 1.165 h -6.461 v -1.165 h -4.389 v 1.165 h -2.739 z"
     style="fill:#ffffff"
     id="path290" />
  <path
     d="m 166.016,11.309 h -20.418 v 0.48 h 20.418 z m 4.637,-0.789 h -25.176 v 0.205 h 25.176 z"
     style="fill:#ffffff"
     id="path292" />
  <path
     fill-rule="evenodd"
     clip-rule="evenodd"
     d="m 130.501,4.164 c 1.543,0 3.054,0.432 4.352,1.246 a 7.906,7.906 0 0 1 2.969,3.345 h -0.509 a 7.463,7.463 0 0 0 -2.798,-3.025 7.723,7.723 0 0 0 -4.014,-1.121 7.73,7.73 0 0 0 -4.015,1.121 7.467,7.467 0 0 0 -2.797,3.025 h -0.509 a 7.937,7.937 0 0 1 2.972,-3.34 8.226,8.226 0 0 1 4.349,-1.25 z"
     style="fill:#ffffff"
     id="path294" />
  <path
     fill-rule="evenodd"
     clip-rule="evenodd"
     d="m 130.499,5.313 a 7.156,7.156 0 0 1 3.477,0.932 6.947,6.947 0 0 1 2.545,2.494 h -12.044 a 6.937,6.937 0 0 1 2.544,-2.494 7.156,7.156 0 0 1 3.478,-0.933 z"
     style="fill:#ffffff"
     id="path296" />
  <path
     fill-rule="evenodd"
     clip-rule="evenodd"
     d="m 140.071,9.08 a 3.774,3.774 0 0 0 -0.264,-0.994 9.878,9.878 0 0 0 -3.71,-4.281 10.24,10.24 0 0 0 -5.507,-1.602 c -1.956,0 -3.87,0.557 -5.507,1.602 a 9.884,9.884 0 0 0 -3.71,4.281 5.906,5.906 0 0 0 -0.264,0.994 z"
     style="fill:#ffffff"
     id="path298" />
  <path
     fill-rule="evenodd"
     clip-rule="evenodd"
     d="M 120.406,9.407 V 9.08 h 0.351 c 0.048,-0.375 0.142,-0.743 0.281,-1.096 a 10.177,10.177 0 0 1 3.82,-4.42 10.547,10.547 0 0 1 5.679,-1.655 c 2.017,0 3.991,0.575 5.678,1.654 a 10.177,10.177 0 0 1 3.82,4.42 c 0.136,0.356 0.236,0.723 0.298,1.097 h 0.316 V 9.423 L 120.406,9.406 Z m -0.281,26.362 a 0.693,0.693 0 0 1 0.158,-0.394 h 6.11 a 0.674,0.674 0 0 1 0.14,0.394 v 1.062 a 0.575,0.575 0 0 1 -0.175,0.412 0.603,0.603 0 0 1 -0.422,0.17 h -5.179 a 0.605,0.605 0 0 1 -0.422,-0.17 0.575,0.575 0 0 1 -0.175,-0.412 z m 20.752,0 v 1.062 a 0.575,0.575 0 0 1 -0.175,0.412 0.605,0.605 0 0 1 -0.422,0.17 h -5.267 a 0.62,0.62 0 0 1 -0.428,-0.169 0.595,0.595 0 0 1 -0.187,-0.413 V 35.77 a 0.7,0.7 0 0 1 0.158,-0.394 h 6.11 a 0.679,0.679 0 0 1 0.211,0.394 z m -31.602,0.051 a 0.58,0.58 0 0 1 0.211,-0.445 h 6.004 a 0.63,0.63 0 0 1 0.211,0.445 v 1.063 a 0.585,0.585 0 0 1 -0.18,0.423 0.619,0.619 0 0 1 -0.434,0.176 h -5.267 a 0.625,0.625 0 0 1 -0.424,-0.181 0.594,0.594 0 0 1 -0.173,-0.418 z M 94.824,35.769 a 0.674,0.674 0 0 1 0.14,-0.394 h 6.11 a 0.675,0.675 0 0 1 0.141,0.394 v 1.062 a 0.57,0.57 0 0 1 -0.175,0.412 0.59,0.59 0 0 1 -0.422,0.17 h -5.267 a 0.604,0.604 0 0 1 -0.422,-0.17 0.575,0.575 0 0 1 -0.175,-0.412 z m 71.371,0 v 1.062 a 0.575,0.575 0 0 1 -0.175,0.412 0.601,0.601 0 0 1 -0.422,0.17 h -5.267 a 0.605,0.605 0 0 1 -0.422,-0.17 0.575,0.575 0 0 1 -0.175,-0.412 V 35.77 a 0.675,0.675 0 0 1 0.141,-0.394 h 6.127 a 0.824,0.824 0 0 1 0.193,0.394 z m -14.451,0.051 v 1.063 a 0.585,0.585 0 0 1 -0.18,0.423 0.619,0.619 0 0 1 -0.434,0.176 h -5.267 a 0.625,0.625 0 0 1 -0.424,-0.181 0.594,0.594 0 0 1 -0.173,-0.418 V 35.82 a 0.58,0.58 0 0 1 0.21,-0.445 h 5.987 a 0.633,0.633 0 0 1 0.281,0.445 z"
     style="fill:#ffffff"
     id="path300" />
  <path
     d="m 150.217,38.426 h -3.354 v 7.4 h 3.354 z"
     style="fill:#ffffff"
     id="path302" />
  <path
     d="m 150.85,37.809 h -4.635 v 8.65 h 4.635 z m 13.816,0.566 h -3.354 v 7.4 h 3.354 z"
     style="fill:#ffffff"
     id="path304" />
  <path
     d="m 165.299,37.742 h -4.635 v 8.652 h 4.635 z m -51.145,0.684 h -3.353 v 7.4 h 3.353 z"
     style="fill:#ffffff"
     id="path306" />
  <path
     d="m 114.787,37.809 h -4.635 v 8.65 h 4.635 z M 99.69,38.375 h -3.354 v 7.4 h 3.353 v -7.4 z"
     style="fill:#ffffff"
     id="path308" />
  <path
     d="m 100.338,37.742 h -4.635 v 8.652 h 4.635 z m 39.011,0.633 h -3.353 v 7.4 h 3.353 z"
     style="fill:#ffffff"
     id="path310" />
  <path
     d="m 139.998,37.758 h -4.635 v 8.651 h 4.635 z m -14.992,0.617 h -3.354 v 7.4 h 3.354 z"
     style="fill:#ffffff"
     id="path312" />
  <path
     d="M 125.635,37.758 H 121 v 8.651 h 4.635 z M 170.09,34.11 H 134.801 V 34.4 H 170.09 Z M 261,50.059 H 0 V 51 H 261 V 50.058 Z M 74.81,37.895 H 70.176 V 46.7 h 4.635 v -8.806 z"
     style="fill:#ffffff"
     id="path314" />
</svg>
