<?xml version="1.0" encoding="UTF-8" standalone="no"?>
<svg
   xmlns:dc="http://purl.org/dc/elements/1.1/"
   xmlns:cc="http://creativecommons.org/ns#"
   xmlns:rdf="http://www.w3.org/1999/02/22-rdf-syntax-ns#"
   xmlns:svg="http://www.w3.org/2000/svg"
   xmlns="http://www.w3.org/2000/svg"
   xmlns:sodipodi="http://sodipodi.sourceforge.net/DTD/sodipodi-0.dtd"
   xmlns:inkscape="http://www.inkscape.org/namespaces/inkscape"
   viewBox="0 0 261 109.145"
   version="1.1"
   id="svg34"
   sodipodi:docname="third.svg"
   width="261"
   height="109.145"
   inkscape:version="1.0.2 (e86c870879, 2021-01-15, custom)">
  <metadata
     id="metadata40">
    <rdf:RDF>
      <cc:Work
         rdf:about="">
        <dc:format>image/svg+xml</dc:format>
        <dc:type
           rdf:resource="http://purl.org/dc/dcmitype/StillImage" />
        <dc:title></dc:title>
      </cc:Work>
    </rdf:RDF>
  </metadata>
  <defs
     id="defs38" />
  <sodipodi:namedview
     pagecolor="#ffffff"
     bordercolor="#666666"
     borderopacity="1"
     objecttolerance="10"
     gridtolerance="10"
     guidetolerance="10"
     inkscape:pageopacity="0"
     inkscape:pageshadow="2"
     inkscape:window-width="1920"
     inkscape:window-height="1016"
     id="namedview36"
     showgrid="false"
     inkscape:zoom="4.1655018"
     inkscape:cx="106.59779"
     inkscape:cy="91.393857"
     inkscape:window-x="1366"
     inkscape:window-y="0"
     inkscape:window-maximized="1"
     inkscape:current-layer="svg34"
     inkscape:document-rotation="0" />
  <path
     fill-rule="evenodd"
     clip-rule="evenodd"
     d="m 117.01935,60.104492 h 4.1499 v -1.919527 a 9.1077136,9.107676 0 0 1 2.97659,-5.924675 9.3129545,9.3129161 0 0 1 6.23908,-2.391701 c 2.30867,0 4.53428,0.852993 6.24028,2.391701 a 9.1112727,9.1112351 0 0 1 2.9754,5.924675 v 1.919527 h 4.18905 V 48.098543 h -26.7703 z"
     style="fill:#ffffff;stroke-width:1.18636"
     id="path2" />
  <path
     d="m 120.4076,61.083238 h -2.66575 v 1.957492 h 2.66575 z m 22.66192,0 h -2.66576 v 1.957492 h 2.66576 z"
     style="fill:#ffffff;stroke-width:1.18636"
     id="path4" />
  <path
     fill-rule="evenodd"
     clip-rule="evenodd"
     d="m 251.89822,20.663997 h -10.85286 v 17.839276 h 10.85286 z m -6.16909,16.635122 h -2.8188 v -3.27435 h 2.8188 z m 0,-4.44054 h -2.8188 v -3.048943 h 2.8188 z m 0,-4.215133 h -2.8188 v -2.823534 h 2.8188 z m 0,-3.951762 h -2.8188 v -2.823533 h 2.8188 z m 4.11193,12.607435 h -2.81761 v -3.27435 h 2.81761 z m 0,-4.44054 h -2.81761 v -3.048943 h 2.81761 z m 0,-4.215133 h -2.81761 v -2.823534 h 2.81761 z m 0,-3.951762 h -2.81761 v -2.823533 h 2.81761 z m 2.05716,14.601704 h -10.85286 v 4.291059 h 10.85286 v -4.292245 z m -0.53387,1.354821 h -0.87553 v 2.408308 h -1.25636 v -2.408308 h -1.14247 v 2.408308 h -1.14247 v -2.408308 h -1.14247 v 2.408308 h -1.14246 v -2.408308 h -1.10451 v 2.408308 h -1.14247 v -2.408308 h -0.83757 v -0.676224 h 9.63446 z M 233.8477,20.663997 h -10.69982 v 17.839276 h 10.69982 z m -5.97809,16.635122 h -2.6278 v -3.27435 h 2.81762 z m 0,-4.44054 h -2.6278 v -3.048943 h 2.81762 z m 0,-4.215133 h -2.6278 v -2.823534 h 2.81762 z m 0,-3.951762 h -2.6278 v -2.823533 h 2.81762 z m 4.07397,12.607435 h -2.89354 v -3.27435 h 2.77965 z m 0,-4.44054 h -2.89354 v -3.048943 h 2.77965 z m 0,-4.215133 h -2.89354 v -2.823534 h 2.77965 z m 0,-3.951762 h -2.89354 v -2.823533 h 2.77965 z m 1.90412,14.601704 h -10.69982 v 4.291059 h 10.69982 v -4.292245 z m -0.53268,1.354821 h -0.83757 v 2.408308 h -1.14247 v -2.408308 h -1.14247 v 2.408308 h -1.14247 v -2.408308 h -1.14247 v 2.408308 h -1.14247 v -2.408308 h -1.14246 v 2.408308 h -1.14247 v -2.408308 h -0.76165 v -0.676224 h 9.5965 z M 215.98818,20.663997 h -10.701 v 17.839276 h 10.701 z m -5.97928,16.635122 h -2.81761 v -3.27435 h 2.81761 z m 0,-4.516468 h -2.81761 v -3.048942 h 2.81761 z m 0,-4.140392 h -2.81761 v -2.822347 h 2.81761 v 2.823534 z m 0,-3.950575 h -2.81761 v -2.823533 h 2.81761 z m 4.11313,12.607435 h -2.81762 v -3.27435 h 2.81762 z m 0,-4.44054 h -2.81762 v -3.048943 h 2.81762 z m 0,-4.215133 h -2.81762 v -2.823534 h 2.81762 z m 0,-3.951762 h -2.81762 v -2.823533 h 2.81762 z m 1.86615,14.601704 h -10.701 v 4.291059 h 10.701 v -4.292245 z m -0.53387,1.354821 h -0.83757 v 2.408308 h -1.14247 v -2.408308 h -1.14247 v 2.408308 h -1.14246 v -2.408308 h -1.18044 v 2.408308 h -1.1045 v -2.408308 h -1.14247 v 2.408308 h -1.14128 v -2.408308 h -0.8008 v -0.676224 h 9.63446 z M 198.0907,20.284361 h -10.701 v 17.839277 h 10.701 z m -5.97928,16.635123 h -2.81761 v -3.27435 h 2.81761 z m 0,-4.441727 h -2.81761 v -3.048942 h 2.81761 z m 0,-4.215133 h -2.81761 V 25.47824 h 2.81761 z m 0,-3.950574 h -2.81761 v -2.823534 h 2.81761 z m 4.07516,12.607434 h -2.77965 v -3.27435 h 2.77965 z m 0,-4.441727 h -2.77965 v -3.048942 h 2.77965 z m 0,-4.215133 h -2.77965 V 25.47824 h 2.77965 z m 0,-3.950574 h -2.77965 v -2.823534 h 2.77965 z m 1.90412,14.981338 h -10.701 v 4.291059 h 10.701 v -4.292245 z m -0.53387,1.354821 h -0.83757 v 2.408308 h -1.14247 v -2.408308 h -1.1045 v 2.408308 h -1.14247 v -2.408308 h -1.14247 v 2.408308 h -1.2184 v -2.408308 h -1.14246 v 2.408308 h -1.14247 v -2.408308 h -0.79961 v -0.676224 h 9.59649 z M 180.22999,20.284361 h -10.701 v 17.839277 h 10.701 z m -6.01724,16.635123 h -2.81761 v -3.27435 h 2.81761 z m 0,-4.441727 h -2.81761 v -3.048942 h 2.81761 z m 0,-4.215133 h -2.81761 V 25.47824 h 2.81761 z m 0,-3.950574 h -2.81761 v -2.823534 h 2.81761 z m 4.11313,12.607434 h -2.81762 v -3.27435 h 2.81762 z m 0,-4.441727 h -2.81762 v -3.048942 h 2.81762 z m 0,-4.215133 h -2.81762 V 25.47824 h 2.81762 z m 0,-3.950574 h -2.81762 v -2.823534 h 2.81762 z m 1.90411,14.981338 h -10.701 v 4.291059 h 10.701 v -4.292245 z m -0.53268,1.354821 h -0.83876 v 2.408308 h -1.14128 v -2.408308 h -1.14247 v 2.408308 h -1.14246 v -2.408308 h -1.14247 v 2.408308 h -1.10451 V 40.648209 H 171.929 v 2.408308 h -1.14246 v -2.408308 h -0.83758 v -0.676224 h 9.59531 z M 162.33725,20.284361 h -10.701 v 17.839277 h 10.701 z m -5.97808,16.635123 h -2.8188 v -3.27435 h 2.8188 z m 0,-4.441727 h -2.8188 v -3.048942 h 2.8188 z m 0,-4.215133 h -2.8188 V 25.47824 h 2.8188 z m 0,-3.950574 h -2.8188 v -2.823534 h 2.8188 z m 4.1499,12.607434 h -2.81762 v -3.27435 h 2.81762 z m 0,-4.441727 h -2.81762 v -3.048942 h 2.81762 z m 0,-4.215133 h -2.81762 V 25.47824 h 2.81762 z m 0,-3.950574 h -2.81762 v -2.823534 h 2.81762 z m 1.82818,19.272397 v -4.292245 h -10.701 v 4.291059 h 10.701 z m -10.12917,-3.764316 h 9.63446 v 0.677411 h -0.87672 v 2.408308 h -1.14247 v -2.408308 h -1.10332 v 2.408308 h -1.14247 v -2.408308 h -1.14246 v 2.408308 h -1.14247 v -2.408308 h -1.14247 v 2.408308 h -1.25636 v -2.408308 h -0.83876 l 0.15304,-0.676224 z m 17.32091,61.083239 h 10.701 V 83.064098 h -10.701 z m 5.97927,-16.635127 h 2.81762 v 2.784388 h -2.81762 z m 0,3.950583 h 2.81762 v 2.823529 h -2.81762 z m 0,3.990904 h 2.81762 v 3.048947 h -2.81762 z m 0,4.215132 h 2.81762 v 3.274357 h -2.81762 z m -4.11312,-12.156619 h 2.81761 v 2.784388 h -2.81761 z m 0,3.950583 h 2.81761 v 2.823529 h -2.81761 z m 0,3.990904 h 2.81761 v 3.048947 h -2.81761 z m 0,4.215132 h 2.81761 v 3.274357 h -2.81761 z m 15.99456,4.478508 h 10.701 V 83.064098 h -10.701 z m 6.01723,-16.635127 h 2.77965 v 2.784388 h -2.77965 z m 0,3.950583 h 2.77965 v 2.823529 h -2.77965 z m 0,3.990904 h 2.77965 v 3.048947 h -2.77965 z m 0,4.215132 h 2.77965 v 3.274357 h -2.77965 z m -4.11312,-12.156619 h 2.81761 v 2.784388 h -2.81761 z m 0,3.950583 h 2.81761 v 2.823529 h -2.81761 z m 0,3.990904 h 2.81761 v 3.048947 h -2.81761 z m 0,4.215132 h 2.81761 v 3.274357 h -2.81761 z m 15.99337,4.478508 h 10.701 V 83.064098 h -10.701 z m 5.97808,-16.635127 h 2.8188 v 2.784388 h -2.8188 z m 0,3.950583 h 2.8188 v 2.823529 h -2.8188 z m 0,3.990904 h 2.8188 v 3.048947 h -2.8188 z m 0,4.215132 h 2.8188 v 3.274357 h -2.8188 z m -4.11193,-12.156619 h 2.85557 v 2.784388 h -2.81761 z m 0,3.950583 h 2.85557 v 2.823529 h -2.81761 z m 0,3.990904 h 2.85557 v 3.048947 h -2.81761 z m 0,4.215132 h 2.85557 v 3.274357 h -2.81761 z m 15.99455,4.478508 H 233.8477 V 83.064098 h -10.69982 z m 5.90216,-16.635127 h 2.77965 v 2.784388 h -2.77965 z m 0,3.950583 h 2.77965 v 2.823529 h -2.77965 z m 0,3.990904 h 2.77965 v 3.048947 h -2.77965 z m 0,4.215132 h 2.77965 v 3.274357 h -2.77965 z m -3.80823,-12.156619 h 2.81762 v 2.784388 h -2.81762 z m 0,3.950583 h 2.81762 v 2.823529 h -2.81762 z m 0,3.990904 h 2.81762 v 3.048947 h -2.81762 z m 0,4.215132 h 2.81762 v 3.274357 h -2.81762 z M 251.89822,83.137647 H 241.0074 v 23.335673 h 10.89082 z m -6.20706,16.635122 h -2.81761 v -3.274347 h 2.81761 z m 0,-4.440542 h -2.81761 V 92.28329 h 2.81761 z m 0,-4.215133 h -2.81761 v -2.823528 h 2.81761 z m 0,-3.989723 h -2.81761 v -2.785569 h 2.81761 z m 4.11313,12.646588 h -2.81762 v -3.274357 h 2.81762 z m 0,-4.441732 h -2.81762 V 92.28329 h 2.81762 z m 0,-4.215133 h -2.81762 v -2.823528 h 2.81762 z m 0,-3.989723 h -2.81762 v -2.785569 h 2.81762 z m -98.16804,13.775999 h 10.701 V 83.064098 h -10.701 z m 6.01724,-16.635117 h 2.85558 v 2.784378 h -2.81762 z m 0,3.950573 h 2.85558 v 2.823529 h -2.81762 z m 0,3.990904 h 2.85558 v 3.048947 h -2.81762 z m 0,4.215132 h 2.85558 v 3.274357 h -2.81762 z m -4.11312,-12.156619 h 2.8188 v 2.784388 h -2.8188 z m 0,3.950583 h 2.8188 v 2.823529 h -2.8188 z m 0,3.990904 h 2.8188 v 3.048947 h -2.8188 z m 0,4.215132 h 2.8188 v 3.274357 h -2.8188 z"
     style="fill:#ffffff;stroke-width:1.18636"
     id="path6" />
  <path
     fill-rule="evenodd"
     clip-rule="evenodd"
     d="m 261,16.898494 v -1.202968 h -1.48533 V 3.6136491 h 0.87554 v -1.205341 h -0.87554 V 0 H 1.3714364 V 2.4083081 H 0.56945455 v 1.205341 H 1.4461773 V 15.69434 H 0 v 1.204154 h 1.3714364 v 1.016709 H 0 v 1.242118 H 1.3714364 V 45.502789 H 0.56945455 v 1.239745 H 1.4461773 V 109.145 H 259.51349 V 46.743721 h 0.87553 v -1.242118 h -0.87553 V 19.158507 H 261 v -1.24449 h -1.48533 v -1.01671 H 261 Z M 2.8555773,1.4675259 H 257.99138 V 2.4083081 H 2.8555773 Z m 0,2.1461232 H 257.99138 V 15.69434 H 149.61588 V 4.85458 h -1.10451 v 40.648209 h -2.3229 V 4.8166161 H 114.81153 V 45.501603 h -2.24698 V 4.85458 h -1.14246 V 15.69434 H 2.8555773 Z M 145.046,14.18885 130.42407,6.6614045 115.87688,14.18885 V 5.9460295 H 145.046 Z m 0,0.640634 V 15.69434 H 115.87688 V 14.828298 H 145.046 Z m -29.16912,2.06901 H 145.046 v 1.016709 h -29.16912 z m 0,2.258827 H 145.046 V 45.502789 H 115.87688 Z M 2.8555773,16.898494 H 111.34616 v 1.016709 H 2.8555773 Z m 0,2.258827 H 111.34616 V 45.502789 H 2.8555773 Z M 116.60056,84.267063 h 1.18044 v 23.410417 h -1.18044 z m 21.05796,-1.204155 H 123.41741 V 59.578934 c 0.07,-0.877903 0.31913,-1.732082 0.73317,-2.510333 a 6.5333045,6.5332776 0 0 1 1.67396,-2.023928 6.6175364,6.6175091 0 0 1 2.34307,-1.210086 6.6673636,6.6673361 0 0 1 2.63729,-0.201681 6.5060182,6.5059914 0 0 1 2.4961,0.321504 6.4514455,6.4514189 0 0 1 2.18054,1.244489 6.3672136,6.3671873 0 0 1 1.53041,1.975288 6.2877273,6.2877014 0 0 1 0.64657,2.404747 v 23.485164 z m 0,1.204155 v 1.806822 a 1.7439545,1.7439473 0 0 0 -0.68572,0.622838 c -0.16728,0.265748 -0.25981,0.569457 -0.26575,0.882656 -0.0273,0.338109 0.0486,0.677407 0.2183,0.972806 0.16965,0.295409 0.42471,0.533868 0.73317,0.683347 V 107.67748 H 136.2503 V 91.569102 a 5.6115,5.6114769 0 0 0 -1.67277,-3.992103 5.7479318,5.7479081 0 0 0 -4.03957,-1.653783 5.7455591,5.7455354 0 0 0 -4.03838,1.653783 5.6126864,5.6126633 0 0 0 -1.67396,3.992103 v 16.108378 h -1.37025 V 89.235532 c 0.331,-0.116259 0.61928,-0.329809 0.82334,-0.612157 a 1.6846364,1.6846295 0 0 0 0.31913,-0.969256 1.7131091,1.713102 0 0 0 -0.32625,-0.963326 1.7439545,1.7439473 0 0 0 -0.81622,-0.616908 v -1.732083 z m 6.81684,23.410417 h -1.18043 V 84.267063 h 1.18043 z m -3.80822,0 h -1.86615 V 89.235532 c 0.38319,-0.0842 0.72724,-0.293029 0.97519,-0.593177 a 1.7202273,1.7202202 0 0 0 0.39624,-1.062976 1.7558182,1.755811 0 0 0 -0.40336,-1.055866 1.7925955,1.7925881 0 0 0 -0.96807,-0.600297 v -1.656153 h 1.86615 z m -9.36753,-14.150886 c 0.40218,-0.147109 0.7308,-0.444888 0.9135,-0.828086 h 1.63837 v 10.651132 h -2.8188 z m 1.02858,-1.882752 a 1.6561636,1.6561568 0 0 0 -1.10451,-1.242125 v -2.483039 a 3.3348682,3.3348545 0 0 1 2.82236,2.458129 c 0.11152,0.425909 0.13525,0.869607 0.0712,1.304995 z m -2.28494,-1.242125 a 1.7107364,1.7107293 0 0 0 -1.06654,1.242125 h -1.98004 a 3.2779227,3.2779092 0 0 1 0.6347,-2.47 3.3740182,3.3740043 0 0 1 2.22088,-1.293134 z m -0.95265,2.296791 c 0.18033,0.371338 0.49234,0.665547 0.87672,0.828086 v 9.823046 h -2.8188 V 92.698508 Z m -6.6638,-6.699363 a 1.7498864,1.7498792 0 0 0 -0.81622,0.616908 1.7214136,1.7214065 0 0 0 -0.0297,1.976472 c 0.20643,0.296589 0.50183,0.521998 0.84588,0.643007 v 18.441948 h -1.827 V 84.267063 h 1.827 z M 258.02935,107.67748 H 146.98808 V 63.604248 h -2.70253 v 19.45866 h -1.18162 v -19.45747 h -2.66458 v 19.45747 H 138.5732 V 59.578934 a 7.4918864,7.4918555 0 0 0 -2.38577,-5.032532 7.6674682,7.6674366 0 0 0 -5.23068,-2.042909 7.6995,7.6994683 0 0 0 -3.08929,0.255066 7.6401818,7.6401503 0 0 0 -2.73101,1.450917 7.5488318,7.5488007 0 0 0 -1.91954,2.407123 7.4693455,7.4693147 0 0 0 -0.79011,2.962335 v 23.485164 h -1.827 v -19.45866 h -2.66576 v 19.45747 h -1.18044 v -19.45747 h -2.7049 V 107.67748 H 2.8567636 V 46.742534 H 114.81271 v 14.339514 h -0.83876 v 1.806833 h 2.66576 V 60.931389 H 115.954 V 46.742534 h 29.1703 v 14.339514 h -0.76164 v 1.806833 h 2.66576 v -1.957492 h -0.76165 V 46.742534 H 258.03053 V 107.6763 Z m 0,-62.175877 H 149.61588 V 19.158507 h 108.41347 v 26.345469 z m 0,-27.5864 H 149.61588 v -1.016709 h 108.41347 z"
     style="fill:#ffffff;stroke-width:1.18636"
     id="path8" />
  <path
     fill-rule="evenodd"
     clip-rule="evenodd"
     d="M 236.66887,106.35943 V 59.578934 a 7.4942591,7.4942282 0 0 0 -2.19952,-4.801192 7.6544182,7.6543866 0 0 0 -4.8463,-2.199509 l 0.26694,-2.633716 h -2.77965 l 0.30489,2.633716 a 7.6567909,7.6567593 0 0 0 -4.84629,2.199509 7.4859545,7.4859236 0 0 0 -2.19834,4.801192 v 43.319896 h -1.6004 V 59.577744 a 7.4859545,7.4859236 0 0 0 -2.19833,-4.801188 7.6567909,7.6567593 0 0 0 -4.8463,-2.199509 l 0.3049,-2.633717 h -2.77965 l 0.26693,2.633717 a 7.6556045,7.6555729 0 0 0 -4.89375,2.175782 7.4918864,7.4918555 0 0 0 -2.22799,4.824915 v 43.319896 h -1.56126 V 59.577744 a 7.4859545,7.4859236 0 0 0 -2.19833,-4.801188 7.6567909,7.6567593 0 0 0 -4.84629,-2.199509 l 0.26693,-2.633717 h -2.70372 l 0.30489,2.633717 a 7.6567909,7.6567593 0 0 0 -4.84629,2.199509 7.4859545,7.4859236 0 0 0 -2.19834,4.801188 v 43.319896 h -1.6004 V 59.577744 a 7.4859545,7.4859236 0 0 0 -2.19833,-4.801188 7.6567909,7.6567593 0 0 0 -4.8463,-2.199509 l 0.3049,-2.633717 h -2.77965 l 0.26693,2.633717 a 7.6567909,7.6567593 0 0 0 -4.8463,2.199509 7.4942591,7.4942282 0 0 0 -2.19951,4.801188 v 43.319896 h -1.56126 V 59.577744 a 7.4859545,7.4859236 0 0 0 -2.19833,-4.801188 7.6567909,7.6567593 0 0 0 -4.8463,-2.199509 l 0.26694,-2.633717 h -2.77965 l 0.30489,2.633717 a 7.6567909,7.6567593 0 0 0 -4.84629,2.199509 7.4942591,7.4942282 0 0 0 -2.19952,4.801188 v 43.319896 h -0.34167 v 3.53772 h 88.15512 z M 221.43596,59.577744 a 6.3328091,6.332783 0 0 1 2.10935,-4.311222 6.4846636,6.4846369 0 0 1 4.55564,-1.634802 6.6649909,6.6649634 0 0 1 2.6361,0.201681 6.6234682,6.6234409 0 0 1 2.34425,1.210086 6.5309318,6.5309049 0 0 1 1.67278,2.022742 6.4656818,6.4656551 0 0 1 0.73436,2.511515 v 43.319896 h -14.05248 z m -17.85952,0 a 6.2948455,6.2948195 0 0 1 2.09986,-4.323086 6.4419545,6.4419279 0 0 1 4.56513,-1.622938 6.7029545,6.7029269 0 0 1 2.63136,0.213544 c 0.85299,0.24439 1.64904,0.656056 2.33832,1.210086 a 6.5807591,6.580732 0 0 1 1.67396,2.019183 6.5012727,6.5012459 0 0 1 0.74385,2.503211 V 102.89764 H 203.6144 Z m -17.89748,0 a 6.3328091,6.332783 0 0 1 2.10935,-4.311222 6.4834773,6.4834506 0 0 1 4.55445,-1.634802 6.7409182,6.7408904 0 0 1 2.69542,0.150667 c 0.87791,0.232526 1.70006,0.638262 2.41307,1.19585 a 6.6199091,6.6198818 0 0 1 1.73565,2.044096 c 0.43065,0.790115 0.69402,1.660902 0.77232,2.555411 v 43.319896 h -14.08926 z m -17.85952,0 a 6.3328091,6.332783 0 0 1 2.10936,-4.311222 6.4834773,6.4834506 0 0 1 4.55445,-1.634802 6.6709227,6.6708952 0 0 1 4.97086,1.424817 6.5807591,6.580732 0 0 1 1.67396,2.01681 c 0.41523,0.777064 0.66792,1.62887 0.74266,2.504397 V 102.89764 H 167.8574 Z m -17.89748,0 a 6.3351818,6.3351557 0 0 1 2.15088,-4.352745 6.4822909,6.4822642 0 0 1 4.628,-1.593279 6.7029545,6.7029269 0 0 1 2.70016,0.138803 6.6495682,6.6495408 0 0 1 2.41781,1.194664 6.5582182,6.5581912 0 0 1 1.73565,2.048842 c 0.42947,0.793674 0.68928,1.666834 0.76165,2.563715 v 43.319896 h -14.08926 z"
     style="fill:#ffffff;stroke-width:1.18636"
     id="path10" />
  <path
     d="m 238.11623,21.413776 h -1.4094 v 23.222972 h 1.4094 z m 0.75809,-1.579044 h -2.93151 v 1.053487 h 2.93151 z m 1.10332,60.930195 h -2.93151 v 1.053486 h 2.93151 z m 15.57576,0 h -2.9315 v 1.053486 h 2.9315 z m 0.34405,-59.351151 h -1.40821 v 23.222972 h 1.40821 z m 0.75927,-1.579044 h -2.93269 v 1.053487 h 2.93269 z m -54.30223,1.579044 h -1.4094 v 23.222972 h 1.4094 z m 0.76283,-1.579044 h -2.93269 v 1.053487 h 2.93269 z m -18.73506,1.579044 h -1.4094 v 23.222972 h 1.4094 z m 0.76284,-1.579044 h -2.93151 v 1.053487 h 2.93151 z m -18.54405,1.579044 h -1.4094 v 23.222972 h 1.4094 z m 0.75808,-1.579044 h -2.9315 v 1.053487 h 2.9315 z m 52.97114,1.579044 h -1.4094 v 23.222972 h 1.4094 z m 0.76283,-1.579044 h -2.9315 v 1.053487 h 2.9315 z M 220.33027,6.4371825 h -1.4094 v 8.5429695 h 1.4094 z m 0.76283,-1.6170074 h -2.9315 v 1.0534867 h 2.9315 z m 17.02313,1.6170074 h -1.4094 v 8.5429695 h 1.4094 z m 0.75809,-1.6170074 h -2.93151 v 1.0534867 h 2.93151 z m 17.02313,1.6170074 h -1.40821 v 8.5429695 h 1.40821 z m 0.75927,-1.6170074 h -2.93269 v 1.0534867 h 2.93269 z m -90.05567,1.6170074 h -1.4094 v 8.5429695 h 1.4094 z m 0.75808,-1.6170074 h -2.9315 v 1.0534867 h 2.9315 z m 17.02313,1.6170074 h -1.4094 v 8.5429695 h 1.4094 z m 0.76284,-1.6170074 h -2.93151 v 1.0534867 h 2.93151 z m 17.20939,1.6170074 h -1.4094 v 8.5429695 h 1.4094 z m 0.76283,-1.6170074 h -2.93269 v 1.0534867 h 2.93269 z"
     style="fill:#ffffff;stroke-width:1.18636"
     id="path12" />
  <path
     fill-rule="evenodd"
     clip-rule="evenodd"
     d="M 162.63859,4.7406895 H 151.2151 V 14.978965 h 11.42349 z m -1.10332,9.2203795 h -9.06382 V 5.83214 h 9.06382 z M 180.4993,4.7406895 H 169.0758 V 14.978965 h 11.4235 z m -0.95147,9.2203795 h -9.17771 V 5.83214 h 9.17771 z M 198.5866,4.7406895 H 187.1631 V 14.978965 h 11.4235 z m -1.29433,9.2203795 h -9.06382 V 5.83214 h 9.06382 z M 216.25748,4.7406895 H 204.8328 V 14.978965 h 11.42468 z m -1.1045,9.2203795 h -8.94874 V 5.83214 h 9.02466 z M 234.15496,4.7406895 H 222.73028 V 14.978965 h 11.42468 z m -1.29551,9.2203795 h -8.87281 V 5.83214 h 8.87281 z M 251.8994,4.7406895 H 240.47472 V 14.978965 h 11.42468 z m -0.99061,9.2203795 h -9.06263 V 5.83214 h 9.06263 z m 0.98943,59.957386 H 251.2125 V 59.994163 a 4.8629045,4.8628845 0 0 0 -1.0618,-2.926748 4.9578136,4.9577932 0 0 0 -2.63254,-1.703611 l 0.26694,-2.446272 h -2.77965 l 0.26693,2.447458 a 4.9139182,4.9138979 0 0 0 -2.59458,1.793774 4.8166364,4.8166165 0 0 0 -0.9479,2.986068 v 13.924293 h -0.68454 v 5.081169 h 10.85286 z m -1.86615,-4.665951 v 3.048938 h -2.81762 v -3.048938 z m -2.81762,-1.167375 v -2.822348 h 2.81762 v 2.823528 h -2.81762 z m 2.81762,-3.988543 h -2.81762 v -2.785569 h 2.81762 z m 0,-3.764315 h -2.85677 v -3.763127 c 1.63837,0.03678 2.66576,1.692934 2.66576,3.650428 z m -3.80823,-3.763127 v 3.763127 h -2.85558 c -0.38082,-2.070193 0.64657,-3.725163 2.47476,-3.80109 z m -2.89354,4.779843 h 2.81761 v 2.784379 h -2.81761 z m 0,3.950574 h 2.81761 v 2.823528 h -2.81761 z m 0,3.990903 h 2.81761 v 3.048948 h -2.81761 z m 8.26302,6.472774 h -1.21839 v 2.182901 h -1.14247 v -2.371531 h -1.14247 v 2.371531 h -1.14247 v -2.371531 h -1.14247 v 2.371531 h -1.1045 v -2.371531 h -1.14247 v 2.371531 h -1.14247 v -2.371531 h -0.83757 v -0.676227 h 9.63446 z M 161.65154,60.70835 A 4.6113955,4.6113765 0 0 0 160.445,57.169441 c -0.43895,-0.47573 -0.97281,-0.854178 -1.56837,-1.115177 a 4.7300318,4.7300123 0 0 0 -5.34813,1.115177 4.5900409,4.590022 0 0 0 -1.20653,3.538909 v 13.210105 h -0.68572 v 5.079989 h 10.701 v -5.079989 h -0.68571 V 60.70598 Z m -3.80823,8.090966 v -2.784388 h 2.66576 v 2.784388 z m 2.8188,1.167376 v 3.048947 h -2.8188 v -3.048947 z m -2.8188,-5.119139 v -2.823529 h 2.66576 v 2.823529 z m 0,-7.527444 a 3.3728318,3.3728179 0 0 1 2.22206,1.293131 3.2969045,3.2968909 0 0 1 0.6347,2.471188 h -2.85676 z m -1.14247,0 v 3.764319 h -2.89354 a 3.2767364,3.2767229 0 0 1 0.53505,-2.460511 3.3550364,3.3550226 0 0 1 2.13071,-1.378548 z m -2.89354,4.781025 h 2.77965 v 2.822348 h -2.77965 v -2.823528 z m 0,3.988534 h 2.77965 v 2.785578 h -2.77965 z m 0,3.951763 h 2.77965 v 3.048948 h -2.77965 z m 7.61645,6.624633 -0.38082,0.263369 a 6.9141273,6.9140988 0 0 1 -7.61645,0 l -0.38083,-0.263369 a 0.52081364,0.52081149 0 0 1 0,-0.753337 0.53742273,0.53742051 0 0 1 0.76165,0 l 0.38082,0.263369 a 5.9045318,5.9045075 0 0 0 2.36087,0.904006 1.3109318,1.3109264 0 0 1 -0.22897,-0.640637 c 0,-0.289469 0.11745,-0.567078 0.32388,-0.771137 a 1.1104364,1.1104318 0 0 1 1.56244,0 1.0867091,1.0867046 0 0 1 0.32269,0.771137 c -0.0178,0.230159 -0.0973,0.450818 -0.22778,0.640637 a 5.91165,5.9116256 0 0 0 2.36086,-0.904006 l 0.38082,-0.263369 a 0.57301364,0.57301128 0 0 1 0.76165,0 0.52911818,0.529116 0 0 1 -0.57183,0.677407 z m 71.73941,2.33356 h 0.68454 v -5.081169 h -0.68454 V 60.70598 a 4.5900409,4.590022 0 0 0 -1.20771,-3.538911 4.7288455,4.728826 0 0 0 -6.91532,0 c -0.43895,0.474543 -0.77351,1.034505 -0.98112,1.644294 a 4.5698727,4.5698539 0 0 0 -0.22541,1.895797 v 13.210105 h -0.68572 v 5.079989 h 10.01528 z m -3.80822,-10.200308 v -2.784388 h 2.81761 v 2.784388 z m 2.81761,1.167376 v 3.048947 h -3.12251 v -3.048947 z m -3.12251,-5.119139 v -2.823529 h 2.81761 v 2.823529 z m 0,-7.527444 c 0.44133,0.05576 0.86842,0.198122 1.25399,0.417598 0.38557,0.220663 0.72249,0.513694 0.9918,0.864856 a 3.2826682,3.2826547 0 0 1 0.64775,2.481865 h -2.89354 z m -1.14247,0 v 3.764319 h -2.66576 a 3.2814818,3.2814683 0 0 1 0.54929,-2.472375 3.35385,3.3538362 0 0 1 2.15444,-1.366684 z m -2.66576,4.705095 h 2.81762 v 2.823539 h -2.81762 z m 0,3.989724 h 2.81762 v 2.784388 h -2.81762 z m 0,3.950574 h 2.81762 v 3.048947 h -2.81762 z m -0.9135,5.872475 a 0.53742273,0.53742051 0 0 1 0.76165,0 l 0.38082,0.263379 c 0.70707,0.474538 1.51499,0.782997 2.36087,0.902817 a 1.0095955,1.0095913 0 0 1 -0.22897,-0.640638 1.0890818,1.0890773 0 0 1 0.61572,-1.188725 1.1151818,1.1151772 0 0 1 1.31924,0.290659 1.0736591,1.0736547 0 0 1 0.23608,0.899256 1.0095955,1.0095913 0 0 1 -0.22897,0.640638 5.4786273,5.4786047 0 0 0 2.36087,-0.904007 l 0.38082,-0.263379 a 0.61453636,0.61453383 0 0 1 0.79961,0 0.56115,0.56114769 0 0 1 0,0.752157 l -0.41879,0.263369 a 6.7551545,6.7551266 0 0 1 -3.80822,1.167375 6.8702318,6.8702035 0 0 1 -3.80704,-1.167375 l -0.38083,-0.263369 a 0.53505,0.53504779 0 0 1 -0.58487,-0.481658 0.53386364,0.53386144 0 0 1 0.051,-0.270499 z m -9.02585,3.161647 h 0.68572 V 73.917265 H 215.2645 V 60.70716 a 4.5675,4.5674812 0 0 0 -1.36076,-3.247061 4.6754591,4.6754398 0 0 0 -3.28504,-1.344144 4.6719,4.6718807 0 0 0 -3.28505,1.344144 4.5615682,4.5615494 0 0 0 -1.36075,3.247061 v 13.210105 h -0.68572 v 5.081179 h 10.01528 z m -3.80823,-10.200308 v -2.785568 h 2.81762 v 2.785568 z m 2.81762,1.166186 v 3.048947 h -2.81762 v -3.048947 z m -2.81762,-5.117949 v -2.823529 h 2.81762 v 2.823529 z m 0,-7.527444 a 3.3455455,3.3455317 0 0 1 2.22206,1.293131 c 0.26456,0.349976 0.45794,0.748595 0.56708,1.173304 0.10915,0.423538 0.13169,0.864866 0.0664,1.296694 h -2.85558 z m -1.14247,0 v 3.763129 h -2.85557 c -0.26694,-1.957491 0.76164,-3.725165 2.51271,-3.839056 z m -2.89354,4.779835 h 2.55068 v 2.823538 h -2.81761 z m 0,3.989724 h 2.55068 v 2.784388 h -2.81761 z m 0,3.950583 h 2.55068 v 3.048938 h -2.81761 z m -1.25754,5.796546 a 0.57775909,0.57775671 0 0 1 0.76164,0 l 0.41879,0.263369 a 5.4893045,5.4892819 0 0 0 2.36205,0.904007 1.0095955,1.0095913 0 0 1 -0.22897,-0.640638 1.0546773,1.054673 0 0 1 1.06654,-1.091445 c 0.29303,0 0.57302,0.115079 0.78063,0.320318 a 1.0890818,1.0890773 0 0 1 0.32388,0.771127 1.0095955,1.0095913 0 0 1 -0.22897,0.640638 5.6743773,5.6743539 0 0 0 2.36086,-0.904007 l 0.38082,-0.263369 a 0.53742273,0.53742051 0 0 1 0.76165,0 0.51962727,0.51962513 0 0 1 0,0.753337 l -0.38082,0.263369 a 6.8749773,6.874949 0 0 1 -3.80823,1.166195 6.9532773,6.9532486 0 0 1 -3.80823,-1.166195 l -0.38082,-0.263369 a 0.56945455,0.5694522 0 0 1 -0.38082,-0.753337 z m -8.7957,-15.128447 a 4.5900409,4.590022 0 0 0 -1.20653,-3.540095 4.6932545,4.6932351 0 0 0 -3.45825,-1.506675 c -0.65132,0 -1.29433,0.134058 -1.88988,0.393871 a 4.6813909,4.6813716 0 0 0 -1.56837,1.112804 4.6113955,4.6113765 0 0 0 -1.20654,3.538905 v 13.211295 h -0.68571 v 5.079989 h 10.701 v -5.079989 h -0.68572 V 60.70598 Z m -3.80823,8.090966 v -2.784388 h 2.81761 v 2.784388 z m 2.81761,1.167376 v 3.048947 h -2.81761 v -3.048947 z m -2.81761,-5.119139 v -2.823529 h 2.81761 v 2.823529 z m 0,-7.527444 c 0.44133,0.05576 0.86842,0.198122 1.25399,0.417598 a 3.3372409,3.3372271 0 0 1 1.56956,2.040537 c 0.11033,0.427088 0.13524,0.870786 0.0712,1.304994 h -2.89473 z m -1.14247,0 v 3.764319 h -2.85558 a 3.2802955,3.280282 0 0 1 0.50658,-2.439156 3.35385,3.3538362 0 0 1 2.08207,-1.399903 z m -2.85558,4.781025 h 2.77965 v 2.822348 h -2.77965 v -2.823528 z m 0,3.988534 h 2.77965 v 2.785578 h -2.77965 z m 0,3.951763 h 2.77965 v 3.048948 h -2.77965 z m 7.61527,6.624633 -0.38082,0.263369 a 6.9473455,6.9473169 0 0 1 -3.80704,1.166185 6.8714182,6.8713899 0 0 1 -3.80823,-1.166185 l -0.38082,-0.263369 a 0.52081364,0.52081149 0 0 1 0,-0.753337 0.53742273,0.53742051 0 0 1 0.76164,0 l 0.38083,0.263369 a 5.8986,5.8985757 0 0 0 2.36086,0.904006 1.0084091,1.0084049 0 0 1 -0.22897,-0.640637 c 0,-0.289469 0.11627,-0.567078 0.32388,-0.771137 a 1.1080636,1.108059 0 0 1 1.19823,-0.237269 1.0677273,1.0677229 0 0 1 0.57894,0.593178 1.0558636,1.0558592 0 0 1 0.07,0.415228 1.0084091,1.0084049 0 0 1 -0.22897,0.640637 5.4762545,5.4762319 0 0 0 2.36086,-0.904006 l 0.41879,-0.263369 a 0.57775909,0.57775671 0 0 1 0.76165,0 0.55521818,0.55521589 0 0 1 -0.34761,0.640627 0.57775909,0.57775671 0 0 1 -0.261,0.0368 z M 179.54427,60.70835 a 4.5698727,4.5698539 0 0 0 -0.22541,-1.895801 4.6315636,4.6315445 0 0 0 -0.98112,-1.644294 c -0.43895,-0.474544 -0.97282,-0.854178 -1.56837,-1.112804 a 4.7300318,4.7300123 0 0 0 -5.34813,1.112804 4.5900409,4.590022 0 0 0 -1.20653,3.538905 v 13.211295 h -0.68572 v 5.079989 h 10.701 v -5.079989 h -0.68572 V 60.70598 Z m -3.80822,8.090966 v -2.784388 h 2.8188 v 2.784388 z m 2.8188,1.167376 v 3.048947 h -2.8188 v -3.048947 z m -2.8188,-5.119139 v -2.823529 h 2.8188 v 2.823529 z m 0,-7.527444 a 3.3728318,3.3728179 0 0 1 2.22205,1.293131 3.2969045,3.2968909 0 0 1 0.63471,2.471188 h -2.85676 z m -1.14247,0 v 3.764319 H 171.738 c -0.26693,-1.957495 0.76165,-3.725169 2.58983,-3.839059 z m -2.89354,4.781025 h 2.81761 v 2.822348 h -2.81761 v -2.823528 z m 0,3.988534 h 2.81761 v 2.785578 h -2.81761 z m 0,3.951763 h 2.81761 v 3.048948 h -2.81761 z m 7.61645,6.624633 -0.38082,0.263369 a 6.8370136,6.8369854 0 0 1 -7.61646,0 l -0.41878,-0.263369 a 0.56115,0.56114769 0 0 1 0,-0.753337 0.61216364,0.61216112 0 0 1 0.79961,0 l 0.38082,0.263369 a 5.4821864,5.4821638 0 0 0 2.36086,0.904006 1.0084091,1.0084049 0 0 1 -0.22897,-0.640637 1.0890818,1.0890773 0 0 1 0.61691,-1.189915 1.1068773,1.1068727 0 0 1 0.93842,0 1.0867091,1.0867046 0 0 1 0.61572,1.189915 1.0155273,1.0155231 0 0 1 -0.22778,0.640637 5.4881182,5.4880956 0 0 0 2.36086,-0.904006 l 0.38082,-0.263369 a 0.52081364,0.52081149 0 0 1 0.38083,-0.157789 0.54335455,0.54335231 0 0 1 0.38082,0.157789 0.52911818,0.529116 0 0 1 -0.57183,0.677407 z"
     style="fill:#ffffff;stroke-width:1.18636"
     id="path14" />
  <path
     d="M 251.82229,80.843227 H 241.0074 v 1.054675 h 10.81489 z"
     style="fill:#ffffff;stroke-width:1.18636"
     id="path16" />
  <path
     fill-rule="evenodd"
     clip-rule="evenodd"
     d="m 112.10543,59.577744 a 7.4883273,7.4882964 0 0 0 -2.19952,-4.801188 7.6556045,7.6555729 0 0 0 -4.84629,-2.199509 l 0.30489,-2.633717 h -2.77965 l 0.3049,2.633717 a 7.6567909,7.6567593 0 0 0 -4.893751,2.175782 7.4895136,7.4894827 0 0 0 -2.226804,4.824915 V 102.89764 H 94.244727 V 59.577744 a 7.4883273,7.4882964 0 0 0 -2.199518,-4.801188 7.6556045,7.6555729 0 0 0 -4.846295,-2.199509 l 0.304895,-2.633717 h -2.77965 l 0.266932,2.633717 a 7.6556045,7.6555729 0 0 0 -4.846296,2.199509 7.4883273,7.4882964 0 0 0 -2.198331,4.801188 V 102.89764 H 76.385209 V 59.577744 a 7.4883273,7.4882964 0 0 0 -2.199518,-4.801188 7.6556045,7.6555729 0 0 0 -4.845109,-2.199509 l 0.265745,-2.633717 h -2.778463 l 0.304895,2.633717 a 7.6556045,7.6555729 0 0 0 -4.846295,2.199509 7.4883273,7.4882964 0 0 0 -2.198332,4.801188 V 102.89764 H 58.487727 V 59.577744 a 7.4883273,7.4882964 0 0 0 -2.199518,-4.801188 7.6556045,7.6555729 0 0 0 -4.846295,-2.199509 l 0.304895,-2.633717 h -2.77965 l 0.266932,2.633717 a 7.6556045,7.6555729 0 0 0 -4.846296,2.199509 7.4883273,7.4882964 0 0 0 -2.198331,4.801188 V 102.89764 H 40.628209 V 59.577744 a 7.4883273,7.4882964 0 0 0 -2.199518,-4.801188 7.6556045,7.6555729 0 0 0 -4.846296,-2.199509 l 0.266932,-2.633717 h -2.817613 l 0.304895,2.633717 a 7.6556045,7.6555729 0 0 0 -4.846295,2.199509 7.4883273,7.4882964 0 0 0 -2.198332,4.801188 v 46.781686 h 88.193088 v -3.53771 h -0.38082 V 59.578934 Z m -15.232907,0 a 6.4941545,6.4941277 0 0 1 0.74385,-2.503211 c 0.415227,-0.777065 0.984682,-1.463967 1.673959,-2.017996 a 6.6543136,6.6542862 0 0 1 2.338318,-1.212459 6.7017682,6.7017406 0 0 1 2.63136,-0.213544 6.4822909,6.4822642 0 0 1 4.60309,1.608702 6.3328091,6.332783 0 0 1 2.13783,4.338508 V 102.89764 H 96.949636 Z m -17.897482,0 c 0.08067,-0.8779 0.338114,-1.729706 0.7569,-2.50677 a 6.6044864,6.6044592 0 0 1 1.684636,-2.01681 6.6922773,6.6922497 0 0 1 2.346628,-1.210086 6.7409182,6.7408904 0 0 1 2.638472,-0.213544 6.4799182,6.4798915 0 0 1 4.55445,1.635988 6.3328091,6.332783 0 0 1 2.109355,4.311222 V 102.89764 H 78.975041 Z m -17.859518,0 a 6.4917818,6.491755 0 0 1 0.74385,-2.503211 c 0.415227,-0.777065 0.984682,-1.463967 1.673959,-2.017996 a 6.6555,6.6554726 0 0 1 2.338323,-1.212459 6.7017682,6.7017406 0 0 1 2.631354,-0.213544 6.4799182,6.4798915 0 0 1 4.555636,1.635988 6.3328091,6.332783 0 0 1 2.109355,4.311222 V 102.89764 H 61.192636 Z m -17.859518,0 a 6.4538182,6.4537916 0 0 1 0.707072,-2.474738 6.525,6.5249731 0 0 1 1.620573,-2.010878 6.6104182,6.6103909 0 0 1 2.282564,-1.233814 6.6626182,6.6625907 0 0 1 2.586272,-0.264558 h 0.191005 a 6.4799182,6.4798915 0 0 1 4.555636,1.634802 6.3316227,6.3315966 0 0 1 2.109355,4.311227 V 102.89764 H 43.333118 Z M 32.746009,53.63172 a 6.4822909,6.4822642 0 0 1 4.579364,1.620566 6.3328091,6.332783 0 0 1 2.123591,4.325458 V 102.89764 H 25.43445 V 59.577744 a 6.4894091,6.4893823 0 0 1 0.745036,-2.503211 c 0.415228,-0.777065 0.984682,-1.463967 1.672773,-2.017996 a 6.6543136,6.6542862 0 0 1 2.338323,-1.212459 6.7005818,6.7005542 0 0 1 2.631354,-0.213544 h -0.07593 z M 9.2536364,38.503273 H 19.954636 V 20.663997 H 9.2536364 Z M 15.232909,21.868151 h 2.817614 v 2.823533 h -2.817614 z m 0,3.951761 h 2.817614 v 2.823534 h -2.817614 z m 0,3.989724 h 2.817614 v 2.973015 h -2.817614 z m 0,4.215133 h 2.817614 v 3.27435 H 15.232909 Z M 11.158936,21.868151 h 2.817614 v 2.823533 h -2.817614 z m 0,3.951761 h 2.817614 v 2.823534 h -2.817614 z m 0,3.989724 h 2.817614 v 2.973015 h -2.817614 z m 0,4.215133 h 2.817614 v 3.27435 H 11.158936 Z M 9.2536364,43.584447 H 19.954636 V 39.292202 H 9.2536364 v 4.291059 z M 9.7875,39.820131 h 9.824277 v 0.677411 H 18.584386 V 42.90585 H 17.441918 V 40.497542 H 16.29945 V 42.90585 H 15.156982 V 40.497542 H 14.014514 V 42.90585 H 12.911195 V 40.497542 H 11.767541 V 42.90585 H 10.625073 V 40.497542 H 9.7875 V 39.821318 Z M 27.227045,38.503273 H 37.926859 V 20.663997 h -10.701 v 17.839276 z m 5.900973,-16.635122 h 2.8188 v 2.823533 h -2.8188 z m 0,3.951761 h 2.8188 v 2.823534 h -2.8188 z m 0,3.989724 h 2.8188 v 2.973015 h -2.8188 z m 0,4.215133 h 2.8188 v 3.27435 h -2.8188 z M 29.016082,21.868151 h 2.817613 v 2.823533 h -2.817613 z m 0,3.951761 h 2.817613 v 2.823534 h -2.817613 z m 0,3.989724 h 2.817613 v 2.973015 h -2.817613 z m 0,4.215133 h 2.817613 v 3.27435 h -2.817613 z m -1.789037,9.559678 h 10.699814 v -4.292245 h -10.701 v 4.291059 z m 0.532678,-3.764316 h 9.633272 v 0.677411 H 36.555423 V 42.90585 H 35.412955 V 40.497542 H 34.270486 V 42.90585 H 33.167168 V 40.497542 H 32.0247 v 2.408308 h -1.142468 v -2.408308 h -1.142468 v 2.408308 h -1.142469 v -2.408308 h -0.837572 v -0.676224 z m 17.2521,-1.316858 h 10.701 V 20.663997 h -10.701 z m 5.979272,-16.635122 h 2.894728 v 2.823533 h -2.8188 z m 0,3.951761 h 2.894728 v 2.823534 h -2.8188 z m 0,3.989724 h 2.894728 v 2.973015 h -2.8188 z m 0,4.215133 h 2.894728 v 3.27435 h -2.8188 z M 46.915936,21.868151 h 2.77965 v 2.823533 h -2.77965 z m 0,3.951761 h 2.77965 v 2.823534 h -2.77965 z m 0,3.989724 h 2.77965 v 2.973015 h -2.77965 z m 0,4.215133 h 2.77965 v 3.27435 h -2.77965 z m -1.904113,9.559678 h 10.701 v -4.292245 h -10.701 v 4.291059 z m 0.533863,-3.764316 h 9.596496 v 0.677411 H 54.341386 V 42.90585 H 53.200105 V 40.497542 H 52.05645 V 42.90585 H 50.915168 V 40.497542 H 49.7727 v 2.408308 h -1.104505 v -2.408308 h -1.142468 v 2.408308 h -1.257545 v -2.408308 h -0.837573 l 0.115077,-0.676224 z m 17.322096,-1.696493 h 10.701 V 20.284361 h -10.701 z m 6.017236,-16.635122 h 2.817614 v 2.823534 h -2.817614 z m 0,3.989724 h 2.817614 v 2.784384 h -2.817614 z m 0,3.76313 h 2.817614 v 3.048942 h -2.817614 z m 0,4.215133 h 2.817614 v 3.274351 H 68.885018 Z M 64.771895,21.488516 h 2.817614 v 2.823534 h -2.817614 z m 0,3.989724 h 2.817614 v 2.784384 h -2.817614 z m 0,3.76313 h 2.817614 v 3.048942 h -2.817614 z m 0,4.215133 h 2.817614 v 3.274351 h -2.817614 z m -1.904113,10.127944 h 10.701 v -4.292245 h -10.701 v 4.291059 z m 0.533863,-3.764316 h 9.519382 v 0.677411 H 72.083455 V 42.90585 H 70.940986 V 40.497542 H 69.798518 V 42.90585 H 68.6952 v -2.408308 h -1.143655 v 2.408308 h -1.142468 v -2.408308 h -1.103318 v 2.408308 h -1.142468 v -2.408308 h -0.761646 v -0.676224 z m 17.363619,-1.696493 h 10.701 V 20.284361 h -10.701 z m 5.979272,-16.635122 h 2.817614 v 2.823534 h -2.817614 z m 0,3.989724 h 2.817614 v 2.784384 h -2.817614 z m 0,3.76313 h 2.817614 v 3.048942 h -2.817614 z m 0,4.215133 h 2.817614 v 3.274351 H 86.744536 Z M 82.630227,21.488516 h 2.817614 v 2.823534 h -2.817614 z m 0,3.989724 h 2.817614 v 2.784384 h -2.817614 z m 0,3.76313 h 2.817614 v 3.048942 h -2.817614 z m 0,4.215133 h 2.817614 v 3.274351 h -2.817614 z m -1.864963,10.127944 h 10.701 v -4.292245 h -10.701 v 4.291059 z m 0.494713,-3.764316 h 9.634459 v 0.677411 h -0.837572 v 2.408308 h -1.103319 v -2.408308 h -1.143654 v 2.408308 h -1.142468 v -2.408308 h -1.142468 v 2.408308 h -1.180432 v -2.408308 h -1.103318 v 2.408308 h -1.142469 v -2.408308 h -0.876722 l 0.03796,-0.676224 z M 98.630714,20.284361 V 38.123638 H 109.33171 V 20.284361 Z m 4.759686,16.635123 h -2.81761 v -3.27435 h 2.81761 z m 0,-4.441727 h -2.81761 v -3.048942 h 2.81761 z m 0,-4.215133 h -2.81761 V 25.47824 h 2.81761 z m 0,-3.950574 h -2.81761 v -2.823534 h 2.81761 z m 4.07398,12.607434 h -2.77965 v -3.27435 h 2.78083 v 3.27435 z m 0,-4.441727 h -2.77965 v -3.048942 h 2.78083 v 3.048942 z m 0,-4.215133 h -2.77965 V 25.47824 h 2.78083 v 2.784384 z m 0,-3.950574 h -2.77965 v -2.823534 h 2.78083 V 24.31205 Z M 98.630714,43.584447 H 109.33171 V 39.292202 H 98.630714 v 4.291059 z m 0.533863,-3.764316 h 9.633273 v 0.677411 h -0.83876 v 2.408308 h -1.14247 v -2.408308 h -1.14247 v 2.408308 h -1.14246 v -2.408308 h -1.14247 v 2.408308 h -1.14247 v -2.408308 h -1.14247 v 2.408308 h -1.142466 v -2.408308 h -0.837573 l 0.03796,-0.676224 z"
     style="fill:#ffffff;stroke-width:1.18636"
     id="path18" />
  <path
     fill-rule="evenodd"
     clip-rule="evenodd"
     d="m 80.765264,100.90337 h 10.701 V 83.064098 h -10.701 z m 5.979272,-16.635127 h 2.817614 v 2.784388 h -2.817614 z m 0,3.950583 h 2.817614 v 2.823529 h -2.817614 z m 0,3.990904 h 2.817614 v 3.048947 h -2.817614 z m 0,4.215132 h 2.817614 v 3.274357 H 86.744536 Z M 82.630227,84.267063 h 2.817614 v 2.784378 h -2.817614 z m 0,3.950573 h 2.817614 v 2.823529 h -2.817614 z m 0,3.990914 h 2.817614 v 3.048937 h -2.817614 z m 0,4.215132 h 2.817614 v 3.274347 h -2.817614 z m -19.762445,4.479688 h 10.701 V 83.064098 h -10.701 z m 6.017236,-16.635127 h 2.817614 v 2.784388 h -2.817614 z m 0,3.950583 h 2.817614 v 2.823529 h -2.817614 z m 0,3.990904 h 2.817614 v 3.048947 h -2.817614 z m 0,4.215132 h 2.817614 v 3.274357 H 68.885018 Z M 64.771895,84.267063 h 2.817614 v 2.784378 h -2.817614 z m 0,3.950573 h 2.817614 v 2.823529 h -2.817614 z m 0,3.990914 h 2.817614 v 3.048937 h -2.817614 z m 0,4.215132 h 2.817614 v 3.274347 H 64.771895 Z M 45.011823,83.064098 v 17.839272 h 10.701 V 83.064098 Z m 4.683763,16.635121 h -2.77965 v -3.274357 h 2.77965 z m 0,-4.441732 h -2.77965 V 92.20855 h 2.77965 z m 0,-4.215132 h -2.77965 v -2.823529 h 2.77965 z m 0,-3.989724 h -2.77965 v -2.784388 h 2.77965 z m 4.18905,12.646588 h -2.817613 v -3.274357 h 2.817613 z m 0,-4.441732 H 51.067023 V 92.20855 h 2.817613 z m 0,-4.215132 h -2.817613 v -2.823529 h 2.817613 z m 0,-3.989724 h -2.817613 v -2.784378 h 2.817613 z M 27.227045,100.90337 H 37.926859 V 83.064098 h -10.701 v 17.839272 z m 6.014864,-16.635127 h 2.8188 v 2.784388 h -2.817614 v -2.784388 z m 0,3.950583 h 2.8188 v 2.823529 h -2.817614 v -2.823529 z m 0,3.990904 h 2.8188 v 3.048947 H 33.243095 V 92.20973 Z m 0,4.215132 h 2.8188 v 3.274357 h -2.817614 v -3.274357 z m -4.11075,-12.157799 h 2.817614 v 2.784378 h -2.817614 z m 0,3.950573 h 2.817614 v 2.823529 h -2.817614 z m 0,3.990914 h 2.817614 v 3.048937 h -2.817614 z m 0,4.215132 h 2.817614 v 3.274347 H 29.131159 Z M 9.3663409,106.39858 H 20.067341 V 83.062908 H 9.3663409 Z M 15.344427,84.268243 h 2.817614 v 2.784388 h -2.817614 z m 0,3.950583 h 2.817614 v 2.823529 h -2.817614 z m 0,3.990904 h 2.817614 v 3.048947 h -2.817614 z m 0,4.215132 h 2.817614 v 3.274357 H 15.344427 Z M 11.269268,84.267063 h 2.780837 v 2.784378 h -2.780837 z m 0,3.950573 h 2.780837 v 2.823529 h -2.780837 z m 0,3.990914 h 2.780837 v 3.048937 h -2.780837 z m 0,4.215132 h 2.780837 v 3.274347 h -2.780837 z m 87.361446,4.479688 H 109.33171 V 83.064098 H 98.630714 Z m 6.016046,-16.635127 h 2.77965 v 2.784388 h -2.77965 z m 0,3.950583 h 2.77965 v 2.823529 h -2.77965 z m 0,3.990904 h 2.77965 v 3.048947 h -2.77965 z m 0,4.215132 h 2.77965 v 3.274357 h -2.77965 z m -4.11193,-12.157799 h 2.85557 v 2.784378 h -2.81761 z m 0,3.950573 h 2.85557 v 2.823529 h -2.81761 z m 0,3.990914 h 2.85557 v 3.048937 h -2.81761 z m 0,4.215132 h 2.85557 v 3.274347 h -2.81761 z"
     style="fill:#ffffff;stroke-width:1.18636"
     id="path20" />
  <path
     d="m 24.293168,21.413776 h -1.4094 v 23.222972 h 1.4094 z M 25.056,19.834732 h -2.932691 v 1.053487 H 25.056 Z m -1.103318,60.930195 h -2.930318 v 1.053486 h 2.931504 v -1.053486 z m -15.5757684,0 H 5.4454091 v 1.053486 H 8.3757273 V 80.764927 Z M 6.5107636,21.413776 H 5.10255 V 44.636748 H 6.5107636 Z M 7.2747818,19.834732 H 4.3420909 v 1.053487 H 7.2747818 Z M 60.054914,21.413776 H 58.6467 v 23.222972 h 1.408214 z M 60.813,19.834732 h -2.930318 v 1.053487 H 60.813 Z m 17.214136,1.579044 h -1.4094 v 23.222972 h 1.4094 z m 0.758087,-1.579044 h -2.932691 v 1.053487 h 2.932691 z m 17.023132,1.579044 h -1.4094 v 23.222972 h 1.4094 z m 0.762831,-1.579044 h -2.931504 v 1.053487 H 96.57 v -1.053487 z m -54.492054,1.579044 h -1.410587 v 23.222972 h 1.4094 V 21.413776 Z m 0.762832,-1.579044 h -2.931505 v 1.053487 h 2.931505 z M 42.079132,6.4371825 h -1.410587 v 8.5429695 h 1.4094 V 6.4371825 Z m 0.762832,-1.6170074 h -2.931505 v 1.0534867 h 2.931505 z M 24.293168,6.4371825 h -1.4094 v 8.5429695 h 1.4094 z M 25.056,4.8201751 H 22.123309 V 5.8736618 H 25.056 Z M 6.5107636,6.4371825 H 5.10255 V 14.980152 H 6.5107636 Z M 7.2747818,4.8201751 H 4.3420909 V 5.8736618 H 7.2747818 Z M 95.808355,6.4371825 h -1.4094 v 8.5429695 h 1.4094 z M 96.571186,4.8201751 H 93.639682 V 5.8736618 H 96.57 V 4.8201751 Z m -18.54405,1.6170074 h -1.4094 v 8.5429695 h 1.4094 z m 0.758087,-1.6170074 h -2.932691 v 1.0534867 h 2.932691 z M 60.054914,6.4371825 H 58.6467 v 8.5429695 h 1.408214 z M 60.813,4.8201751 H 57.882682 V 5.8736618 H 60.813 Z"
     style="fill:#ffffff;stroke-width:1.18636"
     id="path22" />
  <path
     fill-rule="evenodd"
     clip-rule="evenodd"
     d="M 98.361409,4.7406895 V 14.978965 H 109.59627 V 4.7406895 Z M 108.49058,13.961069 H 99.580991 V 5.83214 h 9.023479 z m -27.951912,1.01671 H 91.96335 V 4.7406895 H 80.538668 V 14.978965 Z M 81.641986,5.83214 h 9.063819 v 8.128929 H 81.566059 L 81.643169,5.83214 Z M 62.604409,14.977779 H 74.027905 V 4.7406895 H 62.603223 V 14.978965 Z M 63.707727,5.83214 H 72.9234 v 8.128929 h -9.215673 z m -19.0008,9.145639 H 56.130423 V 4.7406895 H 44.705741 V 14.978965 Z M 45.849395,5.83214 h 9.024669 v 8.128929 H 45.849395 Z M 26.846223,14.977779 H 38.270905 V 4.7406895 H 26.846223 V 14.978965 Z M 27.949541,5.83214 h 9.063818 v 8.128929 H 27.949541 Z M 8.9487409,14.977779 H 20.373423 V 4.7406895 H 8.9487409 V 14.978965 Z M 10.091209,5.83214 h 9.024668 v 8.128929 h -9.024668 z m 9.863427,68.086315 H 19.270105 V 59.994163 a 4.8546,4.85458 0 0 0 -0.971632,-2.872176 4.9495091,4.9494887 0 0 0 -2.493737,-1.758183 l 0.265746,-2.446272 h -2.854391 l 0.266932,2.447458 a 4.9127318,4.9127115 0 0 0 -2.594578,1.793774 4.8166364,4.8166165 0 0 0 -0.9467177,2.986068 V 74.069125 H 9.2536364 v 5.081169 H 19.954636 Z m -1.942077,-4.665951 v 3.048938 h -2.77965 v -3.048938 z m -2.77965,-1.167375 v -2.822348 h 2.77965 v 2.823528 h -2.77965 z m 2.77965,-3.988543 h -2.77965 v -2.785569 h 2.77965 z m 0,-3.764315 h -2.894727 v -3.763127 a 3.3408,3.3407862 0 0 1 2.214941,1.231441 3.2589409,3.2589275 0 0 1 0.679786,2.418987 z M 13.97655,56.569144 v 3.763127 h -2.855577 c 0,-2.070193 1.065354,-3.725163 2.855577,-3.80109 z m -2.855577,4.779843 h 2.817613 v 2.784379 h -2.817613 z m 0,3.950574 h 2.817613 v 2.823528 h -2.817613 z m 0,3.990903 h 2.817613 v 3.048948 h -2.817613 z m 8.263022,6.472774 h -0.837572 v 2.182901 H 17.441918 V 75.574608 H 16.29945 v 2.371531 h -1.142468 v -2.371531 h -1.142468 v 2.371531 h -1.142469 v -2.371531 h -1.103318 v 2.371531 H 10.625073 V 75.574608 H 9.7495364 v -0.676227 h 9.6332726 v 0.864857 z M 108.646,73.918455 V 60.70598 a 4.5781773,4.5781584 0 0 0 -0.2266,-1.894617 4.6149545,4.6149355 0 0 0 -0.98112,-1.644294 c -0.43896,-0.474544 -0.97282,-0.854178 -1.56838,-1.112805 a 4.7300318,4.7300123 0 0 0 -5.34694,1.112805 4.5781773,4.5781584 0 0 0 -1.206528,3.538911 v 13.211285 h -0.685718 v 5.079989 H 109.33171 V 73.917265 H 108.646 Z m -4.0372,-5.119139 v -2.784388 h 2.81761 v 2.784388 z m 2.81761,1.167376 v 3.048947 h -2.81761 v -3.048947 z m -2.81761,-5.119139 v -2.823529 h 2.81761 v 2.823529 z m 0,-7.527444 c 1.827,0 2.85558,1.732084 2.85558,3.764319 h -2.93151 z m -1.14247,0 v 3.764319 h -2.85558 c -0.0759,-1.957495 0.95147,-3.725169 2.77965,-3.839059 z m -2.89473,4.781025 h 2.8188 v 2.822348 h -2.81761 v -2.823528 z m 0,3.988534 h 2.8188 v 2.785578 h -2.81761 v -2.785578 z m 0,3.951763 h 2.8188 v 3.048948 h -2.81761 v -3.048948 z m 7.61646,6.624633 -0.37964,0.263369 a 6.8346409,6.8346127 0 0 1 -3.80822,1.156695 6.8346409,6.8346127 0 0 1 -3.80823,-1.156695 l -0.380825,-0.263369 a 0.56470909,0.56470676 0 0 1 -0.189818,-0.753337 0.61335,0.61334747 0 0 1 0.798423,0 l 0.38082,0.263369 a 5.4821864,5.4821638 0 0 0 2.36087,0.904006 1.0084091,1.0084049 0 0 1 -0.22779,-0.640637 1.0795909,1.0795864 0 0 1 0.2349,-0.898076 1.1033182,1.1033137 0 0 1 0.85063,-0.395059 1.1151818,1.1151772 0 0 1 0.84943,0.395059 1.0878955,1.087891 0 0 1 0.2349,0.898076 1.0084091,1.0084049 0 0 1 -0.22778,0.640637 5.4821864,5.4821638 0 0 0 2.36087,-0.904006 l 0.37963,-0.263369 a 0.61335,0.61334747 0 0 1 0.8008,0 0.55759091,0.55758861 0 0 1 -0.22897,0.677407 z M 90.780545,73.918455 V 60.70598 a 4.5781773,4.5781584 0 0 0 -0.225409,-1.894617 4.6149545,4.6149355 0 0 0 -0.981122,-1.644294 c -0.438955,-0.474544 -0.972819,-0.854178 -1.568373,-1.112805 a 4.7300318,4.7300123 0 0 0 -5.348127,1.112805 c -0.438955,0.474543 -0.772323,1.034505 -0.979937,1.644294 a 4.5781773,4.5781584 0 0 0 -0.226595,1.895797 v 13.210105 h -0.685718 v 5.079989 h 10.701 v -5.079989 h -0.685719 z m -4.036009,-5.119139 v -2.784388 h 2.77965 v 2.784388 z m 2.77965,1.167376 v 3.048947 h -2.77965 v -3.048947 z m -2.77965,-5.119139 v -2.823529 h 2.77965 v 2.823529 z m 0,-7.527444 a 3.393,3.392986 0 0 1 1.2528,0.417598 c 0.385569,0.220663 0.723682,0.513694 0.992987,0.864856 a 3.2969045,3.2968909 0 0 1 0.647754,2.481865 h -3.008618 z m -1.142468,0 v 3.764319 h -2.856763 a 3.27555,3.2755365 0 0 1 0.563522,-2.483052 3.3728318,3.3728179 0 0 1 2.17935,-1.356007 z m -2.856763,4.781025 h 2.8188 v 2.822348 h -2.8188 v -2.823528 z m 0,3.988534 h 2.8188 v 2.785578 h -2.8188 z m 0,3.951763 h 2.8188 v 3.048948 h -2.8188 z m 7.616454,6.624633 -0.380823,0.263369 a 6.9129409,6.9129124 0 0 1 -3.808227,1.141275 6.9129409,6.9129124 0 0 1 -3.808227,-1.141275 l -0.379637,-0.263369 a 0.52674545,0.52674328 0 0 1 -0.118636,-0.581318 0.52437273,0.52437057 0 0 1 0.118636,-0.172019 0.5742,0.57419763 0 0 1 0.76046,0 l 0.380822,0.263369 c 0.711818,0.467428 1.517359,0.775877 2.360864,0.904006 a 1.2694091,1.2694039 0 0 1 -0.189818,-0.640637 1.0416273,1.041623 0 0 1 0.297777,-0.769947 1.0665409,1.0665365 0 0 1 0.767577,-0.320319 c 0.293032,0 0.5742,0.1139 0.781814,0.319139 a 1.0843364,1.0843319 0 0 1 0.322691,0.771127 c -0.0178,0.230159 -0.09728,0.450818 -0.227782,0.640637 a 5.9045318,5.9045075 0 0 0 2.360864,-0.904006 l 0.379636,-0.263369 a 0.53386364,0.53386144 0 0 1 0.588436,-0.11745 0.53386364,0.53386144 0 0 1 0.174396,0.11863 0.51962727,0.51962513 0 0 1 -0.209987,0.593188 0.53742273,0.53742051 0 0 1 -0.2088,0.083 z M 72.919841,73.918455 V 60.70598 a 4.5781773,4.5781584 0 0 0 -0.225409,-1.894617 4.6149545,4.6149355 0 0 0 -0.981123,-1.644294 c -0.438954,-0.474544 -0.972818,-0.854178 -1.568373,-1.112805 a 4.7300318,4.7300123 0 0 0 -5.348127,1.112805 c -0.438954,0.474543 -0.772323,1.034505 -0.979936,1.644294 a 4.5781773,4.5781584 0 0 0 -0.225409,1.895797 v 13.210105 h -0.686905 v 5.079989 h 10.701 v -5.079989 h -0.685718 z m -4.036009,-5.119139 v -2.784388 h 2.817613 v 2.784388 z m 2.817613,1.167376 v 3.048947 h -2.817613 v -3.048947 z m -2.817613,-5.119139 v -2.823529 h 2.817613 v 2.823529 z m 0,-7.527444 c 1.827,0 2.855577,1.732084 2.855577,3.764319 h -2.855577 z m -1.142468,0 v 3.764319 h -2.855578 a 3.27555,3.2755365 0 0 1 0.562337,-2.483052 3.3728318,3.3728179 0 0 1 2.17935,-1.356007 z m -2.894728,4.781025 h 2.8188 v 2.822348 h -2.8188 v -2.823528 z m 0,3.988534 h 2.8188 v 2.785578 h -2.8188 z m 0,3.951763 h 2.8188 v 3.048948 h -2.8188 z m 7.616455,6.624633 -0.418786,0.263369 a 6.7563409,6.756313 0 0 1 -3.808228,1.166185 6.8726045,6.8725762 0 0 1 -3.808227,-1.166185 l -0.379636,-0.263369 a 0.52911818,0.529116 0 0 1 -0.161346,-0.377269 0.51962727,0.51962513 0 0 1 0.160159,-0.376068 0.53386364,0.53386144 0 0 1 0.761646,0 l 0.380822,0.263369 c 0.70826,0.474538 1.514987,0.782997 2.360864,0.904006 a 1.0084091,1.0084049 0 0 1 -0.227782,-0.640637 1.0795909,1.0795864 0 0 1 0.2349,-0.898076 1.1033182,1.1033137 0 0 1 0.850623,-0.395059 1.1151818,1.1151772 0 0 1 0.849436,0.395059 1.0878955,1.087891 0 0 1 0.2349,0.898076 1.0084091,1.0084049 0 0 1 -0.227781,0.640637 5.4821864,5.4821638 0 0 0 2.360863,-0.904006 l 0.379637,-0.263369 a 0.61335,0.61334747 0 0 1 0.800795,0 0.55759091,0.55758861 0 0 1 -0.342859,0.677407 z m -17.435986,2.33356 h 0.685718 V 73.918455 H 55.027105 V 60.70598 A 4.5793636,4.5793447 0 0 0 53.820573,57.167069 C 53.381618,56.692525 52.847755,56.312891 52.2522,56.054264 a 4.7300318,4.7300123 0 0 0 -5.348127,1.112805 c -0.438955,0.474543 -0.772323,1.034505 -0.979937,1.644294 a 4.5781773,4.5781584 0 0 0 -0.225409,1.895797 v 13.210105 h -0.686904 v 5.079989 h 10.015282 z m -4.03601,-10.200308 v -2.784388 h 2.894728 v 2.784388 z m 2.77965,1.167376 v 3.048947 h -2.77965 v -3.048947 z m -2.77965,-5.119139 v -2.823529 h 2.894728 v 2.823529 z m 0,-7.527444 a 3.3716455,3.3716316 0 0 1 2.220873,1.293131 3.2969045,3.2968909 0 0 1 0.634705,2.471188 h -2.855578 z m -1.142468,0 v 3.764319 H 46.9539 a 3.2743636,3.2743501 0 0 1 0.590809,-2.506779 3.3763909,3.376377 0 0 1 2.227991,-1.33228 z M 46.9539,62.101134 h 2.8188 v 2.822348 h -2.8188 v -2.823538 z m 0,3.988534 h 2.8188 v 2.785578 h -2.8188 z m 0,3.951763 h 2.8188 v 3.048948 h -2.8188 z m -0.9135,5.872476 a 0.5742,0.57419763 0 0 1 0.761645,0 l 0.418787,0.262189 a 5.4821864,5.4821638 0 0 0 2.360863,0.904006 1.0084091,1.0084049 0 0 1 -0.227781,-0.640637 1.0416273,1.041623 0 0 1 0.297777,-0.769947 1.0665409,1.0665365 0 0 1 0.767577,-0.320319 c 0.293032,0 0.5742,0.11389 0.780627,0.319129 a 1.0843364,1.0843319 0 0 1 0.323878,0.771137 1.0084091,1.0084049 0 0 1 -0.227782,0.640637 5.9045318,5.9045075 0 0 0 2.360864,-0.904006 l 0.379636,-0.263369 a 0.53386364,0.53386144 0 0 1 0.762832,0 0.52674545,0.52674328 0 0 1 0.118636,0.581308 0.52911818,0.529116 0 0 1 -0.118636,0.172029 L 54.4185,76.929433 a 6.8726045,6.8725762 0 0 1 -3.808227,1.166185 6.9497182,6.9496895 0 0 1 -3.808228,-1.166185 l -0.380822,-0.263369 a 0.57775909,0.57775671 0 0 1 -0.454378,-0.293039 0.55877727,0.55877497 0 0 1 -0.0024,-0.535048 l 0.07593,0.0747 z m -8.875186,3.085717 h 0.646568 V 73.917265 H 37.12725 V 60.70716 c 0,-1.217195 -0.489968,-2.384577 -1.360759,-3.247061 a 4.6742727,4.6742534 0 0 0 -3.286227,-1.344144 4.6742727,4.6742534 0 0 0 -3.283855,1.344144 4.5651273,4.5651085 0 0 0 -1.360759,3.247061 v 13.210105 h -0.609791 v 5.081179 H 37.279105 37.165214 Z M 33.090055,68.799316 v -2.785568 h 2.8188 v 2.785568 z m 2.8188,1.166186 v 3.048947 h -2.8188 v -3.048947 z m -2.8188,-5.117949 v -2.823529 h 2.8188 v 2.823529 z m 0,-7.527444 c 1.828186,0 2.856763,1.732084 2.856763,3.763129 h -2.856763 z m -1.142469,0 v 3.763129 h -2.855577 a 3.2743636,3.2743501 0 0 1 0.576573,-2.494912 3.3763909,3.376377 0 0 1 2.203077,-1.344144 z m -2.894727,4.779835 h 2.8188 v 2.823538 h -2.817614 v -2.823538 z m 0,3.989724 h 2.8188 v 2.784388 h -2.817614 v -2.784388 z m 0,3.950583 h 2.8188 v 3.048938 h -2.817614 v -3.048938 z m -0.87435,5.872476 a 0.53149091,0.53148872 0 0 1 0.58725,-0.11745 0.53030455,0.53030236 0 0 1 0.174396,0.11745 l 0.379636,0.263369 c 0.711818,0.467428 1.518545,0.775877 2.360864,0.902816 a 1.0084091,1.0084049 0 0 1 -0.227782,-0.640637 c 0,-0.288279 0.116263,-0.565888 0.323877,-0.771127 a 1.1104364,1.1104318 0 0 1 1.198227,-0.236089 1.0677273,1.0677229 0 0 1 0.578946,0.593178 1.044,1.0439957 0 0 1 0.07,0.415228 1.0084091,1.0084049 0 0 1 -0.228968,0.640637 5.4833727,5.4833501 0 0 0 2.360864,-0.904006 L 36.1746,75.912727 a 0.5742,0.57419763 0 0 1 0.761645,0 0.55996364,0.55996133 0 0 1 0,0.752147 l -0.379636,0.263369 a 6.9497182,6.9496895 0 0 1 -3.808227,1.167375 6.8726045,6.8725762 0 0 1 -3.808227,-1.167375 l -0.380823,-0.263369 a 0.53979545,0.53979322 0 0 1 -0.488782,-0.274049 0.522,0.52199785 0 0 1 0.03084,-0.554028 z"
     style="fill:#ffffff;stroke-width:1.18636"
     id="path24" />
  <path
     d="M 20.069714,80.764927 H 9.2536364 v 1.053486 H 20.068527 v -1.053486 z"
     style="fill:#ffffff;stroke-width:1.18636"
     id="path26" />
  <path
     fill-rule="evenodd"
     clip-rule="evenodd"
     d="M 135.10665,72.75226 V 59.994163 a 4.6125818,4.6125628 0 0 0 -1.20653,-3.53891 c -0.43896,-0.474543 -0.97282,-0.854177 -1.56837,-1.11399 a 4.7300318,4.7300123 0 0 0 -5.34813,1.112804 4.5912273,4.5912084 0 0 0 -1.20653,3.538906 v 13.926662 h -0.68572 v 5.081179 h 10.701 v -5.081179 h -0.68572 z m -1.25636,-3.499756 v 3.048938 h -2.81761 v -3.048938 z m -2.81761,-1.166195 v -2.823528 h 2.81761 v 2.823528 z m 2.81761,-3.989723 h -2.81761 v -2.785569 h 2.81761 z m -2.89354,-7.527442 c 1.78904,0 2.85558,1.732084 2.85558,3.763127 h -2.85558 z m -1.14247,0 v 3.763127 h -2.85676 c 0.0759,-2.069006 1.1045,-3.725163 3.08454,-3.80109 z m -2.89473,4.779843 h 2.81762 v 2.785569 h -2.74169 z m 0,3.951754 h 2.81762 v 2.823538 h -2.74169 z m 0,3.989723 h 2.81762 v 3.048948 h -2.74169 z m 8.26303,6.472774 H 134.345 v 2.182901 h -1.14246 v -2.370341 h -1.14247 v 2.370341 h -1.14247 v -2.370341 h -0.87554 v 2.370341 h -1.1045 v -2.370341 h -1.14247 v 2.370341 h -1.14247 v -2.370341 h -0.83757 v -0.677417 h 9.63446 l -0.26693,0.866047 z M 125.05459,38.050084 h 10.701 V 20.171658 h -10.701 z m 5.97927,-16.560382 h 2.81762 v 2.823534 h -2.81762 z m 0,3.989725 h 2.81762 v 2.823533 h -2.81762 z m 0,3.989724 h 2.81762 v 3.010979 h -2.81762 z m 0,4.215133 h 2.81762 v 3.27435 h -2.81762 z m -4.11312,-12.194582 h 2.81761 v 2.823534 h -2.81761 z m 0,3.989725 h 2.81761 v 2.823533 h -2.81761 z m 0,3.989724 h 2.81761 v 3.010979 h -2.81761 z m 0,4.215133 h 2.81761 v 3.27435 h -2.81761 z"
     style="fill:#ffffff;stroke-width:1.18636"
     id="path28" />
  <path
     d="m 135.75559,38.876976 h -10.701 v 4.703912 h 10.701 z M 122.61543,20.172844 h -4.34091 v 23.409231 h 4.34091 z m 19.95582,0 h -4.3409 v 23.409231 h 4.3409 z"
     style="fill:#ffffff;stroke-width:1.18636"
     id="path30" />
  <path
     fill-rule="evenodd"
     clip-rule="evenodd"
     d="m 237.80778,89.237902 v 17.273388 h 1.40821 V 89.237902 a 1.6846364,1.6846295 0 0 0 0,-3.085717 V 82.38668 h -1.40821 v 3.764315 a 1.6846364,1.6846295 0 0 0 0,3.085727 z m 15.57577,0 v 17.273388 h 1.40821 V 89.237902 a 1.6846364,1.6846295 0 0 0 0,-3.085717 V 82.38668 h -1.40821 v 3.764315 a 1.6846364,1.6846295 0 0 0 -1.00841,1.542273 1.6846364,1.6846295 0 0 0 1.00841,1.543454 z M 7.5773045,85.997955 v -3.764314 h -1.37025 v 3.764314 a 1.6787045,1.6786976 0 0 0 0,2.936238 v 17.349317 h 1.37025 V 89.235532 c 0.3416728,-0.106769 0.63945,-0.316759 0.8506228,-0.600297 a 1.6431136,1.6431068 0 0 0 0,-1.962242 1.6739591,1.6739522 0 0 0 -0.8506228,-0.600298 z m 15.5757685,0.0783 v -3.763124 h -1.371437 v 3.763124 a 1.5897273,1.5897207 0 0 0 -0.787745,0.599118 1.566,1.5659935 0 0 0 -0.277609,0.944336 c -0.0036,0.338118 0.09728,0.670297 0.2871,0.951466 0.189818,0.282349 0.461495,0.500638 0.778254,0.628767 v 17.237788 h 1.371437 V 89.237902 c 0.279982,-0.142359 0.514882,-0.358278 0.6786,-0.624027 a 1.6787045,1.6786976 0 0 0 -0.6786,-2.386951 z"
     style="fill:#ffffff;stroke-width:1.18636"
     id="path32" />
</svg>
