<svg version="1.0" width="80" height="80" xmlns="http://www.w3.org/2000/svg">
    <circle style="fill: none; stroke: #fff; stroke-width: 7.99928; stroke-miterlimit: 4; stroke-dasharray: none; stroke-opacity: 1;" cx="40" cy="40" r="36"/>
    <g style="fill: #fff;">
        <path d="M423.773 343.871a74.18 74.18 0 0 1-17.241-16.718c-11.494-13.061-26.122-29.257-53.29-29.257-27.167 0-41.273 15.673-53.29 29.78-12.016 14.106-19.853 22.465-37.616 22.465-17.763 0-26.645-9.927-37.616-22.465-10.971-12.539-25.6-29.78-53.29-29.78-27.69 0-41.273 15.673-53.29 29.78-12.016 14.106-19.853 22.465-37.616 22.465-17.763 0-26.645-9.927-37.616-22.465a88.814 88.814 0 0 0-27.69-24.033c-5.194-2.597-11.509-.492-14.106 4.702-2.597 5.194-.492 11.509 4.702 14.106a80.437 80.437 0 0 1 21.42 18.808c12.016 14.106 26.122 29.78 53.29 29.78s41.273-15.673 53.29-29.78c12.016-14.106 19.853-22.465 37.616-22.465 17.763 0 26.645 9.927 37.616 22.465 10.971 12.539 25.6 29.78 53.29 29.78 27.69 0 41.273-15.673 53.29-29.78 12.016-14.106 19.853-22.465 37.616-22.465 17.763 0 26.645 9.927 37.616 22.465a99.769 99.769 0 0 0 21.42 20.375c4.905 3.174 11.455 1.771 14.629-3.135 3.175-4.905 1.772-11.454-3.134-14.628zM423.773 265.503a74.18 74.18 0 0 1-17.241-16.718c-11.494-13.061-26.122-29.257-53.29-29.257-27.167 0-41.273 15.673-53.29 29.78-12.016 14.106-19.853 22.465-37.616 22.465-17.763 0-26.645-9.927-37.616-22.465-10.971-12.539-25.6-29.78-53.29-29.78-27.69 0-41.273 15.673-53.29 29.78-12.016 14.106-19.853 22.465-37.616 22.465-17.763 0-26.645-9.927-37.616-22.465a88.814 88.814 0 0 0-27.69-24.033c-5.194-2.597-11.509-.492-14.106 4.702-2.597 5.194-.492 11.509 4.702 14.106a80.437 80.437 0 0 1 21.42 18.808c12.016 14.106 26.122 29.78 53.29 29.78s41.273-15.673 53.29-29.78c12.016-14.106 19.853-22.465 37.616-22.465 17.763 0 26.645 9.927 37.616 22.465 10.971 12.539 25.6 29.78 53.29 29.78 27.69 0 41.273-15.673 53.29-29.78 12.016-14.106 19.853-22.465 37.616-22.465 17.763 0 26.645 9.927 37.616 22.465a99.769 99.769 0 0 0 21.42 20.375c4.905 3.174 11.455 1.771 14.629-3.135 3.175-4.904 1.772-11.454-3.134-14.628zM423.773 181.911a74.18 74.18 0 0 1-17.241-16.718c-11.494-13.061-26.122-29.257-53.29-29.257-27.167 0-41.273 15.673-53.29 29.78-12.017 14.107-19.853 22.465-37.616 22.465-17.763 0-26.645-9.927-37.616-22.465s-25.6-29.78-53.29-29.78c-27.69 0-41.273 15.673-53.29 29.78-12.016 14.106-19.853 22.465-37.616 22.465-17.763 0-26.645-9.927-37.616-22.465a88.814 88.814 0 0 0-27.69-24.033c-5.194-2.597-11.509-.492-14.106 4.702-2.597 5.194-.492 11.509 4.702 14.106a80.437 80.437 0 0 1 21.42 18.808c12.016 14.106 26.122 29.78 53.29 29.78s41.273-15.673 53.29-29.78c12.016-14.106 19.853-22.465 37.616-22.465 17.763 0 26.645 9.927 37.616 22.465s25.6 29.78 53.29 29.78c27.69 0 41.273-15.673 53.29-29.78 12.017-14.107 19.853-22.465 37.616-22.465 17.763 0 26.645 9.927 37.616 22.465a99.769 99.769 0 0 0 21.42 20.375c4.905 3.174 11.455 1.771 14.629-3.135 3.175-4.904 1.772-11.454-3.134-14.628zM5.814 82.124a80.437 80.437 0 0 1 21.42 18.808c12.016 14.106 26.122 29.78 53.29 29.78s41.273-15.673 53.29-29.78c12.016-14.106 19.853-22.465 37.616-22.465 17.763 0 26.645 9.927 37.616 22.465 10.971 12.539 25.6 29.78 53.29 29.78 27.69 0 41.273-15.673 53.29-29.78 12.016-14.106 19.853-22.465 37.616-22.465 17.763 0 26.645 9.927 37.616 22.465a99.798 99.798 0 0 0 21.42 20.376c4.905 3.174 11.455 1.77 14.629-3.135 3.174-4.905 1.771-11.455-3.135-14.629a74.18 74.18 0 0 1-17.241-16.718c-11.494-13.061-26.122-29.257-53.29-29.257-27.167 0-41.273 15.673-53.29 29.78-12.016 14.106-19.853 22.465-37.616 22.465-17.763 0-26.645-9.927-37.616-22.465-10.971-12.539-25.6-29.78-53.29-29.78-27.69 0-41.273 15.673-53.29 29.78-12.016 14.106-19.853 22.465-37.616 22.465-17.763 0-26.643-9.927-37.615-22.466a88.814 88.814 0 0 0-27.69-24.033c-5.194-2.597-11.509-.492-14.106 4.702-2.597 5.194-.491 11.51 4.702 14.107z" style="fill: #fff;" transform="matrix(.098 0 0 .098 19 19)"/>
    </g>
</svg>
