<svg version="1.0" width="80" height="80" xmlns="http://www.w3.org/2000/svg">
    <circle style="fill: none; stroke: #fff; stroke-width: 7.99928; stroke-miterlimit: 4; stroke-dasharray: none; stroke-opacity: 1;" cx="40" cy="40" r="36"/>
    <g style="fill: #fff;">
        <path d="M481.251 280.748c-5.859-5.857-15.357-5.854-21.213.006-5.856 5.859-5.854 15.357.006 21.213C474.202 316.117 482 334.948 482 354.99c0 20.044-7.807 38.881-21.982 53.04-5.861 5.854-5.866 15.352-.012 21.213a14.952 14.952 0 0 0 10.612 4.399c3.836 0 7.673-1.463 10.601-4.388C501.068 409.429 512 383.054 512 354.99c0-28.058-10.92-54.425-30.749-74.242z" style="fill: #fff;" transform="matrix(.08537 0 0 .08537 18.146 18.146)"/>
        <path d="M417.606 323.171c-5.858 5.857-5.858 15.355 0 21.213A14.902 14.902 0 0 1 422 354.99c0 4.006-1.561 7.773-4.394 10.606-5.858 5.857-5.858 15.355 0 21.213a14.954 14.954 0 0 0 10.606 4.394c3.838 0 7.678-1.465 10.606-4.394 17.546-17.545 17.546-46.094 0-63.639-5.856-5.857-15.354-5.857-21.212.001zM370 210.458V195c0-102.01-82.99-185-185-185S0 92.99 0 195v23.977c0 56.079 26.024 109.157 70 143.534V487c0 8.284 6.716 15 15 15h180c8.284 0 15-6.716 15-15v-47h45c24.813 0 45-20.187 45-45v-20a15 15 0 0 0-7.05-12.72L343.302 350l19.648-12.28A15 15 0 0 0 370 325v-28.288l28.638-7.16a14.998 14.998 0 0 0 8.843-22.872zm-18.638 59.99A15 15 0 0 0 340 285v31.687l-32.95 20.594a15 15 0 0 0 0 25.44L340 383.313V395c0 8.271-6.729 15-15 15h-60c-8.284 0-15 6.716-15 15v47H100V355c0-4.844-2.34-9.391-6.281-12.206C53.82 314.295 30 268.008 30 218.977V195c0-85.468 69.532-155 155-155s155 69.532 155 155v20c0 2.961.877 5.856 2.52 8.32l28.192 42.29z" style="fill: #fff;" transform="matrix(.08537 0 0 .08537 18.146 18.146)"/>
        <path d="M175.403 279.73c-6.864-4.641-16.188-2.84-20.829 4.022-2.866 4.238-6.323 6.645-10.275 7.151-4.974.634-10.837-1.757-16.51-6.742-16.69-14.667-24.775-44.84-17.655-65.888 2.421-7.154 6.302-12.16 10.928-14.095 3.677-1.535 7.874-1.181 12.474 1.057 7.452 3.62 16.427.519 20.05-6.931 3.622-7.45.52-16.427-6.931-20.05-12.331-5.996-25.53-6.619-37.164-1.754-12.689 5.305-22.553 16.726-27.774 32.159-10.959 32.397.58 75.46 26.269 98.036 10.628 9.339 22.773 14.308 34.721 14.308 1.811 0 3.616-.114 5.411-.345 12.509-1.604 23.628-8.743 31.31-20.101 4.638-6.86 2.838-16.185-4.025-20.827z" style="fill: #fff;" transform="matrix(.08537 0 0 .08537 18.146 18.146)"/>
    </g>
</svg>
