<?xml version="1.0" standalone="no"?>
<!DOCTYPE svg PUBLIC "-//W3C//DTD SVG 1.1//EN" "http://www.w3.org/Graphics/SVG/1.1/DTD/svg11.dtd" >
<svg xmlns="http://www.w3.org/2000/svg" xmlns:xlink="http://www.w3.org/1999/xlink" version="1.1">
<metadata>
Created by FontForge 20170731 at Mon Apr 12 16:59:48 2021
 By Aleksey,,,
Copyright (c) 2012 by Jerak Durzan. All rights reserved.
</metadata>
<defs>
<font id="Lighthaus" horiz-adv-x="1806" >
  <font-face 
    font-family="Lighthaus"
    font-weight="400"
    font-stretch="normal"
    units-per-em="2048"
    panose-1="2 0 6 3 8 0 0 2 0 4"
    ascent="1536"
    descent="-512"
    x-height="1470"
    cap-height="1473"
    bbox="-639 -500 3414 1950"
    underline-thickness="34"
    underline-position="-321"
    unicode-range="U+0020-FB00"
  />
<missing-glyph horiz-adv-x="724" 
d="M133 59h395v1092h-395v-1092zM66 0v1210h530v-1210h-530z" />
    <glyph glyph-name="L_E" unicode="LE" horiz-adv-x="1751" 
d="M41 0v18h78q79 0 100 23.5t21 99.5v1207q0 73 -19.5 89.5t-101.5 16.5h-78v19h518v-19h-22q-83 0 -103 -16.5t-20 -89.5v-1203q0 -61 -49 -106v-2h845q69 0 120.5 5.5t100 20.5t80 41t52.5 68t26 100l4 62q-24 -6 -59 -6h-952v18h77q82 0 101.5 17.5t19.5 91.5v891
q0 73 -19.5 90.5t-101.5 17.5h-22v19h844q63 0 82 -19h4l-8 94l20 2l41 -555h-41l-8 144q-10 161 -95 229t-253 68h-318v-2q49 -45 49 -107v-373h90q44 0 75 3.5t65 16.5t55 35.5t35 63.5t14 98v52h21v-617h-21v92q0 57 -14 98.5t-35 64.5t-55 36t-65.5 17t-74.5 4h-90v-445
q0 -61 -49 -106v-2h381q164 0 244 64.5t92 211.5l14 164h35l-65 -909l-23 2l10 120h-2q-13 -11 -23.5 -14.5t-37.5 -3.5h-1489z" />
    <glyph glyph-name="R_U" unicode="RU" horiz-adv-x="2531" 
d="M1298 1473h574v-19h-98q-82 0 -101.5 -17.5t-19.5 -90.5v-818q0 -118 70 -179.5t204 -61.5q180 0 275.5 80.5t95.5 234.5v707q0 79 -25.5 112t-103.5 33h-82v19h416v-19h-37q-76 0 -101.5 -33.5t-25.5 -111.5v-707q0 -171 -106 -261.5t-306 -90.5q-201 0 -324.5 97
t-123.5 255v744q0 73 -20.5 90.5t-102.5 17.5h-58v19zM41 0l8 16h80q81 0 100 17.5t19 91.5v1218q0 74 -19 91.5t-100 17.5h-80v18h588q270 0 435 -125t165 -329q0 -184 -135 -304.5t-342 -138.5l-45 -2v-12q65 -5 118.5 -39.5t120.5 -99.5q7 -9 21 -25.5t61 -63.5t98 -89.5
t130.5 -94.5t161 -89.5t186.5 -63t209 -25.5q330 0 618 226l49 38l13 -14l-50 -39q-69 -53 -143.5 -98t-168.5 -87.5t-204 -66.5t-221 -24q-477 0 -903 446q-17 17 -60.5 64t-60.5 63t-48 42t-55.5 35t-51.5 9h-27v35h102q189 0 305.5 115.5t116.5 304.5q0 187 -116.5 302.5
t-305.5 115.5h-233v-2q37 -34 37 -107v-1200q0 -73 20.5 -91t102.5 -18h131v-18h-627z" />
    <glyph glyph-name="R_O" unicode="RO" horiz-adv-x="2820" 
d="M2095 250q-306 0 -492 170t-186 450q0 279 186 449t492 170q302 0 488 -170.5t186 -448.5q0 -279 -185.5 -449.5t-488.5 -170.5zM2101 287q229 0 349 139.5t120 404.5q0 302 -125 461.5t-360 159.5q-230 0 -350.5 -139.5t-120.5 -405.5q0 -302 124.5 -461t362.5 -159z
M39 0l4 16h78q82 0 101.5 17.5t19.5 91.5v1218q0 74 -19.5 91.5t-101.5 17.5h-78v18h588q270 0 435 -125t165 -329q0 -183 -135.5 -304t-343.5 -139l-45 -2v-12q67 -6 123 -40.5t118 -98.5q127 -126 263.5 -218t267 -142.5t248.5 -73.5t233 -23q128 0 254 26.5t219 67.5
t153 75t97 63l49 38l12 -14l-49 -39q-158 -124 -380.5 -200t-465.5 -76q-179 0 -352 42t-356 144.5t-332 259.5q-18 19 -52 55t-50 52.5t-43 41t-45 35.5t-41.5 20t-45.5 9h-28v35h104q189 0 305.5 115.5t116.5 304.5q0 187 -116.5 302.5t-305.5 115.5h-233v-2
q37 -34 37 -107v-1200q0 -73 20.5 -91t102.5 -18h129v-18h-625z" />
    <glyph glyph-name="R_A" unicode="RA" horiz-adv-x="2766" 
d="M41 0v20h78q82 0 101.5 17.5t19.5 91.5v1219q0 73 -19.5 90.5t-101.5 17.5h-78v19h588q270 0 434 -125.5t164 -329.5q0 -184 -135 -304t-342 -138l-45 -3v-12q63 -6 123 -41.5t109.5 -87t99 -112.5t100.5 -120.5t105 -108t122 -79t141 -30.5q111 0 179.5 61t68.5 160
q0 83 -56.5 135.5t-150.5 60.5h-61l18 37h774l-383 854q-18 37 -18 82h-21q0 -26 -26 -82l-539 -1120l-28 27l608 1276h174v-25q0 -77 20 -119l531 -1184q4 -8 10 -22q30 -67 50 -86t73 -19h18v-18h-430v18h172v5q-14 5 -29 24t-21 31.5t-19 40.5l-125 280h-660
q64 -25 101 -76.5t37 -119.5q0 -126 -103 -203.5t-270 -77.5q-80 0 -155.5 27.5t-134.5 72.5t-116.5 102.5t-103.5 117t-93.5 117t-88 102.5t-85.5 72.5t-87 27.5h-27v35h102q189 0 305.5 115.5t116.5 304.5q0 187 -116.5 302.5t-305.5 115.5h-233v-2q37 -34 37 -107v-1200
q0 -73 20.5 -91t102.5 -18h131v-18h-627z" />
    <glyph glyph-name="R_a" unicode="Ra" horiz-adv-x="2531" 
d="M2165 971v213q0 131 -65.5 200.5t-188.5 69.5q-163 0 -259 -78t-102 -202l-6 -127h-41l25 483h22l-6 -109q-8 -58 -10 -65l16 -4q2 6 14 23t21 24q59 39 144 64.5t180 25.5q212 0 324 -85.5t112 -246.5v-745q0 -65 12.5 -85t61.5 -20q7 0 22 1t23 1l39 2l2 -18
q-135 -12 -250 -45v16q0 50 -21 168.5t-22 149.5h-23q-92 -332 -379 -332q-191 0 -308.5 87t-117.5 228q0 183 166.5 294.5t438.5 111.5h176zM2165 934h-164q-189 0 -304.5 -101.5t-115.5 -267.5q0 -117 71 -188.5t187 -71.5q61 0 118 26t104 75.5t75.5 133t28.5 189.5v205z
M41 0l2 20h78q82 0 101.5 17.5t19.5 91.5v1219q0 73 -19.5 90.5t-101.5 17.5h-78v19h588q270 0 435 -125.5t165 -329.5q0 -183 -135.5 -303.5t-343.5 -138.5l-45 -3v-12q99 -10 233 -131q153 -138 220 -191q320 -249 652 -270q32 -2 64 -2q269 0 565 84l64 19l4 -19l-62 -18
q-455 -131 -718 -131q-249 0 -463.5 102.5t-454.5 339.5l-49 49t-47 46.5t-40.5 39t-39.5 35t-34.5 25t-34.5 17.5t-31 5h-27v35h102q189 0 305.5 115.5t116.5 304.5q0 187 -116.5 302.5t-305.5 115.5h-233v-2q37 -34 37 -107v-1200q0 -73 20.5 -91t102.5 -18h131v-18h-627z
" />
    <glyph glyph-name="m_u" unicode="mU" horiz-adv-x="3178" 
d="M41 0l2 20h78q82 0 101.5 17.5t19.5 91.5v1167q0 28 -21.5 47t-54.5 19h-6l-133 -10l-2 12l174 33q71 13 114 51t43 98v8h19v-268q0 -158 -6 -188h20q17 93 37 141q107 252 356 252q86 0 146 -20t92.5 -58.5t46.5 -84.5t14 -107v-123h9q4 45 25 109t32 81
q58 100 136.5 151.5t197.5 51.5q150 0 243 -71t93 -201v-689q0 -299 169.5 -456.5t491.5 -157.5q177 0 334.5 73t230.5 212l19 -13q-80 -146 -237 -220t-351 -74q-249 0 -439 78.5t-294.5 223t-104.5 332.5v670q0 121 -50.5 188.5t-129.5 67.5q-155 0 -249.5 -129.5
t-94.5 -343.5v-854q0 -73 20.5 -91t102.5 -18h57v-18h-485v18h151v5q-13 11 -16.5 20t-3.5 33v1122q0 121 -50.5 188.5t-129.5 67.5q-155 0 -249.5 -129.5t-94.5 -343.5v-854q0 -73 20.5 -91t102.5 -18h77v-18h-573zM1946 1475h575v-19h-100q-80 0 -99.5 -17.5t-19.5 -90.5
v-818q0 -118 69 -179.5t203 -61.5q182 0 277.5 80.5t95.5 234.5v707q0 79 -25.5 112t-103.5 33h-84v19h418v-19h-37q-76 0 -101.5 -33.5t-25.5 -111.5v-707q0 -172 -106.5 -262t-307.5 -90t-324.5 97t-123.5 255v744q0 73 -19.5 90.5t-101.5 17.5h-59v19z" />
    <glyph glyph-name="R_Aogonek" unicode="R&#x104;" horiz-adv-x="2766" 
d="M2746 0l-47 2q-173 0 -257.5 -75.5t-84.5 -196.5q0 -68 48 -110t124 -42q53 0 131 23l13 -35q-106 -29 -164 -29q-114 0 -184 50.5t-70 133.5q0 99 76 172.5t192 112.5v25q-29 9 -58 31.5t-46 58.5l-125 280h-660q64 -25 101 -76.5t37 -119.5q0 -126 -103 -203.5
t-270 -77.5q-80 0 -155.5 27.5t-134.5 72.5t-116.5 102.5t-103.5 117t-93.5 117t-88 102.5t-85.5 72.5t-87 27.5h-27v35h102q189 0 305.5 115.5t116.5 304.5q0 187 -116.5 302.5t-305.5 115.5h-233v-2q37 -34 37 -107v-1200q0 -73 20.5 -91t102.5 -18h131v-18h-627v18h78
q82 0 101.5 17.5t19.5 91.5v1219q0 73 -19.5 90.5t-101.5 17.5h-78v19h588q270 0 434 -125.5t164 -329.5q0 -184 -135 -304.5t-342 -138.5l-45 -2v-12q63 -6 123 -41.5t109.5 -87t99 -112.5t100.5 -120.5t105 -108t122 -79t141 -30.5q111 0 179.5 61t68.5 160
q0 83 -56.5 135.5t-150.5 60.5h-61l18 37h774l-383 854q-18 37 -18 82h-21q0 -26 -26 -82l-539 -1120l-28 27l608 1276h174v-25q0 -77 20 -119l531 -1184q36 -82 50 -99q29 -27 83 -28h18v-18z" />
    <glyph glyph-name="K_O" unicode="KO" horiz-adv-x="2816" 
d="M2073 250q-306 0 -492 170t-186 450q0 279 186 449t492 170q302 0 487.5 -170.5t185.5 -448.5q0 -279 -185 -449.5t-488 -170.5zM2079 287q229 0 349 139.5t120 404.5q0 302 -125.5 461.5t-360.5 159.5q-230 0 -350.5 -139.5t-120.5 -405.5q0 -302 125 -461t363 -159z
M39 0l2 23h78q82 0 101.5 20.5t19.5 106.5v1200q0 73 -19.5 90.5t-101.5 17.5h-78v19h516v-19h-20q-83 0 -103 -16.5t-20 -87.5v-465q67 0 100 5.5t47 23.5l357 407q36 44 36 78q0 55 -116 55h-21v19h510v-19h-39q-86 0 -176 -33t-154 -108l-358 -412l2 -8q64 -13 122 -41.5
t110.5 -72.5t93.5 -87.5t92 -105.5q24 -29 66 -82.5t68.5 -87t70 -84t76.5 -83.5t82 -75t93 -69.5t102.5 -56.5t117.5 -45.5t131 -27t149 -10.5q121 0 243.5 27t215 68.5t152 74.5t94.5 60l49 39l12 -15l-51 -39q-136 -108 -352.5 -193t-444.5 -85q-111 0 -214.5 20.5
t-183.5 50.5t-161 82.5t-136 97.5t-121.5 116.5t-104.5 117.5t-96 121q-131 166 -183 220q-125 129 -240 136h-14h-28v-731q0 -79 21.5 -99t101.5 -20h77v-18h-573z" />
    <glyph glyph-name="K_U" unicode="KU" horiz-adv-x="2582" 
d="M1376 1473h541v-19h-98q-82 0 -101.5 -17.5t-19.5 -90.5v-818q0 -118 70 -179.5t204 -61.5q180 0 275.5 80.5t95.5 234.5v707q0 79 -25.5 112t-103.5 33h-82v19h416v-19h-37q-76 0 -101.5 -33.5t-25.5 -111.5v-707q0 -171 -106 -261.5t-306 -90.5q-201 0 -324.5 97
t-123.5 255v744q0 73 -20.5 90.5t-102.5 17.5h-25v19zM442 866l-28 -2v-721q0 -85 20.5 -106t102.5 -21h77v-18h-573v18h78q82 0 101.5 20.5t19.5 106.5v1200q0 74 -19.5 91.5t-101.5 17.5h-78v18h516v-18h-20q-82 0 -102.5 -18t-20.5 -91v-460q68 0 100.5 5t46.5 23
l357 408q36 44 36 78q0 55 -116 55h-21v18h488v-18h-17q-86 0 -176 -33t-154 -108l-358 -412l2 -8q77 -16 141.5 -58t112 -99.5t91.5 -127t87 -143t90 -145.5t108.5 -135.5t136 -112t180 -77t231.5 -28.5q352 0 653 230l49 38l12 -14l-51 -39q-64 -51 -136.5 -95.5
t-168.5 -88t-211.5 -69t-234.5 -25.5q-145 0 -267 33t-208 89t-157 128t-122.5 152t-97 160t-87.5 152t-85.5 128t-100.5 89t-125 33z" />
    <glyph glyph-name="n_u" unicode="nU" horiz-adv-x="2584" 
d="M41 0l2 20h78q82 0 101.5 17.5t19.5 91.5v1167q0 28 -21.5 47t-54.5 19h-6l-133 -10l-2 12l174 33q73 13 119.5 51t46.5 98v8h18v-268q0 -179 -4 -215h16q5 45 35 133q50 131 161.5 209t250.5 78q180 0 279.5 -83.5t99.5 -225.5v-652q0 -299 170 -456.5t493 -157.5
q113 0 219.5 29.5t201 95.5t144.5 160l17 -13q-78 -146 -236 -220t-352 -74q-249 0 -439 78.5t-294.5 223t-104.5 332.5v617q0 155 -52.5 232t-168.5 77q-174 0 -289.5 -139.5t-115.5 -360.5v-827q0 -73 20.5 -91t102.5 -18h77v-18h-573zM1352 1475h575v-19h-100
q-82 0 -100.5 -17t-18.5 -91v-818q0 -118 69 -179.5t203 -61.5q181 0 276 80.5t95 234.5v707q0 78 -25.5 111.5t-101.5 33.5h-84v19h416v-19h-35q-78 0 -103.5 -33t-25.5 -112v-707q0 -172 -105.5 -262t-306.5 -90t-324.5 97t-123.5 255v744q0 73 -20.5 90.5t-100.5 17.5
h-59v19z" />
    <glyph glyph-name="K_e" unicode="Ke" horiz-adv-x="2752" 
d="M1585 932l-2 2v-25q0 -302 125 -461t363 -159q199 0 348 79.5t223 221.5l35 -21q-80 -151 -237.5 -235t-366.5 -84q-306 0 -492 171.5t-186 452.5q0 183 85 322.5t240.5 216t358.5 76.5q269 0 433.5 -134t164.5 -354v-10q0 -25 -20.5 -42t-49.5 -17h-1022zM2691 182l4 -2
q-138 -108 -354.5 -193t-444.5 -85q-146 0 -276 33t-229 89t-187 128t-157.5 152t-132.5 160t-120 152t-111.5 128t-116 89t-124.5 33h-28v-721q0 -86 20.5 -106.5t102.5 -20.5h77v-18h-573v18h78q82 0 101.5 20.5t19.5 106.5v1201q0 73 -19.5 90.5t-101.5 17.5h-78v19h516
v-19h-20q-82 0 -102.5 -17.5t-20.5 -90.5v-461q68 0 100.5 5t46.5 23l357 408q36 44 36 78q0 55 -116 55h-21v19h510v-19h-39q-86 0 -176 -33t-154 -108l-358 -412l2 -8q80 -16 153 -59t131.5 -100t116 -127t114.5 -143t119 -145t137 -135t161 -112t199 -77t243 -28
q121 0 243.5 27t215 68.5t152 74.5t94.5 60zM1585 971l885 14q16 0 16 19q0 203 -114.5 326.5t-303.5 123.5q-224 0 -346 -123t-137 -360z" />
    <glyph glyph-name="R_S" unicode="RS" horiz-adv-x="2416" 
d="M41 0l2 12h78q82 0 101.5 17.5t19.5 91.5v1218q0 74 -19.5 91.5t-101.5 17.5h-78v18h588q270 0 435 -119.5t165 -314.5q0 -181 -134 -292.5t-345 -129.5l-45 -2v-12q65 -5 149.5 -58.5t204.5 -150.5q22 -17 71 -58t77.5 -64t79 -60.5t87.5 -60t90.5 -50t100.5 -42.5
t104.5 -25.5t114.5 -10.5q199 0 303 90t104 261q0 72 -41 132t-106 104t-143.5 85.5t-157.5 86.5t-144 95.5t-106 123.5t-41 161q0 149 121.5 240.5t320.5 91.5q165 0 299 -90q11 -7 23 -23.5t14 -23.5l17 4q-9 30 -11 65l-6 109h23l24 -484l-41 -2l-4 86q-3 63 -25.5 119
t-62.5 102.5t-104.5 73.5t-145.5 27q-137 0 -210.5 -64.5t-73.5 -185.5q0 -55 25.5 -102t69 -83.5t100 -70.5t119 -66.5t124.5 -66t118.5 -74.5t100 -88t69 -110.5t25.5 -137.5q0 -189 -167 -304t-441 -115q-118 0 -230.5 21.5t-196.5 52t-170 78t-141 86.5t-120 91
q-66 52 -151 134.5t-134.5 120.5t-89.5 38h-14v35h102q206 0 314 102t108 297q0 194 -108.5 296t-313.5 102h-233v-2q37 -34 37 -107v-1200q0 -73 20.5 -91t102.5 -18h131v-18h-627z" />
    <glyph glyph-name="R_C" unicode="RC" horiz-adv-x="2721" 
d="M2664 197l9 -2q-135 -135 -352 -214t-466 -79q-179 0 -352 42t-356 144.5t-332 259.5q-17 17 -60.5 64t-60.5 63t-48 42t-55.5 35t-51.5 9h-27v35h102q190 0 306 115.5t116 304.5q0 188 -116 303t-306 115h-233v-2q39 -36 39 -107v-1200q0 -74 19.5 -91.5t101.5 -17.5
h131v-18h-627v18h80q80 0 99.5 18t19.5 91v1218q0 73 -19.5 91t-99.5 18h-80v18h588q270 0 435 -125t165 -329q0 -184 -135 -304.5t-342 -138.5l-47 -2v-12q67 -6 123 -40.5t118 -98.5q127 -126 263.5 -218t267 -142.5t248.5 -73.5t233 -23q129 0 250.5 27.5t208 70
t143 79.5t88.5 69zM2607 936l-43 -2l-8 190q-5 89 -71 165.5t-168.5 119.5t-213.5 43q-238 0 -362.5 -143.5t-124.5 -417.5q0 -295 131.5 -449.5t380.5 -154.5q164 0 304.5 75.5t199.5 202.5l37 -14q-62 -148 -209 -225.5t-334 -77.5q-208 0 -368 77.5t-247.5 219
t-87.5 325.5q0 278 193 447.5t508 169.5q239 0 413 -131q13 -13 25 -41l14 4q-6 24 -6 59l-4 150h21z" />
    <glyph glyph-name="X_O" unicode="XO" horiz-adv-x="2635" 
d="M1892 250q-306 0 -492 170t-186 450q0 279 186 449t492 170q302 0 488 -170.5t186 -448.5q0 -279 -185.5 -449.5t-488.5 -170.5zM1898 287q229 0 349 139.5t120 404.5q0 302 -125 461.5t-360 159.5q-230 0 -350.5 -139.5t-120.5 -405.5q0 -302 124.5 -461t362.5 -159z
M590 682l-283 -512q-47 -80 -47 -115q0 -25 24.5 -35t80.5 -10h77v-16h-403v16h20q68 0 106.5 31.5t96.5 130.5l307 547l-293 569q-49 94 -87 127t-87 33h-26v18h387v-18h-123v-4q25 -8 60 -41.5t55 -71.5l247 -483l267 446q49 81 49 113q0 23 -23 33t-77 10h-80v18h376v-18
h-26q-51 0 -85 -31t-91 -129l-287 -487q77 -149 155 -269t151 -207.5t150.5 -153t149.5 -107t152 -66.5t153.5 -35t157.5 -10q194 0 384.5 68t320.5 170l49 38l12 -14l-51 -39q-166 -131 -370 -203.5t-415 -72.5q-160 0 -313 44t-300.5 135.5t-281 244t-239.5 356.5z" />
    <glyph glyph-name="R_e" unicode="Re" horiz-adv-x="2775" 
d="M1614 930l-2 2v-25q0 -303 124 -461.5t361 -158.5q199 0 348.5 79.5t223.5 221.5l34 -21q-80 -151 -237 -235t-367 -84q-306 0 -492 171.5t-186 452.5q0 276 192.5 445.5t504.5 169.5q264 0 424.5 -134t160.5 -354v-10q0 -25 -19.5 -42t-49.5 -17h-1020zM41 0l4 16h80
q80 0 99.5 18t19.5 91v1218q0 73 -19.5 91t-99.5 18h-80v18h588q270 0 435 -125t165 -329q0 -184 -135 -304.5t-342 -138.5l-47 -2v-12q67 -6 123 -40.5t118 -98.5q127 -126 263.5 -218t267 -142.5t248.5 -73.5t233 -23q128 0 254 26.5t219 67.5t153 75t97 63l12 -15
q-158 -124 -380.5 -200t-465.5 -76q-179 0 -352 42t-356 144.5t-332 259.5q-17 17 -60.5 64t-60.5 63t-48 42t-55.5 35t-51.5 9h-27v35h102q189 0 305.5 115.5t116.5 304.5q0 187 -116.5 302.5t-305.5 115.5h-233v-2q37 -34 37 -107v-1200q0 -73 20.5 -91t102.5 -18h131v-18
h-627zM1614 969l883 14q18 0 18 18q0 203 -113 327t-297 124q-224 0 -350 -123.5t-141 -359.5z" />
    <glyph glyph-name="m_o" unicode="mO" horiz-adv-x="3485" 
d="M2740 250q-307 0 -492.5 170t-185.5 450q0 279 185.5 449t492.5 170q302 0 488 -170.5t186 -448.5q0 -279 -185.5 -449.5t-488.5 -170.5zM2746 287q228 0 348.5 139.5t120.5 404.5q0 302 -125.5 461.5t-361.5 159.5q-230 0 -350.5 -139.5t-120.5 -405.5
q0 -302 125.5 -461t363.5 -159zM41 0l-2 18h78q82 0 101.5 17.5t19.5 91.5v1167q0 28 -21.5 47t-54.5 19h-6l-133 -10l-3 12l175 33q71 13 114 51t43 98v8h17v-268q0 -148 -4 -188h20q11 77 37 141q107 252 356 252q86 0 146 -20t92.5 -58.5t46.5 -84.5t14 -107v-123h8
q3 44 24.5 107.5t33.5 82.5q58 100 136.5 151.5t197.5 51.5q149 0 241 -71t92 -201v-607q0 -313 232.5 -504.5t613.5 -191.5q216 0 400 74t256 209l18 -9q-77 -143 -272 -222t-437 -79q-220 0 -403.5 58t-311.5 163t-199 255t-71 329v506q0 121 -50.5 188.5t-129.5 67.5
q-155 0 -249.5 -129.5t-94.5 -343.5v-854q0 -73 20.5 -91t102.5 -18h57v-18h-485v18h151v5q-13 11 -16.5 20t-3.5 33v1122q0 121 -50.5 188.5t-129.5 67.5q-155 0 -249.5 -129.5t-94.5 -343.5v-854q0 -73 20.5 -91t102.5 -18h77v-18h-573z" />
    <glyph glyph-name="m_e" unicode="me" horiz-adv-x="3422" 
d="M41 0l-2 18h78q82 0 101.5 17.5t19.5 91.5v1167q0 28 -21.5 47t-54.5 19h-6l-133 -10l-3 12l175 33q71 13 114 51t43 98v8h17v-268q0 -148 -4 -188h20q11 77 37 141q107 252 356 252q86 0 146 -20t92.5 -58.5t46.5 -84.5t14 -107v-123h8q3 44 24.5 107.5t33.5 82.5
q58 100 136.5 151.5t197.5 51.5q149 0 241 -71t92 -201v-607q0 -313 232.5 -504.5t613.5 -191.5q216 0 400 74t256 209l18 -9q-77 -143 -272 -222t-437 -79q-220 0 -403.5 58t-311.5 163t-199 255t-71 329v506q0 121 -50.5 188.5t-129.5 67.5q-155 0 -249.5 -129.5
t-94.5 -343.5v-854q0 -73 20.5 -91t102.5 -18h57v-18h-485v18h151v5q-13 11 -16.5 20t-3.5 33v1122q0 121 -50.5 188.5t-129.5 67.5q-155 0 -249.5 -129.5t-94.5 -343.5v-854q0 -73 20.5 -91t102.5 -18h77v-18h-573zM2253 932l-2 2v-25q0 -303 124 -461.5t361 -158.5
q200 0 350 79.5t224 221.5l32 -21q-79 -151 -236 -235t-366 -84q-307 0 -492.5 171t-185.5 453q0 183 85 322.5t240.5 216t358.5 76.5q268 0 432 -134t164 -354v-10q0 -25 -19.5 -42t-49.5 -17h-1020zM2253 971l882 14q19 0 19 19q0 203 -115 326.5t-305 123.5
q-223 0 -344.5 -123t-136.5 -360z" />
    <glyph glyph-name="m_c" unicode="mC" horiz-adv-x="3371" 
d="M41 0l-2 18h78q82 0 101.5 17.5t19.5 91.5v1167q0 28 -21.5 47t-54.5 19h-6l-133 -10l-3 12l175 33q71 13 114 51t43 98v8h17v-268q0 -148 -4 -188h20q11 77 37 141q107 252 356 252q86 0 146 -20t92.5 -58.5t46.5 -84.5t14 -107v-123h8q3 44 24.5 107.5t33.5 82.5
q58 100 136.5 151.5t197.5 51.5q149 0 241 -71t92 -201v-607q0 -313 232.5 -504.5t613.5 -191.5q212 0 388 76t249 213l19 -8q-78 -145 -265.5 -226.5t-425.5 -81.5q-220 0 -403.5 58t-311.5 163t-199 255t-71 329v506q0 121 -50.5 188.5t-129.5 67.5q-155 0 -249.5 -129.5
t-94.5 -343.5v-854q0 -73 20.5 -91t102.5 -18h57v-18h-485v18h151v5q-13 11 -16.5 20t-3.5 33v1122q0 121 -50.5 188.5t-129.5 67.5q-155 0 -249.5 -129.5t-94.5 -343.5v-854q0 -73 20.5 -91t102.5 -18h77v-18h-573zM3244 938l-43 -2l-6 190q-6 89 -72 165.5t-168 119.5
t-213 43q-238 0 -363.5 -143.5t-125.5 -417.5q0 -295 131.5 -449.5t382.5 -154.5q163 0 304 76t198 202l39 -14q-64 -148 -211 -225.5t-332 -77.5q-316 0 -509.5 171t-193.5 451q0 278 192.5 447.5t508.5 169.5q240 0 411 -131q19 -19 25 -41l16 4q-8 32 -8 59l-4 150h21z
" />
    <glyph glyph-name="n_o" unicode="nO" horiz-adv-x="2889" 
d="M2144 250q-306 0 -492 170t-186 450q0 279 186 449t492 170q302 0 488 -170.5t186 -448.5q0 -279 -185.5 -449.5t-488.5 -170.5zM1663 907q0 -303 124 -461.5t361 -158.5q230 0 350.5 139t120.5 405q0 302 -124.5 461.5t-360.5 159.5q-230 0 -350.5 -139.5t-120.5 -405.5
zM41 0l-2 18h78q82 0 101.5 17.5t19.5 91.5v1167q0 28 -21.5 47t-54.5 19h-6l-133 -10l-3 12l175 33q72 13 118.5 51t46.5 98v8h19v-268q0 -179 -4 -215h14q11 68 37 133q50 131 161.5 209t250.5 78q180 0 279.5 -83.5t99.5 -225.5v-570q0 -207 105 -365t297 -244.5
t443 -86.5q139 0 267.5 31t234 96t154.5 156l16 -9q-76 -143 -270 -222t-436 -79q-293 0 -517.5 100t-347.5 282.5t-123 420.5v455q0 155 -52.5 232t-168.5 77q-174 0 -289.5 -139.5t-115.5 -360.5v-827q0 -73 20.5 -91t102.5 -18h77v-18h-573z" />
    <glyph glyph-name="n_e" unicode="ne" horiz-adv-x="2826" 
d="M1659 932l-2 2v-25q0 -303 124 -461.5t361 -158.5q199 0 348.5 79.5t223.5 221.5l34 -21q-80 -151 -237 -235t-367 -84q-306 0 -492 171.5t-186 452.5q0 183 85 322.5t240.5 216t358.5 76.5q269 0 433.5 -134t164.5 -354v-10q0 -25 -19.5 -42t-49.5 -17h-1020zM41 0
l-2 18h78q82 0 101.5 17.5t19.5 91.5v1167q0 28 -21.5 47t-54.5 19h-6l-133 -10l-3 12l175 33q72 13 118.5 51t46.5 98v8h19v-268q0 -179 -4 -215h14q11 68 37 133q50 131 161.5 209t250.5 78q180 0 279.5 -83.5t99.5 -225.5v-570q0 -207 105 -365t297 -244.5t443 -86.5
q139 0 267.5 31t234 96t154.5 156l16 -9q-76 -143 -270 -222t-436 -79q-293 0 -517.5 100t-347.5 282.5t-123 420.5v455q0 155 -52.5 232t-168.5 77q-174 0 -289.5 -139.5t-115.5 -360.5v-827q0 -73 20.5 -91t102.5 -18h77v-18h-573zM1659 971l883 14q18 0 18 19
q0 202 -115.5 326t-304.5 124q-223 0 -344.5 -123t-136.5 -360z" />
    <glyph glyph-name="n_c" unicode="nC" horiz-adv-x="2775" 
d="M41 0l-2 18h78q82 0 101.5 17.5t19.5 91.5v1167q0 28 -21.5 47t-54.5 19h-6l-133 -10l-3 12l175 33q72 13 118.5 51t46.5 98v8h19v-268q0 -179 -4 -215h14q11 68 37 133q50 131 161.5 209t250.5 78q180 0 279.5 -83.5t99.5 -225.5v-570q0 -207 105 -365t297 -244.5
t443 -86.5q139 0 267.5 31t234 96t154.5 156l16 -9q-76 -143 -270 -222t-436 -79q-293 0 -517.5 100t-347.5 282.5t-123 420.5v455q0 155 -52.5 232t-168.5 77q-174 0 -289.5 -139.5t-115.5 -360.5v-827q0 -73 20.5 -91t102.5 -18h77v-18h-573zM2650 938l-43 -2l-8 190
q-5 89 -71 165.5t-168.5 119.5t-213.5 43q-238 0 -362.5 -143.5t-124.5 -417.5q0 -295 131.5 -449.5t380.5 -154.5q164 0 304.5 75.5t199.5 202.5l37 -14q-64 -148 -210.5 -225.5t-332.5 -77.5q-208 0 -368 77.5t-247.5 219t-87.5 325.5q0 278 193 447.5t508 169.5
q240 0 411 -131q15 -12 27 -41l14 4q-6 24 -6 59l-4 150h21z" />
    <glyph glyph-name="L_A" unicode="LA" horiz-adv-x="2226" 
d="M1354 1290q-19 39 -19 82h-20q0 -24 -27 -82l-549 -1145h-43l633 1328h174v-25q0 -75 21 -119l530 -1184q4 -8 10 -22q30 -67 50 -86t73 -19h19v-18h-430v18h174v5q-33 10 -72 96l-180 403h-586q64 -24 103.5 -84.5t39.5 -128.5v-18l-36 -397l-23 2l8 120h-2
q-18 -18 -59 -18h-1102v18h78q79 0 100 23.5t21 99.5v1207q0 73 -19.5 89.5t-101.5 16.5h-78v18h573v-18h-77q-83 0 -103 -16.5t-20 -89.5v-1203q0 -61 -49 -106v-2h458q69 0 120 5.5t98.5 20.5t78.5 41t52 68t28 100l8 56v24q0 74 -48 120t-134 52h-29l15 35h671z" />
    <glyph glyph-name="L_Aogonek" unicode="L&#x104;" horiz-adv-x="2226" 
d="M2206 0h-47q-173 0 -257.5 -75.5t-84.5 -196.5q0 -68 48 -110t124 -42q53 0 131 23l12 -35q-106 -29 -164 -29q-114 0 -184 50.5t-70 133.5q0 99 76 172.5t192 112.5v25q-28 9 -57 31.5t-47 58.5l-180 403h-586q64 -24 103.5 -84.5t39.5 -128.5v-18l-36 -397l-23 2l8 120
h-2q-18 -18 -59 -18h-1102v18h78q79 0 100 23.5t21 99.5v1207q0 73 -19.5 89.5t-101.5 16.5h-78v18h573v-18h-77q-83 0 -103 -16.5t-20 -89.5v-1203q0 -61 -49 -106v-2h458q69 0 120 5.5t98.5 20.5t78.5 41t52 68t28 100l8 56v24q0 74 -48 120t-134 52h-29l15 35h671
l-329 733q-19 39 -19 82h-20q0 -24 -27 -82l-549 -1145h-43l633 1328h174v-25q0 -75 21 -119l530 -1184q36 -82 50 -99q29 -27 83 -28h19v-18z" />
    <glyph glyph-name="R_Oacute" unicode="R&#xd3;" horiz-adv-x="2820" 
d="M2095 250q-306 0 -492 170t-186 450q0 279 186 449t492 170q302 0 488 -170.5t186 -448.5q0 -279 -185.5 -449.5t-488.5 -170.5zM1614 907q0 -303 124 -461.5t361 -158.5q230 0 350.5 139t120.5 405q0 302 -125 461.5t-360 159.5q-230 0 -350.5 -139.5t-120.5 -405.5z
M39 0l4 16h78q82 0 101.5 17.5t19.5 91.5v1218q0 74 -19.5 91.5t-101.5 17.5h-78v18h588q270 0 435 -125t165 -329q0 -183 -135.5 -304t-343.5 -139l-45 -2v-12q67 -6 123 -40.5t118 -98.5q127 -126 263.5 -218t267 -142.5t248.5 -73.5t233 -23q128 0 254 26.5t219 67.5
t153 75t97 63l49 38l12 -14l-49 -39q-158 -124 -380.5 -200t-465.5 -76q-179 0 -352 42t-356 144.5t-332 259.5q-18 19 -52 55t-50 52.5t-43 41t-45 35.5t-41.5 20t-45.5 9h-28v35h104q189 0 305.5 115.5t116.5 304.5q0 187 -116.5 302.5t-305.5 115.5h-233v-2
q37 -34 37 -107v-1200q0 -73 20.5 -91t102.5 -18h129v-18h-625zM1972 1550l-20 17l264 284q11 11 22 11t23 -9l29 -20l-56 -61z" />
    <glyph glyph-name="L_I" unicode="LI" horiz-adv-x="1406" 
d="M682 328v18h57q82 0 100.5 16.5t18.5 90.5v895q0 73 -18.5 89.5t-100.5 16.5h-34v19h495v-23h-45q-81 0 -101 -17t-20 -90v-890q0 -73 20 -90t101 -17h23v-18h-496zM41 0v18h78q79 0 100 23.5t21 99.5v1207q0 73 -19.5 89.5t-101.5 16.5h-78v19h528v-19h-32
q-83 0 -103 -16.5t-20 -89.5v-1203q0 -61 -49 -106v-2h553q69 0 120.5 5.5t99.5 20.5t79 41t51.5 68t25.5 100l19 205h45l-45 -581l-23 2l10 120h-2q-12 -11 -23.5 -14.5t-37.5 -3.5h-1196z" />
    <glyph glyph-name="L_I_A" unicode="LIA" horiz-adv-x="2650" 
d="M1778 1290q-19 39 -19 82h-20q0 -24 -27 -82l-549 -1145h-489v19h55q82 0 101.5 16.5t19.5 89.5v1078q0 73 -19.5 89.5t-101.5 16.5h-35v19h498v-23h-45q-82 0 -101.5 -17t-19.5 -90v-1179h102l625 1309h174v-25q0 -72 19 -119l532 -1184q4 -8 10 -22q30 -67 50 -86
t73 -19h19v-18h-430v18h172v5q-31 10 -70 96l-180 403h-551q64 -24 102.5 -84.5t38.5 -128.5v-18l-37 -397l-22 2l10 120h-2q-13 -11 -24 -14.5t-38 -3.5h-1558v18h78q79 0 100 23.5t21 99.5v1207q0 73 -19.5 89.5t-101.5 16.5h-78v18h573v-18h-77q-83 0 -103 -16.5
t-20 -89.5v-1203q0 -61 -49 -106v-2h915q69 0 120.5 5.5t99 20.5t78.5 41t52.5 68t28.5 100l6 56v24q0 74 -48 120t-134 52h-27l12 35h637z" />
    <glyph glyph-name="afii10024_afii10080" unicode="&#x416;&#x41e;" horiz-adv-x="3459" 
d="M2726 250q-306 0 -492 170t-186 450q0 279 186 449t492 170q302 0 488 -170.5t186 -448.5q0 -279 -185.5 -449.5t-488.5 -170.5zM2245 907q0 -303 124 -461.5t361 -158.5q230 0 350.5 139t120.5 405q0 302 -124.5 461.5t-362.5 159.5q-229 0 -349 -139.5t-120 -405.5z
M694 0l11 18h79q81 0 100 20t19 107v721h-16q-59 0 -108.5 -12.5t-85.5 -33t-66 -53.5t-49.5 -66t-37 -79t-27.5 -85t-21 -91q-38 -185 -42 -203q-43 -166 -125 -224q-58 -42 -145 -42q-90 0 -184 76l-31 21l15 14l28 -20q58 -41 107 -41q36 0 63 12t44.5 37t28.5 54
t19 71.5t13 81t12.5 91.5t15.5 93q15 76 40.5 136.5t70.5 121t121 104t178 64.5l2 8l-358 412q-65 75 -154.5 108t-177.5 33h-27v19h498v-19h-19q-118 0 -118 -55q0 -30 39 -78l356 -408q14 -16 43.5 -21t89.5 -5v461q0 73 -19.5 90.5t-101.5 17.5h-22v19h460v-19h-20
q-82 0 -102.5 -17.5t-20.5 -90.5v-461q66 0 94 5t41 23l357 408q38 43 38 78q0 55 -116 55h-21v19h498v-19h-27q-88 0 -177 -33t-154 -108l-359 -412l2 -8q65 -13 123.5 -41.5t111 -72.5t93.5 -87.5t92 -105.5q24 -29 66 -82.5t68.5 -87t70 -84t76.5 -83.5t82 -75t93 -69.5
t102 -56.5t117 -45.5t130.5 -27t148.5 -10.5q121 0 243.5 27t215.5 68.5t152 74t96 60.5l49 39l10 -15l-49 -39q-62 -49 -144.5 -95t-185 -88.5t-225.5 -68.5t-241 -26q-111 0 -214.5 20.5t-183.5 50.5t-161 82.5t-136.5 97.5t-122 116t-104.5 117.5t-96 121.5
q-132 168 -189 225q-131 129 -250 131h-16v-721q0 -86 20.5 -106.5t102.5 -20.5h78v-18h-574z" />
    <glyph glyph-name="afii10024_afii10070" unicode="&#x416;&#x435;" horiz-adv-x="3459" 
d="M692 2l10 18h80q81 0 100 20t19 107v721h-16q-59 0 -108.5 -12.5t-86 -33t-66 -53t-49.5 -65.5t-37 -79t-27.5 -85t-21.5 -91q-4 -21 -13 -64q-16 -82 -25.5 -124t-33 -105.5t-51.5 -95t-76 -56t-112 -24.5q-91 0 -184 75l-31 21l14 14l29 -20q58 -41 107 -41q36 0 63 12
t44.5 37t28.5 54t19 71.5t13 81t12.5 91.5t15.5 93q15 76 40.5 136.5t70.5 121t121 104t178 64.5l2 8l-359 412q-65 75 -154 108t-177 33h-27v19h498v-19h-21q-116 0 -116 -55q0 -32 38 -78l357 -408q14 -16 43 -21t90 -5v461q0 73 -19.5 90.5t-101.5 17.5h-22v19h460v-19
h-20q-82 0 -102.5 -17.5t-20.5 -90.5v-461q65 0 93 5.5t42 23.5l357 407q38 46 38 78q0 55 -116 55h-21v19h498v-19h-27q-88 0 -177.5 -33t-154.5 -108l-358 -412l2 -8q65 -13 123.5 -41.5t111 -72.5t93.5 -87.5t92 -105.5q24 -29 66 -82.5t68.5 -87t70 -84t76.5 -83.5
t82 -75t93 -69.5t102 -56.5t117 -45.5t130.5 -27t148.5 -10.5q121 0 243.5 27t215.5 68.5t152 74t96 60.5l49 39l10 -15l-49 -39q-85 -67 -200 -126.5t-278 -105.5t-319 -46q-87 0 -169 12.5t-150 31.5t-136 53t-119 65t-108 79.5t-95.5 85t-88.5 93.5t-78.5 92.5
t-74.5 93.5l-56 72t-51 63.5t-54.5 63l-50.5 50.5t-55 46.5t-52.5 31t-59 23.5t-58.5 6h-16v-721q0 -86 20.5 -106.5t102.5 -20.5h78v-18h-574zM2228 932l-2 2v-25q0 -303 124 -461.5t362 -158.5q199 0 348 79.5t225 221.5l33 -21q-79 -151 -236.5 -235t-367.5 -84
q-306 0 -492 171.5t-186 452.5q0 276 189 445.5t497 169.5q268 0 432 -134t164 -354v-10q0 -25 -20 -42t-50 -17h-1020zM2228 971l883 14q18 0 18 19q0 203 -114.5 326.5t-304.5 123.5q-223 0 -345 -123t-137 -360z" />
    <glyph glyph-name="F_E" unicode="FE" horiz-adv-x="2043" 
d="M41 1473h1753q40 0 59 -19h2l-8 121l23 2l65 -909h-37l-12 163q-12 146 -92.5 211.5t-243.5 65.5h-329v-2q49 -45 49 -107v-403h90q43 0 74.5 3.5t65.5 17t55 36.5t35 64t14 98v92h20v-616h-20v51q0 57 -14 98t-35 63.5t-55 35.5t-65 16.5t-75 3.5h-90v-414
q0 -61 -49 -106v-2h370q167 0 251.5 68t94.5 229l9 143h41l-41 -555l-19 2l6 94h-2q-21 -18 -84 -18h-895v18h23q82 0 101.5 17.5t19.5 91.5v891q0 73 -19.5 90.5t-101.5 17.5h-33v19h856q36 0 57 -6l-4 61q-5 58 -26 100t-52 68t-79 41.5t-99.5 21t-121.5 5.5h-1108v-2
q49 -45 49 -107v-610h67q45 0 79 3.5t74 16.5t66.5 35.5t44 63.5t17.5 98v123h20v-678h-20v84q0 106 -72 161.5t-209 55.5h-67v-555q0 -73 20 -90t103 -17h22v-18h-518v18h78q82 0 101.5 17t19.5 90v1206q0 76 -21 99.5t-100 23.5h-78v19z" />
    <glyph glyph-name="F_F" unicode="FF" horiz-adv-x="1974" 
d="M897 0v18h78q82 0 101.5 17.5t19.5 91.5v891q0 73 -19.5 90.5t-101.5 17.5h-33v19h832q40 0 59 -19v13q-4 80 -37.5 139t-90 92.5t-126 49.5t-154.5 16h-1060v-2q49 -45 49 -107v-610h67q45 0 79 3.5t74 16.5t66.5 35.5t44 63.5t17.5 98v123h20v-678h-20v84
q0 106 -72 161.5t-209 55.5h-67v-553q0 -73 20.5 -91t102.5 -18h145v-18h-641v18h78q82 0 101.5 17.5t19.5 91.5v1219q0 73 -19.5 90.5t-101.5 17.5h-78v19h1724q26 0 37.5 -4t24.5 -15h2l-8 139l20 2l66 -927h-41l-11 143q-4 80 -37.5 139t-90 93t-125.5 49.5t-154 15.5
h-227v-2q49 -45 49 -107v-426h67q44 0 78.5 3.5t74.5 16.5t66.5 36t44 64t17.5 98v81h20v-596h-20v43q0 106 -71.5 162t-209.5 56h-67v-410q0 -73 20.5 -91t102.5 -18h145v-18h-641z" />
    <glyph glyph-name=".notdef" horiz-adv-x="724" 
d="M133 59h395v1092h-395v-1092zM66 0v1210h530v-1210h-530z" />
    <glyph glyph-name=".null" horiz-adv-x="0" 
 />
    <glyph glyph-name="nonmarkingreturn" horiz-adv-x="663" 
 />
    <glyph glyph-name="space" unicode=" " horiz-adv-x="600" 
 />
    <glyph glyph-name="exclam" unicode="!" horiz-adv-x="518" 
d="M180 1499q0 19 80 19t80 -19q0 -199 -29.5 -540t-29.5 -541h-39q0 200 -31 541t-31 540zM260 164q44 0 72 -25t28 -67q0 -40 -27.5 -65t-72.5 -25t-72.5 24t-27.5 66q0 41 27 66.5t73 25.5z" />
    <glyph glyph-name="quotedbl" unicode="&#x22;" horiz-adv-x="458" 
d="M260 1266l21 293q45 -2 62 -10t17 -36q0 -38 -14 -118l-16 -133zM78 1266l24 293q44 -2 61 -10.5t17 -35.5q0 -38 -14 -118l-16 -133z" />
    <glyph glyph-name="numbersign" unicode="#" horiz-adv-x="1038" 
d="M301 113l-41 4l37 340h-236v39h240l37 305h-240v41h242l39 329l43 -4l-39 -325h297l39 329l43 -4l-39 -325h258v-41h-262l-35 -305h256v-39h-260l-39 -344l-41 4l37 340h-297zM379 801l-35 -305h297l37 305h-299z" />
    <glyph glyph-name="dollar" unicode="$" horiz-adv-x="1095" 
d="M557 -72h-41v138q-100 0 -183.5 26t-172.5 82q-12 8 -32 31.5t-24 36.5l-10 -2q4 -9 10 -88l7 -129h-21l-29 559l41 2l4 -84q9 -178 127 -288t283 -110h2v605q-170 64 -235 102q-155 89 -170 231q-2 17 -2 35q0 142 111 232.5t296 99.5v137h39v-137q163 0 297 -90
q10 -6 37 -47l14 4q-5 16 -8 65l-6 109h22l25 -483l-41 -2l-4 86q-4 63 -26 119t-62 102t-104 73.5t-144 28.5v-518q172 -67 197 -78q171 -77 229 -181q37 -66 37 -151q0 -175 -121 -271.5t-342 -104.5v-140zM516 868v502q-121 -8 -185.5 -71.5t-64.5 -176.5
q0 -91 65 -148.5t185 -105.5zM555 694v-588q138 9 216.5 88.5t78.5 217.5q0 45 -16.5 83t-41 65t-66 53t-79 43t-92.5 38z" />
    <glyph glyph-name="percent" unicode="%" horiz-adv-x="1458" 
d="M1257 1221l29 -25l-1069 -1067l-31 25zM1231 252q0 128 -46.5 194t-135.5 66q-91 0 -138 -59.5t-47 -173.5q0 -127 48 -194t139 -67q88 0 134 60t46 174zM1049 549q140 0 225.5 -78t85.5 -205t-85.5 -205.5t-225.5 -78.5q-141 0 -226.5 78t-85.5 206t85.5 205.5
t226.5 77.5zM594 1085q0 127 -47.5 194t-136.5 67q-88 0 -134.5 -60.5t-46.5 -175.5q0 -127 47 -193.5t136 -66.5q182 0 182 235zM412 1382q141 0 226 -78t85 -206t-85 -205.5t-226 -77.5q-140 0 -227 78t-87 205t87 205.5t227 78.5z" />
    <glyph glyph-name="ampersand" unicode="&#x26;" horiz-adv-x="1361" 
d="M610 453l-2 24q0 61 20 106t49.5 70.5t78 42.5t89.5 23.5t101 11.5l39 3l52.5 4.5t49 5t48.5 7t42 10.5t38.5 15.5t30 20.5t24.5 27t14 35t6 44v25h33l4 -56v-34q0 -58 -17 -99.5t-43 -65t-69.5 -36.5t-85 -17t-100.5 -4h-47q72 -38 114.5 -111t42.5 -155
q0 -163 -142.5 -262.5t-375.5 -99.5q-243 0 -389.5 109.5t-146.5 289.5q0 162 104.5 278t271.5 136v2q-89 15 -146.5 94.5t-57.5 175.5q0 126 100 202.5t264 76.5q102 0 174 -27q50 -18 76 -59l4 2q-2 8 -2 35v43h21v-275h-21v33q-10 109 -81 160t-171 51q-114 0 -182 -65
t-68 -171q0 -104 65.5 -186t168.5 -82h37v-37h-47q-155 0 -241.5 -102t-86.5 -287q0 -158 111 -254t294 -96q193 0 310.5 87t117.5 230q0 103 -71 180.5t-185 77.5q-84 -7 -130 -40t-46 -107v-10h-41z" />
    <glyph glyph-name="quotesingle" unicode="'" horiz-adv-x="278" 
d="M78 1266l24 293q44 -2 61 -10.5t17 -35.5q0 -38 -14 -118l-16 -133z" />
    <glyph glyph-name="parenleft" unicode="(" horiz-adv-x="581" 
d="M78 571q0 301 114 580t330 475l27 -24q-148 -136 -228.5 -420.5t-80.5 -616.5q0 -333 81 -618t230 -420l-29 -27q-211 193 -327.5 477t-116.5 594zM551 1604v-5l-2 3z" />
    <glyph glyph-name="parenright" unicode=")" horiz-adv-x="581" 
d="M31 1599l30 27q216 -196 328.5 -474t112.5 -581q0 -310 -115.5 -595t-325.5 -476l-30 27q147 134 229 419t82 617t-82 617t-229 419z" />
    <glyph glyph-name="asterisk" unicode="*" horiz-adv-x="600" 
d="M334 1300l188 -81q2 -3 2 -7l-24 -41h-6q-9 4 -88.5 53.5t-88.5 53.5l-2 4l-4 -2l4 -4q0 -9 7.5 -95.5t7.5 -95.5q0 -4 -4 -6h-52l-4 6q0 9 7.5 95.5t7.5 95.5l4 4l-4 2l-4 -4q-7 -3 -84.5 -53t-87.5 -54h-11l-24 41l4 7l188 81h4v7l-4 -2l-188 84q-4 2 -4 6l24 41h11
q10 -4 87.5 -54t84.5 -53l4 -4l4 2l-4 4q0 9 -7.5 95.5t-7.5 95.5q2 4 4 6h52l4 -6q0 -9 -7.5 -95.5t-7.5 -95.5l-4 -4l4 -2l2 4q9 4 88.5 53.5t88.5 53.5h6l24 -41l-2 -6l-188 -84l-4 2v-7h4z" />
    <glyph glyph-name="plus" unicode="+" horiz-adv-x="976" 
d="M524 674h396l-5 -56h-391v-358l-59 4v354h-404l2 56h402v370l59 -2v-368z" />
    <glyph glyph-name="comma" unicode="," horiz-adv-x="440" 
d="M135 -166q44 0 82 34.5t47 78.5q5 39 8 45l-6 4q-11 -14 -45 -14q-102 0 -102 90q0 44 26.5 68t75.5 24q44 0 71 -25.5t27 -66.5q0 -116 -50.5 -186t-133.5 -70v18z" />
    <glyph glyph-name="hyphen" unicode="-" horiz-adv-x="638" 
d="M590 563h-549l8 55h553z" />
    <glyph glyph-name="period" unicode="." horiz-adv-x="440" 
d="M221 164q43 0 70.5 -25t27.5 -67q0 -41 -26 -65.5t-72 -24.5q-45 0 -73.5 24t-28.5 66q0 40 27.5 66t74.5 26z" />
    <glyph glyph-name="slash" unicode="/" horiz-adv-x="1099" 
d="M41 -352l967 1855l51 -24l-965 -1856z" />
    <glyph glyph-name="zero" unicode="0" horiz-adv-x="1222" 
d="M604 1452h-2q-178 0 -271 -164.5t-93 -478.5q0 -385 96.5 -587t281.5 -202q180 0 274.5 165t94.5 479q0 384 -97.5 586t-283.5 202zM610 1489q162 0 285.5 -93.5t190.5 -264t67 -394.5t-67 -395t-190.5 -264.5t-285.5 -93.5q-161 0 -284.5 93.5t-190.5 264.5t-67 395
q0 338 149 545t393 207z" />
    <glyph glyph-name="one" unicode="1" horiz-adv-x="714" 
d="M692 0l-669 -4v18h143q82 0 102.5 20.5t20.5 106.5v959q0 76 6 119l-8 4q-2 -2 -8.5 -10.5t-12 -15t-16 -17.5t-21.5 -21l-151 -155l-15 12l89 100q268 316 268 373h29v-1344q0 -87 18.5 -107t99.5 -20h125v-18z" />
    <glyph glyph-name="two" unicode="2" horiz-adv-x="1042" 
d="M969 0h-891v123q21 2 82.5 42t109.5 97q114 138 195.5 246t155.5 225t111.5 220t37.5 190q0 151 -72 230t-209 79q-70 0 -126 -23t-92.5 -63t-59 -87t-31.5 -101v-70h-39v360h21v-88q63 51 151 80t176 29q199 0 320 -102t121 -269q0 -102 -55 -218.5t-157.5 -238.5
t-210.5 -228t-253 -232q-72 -64 -94 -74l6 -10q80 10 131 10h332q71 0 115.5 3.5t89 15t69 34t41.5 60t21 92.5l4 59l24 -2z" />
    <glyph glyph-name="three" unicode="3" horiz-adv-x="1058" 
d="M78 133v256h41v-63q5 -55 29.5 -108t66 -98t105 -72.5t139.5 -27.5q171 0 261.5 97.5t90.5 281.5q0 188 -92 308t-244 120h-205v37h172q134 0 215.5 91.5t81.5 228.5q0 130 -71 199t-205 69q-76 0 -134.5 -25t-92 -68t-51.5 -90t-23 -100v-67h-37v366h18v-82l9 -2
q16 28 49 43q108 58 258 62q190 0 305 -83t115 -218q0 -114 -82 -215.5t-191 -120.5v-2q163 -20 269 -152.5t106 -298.5q0 -187 -143.5 -301t-378.5 -114q-94 0 -197.5 38.5t-183.5 110.5z" />
    <glyph glyph-name="four" unicode="4" horiz-adv-x="1099" 
d="M104 362h621v492h160v-492h143v-71h-143v-146q0 -86 23 -106.5t118 -20.5h37v-18h-584v18h105q94 0 117.5 20.5t23.5 106.5v146h-680v45l21 36q22 37 55 95.5t76 136t90 169t92 184.5t86.5 192t69.5 182q14 49 14 78q0 43 -86 43v21q158 0 208.5 12.5t84.5 68.5l12 -4z
" />
    <glyph glyph-name="five" unicode="5" horiz-adv-x="1058" 
d="M162 1473h602q83 0 104 15t31 83v12l23 -2l-17 -235h-579q-38 0 -57 -0.5t-38 -5.5t-25.5 -10t-13.5 -21t-8.5 -31.5t-3.5 -48.5l-26 -350q65 38 146 60t159 22q236 0 379 -131t143 -357q0 -214 -145 -351.5t-377 -137.5q-97 2 -201.5 40.5t-179.5 110.5v254h41v-63
q2 -51 26.5 -104t66 -98.5t106.5 -74.5t141 -29q171 0 261.5 116t90.5 337q0 220 -90.5 335.5t-261.5 115.5q-84 0 -167 -26.5t-142 -68.5h-39l41 574q3 70 10 70z" />
    <glyph glyph-name="six" unicode="6" horiz-adv-x="1099" 
d="M930 1343v-210h-21v28q-11 53 -32 99t-57 92t-95 73t-135 27q-108 0 -187 -102.5t-117 -272.5t-38 -385h8q51 114 144 175t200 61q189 0 304.5 -132.5t115.5 -349.5q0 -215 -128.5 -338.5t-342.5 -123.5q-211 0 -341 190t-130 500q0 242 64 427.5t180.5 286.5t267.5 101
q37 0 71.5 -6t65.5 -17.5t54.5 -22t50 -28t39 -26.5t34.5 -26.5t25 -19.5zM850 446q0 217 -67.5 331t-196.5 114q-124 0 -225.5 -123.5t-104.5 -308.5q19 -211 94 -325t199 -114q146 0 223.5 109.5t77.5 316.5z" />
    <glyph glyph-name="seven" unicode="7" horiz-adv-x="1017" 
d="M500 0h-160v98q0 159 56.5 356t136.5 362.5t156 291t126 180.5q39 45 64 53l-2 13q-24 -8 -168 -8h-498q-83 0 -105 -15.5t-28 -83.5l-8 -114h-23l25 340h909v-103q-28 -7 -83.5 -66t-123.5 -167.5t-129 -242.5t-102.5 -314t-42.5 -359v-221z" />
    <glyph glyph-name="eight" unicode="8" horiz-adv-x="1157" 
d="M580 20q161 0 245 102.5t84 297.5q0 198 -84 302.5t-245 104.5t-245.5 -104.5t-84.5 -302.5q0 -195 84.5 -297.5t245.5 -102.5zM580 864q126 0 192 76.5t66 222.5q0 141 -66 215t-192 74t-192 -74t-66 -215q0 -146 66 -222.5t192 -76.5zM580 -16q-226 0 -364 120
t-138 316q0 164 105 287t270 143v2q-110 19 -190.5 110.5t-80.5 204.5q0 145 109 233.5t289 88.5q178 0 287.5 -88.5t109.5 -233.5q0 -113 -80.5 -204.5t-191.5 -110.5v-2q165 -20 269.5 -143t104.5 -287q0 -196 -137.5 -316t-361.5 -120z" />
    <glyph glyph-name="nine" unicode="9" horiz-adv-x="1099" 
d="M168 129v211h20v-29q12 -53 33.5 -99t57.5 -92t95.5 -73t135.5 -27q108 0 187 102.5t117 272.5t38 385h-10q-51 -115 -143 -175t-199 -60q-189 0 -305.5 132.5t-116.5 348.5q0 214 129 338.5t342 124.5q212 0 341.5 -189.5t129.5 -500.5q0 -242 -63.5 -427.5
t-179.5 -286.5t-267 -101q-42 0 -84 9.5t-71 19.5t-64 30.5t-49.5 30.5t-43 31.5t-30.5 23.5zM250 1026q0 -217 67.5 -330.5t196.5 -113.5q59 0 117 32t104.5 87t76 137.5t30.5 175.5q-19 211 -93.5 324.5t-199.5 113.5q-145 0 -222 -109.5t-77 -316.5z" />
    <glyph glyph-name="colon" unicode=":" horiz-adv-x="440" 
d="M221 164q43 0 70.5 -25t27.5 -67q0 -41 -26 -65.5t-72 -24.5q-45 0 -73.5 24t-28.5 66q0 40 27.5 66t74.5 26zM221 883q43 0 70.5 -25t27.5 -67q0 -41 -26 -66t-72 -25q-45 0 -73.5 24.5t-28.5 66.5q0 40 27.5 66t74.5 26z" />
    <glyph glyph-name="semicolon" unicode=";" horiz-adv-x="440" 
d="M221 883q43 0 70.5 -25t27.5 -67q0 -41 -26 -66t-72 -25q-45 0 -73.5 24.5t-28.5 66.5q0 40 27.5 66t74.5 26zM319 72q0 -116 -50.5 -186t-133.5 -70v37q43 0 75.5 33t39.5 69q2 12 14 37l-8 4q-10 -14 -35 -14q-102 0 -102 90q0 44 26.5 68t75.5 24q44 0 71 -25.5
t27 -66.5z" />
    <glyph glyph-name="less" unicode="&#x3c;" horiz-adv-x="837" 
d="M690 1133l78 -74l-506 -307q-18 -11 -55 -33.5t-56 -34t-42 -22.5t-35 -13v-8q10 -2 24 -7.5t36 -18t36.5 -21t47 -28.5t44.5 -27l506 -308l-78 -73l-657 475v24z" />
    <glyph glyph-name="equal" unicode="=" horiz-adv-x="1038" 
d="M950 762h-872l10 55h870zM950 471h-872l10 55h870z" />
    <glyph glyph-name="greater" unicode="&#x3e;" horiz-adv-x="837" 
d="M150 1133l655 -476v-24l-655 -475l-80 73l508 312q18 11 52 32.5t51.5 32t38 21t32.5 12.5v8q-12 2 -32 12.5t-38.5 21.5t-51 32t-52.5 33l-508 311z" />
    <glyph glyph-name="question" unicode="?" horiz-adv-x="907" 
d="M377 164q43 0 70.5 -25t27.5 -67q0 -41 -26 -65.5t-72 -24.5q-45 0 -74 24t-29 66q0 38 30 65t73 27zM113 1120h-41v393h22v-79q60 43 139 67.5t156 26.5q200 0 323.5 -90.5t123.5 -237.5q0 -74 -44.5 -146.5t-107.5 -130t-126 -111.5t-107.5 -109t-44.5 -103v-182h-62
v182q0 62 33 127.5t80 121.5t94 111.5t80 118t33 121.5q0 134 -70 203.5t-203 69.5q-61 0 -107.5 -15.5t-74.5 -39t-48 -61.5t-29.5 -71.5t-18.5 -81.5v-84z" />
    <glyph glyph-name="at" unicode="@" horiz-adv-x="1935" 
d="M1405 1303l-6 -70v-2l-82 -672q-6 -69 -6 -70q0 -81 29.5 -126.5t84.5 -45.5q106 0 196 73.5t143 200t53 275.5q0 178 -106 329t-288.5 239t-396.5 88q-184 0 -351 -62t-287.5 -167t-191.5 -249t-71 -303q0 -214 107 -395.5t291 -287t401 -105.5q139 0 276 45t217 121
l29 -25q-86 -81 -231.5 -128.5t-292.5 -47.5q-171 0 -327 65.5t-268 176t-178.5 263t-66.5 320.5q0 166 74.5 317.5t200 261t300 174.5t365.5 65q170 0 324 -55t265 -147.5t176.5 -221t65.5 -269.5q0 -159 -58 -294t-158.5 -213t-219.5 -78q-79 0 -137.5 60t-87.5 179h-16
q-21 -46 -51.5 -86t-72 -76.5t-97.5 -57.5t-119 -21q-71 0 -136 27.5t-116 78.5t-81 131.5t-30 179.5q0 100 33 192.5t97 168t170 121t241 45.5q137 0 262 -58q49 0 69 18.5t31 67.5l6 54zM1227 1145q-93 41 -199 41q-80 0 -146.5 -31t-111 -82t-75 -118.5t-44.5 -139.5
t-14 -147q0 -157 60.5 -253t158.5 -96q93 0 186.5 93t128.5 243z" />
    <glyph glyph-name="A" unicode="A" horiz-adv-x="1708" 
d="M18 0v18h35q39 0 66 31.5t59 95.5l633 1328h174v-25q0 -75 21 -119l530 -1184q37 -82 51 -98q25 -29 82 -29h19v-18h-431v18h173v5q-31 10 -70 96l-125 280h-893l-121 -254q-12 -32 -12 -47q0 -36 29 -58t79 -22h111v-18h-410zM360 436h859l-383 854q-19 39 -19 82h-20
q0 -24 -27 -82z" />
    <glyph glyph-name="B" unicode="B" horiz-adv-x="1333" 
d="M377 37h256q211 0 339 107t128 282q0 185 -135.5 303.5t-346.5 118.5h-118v35h90q150 0 246 77.5t96 198.5q0 125 -102.5 201t-270.5 76h-182v-2q37 -34 37 -107v-1182q0 -70 -37 -104v-4zM41 0v20h78q82 0 101.5 17.5t19.5 91.5v1217q0 73 -19.5 90.5t-101.5 17.5h-78
v19h549q240 0 387 -85.5t147 -224.5q0 -95 -88 -181t-235 -105v-9q106 -7 199.5 -47.5t157 -102t100 -138t36.5 -154.5q0 -125 -82.5 -223t-223 -150.5t-314.5 -52.5h-633z" />
    <glyph glyph-name="C" unicode="C" horiz-adv-x="1468" 
d="M78 741l-2 2q0 222 98 392t276.5 263t411.5 93q240 0 414 -131q11 -11 24 -41l15 4q-6 24 -6 59l-4 150h20l21 -592l-41 -2l-7 190q-9 135 -146 231.5t-306 96.5q-278 0 -424 -174t-146 -506q0 -367 152.5 -560t441.5 -193q163 0 303 75.5t199 202.5l39 -14
q-64 -148 -211 -225.5t-332 -77.5q-234 0 -413.5 94t-278 266t-98.5 397z" />
    <glyph glyph-name="D" unicode="D" horiz-adv-x="1628" 
d="M377 37h237q365 0 556.5 179.5t191.5 520.5t-191.5 520t-556.5 179h-237v-2q37 -34 37 -97v-1202q0 -62 -37 -96v-2zM41 0v18h78q82 0 101.5 17.5t19.5 91.5v1200q0 77 -21 102t-100 25h-78v19h635q261 0 461 -92t309.5 -259t109.5 -385q0 -219 -109.5 -386.5
t-309.5 -259t-461 -91.5h-635z" />
    <glyph glyph-name="E" unicode="E" horiz-adv-x="1243" 
d="M768 422h-20v113q0 57 -14 98t-35 64t-55 36.5t-65.5 17t-74.5 3.5h-90v-609q0 -61 -49 -106v-2h448q164 0 244 64.5t92 211.5l14 164h35l-39 -555l-18 2l6 94h-2q-21 -18 -84 -18h-1020v18h78q82 0 101.5 17.5t19.5 91.5v1219q0 73 -19.5 90.5t-101.5 17.5h-78v19h899
q63 0 82 -19h4l-8 94l20 2l41 -555h-41l-8 144q-10 161 -95 229t-253 68h-317v-2q49 -45 49 -107v-536h90q44 0 75 3.5t65 16.5t55 35.5t35 63.5t14 98v71h20v-657z" />
    <glyph glyph-name="F" unicode="F" horiz-adv-x="1140" 
d="M41 0v18h78q82 0 101.5 17.5t19.5 91.5v1219q0 73 -19.5 90.5t-101.5 17.5h-78v19h936q26 0 37 -4t24 -15h2l-8 139l21 2l43 -600h-41l-11 144q-4 80 -37.5 139t-90 93t-125.5 49.5t-154 15.5h-272v-2q49 -45 49 -107v-610h90q45 0 79 3.5t74 16.5t66 35.5t43.5 63.5
t17.5 98v123h21v-678h-21v84q0 106 -72 161.5t-208 55.5h-90v-553q0 -73 20.5 -91t102.5 -18h145v-18h-641z" />
    <glyph glyph-name="G" unicode="G" horiz-adv-x="1636" 
d="M1438 -82h-21v143q-2 39 -28 70t-62 31q-32 0 -65 -29q-76 -73 -180.5 -111t-221.5 -38q-233 0 -411.5 94t-276.5 266t-98 397q0 222 96 392t272 263t406 93q242 0 412 -129q18 -18 24 -39l8 2q-6 24 -6 47l-10 199l22 2l35 -631l-39 -2l-8 135q-12 173 -146.5 276
t-314.5 103q-270 0 -412.5 -173.5t-142.5 -504.5q0 -367 153.5 -560.5t446.5 -193.5q116 2 220 44.5t170 123.5v269q0 86 -57.5 138t-151.5 52h-263v37h840v-37h-190v-729z" />
    <glyph glyph-name="H" unicode="H" horiz-adv-x="1445" 
d="M41 0v18h78q79 0 100 25t21 102v1182q0 77 -21 102t-100 25h-78v19h553v-19h-57q-79 0 -101 -25t-22 -102v-534h618v534q0 77 -22 102t-101 25h-57v19h555v-19h-80q-78 0 -98.5 -24.5t-20.5 -102.5v-1182q0 -78 20.5 -102.5t98.5 -24.5h80v-18h-555v18h61q77 0 98 25
t21 102v611h-618v-611q0 -77 22 -102t101 -25h57v-18h-553z" />
    <glyph glyph-name="I" unicode="I" horiz-adv-x="653" 
d="M41 0v18h78q82 0 101.5 17t19.5 90v1223q0 73 -19.5 89.5t-101.5 16.5h-78v19h573v-23h-77q-83 0 -103 -17t-20 -90v-1218q0 -73 20 -90t103 -17h77v-18h-573z" />
    <glyph glyph-name="J" unicode="J" horiz-adv-x="915" 
d="M74 242q0 -98 74 -158.5t194 -60.5q88 0 134 55.5t46 161.5v1157q0 23 4 32.5t17 20.5v4h-312v19h646v-19h-60q-119 0 -119 -108v-1014q0 -154 -100.5 -250t-255.5 -96q-130 0 -209.5 70t-79.5 186h21z" />
    <glyph glyph-name="K" unicode="K" horiz-adv-x="1320" 
d="M41 0l6 18h80q80 0 99.5 20.5t19.5 106.5v1201q0 73 -19.5 90.5t-99.5 17.5h-80v19h516v-19h-20q-82 0 -101.5 -17.5t-19.5 -90.5v-461q67 0 99 5t46 23l357 408q39 48 39 78q0 55 -117 55h-21v19h498v-19h-29q-86 0 -175 -33t-154 -108l-359 -412l2 -8
q102 -21 178 -64.5t121 -104t70.5 -121t40.5 -136.5q8 -40 15.5 -93t12.5 -91.5t13 -81t19 -71.5t28.5 -54t44.5 -37t63 -12q49 0 107 41l29 20l12 -14l-29 -21q-94 -76 -184 -76q-64 0 -112 25.5t-75.5 54t-52 97t-33 103.5t-25.5 125q-9 43 -13 64q-16 75 -31.5 127
t-46 111.5t-70 96t-103 61t-145.5 24.5h-28v-721q0 -86 20.5 -106.5t102.5 -20.5h77v-18h-573z" />
    <glyph glyph-name="L" unicode="L" horiz-adv-x="1159" 
d="M41 0v18h78q79 0 100 23.5t21 99.5v1207q0 73 -19.5 89.5t-101.5 16.5h-78v19h573v-19h-77q-83 0 -103 -16.5t-20 -89.5v-1203q0 -61 -49 -106v-2h305q69 0 120.5 5.5t100 20.5t80 41t52.5 68t26 100l16 205h45l-45 -581l-23 2l11 120h-2q-13 -11 -24 -14.5t-38 -3.5
h-948z" />
    <glyph glyph-name="M" unicode="M" horiz-adv-x="2031" 
d="M20 0v20h37q84 0 109 28.5t31 117.5l59 1182v43q0 37 -21.5 51t-91.5 14h-90v19h332l584 -1174q35 -72 35 -88h10q0 22 30 88l584 1174h338v-19h-76q-78 0 -102.5 -20.5t-24.5 -69.5q0 -8 1 -26t1 -29l54 -1145q3 -91 28 -118.5t115 -27.5h49v-18h-588v18h82
q86 0 113 19.5t27 60.5v35l-46 1079q-2 37 -2 91h-14q0 -9 -35 -84l-606 -1227l-6 -14h-6l-6 14l-598 1204q-25 57 -25 86h-8q0 -33 -2 -70l-58 -1075q0 -9 -1 -26t-1 -23q0 -40 27.5 -56t116.5 -16h80v-18h-435z" />
    <glyph glyph-name="N" unicode="N" horiz-adv-x="1310" 
d="M440 0h-399v18h57q82 0 102.5 18t20.5 91v1219q0 73 -20.5 90.5t-102.5 17.5h-57v19h344l619 -1033q38 -59 38 -75h15q-2 23 -2 86v874q0 73 -32 101t-114 28h-100v19h463v-19h-35q-82 0 -113.5 -28t-31.5 -101v-1364h-17q0 8 -3 18t-11.5 25.5t-13.5 24.5t-18 30.5
t-17 28.5l-699 1153q-45 76 -45 80h-12q4 -23 4 -88v-1106q0 -74 19.5 -91.5t101.5 -17.5h59v-18z" />
    <glyph glyph-name="O" unicode="O" 
d="M905 -16q-249 0 -438.5 93.5t-293 264.5t-103.5 395q0 338 229.5 545t605.5 207q247 0 436 -93.5t292.5 -264.5t103.5 -394q0 -224 -103.5 -395t-292.5 -264.5t-436 -93.5zM913 20q306 0 466.5 174t160.5 504q0 367 -165 560.5t-478 193.5q-307 0 -469 -174t-162 -504
q0 -367 165.5 -560.5t481.5 -193.5z" />
    <glyph glyph-name="P" unicode="P" horiz-adv-x="1232" 
d="M377 1434v-11q37 -45 37 -127v-686h127q213 0 324.5 105.5t111.5 306.5t-111.5 306.5t-324.5 105.5h-164zM41 0v18h78q82 0 101.5 17.5t19.5 91.5v1219q0 73 -19.5 90.5t-101.5 17.5h-78v19h567q255 0 410.5 -124t155.5 -327q0 -201 -155.5 -325t-410.5 -124h-194v-446
q0 -73 20.5 -91t102.5 -18h55v-18h-551z" />
    <glyph glyph-name="Q" unicode="Q" horiz-adv-x="1810" 
d="M2560 -168q-321 -321 -739 -321q-130 0 -272.5 30.5t-260.5 74t-224 87t-196.5 74t-144.5 30.5q-37 0 -60.5 -24.5t-23.5 -56.5q0 -27 21 -49.5t55 -26.5l-8 -37q-55 9 -84 41t-29 74q0 50 24.5 84t75.5 65q31 18 141 65.5t179 86.5q265 148 392.5 343.5t127.5 415.5
q0 324 -163 494t-474 170q-305 0 -465 -170t-160 -494q0 -153 53.5 -287t172.5 -249.5t295 -185.5l-43 -21q-323 100 -498.5 300.5t-175.5 442.5q0 208 103 367.5t291.5 246.5t434.5 87q245 0 433 -87t290.5 -246.5t102.5 -367.5q0 -453 -691 -790q-64 -32 -179.5 -80
t-143.5 -68q48 0 190.5 -28t300 -61t368 -61t378.5 -28q418 0 590 172z" />
    <glyph glyph-name="R" unicode="R" horiz-adv-x="1388" 
d="M41 0l-2 16h78q82 0 101.5 17.5t19.5 91.5v1218q0 74 -19.5 91.5t-101.5 17.5h-78v18h588q270 0 434 -125t164 -329q0 -184 -135 -304.5t-342 -138.5l-46 -2v-12q77 -7 144.5 -46t105.5 -95l113 -162q5 -7 25.5 -37t30 -42.5t29 -38t33 -38t32.5 -27.5t37 -21.5t36 -6.5
q30 0 66 25l49 39l12 -15l-49 -39q-105 -78 -188 -78q-41 0 -78 16.5t-72 51.5t-57 63t-56 76l-157 222q-64 88 -108.5 122.5t-114.5 34.5h-27v35h102q205 0 313.5 108t108.5 312t-108 311t-314 107h-233v-2q37 -34 37 -107v-1200q0 -73 20.5 -91t102.5 -18h131v-18h-627z
" />
    <glyph glyph-name="S" unicode="S" horiz-adv-x="1077" 
d="M63 502l39 -2l4 -84q9 -178 126 -288t282 -110q156 0 247 81t91 229q0 76 -41 139.5t-106 110t-144 90.5t-158.5 90.5t-144.5 100t-106 130t-41 168.5q0 149 122 240.5t322 91.5q165 0 299 -90q10 -6 37 -47l14 4q-5 16 -8 65l-6 109h22l25 -483l-41 -3l-4 86
q-4 63 -26.5 119t-62.5 102.5t-104 73.5t-145 27q-137 0 -212 -64.5t-75 -185.5q0 -58 25.5 -108t69 -89t100 -74.5t119 -69.5t125 -69.5t119 -78.5t100 -92t69 -115.5t25.5 -143.5q0 -182 -133 -280t-369 -98q-102 0 -184.5 26.5t-171.5 83.5q-12 8 -32 31.5t-24 36.5
l-10 -2q4 -9 10 -88l7 -129h-21z" />
    <glyph glyph-name="T" unicode="T" horiz-adv-x="1212" 
d="M229 0v18h172q81 0 100 17.5t19 91.5v1309h-135q-86 0 -138 -9t-90 -35t-54.5 -71.5t-20.5 -120.5l-8 -84l-41 2l35 475l24 -2l-10 -118h1048l-10 116l25 2l33 -473l-41 -2l-7 84q-6 75 -23 120t-54.5 71.5t-89 35.5t-136.5 9h-131v-1309q0 -74 19 -91.5t100 -17.5h168
v-18h-754z" />
    <glyph glyph-name="U" unicode="U" horiz-adv-x="1306" 
d="M41 1473h573v-19h-98q-82 0 -100.5 -17t-18.5 -91v-1084q0 -118 69.5 -180t203.5 -62q180 0 275 81t95 235v973q0 78 -25.5 111.5t-101.5 33.5h-84v19h439v-19h-58q-78 0 -103.5 -33t-25.5 -112v-973q0 -172 -105 -262t-306 -90t-325 97t-124 255v1010q0 73 -20.5 90.5
t-102.5 17.5h-57v19z" />
    <glyph glyph-name="V" unicode="V" horiz-adv-x="1675" 
d="M20 1473h447v-19h-174v-4q36 -12 69 -94l519 -1141q18 -54 18 -74h29q0 35 22 82l506 1104q12 30 12 55q0 72 -108 72h-193v19h492v-19h-29q-52 0 -72.5 -21.5t-48.5 -87.5l-3 -6t-2.5 -5.5t-2.5 -6.5l-596 -1337l-121 -8l-598 1345q-35 79 -49 96q-26 31 -84 31h-33v19z
" />
    <glyph glyph-name="W" unicode="W" horiz-adv-x="2435" 
d="M20 1473l326 -3v-28q0 -30 16 -88l467 -1141q13 -39 13 -74h22q0 15 17 76l321 975l-45 137q-24 76 -48.5 101.5t-82.5 25.5h-53v19h506v-19h-215v-4q22 -7 41.5 -35.5t27.5 -58.5l377 -1141q14 -65 14 -74h31q0 29 21 80l442 1108q14 32 14 60q0 65 -112 65h-86v19h383
v-19h-33q-26 0 -44.5 -7.5t-33.5 -27.5t-23.5 -37.5t-23.5 -54.5l-533 -1335l-127 -10l-378 1142l-373 -1134l-127 -8l-537 1345q-26 79 -49 103t-82 24h-33v19z" />
    <glyph glyph-name="X" unicode="X" horiz-adv-x="1292" 
d="M41 0v12h20q68 0 106.5 31.5t96.5 130.5l307 547l-292 569q-49 94 -87.5 127t-87.5 33h-26v18h387v-18h-123v-4q25 -8 60 -41.5t55 -71.5l248 -483l266 446q49 76 49 113q0 23 -23 33t-77 10h-80v18h377v-18h-27q-51 0 -84 -30.5t-92 -129.5l-287 -483l326 -633
q64 -104 82 -124q32 -36 82 -36h38v-18h-522v18h47q119 0 119 52q0 32 -43 100l-264 514l-283 -506q-47 -80 -47 -115q0 -25 24.5 -35t80.5 -10h77v-16h-403z" />
    <glyph glyph-name="Y" unicode="Y" horiz-adv-x="1294" 
d="M260 0v18h193q81 0 99.5 17.5t18.5 91.5v569l-352 619q-9 15 -24 42.5t-21 37t-18.5 26t-23 22t-26.5 10.5t-36 5h-47v17h426v-17h-140v-4q28 -9 82 -99q7 -10 10 -16l291 -503q26 -46 29 -66h16q2 12 29 66l270 475q33 54 33 88q0 57 -96 57h-135v17h434v-17h-37
q-49 0 -75.5 -28.5t-76.5 -116.5l-333 -586v-600q0 -74 19.5 -91.5t100.5 -17.5h166v-16h-776z" />
    <glyph glyph-name="Z" unicode="Z" horiz-adv-x="1171" 
d="M0 0l-2 18q28 0 74 41t88 119l590 1127q25 47 73 82t92 45v6h-442q-87 0 -141.5 -9t-97.5 -35t-63.5 -73t-25.5 -123l-2 -41l-14 2l25 434l14 -2l-6 -137q13 12 23 15.5t36 3.5h877v-19q-24 0 -69 -40t-87 -120l-590 -1122q-48 -90 -108 -129v-6h516q85 0 138 8.5
t94 32.5t61 68t24 114l4 76l23 -2l-27 -436l-22 2l6 116h-2q-13 -11 -20.5 -13.5t-32.5 -2.5h-1006z" />
    <glyph glyph-name="bracketleft" unicode="[" horiz-adv-x="477" 
d="M459 1599v-36h-258v-2q39 -36 39 -107v-1782q0 -68 -39 -104v-4h258v-37h-389v10q8 82 8 170v1892h381z" />
    <glyph glyph-name="backslash" unicode="\" horiz-adv-x="1099" 
d="M1059 -352l-51 -25l-967 1856l53 24z" />
    <glyph glyph-name="bracketright" unicode="]" horiz-adv-x="477" 
d="M18 1599h381v-1892q0 -78 9 -170v-10h-390v37h258v4q-36 33 -36 104v1782q0 74 36 107v2h-258v36z" />
    <glyph glyph-name="asciicircum" unicode="^" horiz-adv-x="829" 
d="M61 1012l351 313h8l350 -313l-68 -64l-180 191q-89 89 -100 147h-12q-11 -57 -101 -147l-182 -191z" />
    <glyph glyph-name="underscore" unicode="_" horiz-adv-x="919" 
d="M920 -291h-920v55h920v-55z" />
    <glyph glyph-name="grave" unicode="`" horiz-adv-x="399" 
d="M88 1417q12 8 21 8q7 0 20 -10l219 -239l-31 -25l-241 172l-29 31q-6 9 -6 16q0 14 10 21z" />
    <glyph glyph-name="a" unicode="a" horiz-adv-x="1214" 
d="M836 745v439q0 132 -68 200t-199 68q-162 0 -252 -76.5t-96 -201.5l-6 -127h-41l25 483h22l-6 -109q-8 -58 -10 -65l16 -4q2 6 14 23t21 24q134 90 311 90q218 0 333.5 -85.5t115.5 -246.5v-1012q0 -65 12.5 -84.5t61.5 -19.5q7 0 22 1t23 1l39 2l2 -18
q-135 -12 -250 -45v16q0 50 -21 168t-22 149h-23q-48 -174 -147 -252.5t-232 -78.5q-184 0 -304 93t-120 242q0 192 165.5 309t436.5 117h177zM836 709h-164q-189 0 -304.5 -107.5t-115.5 -282.5q0 -126 71 -203t187 -77q61 0 118 26t104 75.5t75.5 133t28.5 189.5v246z" />
    <glyph glyph-name="b" unicode="b" horiz-adv-x="1333" 
d="M377 37h256q211 0 339 107t128 282q0 185 -135.5 303.5t-346.5 118.5h-118v35h90q150 0 246 77.5t96 198.5q0 125 -102.5 201t-270.5 76h-182v-2q37 -34 37 -107v-1182q0 -70 -37 -104v-4zM41 0v20h78q82 0 101.5 17.5t19.5 91.5v1217q0 73 -19.5 90.5t-101.5 17.5h-78
v19h549q240 0 387 -85.5t147 -224.5q0 -95 -88 -181t-235 -105v-9q106 -7 199.5 -47.5t157 -102t100 -138t36.5 -154.5q0 -125 -82.5 -223t-223 -150.5t-314.5 -52.5h-633z" />
    <glyph glyph-name="c" unicode="c" horiz-adv-x="1468" 
d="M78 741l-2 2q0 222 98 392t276.5 263t411.5 93q240 0 414 -131q11 -11 24 -41l15 4q-6 24 -6 59l-4 150h20l21 -592l-41 -2l-7 190q-9 135 -146 231.5t-306 96.5q-278 0 -424 -174t-146 -506q0 -367 152.5 -560t441.5 -193q163 0 303 75.5t199 202.5l39 -14
q-64 -148 -211 -225.5t-332 -77.5q-234 0 -413.5 94t-278 266t-98.5 397z" />
    <glyph glyph-name="d" unicode="d" horiz-adv-x="1628" 
d="M377 37h237q365 0 556.5 179.5t191.5 520.5t-191.5 520t-556.5 179h-237v-2q37 -34 37 -97v-1202q0 -62 -37 -96v-2zM41 0v18h78q82 0 101.5 17.5t19.5 91.5v1200q0 77 -21 102t-100 25h-78v19h635q261 0 461 -92t309.5 -259t109.5 -385q0 -219 -109.5 -386.5
t-309.5 -259t-461 -91.5h-635z" />
    <glyph glyph-name="e" unicode="e" horiz-adv-x="1695" 
d="M1552 799h-1278v-25q0 -361 170 -557.5t463 -196.5q225 0 398 83.5t272 234.5l31 -23q-105 -158 -289 -244.5t-422 -86.5q-235 0 -423 93.5t-296 267t-108 396.5q0 222 103.5 392t292 263t435.5 93q196 0 359.5 -76.5t262.5 -219.5t99 -325v-10q0 -25 -20.5 -42
t-49.5 -17zM276 836l1135 14q16 0 16 18q0 263 -145 423.5t-383 160.5q-289 0 -448.5 -157.5t-174.5 -458.5z" />
    <glyph glyph-name="f" unicode="f" horiz-adv-x="1140" 
d="M41 0v18h78q82 0 101.5 17.5t19.5 91.5v1219q0 73 -19.5 90.5t-101.5 17.5h-78v19h936q26 0 37 -4t24 -15h2l-8 139l21 2l43 -600h-41l-11 144q-4 80 -37.5 139t-90 93t-125.5 49.5t-154 15.5h-272v-2q49 -45 49 -107v-610h90q45 0 79 3.5t74 16.5t66 35.5t43.5 63.5
t17.5 98v123h21v-678h-21v84q0 106 -72 161.5t-208 55.5h-90v-553q0 -73 20.5 -91t102.5 -18h145v-18h-641z" />
    <glyph glyph-name="g" unicode="g" horiz-adv-x="1636" 
d="M1438 -82h-21v143q-2 39 -28 70t-62 31q-32 0 -65 -29q-76 -73 -180.5 -111t-221.5 -38q-233 0 -411.5 94t-276.5 266t-98 397q0 222 96 392t272 263t406 93q242 0 412 -129q18 -18 24 -39l8 2q-6 24 -6 47l-10 199l22 2l35 -631l-39 -2l-8 135q-12 173 -146.5 276
t-314.5 103q-270 0 -412.5 -173.5t-142.5 -504.5q0 -367 153.5 -560.5t446.5 -193.5q116 2 220 44.5t170 123.5v269q0 86 -57.5 138t-151.5 52h-263v37h840v-37h-190v-729z" />
    <glyph glyph-name="h" unicode="h" horiz-adv-x="1445" 
d="M41 0v18h78q79 0 100 25t21 102v1182q0 77 -21 102t-100 25h-78v19h553v-19h-57q-79 0 -101 -25t-22 -102v-534h618v534q0 77 -22 102t-101 25h-57v19h555v-19h-80q-78 0 -98.5 -24.5t-20.5 -102.5v-1182q0 -78 20.5 -102.5t98.5 -24.5h80v-18h-555v18h61q77 0 98 25
t21 102v611h-618v-611q0 -77 22 -102t101 -25h57v-18h-553z" />
    <glyph glyph-name="i" unicode="i" horiz-adv-x="636" 
d="M41 0v18h78q82 0 101.5 17t19.5 90v1223q0 73 -19.5 89.5t-101.5 16.5h-78v19h573v-23h-77q-83 0 -103 -17t-20 -90v-1218q0 -73 20 -90t103 -17h77v-18h-573z" />
    <glyph glyph-name="j" unicode="j" horiz-adv-x="915" 
d="M74 242q0 -98 74 -158.5t194 -60.5q88 0 134 55.5t46 161.5v1157q0 23 4 32.5t17 20.5v4h-312v19h646v-19h-60q-119 0 -119 -108v-1014q0 -154 -100.5 -250t-255.5 -96q-130 0 -209.5 70t-79.5 186h21z" />
    <glyph glyph-name="k" unicode="k" horiz-adv-x="1320" 
d="M41 0l6 18h80q80 0 99.5 20.5t19.5 106.5v1201q0 73 -19.5 90.5t-99.5 17.5h-80v19h516v-19h-20q-82 0 -101.5 -17.5t-19.5 -90.5v-461q67 0 99 5t46 23l357 408q39 48 39 78q0 55 -117 55h-21v19h498v-19h-29q-86 0 -175 -33t-154 -108l-359 -412l2 -8
q102 -21 178 -64.5t121 -104t70.5 -121t40.5 -136.5q8 -40 15.5 -93t12.5 -91.5t13 -81t19 -71.5t28.5 -54t44.5 -37t63 -12q49 0 107 41l29 20l12 -14l-29 -21q-94 -76 -184 -76q-64 0 -112 25.5t-75.5 54t-52 97t-33 103.5t-25.5 125q-9 43 -13 64q-16 75 -31.5 127
t-46 111.5t-70 96t-103 61t-145.5 24.5h-28v-721q0 -86 20.5 -106.5t102.5 -20.5h77v-18h-573z" />
    <glyph glyph-name="l" unicode="l" horiz-adv-x="1159" 
d="M41 0v18h78q79 0 100 23.5t21 99.5v1207q0 73 -19.5 89.5t-101.5 16.5h-78v19h573v-19h-77q-83 0 -103 -16.5t-20 -89.5v-1203q0 -61 -49 -106v-2h305q69 0 120.5 5.5t100 20.5t80 41t52.5 68t26 100l16 205h45l-45 -581l-23 2l11 120h-2q-13 -11 -24 -14.5t-38 -3.5
h-948z" />
    <glyph glyph-name="m" unicode="m" horiz-adv-x="2009" 
d="M41 0l-2 18h78q82 0 101.5 17.5t19.5 91.5v1167q0 28 -21.5 47t-54.5 19h-6l-133 -10l-3 12l175 33q71 13 114 51t43 98v8h17v-268q0 -148 -4 -188h20q11 77 37 141q107 252 356 252q86 0 146 -20t92.5 -58.5t46.5 -84.5t14 -107v-123h8q3 44 24.5 107.5t33.5 82.5
q58 100 136.5 151.5t197.5 51.5q149 0 241 -71t92 -201v-1090q0 -73 20.5 -91t102.5 -18h58v-18h-506v18h172v5q-13 11 -17 20.5t-4 32.5v1122q0 121 -50.5 188.5t-129.5 67.5q-155 0 -249.5 -129.5t-94.5 -343.5v-854q0 -73 20.5 -91t102.5 -18h57v-18h-485v18h151v5
q-13 11 -16.5 20t-3.5 33v1122q0 121 -50.5 188.5t-129.5 67.5q-155 0 -249.5 -129.5t-94.5 -343.5v-854q0 -73 20.5 -91t102.5 -18h77v-18h-573z" />
    <glyph glyph-name="n" unicode="n" horiz-adv-x="1435" 
d="M41 0l-2 18h78q82 0 101.5 17.5t19.5 91.5v1167q0 28 -21.5 47t-54.5 19h-6l-133 -10l-3 12l175 33q72 13 118.5 51t46.5 98v8h19v-268q0 -179 -4 -215h14q11 68 37 133q50 131 161.5 209t250.5 78q180 0 279.5 -83.5t99.5 -225.5v-1053q0 -74 18.5 -91.5t99.5 -17.5h82
v-18h-575v18h219v5q-13 11 -17 20.5t-4 32.5v1069q0 155 -52.5 232t-168.5 77q-174 0 -289.5 -139.5t-115.5 -360.5v-827q0 -73 20.5 -91t102.5 -18h77v-18h-573z" />
    <glyph glyph-name="o" unicode="o" 
d="M905 -16q-249 0 -438.5 93.5t-293 264.5t-103.5 395q0 338 229.5 545t605.5 207q247 0 436 -93.5t292.5 -264.5t103.5 -394q0 -224 -103.5 -395t-292.5 -264.5t-436 -93.5zM913 20q306 0 466.5 174t160.5 504q0 367 -165 560.5t-478 193.5q-307 0 -469 -174t-162 -504
q0 -367 165.5 -560.5t481.5 -193.5z" />
    <glyph glyph-name="p" unicode="p" horiz-adv-x="1232" 
d="M377 1434v-11q37 -45 37 -127v-686h127q213 0 324.5 105.5t111.5 306.5t-111.5 306.5t-324.5 105.5h-164zM41 0v18h78q82 0 101.5 17.5t19.5 91.5v1219q0 73 -19.5 90.5t-101.5 17.5h-78v19h567q255 0 410.5 -124t155.5 -327q0 -201 -155.5 -325t-410.5 -124h-194v-446
q0 -73 20.5 -91t102.5 -18h55v-18h-551z" />
    <glyph glyph-name="q" unicode="q" horiz-adv-x="1810" 
d="M2560 -168q-321 -321 -739 -321q-130 0 -272.5 30.5t-260.5 74t-224 87t-196.5 74t-144.5 30.5q-37 0 -60.5 -24.5t-23.5 -56.5q0 -27 21 -49.5t55 -26.5l-8 -37q-55 9 -84 41t-29 74q0 50 24.5 84t75.5 65q31 18 141 65.5t179 86.5q265 148 392.5 343.5t127.5 415.5
q0 324 -163 494t-474 170q-305 0 -465 -170t-160 -494q0 -153 53.5 -287t172.5 -249.5t295 -185.5l-43 -21q-323 100 -498.5 300.5t-175.5 442.5q0 208 103 367.5t291.5 246.5t434.5 87q245 0 433 -87t290.5 -246.5t102.5 -367.5q0 -453 -691 -790q-64 -32 -179.5 -80
t-143.5 -68q48 0 190.5 -28t300 -61t368 -61t378.5 -28q418 0 590 172z" />
    <glyph glyph-name="r" unicode="r" horiz-adv-x="1388" 
d="M41 0l-2 16h78q82 0 101.5 17.5t19.5 91.5v1218q0 74 -19.5 91.5t-101.5 17.5h-78v18h588q270 0 434 -125t164 -329q0 -184 -135 -304.5t-342 -138.5l-46 -2v-12q77 -7 144.5 -46t105.5 -95l113 -162q5 -7 25.5 -37t30 -42.5t29 -38t33 -38t32.5 -27.5t37 -21.5t36 -6.5
q30 0 66 25l49 39l12 -15l-49 -39q-105 -78 -188 -78q-41 0 -78 16.5t-72 51.5t-57 63t-56 76l-157 222q-64 88 -108.5 122.5t-114.5 34.5h-27v35h102q205 0 313.5 108t108.5 312t-108 311t-314 107h-233v-2q37 -34 37 -107v-1200q0 -73 20.5 -91t102.5 -18h131v-18h-627z
" />
    <glyph glyph-name="s" unicode="s" horiz-adv-x="1077" 
d="M63 502l39 -2l4 -84q9 -178 126 -288t282 -110q156 0 247 81t91 229q0 76 -41 139.5t-106 110t-144 90.5t-158.5 90.5t-144.5 100t-106 130t-41 168.5q0 149 122 240.5t322 91.5q165 0 299 -90q10 -6 37 -47l14 4q-5 16 -8 65l-6 109h22l25 -483l-41 -3l-4 86
q-4 63 -26.5 119t-62.5 102.5t-104 73.5t-145 27q-137 0 -212 -64.5t-75 -185.5q0 -58 25.5 -108t69 -89t100 -74.5t119 -69.5t125 -69.5t119 -78.5t100 -92t69 -115.5t25.5 -143.5q0 -182 -133 -280t-369 -98q-102 0 -184.5 26.5t-171.5 83.5q-12 8 -32 31.5t-24 36.5
l-10 -2q4 -9 10 -88l7 -129h-21z" />
    <glyph glyph-name="t" unicode="t" horiz-adv-x="1212" 
d="M229 0v18h172q81 0 100 17.5t19 91.5v1309h-135q-86 0 -138 -9t-90 -35t-54.5 -71.5t-20.5 -120.5l-8 -84l-41 2l35 475l24 -2l-10 -118h1048l-10 116l25 2l33 -473l-41 -2l-7 84q-6 75 -23 120t-54.5 71.5t-89 35.5t-136.5 9h-131v-1309q0 -74 19 -91.5t100 -17.5h168
v-18h-754z" />
    <glyph glyph-name="u" unicode="u" horiz-adv-x="1372" 
d="M1346 37l-3 -19q-157 -6 -305 -36v16q11 113 11 117v32q0 27 -2.5 127.5t-2.5 118.5v8h-16q-17 -107 -59.5 -189t-103.5 -131t-132.5 -73t-152.5 -24q-171 0 -276 81t-105 228v1040q0 62 -66 62h-106v18h129q51 0 95 9t77.5 35t33.5 65v8h19v-1219q0 -139 60 -215
t161 -76q180 0 292 144.5t112 378.5v803q0 73 -20.5 90.5t-102.5 17.5h-37v19l348 8v-17q-8 -82 -8 -108v-1211q0 -73 19.5 -90.5t101.5 -17.5h39z" />
    <glyph glyph-name="v" unicode="v" horiz-adv-x="1675" 
d="M20 1473h447v-19h-174v-4q36 -12 69 -94l519 -1141q18 -54 18 -74h29q0 35 22 82l506 1104q12 30 12 55q0 72 -108 72h-193v19h492v-19h-29q-52 0 -72.5 -21.5t-48.5 -87.5l-3 -6t-2.5 -5.5t-2.5 -6.5l-596 -1337l-121 -8l-598 1345q-35 79 -49 96q-26 31 -84 31h-33v19z
" />
    <glyph glyph-name="w" unicode="w" horiz-adv-x="2435" 
d="M20 1473l326 -3v-28q0 -30 16 -88l467 -1141q13 -39 13 -74h22q0 15 17 76l321 975l-45 137q-24 76 -48.5 101.5t-82.5 25.5h-53v19h506v-19h-215v-4q22 -7 41.5 -35.5t27.5 -58.5l377 -1141q14 -65 14 -74h31q0 29 21 80l442 1108q14 32 14 60q0 65 -112 65h-86v19h383
v-19h-33q-26 0 -44.5 -7.5t-33.5 -27.5t-23.5 -37.5t-23.5 -54.5l-533 -1335l-127 -10l-378 1142l-373 -1134l-127 -8l-537 1345q-26 79 -49 103t-82 24h-33v19z" />
    <glyph glyph-name="x" unicode="x" horiz-adv-x="1292" 
d="M41 0v12h20q68 0 106.5 31.5t96.5 130.5l307 547l-292 569q-49 94 -87.5 127t-87.5 33h-26v18h387v-18h-123v-4q25 -8 60 -41.5t55 -71.5l248 -483l266 446q49 76 49 113q0 23 -23 33t-77 10h-80v18h377v-18h-27q-51 0 -84 -30.5t-92 -129.5l-287 -483l326 -633
q64 -104 82 -124q32 -36 82 -36h38v-18h-522v18h47q119 0 119 52q0 32 -43 100l-264 514l-283 -506q-47 -80 -47 -115q0 -25 24.5 -35t80.5 -10h77v-16h-403z" />
    <glyph glyph-name="y" unicode="y" horiz-adv-x="1294" 
d="M260 0v18h193q81 0 99.5 17.5t18.5 91.5v569l-352 619q-9 15 -24 42.5t-21 37t-18.5 26t-23 22t-26.5 10.5t-36 5h-47v17h426v-17h-140v-4q28 -9 82 -99q7 -10 10 -16l291 -503q26 -46 29 -66h16q2 12 29 66l270 475q33 54 33 88q0 57 -96 57h-135v17h434v-17h-37
q-49 0 -75.5 -28.5t-76.5 -116.5l-333 -586v-600q0 -74 19.5 -91.5t100.5 -17.5h166v-16h-776z" />
    <glyph glyph-name="z" unicode="z" horiz-adv-x="1171" 
d="M0 0l-2 18q28 0 74 41t88 119l590 1127q25 47 73 82t92 45v6h-442q-87 0 -141.5 -9t-97.5 -35t-63.5 -73t-25.5 -123l-2 -41l-14 2l25 434l14 -2l-6 -137q13 12 23 15.5t36 3.5h877v-19q-24 0 -69 -40t-87 -120l-590 -1122q-48 -90 -108 -129v-6h516q85 0 138 8.5
t94 32.5t61 68t24 114l4 76l23 -2l-27 -436l-22 2l6 116h-2q-13 -11 -20.5 -13.5t-32.5 -2.5h-1006z" />
    <glyph glyph-name="braceleft" unicode="{" horiz-adv-x="618" 
d="M45 569q16 16 42 41.5t38 37t30.5 30.5t26.5 28t20 23.5t16.5 23t10.5 19.5t7.5 20.5t1.5 20.5q0 52 -46.5 245.5t-46.5 252.5q0 130 71.5 210.5t182.5 80.5h201v-37h-121q-90 0 -140 -48t-50 -128q0 -62 51 -282t51 -259q0 -35 -54.5 -86t-132 -109t-102.5 -84
q-3 -1 -3 -5t3 -5q21 -20 101 -79.5t134 -111t54 -87.5q0 -39 -51 -258t-51 -281q0 -80 50 -129t140 -49h121v-37h-201q-111 0 -182.5 80.5t-71.5 210.5q0 59 46.5 253t46.5 246q0 11 -2 20.5t-7 20.5t-10 19.5t-16.5 22t-20.5 23.5t-26.5 27.5l-30.5 30.5t-37.5 36.5
t-42.5 41.5v10z" />
    <glyph glyph-name="bar" unicode="|" horiz-adv-x="337" 
d="M119 1599h102v-2072h-102v2072z" />
    <glyph glyph-name="braceright" unicode="}" horiz-adv-x="618" 
d="M573 567v-10q-125 -124 -145 -146q-45 -53 -45 -96q0 -52 45 -246t45 -253q0 -129 -71 -210t-181 -81h-201v37h119q92 0 142.5 49t50.5 129q0 62 -52.5 281t-52.5 258q0 36 54.5 87.5t135 110.5t101.5 80q2 1 2 5t-2 5q-22 23 -75 64t-98.5 74.5t-81.5 73t-36 67.5
q0 39 52.5 258.5t52.5 281.5q0 80 -50.5 128.5t-142.5 48.5h-119v36h201q110 0 181 -80.5t71 -209.5q0 -59 -45 -252.5t-45 -245.5q0 -40 31.5 -79.5t124.5 -131.5q22 -21 34 -33z" />
    <glyph glyph-name="asciitilde" unicode="~" horiz-adv-x="1038" 
d="M985 836l-24 -107q-42 -149 -177 -149q-61 0 -148 28t-159.5 61t-149.5 61t-122 28q-63 0 -80 -72l-31 -108l-37 8l29 108q38 137 166 137q74 0 189.5 -44t224 -88t165.5 -44q68 0 87 82l26 107z" />
    <glyph glyph-name="uni00A0" unicode="&#xa0;" horiz-adv-x="600" 
 />
    <glyph glyph-name="exclamdown" unicode="&#xa1;" horiz-adv-x="518" 
d="M340 -29q0 -18 -78 -18q-82 0 -82 18q0 199 30 541t30 541h39q0 -199 30.5 -541t30.5 -541zM262 1307q-45 0 -73.5 25t-28.5 67q0 40 27.5 65t74.5 25q44 0 71 -24t27 -66q0 -41 -26.5 -66.5t-71.5 -25.5z" />
    <glyph glyph-name="cent" unicode="&#xa2;" horiz-adv-x="1124" 
d="M647 -72h-41v281q-240 11 -385 154t-145 370q0 238 146 385t384 150v276h39v-276q159 -7 270 -74q21 -16 31 -49l8 2q-1 2 -4 11t-4.5 17.5t-1.5 22.5l-2 68l19 2l20 -369l-39 -2l-4 68q-16 120 -98 189t-193 77v-985q93 0 167 31t119 74.5t89 109.5l35 -21
q-36 -52 -72.5 -90.5t-85.5 -72t-112.5 -51t-139.5 -17.5v-281zM606 248v981q-174 -3 -266 -123.5t-92 -345.5q0 -237 92 -368.5t266 -143.5z" />
    <glyph glyph-name="sterling" unicode="&#xa3;" horiz-adv-x="1226" 
d="M541 766h340v-55h-371v-4q31 -15 31 -66q0 -92 -11.5 -221.5t-40.5 -218.5q65 -15 189 -46.5t202.5 -49t110.5 -17.5q103 0 127 105l41 202l23 -6l-56 -278q-14 -75 -60.5 -112.5t-113.5 -37.5q-48 0 -123 26.5t-200 82t-164 71.5q-82 -178 -221 -178q-58 0 -96.5 38.5
t-38.5 96.5q0 56 43.5 93.5t134.5 37.5q17 0 67 -4q27 142 27 447v39h-223v55h223v352q0 167 98.5 269t259.5 102q195 0 301 -117v86h23v-424h-41v131q0 131 -72 200t-211 69q-97 0 -147.5 -75t-50.5 -216v-377zM344 182q-43 11 -84 11q-44 0 -77 -30t-33 -65q0 -38 22 -61
t59 -23q69 0 113 168z" />
    <glyph glyph-name="currency" unicode="&#xa4;" horiz-adv-x="759" 
d="M223 784q-61 -55 -61 -139q0 -82 61 -137q65 -59 154 -59t151 59q64 58 64 137q0 81 -64 139q-61 58 -151 58t-154 -58zM209 846q73 51 168 51q99 0 174 -57l96 86l39 -41l-92 -84q59 -68 59 -156q0 -85 -57 -151l88 -80l-45 -35l-82 76q-78 -60 -180 -60q-94 0 -170 54
l-90 -80l-39 41l84 77q-60 66 -60 158q0 97 64 164l-94 86l45 35z" />
    <glyph glyph-name="yen" unicode="&#xa5;" horiz-adv-x="1294" 
d="M260 0l2 16h193q81 0 99.5 17.5t18.5 91.5v268h-288l8 35h280v170h-288l8 35h280v61l-352 619q-9 15 -24 42.5t-21 37t-18.5 26t-23 22t-26.5 10.5t-36 5h-47v17h426v-17h-140v-4q28 -9 82 -99q7 -10 10 -16l291 -503q26 -46 29 -66h16q2 12 29 66l270 475q31 57 31 90
q0 57 -96 57h-135v17h434v-17h-37q-49 0 -75.5 -28.5t-76.5 -116.5l-333 -586v-92h301l-9 -35h-292v-170h301l-9 -35h-292v-268q0 -74 19.5 -91.5t100.5 -17.5h148v-16h-758z" />
    <glyph glyph-name="brokenbar" unicode="&#xa6;" horiz-adv-x="337" 
d="M119 764v835h102v-835h-102zM221 362v-835h-102v835h102z" />
    <glyph glyph-name="section" unicode="&#xa7;" horiz-adv-x="1280" 
d="M1022 102v-2q59 -75 59 -174q0 -148 -123.5 -237.5t-326.5 -89.5q-213 0 -340 114v-88h-23v430l41 -14v-104q0 -55 19.5 -107t57 -96.5t101.5 -71.5t144 -27q152 0 231.5 69t79.5 200q0 31 -10.5 59.5t-24 49.5t-43 44t-49.5 36.5t-63.5 34t-65 29.5t-73 29.5t-70.5 28.5
q-155 65 -190 83q-185 94 -244 228q-31 72 -31 160t57.5 182.5t124.5 135.5q-59 75 -59 174q0 148 124 238.5t326 90.5q211 0 338 -114v86h23v-430l-41 14v106q0 56 -19 107.5t-56.5 95t-101 70t-143.5 26.5q-152 0 -231.5 -67.5t-79.5 -196.5q0 -31 10.5 -59.5t24 -49.5
t43 -44t49.5 -36.5t63.5 -34t65 -29.5t73 -29.5t70.5 -28.5q154 -65 195 -86q182 -94 238 -232q28 -69 28 -153q0 -88 -56 -184t-122 -136zM295 963q-94 -87 -94 -261q0 -41 11.5 -77.5t27 -63t45.5 -52.5t54 -42.5t65.5 -36.5t66.5 -30t71 -28t66 -26q9 -4 40.5 -16.5
t42.5 -17t40 -17t42.5 -18.5t39 -18.5t40 -20.5t36 -20.5t36.5 -23.5t31.5 -24t30.5 -27q92 85 92 258q0 41 -11.5 77.5t-27 63t-45.5 53t-53 43t-65.5 36.5t-66 30t-71 28.5t-65.5 25.5q-102 42 -145 60t-116.5 60t-117.5 85z" />
    <glyph glyph-name="dieresis" unicode="&#xa8;" horiz-adv-x="817" 
d="M78 1227q0 55 28 78q22 22 82 22q64 0 86 -22q25 -21 25 -78q0 -55 -25 -76q-20 -25 -86 -25q-57 0 -82 25q-28 23 -28 76zM520 1227q0 53 25 78q26 22 86 22q58 0 84 -22q24 -24 24 -78q0 -52 -24 -76q-25 -25 -84 -25q-56 0 -86 25q-25 25 -25 76z" />
    <glyph glyph-name="copyright" unicode="&#xa9;" horiz-adv-x="1208" 
d="M606 563q-148 0 -273 61t-198.5 167.5t-73.5 234.5q0 89 41 173.5t111.5 148.5t173.5 102.5t219 38.5q143 0 267 -58t200 -165.5t76 -239.5q0 -133 -77.5 -240.5t-201 -165t-264.5 -57.5zM606 600q110 0 206 36t160.5 95.5t101 136.5t36.5 158q0 120 -70 218.5
t-185.5 153t-248.5 54.5q-212 0 -360 -124t-148 -302q0 -81 36.5 -157.5t100.5 -136t161 -96t210 -36.5zM840 887q-66 -113 -209 -113q-118 0 -194.5 69.5t-76.5 182.5q0 114 72.5 186t183.5 72q81 0 148 -39q13 -10 16 -24l4 2l-3 8q-3 8 -3 16l-4 43l21 2l10 -164h-31v2
q-7 62 -51.5 93.5t-106.5 31.5q-82 0 -124.5 -55.5t-42.5 -161.5q0 -116 48 -176.5t140 -60.5q115 0 176 96z" />
    <glyph glyph-name="ordfeminine" unicode="&#xaa;" horiz-adv-x="1007" 
d="M707 1176h-146q-173 0 -253.5 -57t-80.5 -177q0 -172 168 -172q55 0 108.5 23.5t100 68t75 120t28.5 169.5v25zM707 1212v68q0 113 -52 171t-151 58q-258 0 -258 -172v-49q-54 0 -82.5 22.5t-28.5 63.5v82q29 0 88 33q103 57 279 57q170 0 260 -75t90 -218v-385
q0 -58 11 -76t55 -18q4 0 17.5 1t22.5 1l35 2v-18q-115 -12 -223 -41v14q0 46 -9.5 153.5t-10.5 133.5h-21q-28 -105 -87 -174.5t-127 -97t-146 -27.5q-144 0 -222.5 58.5t-78.5 162.5q0 122 129 196t352 74h158z" />
    <glyph glyph-name="guillemotleft" unicode="&#xab;" horiz-adv-x="1017" 
d="M453 469v6l407 377l80 -76l-256 -201q-105 -91 -145 -98v-8q40 -7 145 -98l256 -203l-80 -74zM78 469v6l411 377l78 -76l-256 -201q-56 -48 -88.5 -71t-56.5 -27v-8q24 -4 56.5 -27t88.5 -71l256 -203l-78 -74z" />
    <glyph glyph-name="logicalnot" unicode="&#xac;" horiz-adv-x="837" 
d="M780 672v-412l-59 4v354h-660l2 54h717z" />
    <glyph glyph-name="uni00AD" unicode="&#xad;" horiz-adv-x="536" 
d="M487 563h-446l8 55h449z" />
    <glyph glyph-name="registered" unicode="&#xae;" horiz-adv-x="1208" 
d="M496 1292v-2q18 -15 18 -47v-223h72q79 0 120.5 35.5t41.5 101.5t-41.5 100.5t-120.5 34.5h-90zM365 1315h213q113 0 182 -43t69 -115q0 -60 -47.5 -104t-136.5 -54v-4q45 -10 88 -63l51 -72q20 -29 28 -39t19 -18t23 -8h8l31 6l2 -17q-82 -16 -88 -16q-26 0 -45 16
t-49 58l-62 84q-29 39 -50 55t-52 16h-35v-155q0 -34 8 -41.5t45 -7.5h11v-17h-220v17h29q37 0 46 8t9 41v407q0 33 -9 41t-46 8h-22v17zM606 1452q-212 0 -360 -124t-148 -302q0 -81 36.5 -158t101 -136.5t161.5 -95.5t209 -36q108 0 203.5 35.5t160.5 94t102.5 136
t37.5 160.5q0 118 -68.5 216t-184.5 154t-251 56zM606 1489q143 0 267 -58t200 -165.5t76 -239.5q0 -133 -77.5 -240.5t-201 -165t-264.5 -57.5q-148 0 -273 61t-198.5 167.5t-73.5 234.5q0 89 41 173.5t111.5 148.5t173.5 102.5t219 38.5z" />
    <glyph glyph-name="macron" unicode="&#xaf;" horiz-adv-x="817" 
d="M729 1182h-651l12 55h649z" />
    <glyph glyph-name="degree" unicode="&#xb0;" horiz-adv-x="518" 
d="M240 1528q-101 0 -101 -146q0 -145 101 -145q100 0 100 145q0 146 -100 146zM240 1563q72 0 137 -56q63 -54 63 -125q0 -73 -63 -127q-64 -55 -137 -55t-136 57q-63 54 -63 125t63 125q62 56 136 56z" />
    <glyph glyph-name="plusminus" unicode="&#xb1;" horiz-adv-x="1017" 
d="M543 854h401l-4 -53h-397v-359l-58 4v355h-407l6 53h401v373l58 -4v-369zM926 236h-840l8 55h842z" />
    <glyph glyph-name="two.sups" unicode="&#xb2;" horiz-adv-x="849" 
d="M162 1466h-43v213q14 0 22 4q49 35 119.5 55.5t138.5 20.5q157 0 253 -68t96 -178q0 -63 -60 -151t-153 -162l-304 -242q-8 -7 -31.5 -17.5t-31.5 -12.5l6 -13q30 5 98 5h373q62 0 93.5 25t35.5 81l10 102l23 -2l-27 -303h-702v88q64 7 145 86l242 240q69 69 117.5 149
t48.5 142q0 94 -58.5 145t-166.5 51q-107 0 -168 -53t-76 -129v-76z" />
    <glyph glyph-name="three.sups" unicode="&#xb3;" horiz-adv-x="851" 
d="M375 797q-78 2 -161.5 27.5t-143.5 74.5v217h39v-90q22 -83 87.5 -139t178.5 -56q130 0 200 64.5t70 181.5q0 125 -63 194.5t-181 69.5h-139v21h113q103 0 159 50.5t56 139.5q0 82 -54.5 127t-158.5 45q-59 0 -100 -14.5t-64 -44t-33.5 -56t-19.5 -67.5v-43h-39v248h20
v-29q0 -22 -2 -30l4 -2q19 19 41 30q91 43 191 43q145 0 233 -55.5t88 -147.5q0 -74 -60.5 -130t-146.5 -70v-2q126 -13 204.5 -90.5t78.5 -186.5q0 -126 -109 -203t-288 -77z" />
    <glyph glyph-name="acute" unicode="&#xb4;" horiz-adv-x="399" 
d="M313 1417l35 -26q12 -7 12 -21q0 -4 -8 -16l-30 -31l-238 -172l-33 25l219 239q10 10 23 10q8 0 20 -8z" />
    <glyph glyph-name="uni00B5" unicode="&#xb5;" horiz-adv-x="1372" 
d="M1346 37l-3 -19q-157 -6 -305 -36v16q11 113 11 117v32q0 27 -2.5 127.5t-2.5 118.5v8h-16q-17 -107 -59.5 -189t-103.5 -131t-132.5 -73t-152.5 -24q-117 0 -205.5 39t-132.5 112l-11 -4q9 -27 9 -47v-272q0 -60 61 -60q41 0 68.5 -26.5t27.5 -63.5t-29.5 -63.5
t-70.5 -26.5q-40 0 -69 26.5t-29 63.5v1671q0 62 -66 62h-106v18h129q51 0 95 9t77.5 35t33.5 65v8h19v-1219q0 -139 60 -215t161 -76q180 0 292 144.5t112 378.5v803q0 73 -20.5 90.5t-102.5 17.5h-37v19l348 8v-17q-8 -82 -8 -108v-1211q0 -73 19.5 -90.5t101.5 -17.5h39z
" />
    <glyph glyph-name="paragraph" unicode="&#xb6;" horiz-adv-x="1157" 
d="M801 -389v1692q0 86 -19.5 106.5t-101.5 20.5q-81 0 -100 -20t-19 -107v-1692h-321v18q57 0 85.5 3.5t47 18.5t22.5 37.5t4 69.5v1145h-47q-129 0 -220 83t-91 200q0 118 91 201t220 83h768v-18q-59 0 -87 -3t-46.5 -18t-22 -37t-3.5 -69v-1567q0 -31 1.5 -49.5t8 -34.5
t15.5 -23.5t28.5 -13t43 -7t62.5 -1.5v-18h-319zM399 1434h-47q-112 0 -191 -72.5t-79 -175.5q0 -102 79 -174t191 -72h47v494z" />
    <glyph glyph-name="periodcentered" unicode="&#xb7;" horiz-adv-x="440" 
d="M221 563q43 0 70.5 -25t27.5 -67q0 -41 -26 -65.5t-72 -24.5q-45 0 -73.5 24t-28.5 66q0 40 27.5 66t74.5 26z" />
    <glyph glyph-name="cedilla" unicode="&#xb8;" horiz-adv-x="837" 
d="M367 2l-29 -129q35 14 76 14q90 0 142 -45t52 -110q0 -84 -103 -140.5t-253 -56.5l8 37q100 0 170 51.5t70 128.5q0 43 -24 72t-64 29q-64 0 -95 -25l-28 4l37 172z" />
    <glyph glyph-name="one.sups" unicode="&#xb9;" horiz-adv-x="471" 
d="M41 823v21h47q65 0 80.5 13.5t15.5 70.5v592q0 59 4 77l-8 2q-10 -14 -43 -40l-69 -60l-17 12q67 61 121 122.5t77 94.5t23 39h31v-839q0 -57 15.5 -70.5t80.5 -13.5h33v-21h-391z" />
    <glyph glyph-name="ordmasculine" unicode="&#xba;" horiz-adv-x="970" 
d="M893 1137q0 -183 -112 -295.5t-294 -112.5q-184 0 -296.5 112.5t-112.5 295.5t112.5 295t296.5 112q182 0 294 -112t112 -295zM492 768q131 0 200 78.5t70 230.5q0 210 -73 321t-210 111q-129 0 -198.5 -80.5t-69.5 -232.5q0 -209 72 -318.5t209 -109.5z" />
    <glyph glyph-name="guillemotright" unicode="&#xbb;" horiz-adv-x="1017" 
d="M567 469l-407 -375l-82 74l258 203q56 48 88 71t55 27v8q-23 4 -55 27t-88 71l-258 201l82 76l407 -377v-6zM940 469l-408 -375l-79 74l256 203q56 48 88.5 71t56.5 27v8q-24 4 -56.5 27t-88.5 71l-256 201l79 76l408 -377v-6z" />
    <glyph glyph-name="onequarter" unicode="&#xbc;" horiz-adv-x="2711" 
d="M573 377l-503 -4v14h110q60 0 75 16t15 80v723q0 50 4 90l-6 4q-24 -32 -43 -47l-112 -118l-15 8l68 78q203 236 203 280h22v-1016q0 -65 14.5 -80.5t75.5 -15.5h92v-12zM1149 297h502v395h129v-395h112v-59h-112v-117q0 -69 18.5 -86t93.5 -17h29v-14h-467v14h82
q77 0 96 17t19 86v117h-547v36q0 1 31 54.5t77 139t98 185.5t103 215t82 207q14 41 14 64q0 35 -71 35v16q129 0 169.5 10t65.5 55l13 -4zM612 20l779 1493l39 -20l-775 -1493z" />
    <glyph glyph-name="onehalf" unicode="&#xbd;" horiz-adv-x="2856" 
d="M713 430h-635v86q16 2 59.5 30.5t77.5 69.5q171 207 262.5 358t91.5 269q0 106 -51 162.5t-149 56.5q-95 0 -150 -56.5t-67 -137.5v-49h-27v254h12v-62q45 36 107.5 57t124.5 21q142 0 228.5 -71.5t86.5 -190.5q0 -73 -39 -156t-111.5 -170t-149.5 -163t-179 -165
q-53 -46 -70 -53l4 -6q42 6 94 6h238q126 0 178 27t58 119l6 43l16 -2zM1149 297h502v395h129v-395h112v-59h-112v-117q0 -69 18.5 -86t93.5 -17h29v-14h-467v14h82q77 0 96 17t19 86v117h-547v36q0 1 31 54.5t77 139t98 185.5t103 215t82 207q14 41 14 64q0 35 -71 35v16
q129 0 169.5 10t65.5 55l13 -4zM612 20l779 1493l39 -20l-775 -1493z" />
    <glyph glyph-name="threequarters" unicode="&#xbe;" horiz-adv-x="3057" 
d="M78 475v193h31v-47q8 -89 75.5 -159.5t177.5 -70.5q129 0 197 73t68 210q0 141 -68.5 231t-181.5 90h-154v27h125q102 0 162.5 68.5t60.5 171.5q0 97 -52.5 148.5t-153.5 51.5q-57 0 -100.5 -19t-68.5 -51t-38.5 -68t-16.5 -75v-49h-28v275h16v-62l4 -2q13 22 35 33
q78 41 194 45q141 0 227.5 -62t86.5 -163q0 -85 -61 -161t-142 -89v-2q122 -15 200.5 -114t78.5 -224q0 -139 -107.5 -224t-282.5 -85q-70 0 -147 28.5t-137 81.5zM1149 297h502v395h129v-395h112v-59h-112v-117q0 -69 18.5 -86t93.5 -17h29v-14h-467v14h82q77 0 96 17
t19 86v117h-547v36q0 1 31 54.5t77 139t98 185.5t103 215t82 207q14 41 14 64q0 35 -71 35v16q129 0 169.5 10t65.5 55l13 -4zM612 20l779 1493l39 -20l-775 -1493z" />
    <glyph glyph-name="questiondown" unicode="&#xbf;" horiz-adv-x="907" 
d="M532 1307q-45 0 -72.5 25t-27.5 67q0 40 26.5 65t73.5 25q44 0 72.5 -24t28.5 -66q0 -38 -30 -65t-71 -27zM795 350h41v-393h-23v80q-58 -43 -138 -67.5t-157 -26.5q-200 0 -323 90t-123 237q0 74 44.5 146.5t107.5 130t126 111.5t107.5 109t44.5 103v183h61v-183
q0 -62 -33 -127.5t-79.5 -121.5t-93.5 -111.5t-80 -118t-33 -121.5q0 -134 69 -203t203 -69q61 0 107.5 15.5t74.5 38.5t48.5 61t30 71.5t18.5 81.5v84z" />
    <glyph glyph-name="Agrave" unicode="&#xc0;" horiz-adv-x="1708" 
d="M985 1550l-264 222l-53 61l26 20q12 9 23 9q14 0 22 -11l267 -284zM18 0v18h35q39 0 66 31.5t59 95.5l633 1328h174v-25q0 -75 21 -119l530 -1184q37 -82 51 -98q25 -29 82 -29h19v-18h-431v18h173v5q-31 10 -70 96l-125 280h-893l-121 -254q-12 -32 -12 -47
q0 -36 29 -58t79 -22h111v-18h-410zM360 436h859l-383 854q-19 39 -19 82h-20q0 -24 -27 -82z" />
    <glyph glyph-name="Aacute" unicode="&#xc1;" horiz-adv-x="1708" 
d="M772 1550l-20 17l266 284q11 11 22 11t23 -9l27 -20l-54 -61zM18 0v18h35q39 0 66 31.5t59 95.5l633 1328h174v-25q0 -75 21 -119l530 -1184q37 -82 51 -98q25 -29 82 -29h19v-18h-431v18h173v5q-31 10 -70 96l-125 280h-893l-121 -254q-12 -32 -12 -47q0 -36 29 -58
t79 -22h111v-18h-410zM360 436h859l-383 854q-19 39 -19 82h-20q0 -24 -27 -82z" />
    <glyph glyph-name="Acircumflex" unicode="&#xc2;" horiz-adv-x="1708" 
d="M909 1862l228 -209l-33 -37l-111 100q-48 45 -80 80t-32 41h-9q0 -7 -31.5 -41t-78.5 -76l-111 -100l-35 37l232 205h61zM14 -4v18h35q39 0 66 31.5t59 95.5l633 1327h174v-24q0 -74 18 -119l533 -1184q4 -8 10 -22q30 -67 50 -86t73 -19h18v-18h-430v18h172v4
q-11 4 -21 13t-20 28t-13.5 26t-14.5 30l-125 280h-893l-121 -254q-12 -24 -12 -47q0 -36 29 -58t79 -22h111v-18h-410zM356 432h858l-383 854q-18 37 -18 82h-20q0 -24 -27 -82z" />
    <glyph glyph-name="Atilde" unicode="&#xc3;" horiz-adv-x="1708" 
d="M1178 1763v2q-23 -82 -58.5 -112.5t-87.5 -30.5q-50 0 -119 37.5t-132 75t-99 37.5q-51 0 -70 -68l-18 -64l-35 9l19 63q22 75 55 103t82 28q39 0 91 -23.5t93.5 -51t88.5 -51t77 -23.5q56 0 78 78l16 61l37 -8zM18 2v18h35q39 0 66 31.5t59 95.5l633 1328h174v-25
q0 -75 21 -119l530 -1184q37 -82 51 -98q25 -29 82 -29h19v-18h-431v18h173v5q-31 10 -70 96l-125 280h-893l-121 -254q-12 -32 -12 -47q0 -36 29 -58t79 -22h111v-18h-410zM360 438h859l-383 854q-19 39 -19 82h-20q0 -24 -27 -82z" />
    <glyph glyph-name="Adieresis" unicode="&#xc4;" horiz-adv-x="1708" 
d="M657 1806q45 0 74 -24t29 -66q0 -40 -28 -65t-75 -25q-44 0 -71 24t-27 66q0 41 26 65.5t72 24.5zM1100 1806q44 0 71 -24t27 -66q0 -41 -26 -65.5t-72 -24.5q-45 0 -74 24t-29 66q0 40 28 65t75 25zM18 0v18h35q39 0 66 31.5t59 95.5l633 1328h174v-25q0 -75 21 -119
l530 -1184q37 -82 51 -98q25 -29 82 -29h19v-18h-431v18h173v5q-31 10 -70 96l-125 280h-893l-121 -254q-12 -32 -12 -47q0 -36 29 -58t79 -22h111v-18h-410zM360 436h859l-383 854q-19 39 -19 82h-20q0 -24 -27 -82z" />
    <glyph glyph-name="Aring" unicode="&#xc5;" horiz-adv-x="1419" 
d="M1151 418l94 -271q27 -73 49.5 -90.5t83.5 -17.5h19v-37h-367v21h125v4q-40 13 -70 92l-102 295l-653 -13l-92 -254q-11 -19 -11 -43q0 -36 28.5 -58.5t78.5 -22.5h182v-21h-500v37h35q87 0 125 108l475 1326q-53 23 -88 67.5t-35 95.5q0 72 62.5 127.5t136.5 55.5
q75 0 138 -55.5t63 -127.5q0 -52 -35 -96t-88 -67v-13q0 -74 22 -131l310 -874zM967 457l-281 792q-14 46 -14 82h-17q0 -23 -22 -82l-287 -792h621zM725 1765q-51 0 -95 -38.5t-44 -88.5q0 -47 44.5 -87t94.5 -40q51 0 95 38.5t44 88.5t-44 88.5t-95 38.5z" />
    <glyph glyph-name="AE" unicode="&#xc6;" horiz-adv-x="2043" 
d="M1038 1448h-161q-57 0 -95 -82l-352 -766h608v848zM840 0l2 18h80q81 0 99.5 17.5t18.5 91.5v436h-626l-191 -418q-12 -32 -12 -47q0 -36 29 -58t79 -22h111v-18h-410v18h37q67 0 123 127l561 1219q15 38 15 53q0 31 -37 31v25h1020q62 0 84 -19h2l-6 94l20 2l39 -555
h-39l-10 144q-9 161 -94 229t-252 68h-318v-2q49 -45 49 -107v-536h91q43 0 74 3.5t65 16.5t55 35.5t35 63.5t14 98v71h21v-657h-21v113q0 57 -14 98t-35 64t-55 36.5t-65 17t-74 3.5h-91v-609q0 -61 -49 -106v-2h449q163 0 243.5 65t92.5 211l12 164h37l-39 -555l-21 2
l7 94h-2q-18 -18 -82 -18h-1022z" />
    <glyph glyph-name="Ccedilla" unicode="&#xc7;" horiz-adv-x="1468" 
d="M78 741h-2q0 222 98 392t276.5 263t411.5 93q240 0 414 -131q11 -11 24 -41l15 4q-6 24 -6 59l-4 150h20l21 -592l-41 -2l-7 197q-9 93 -75.5 167.5t-166 114t-210.5 39.5q-278 0 -424 -174t-146 -506q0 -367 152.5 -560.5t441.5 -193.5q163 0 303 76t199 203l39 -14
q-64 -147 -210 -224t-331 -77l-24 -111q32 14 76 14q89 0 140.5 -45t51.5 -110q0 -84 -102 -140.5t-252 -56.5l6 37q101 0 171.5 51.5t70.5 128.5q0 42 -24.5 71.5t-63.5 29.5q-64 0 -95 -25l-30 4l34 152q-340 12 -545.5 219t-205.5 538z" />
    <glyph glyph-name="Egrave" unicode="&#xc8;" horiz-adv-x="1243" 
d="M762 1550l-264 222l-54 61l27 20q12 9 23 9q14 0 22 -11l266 -284zM768 422h-20v113q0 57 -14 98t-35 64t-55 36.5t-65.5 17t-74.5 3.5h-90v-609q0 -61 -49 -106v-2h448q164 0 244 64.5t92 211.5l14 164h35l-39 -555l-18 2l6 94h-2q-21 -18 -84 -18h-1020v18h78
q82 0 101.5 17.5t19.5 91.5v1219q0 73 -19.5 90.5t-101.5 17.5h-78v19h899q63 0 82 -19h4l-8 94l20 2l41 -555h-41l-8 144q-10 161 -95 229t-253 68h-317v-2q49 -45 49 -107v-536h90q44 0 75 3.5t65 16.5t55 35.5t35 63.5t14 98v71h20v-657z" />
    <glyph glyph-name="Eacute" unicode="&#xc9;" horiz-adv-x="1243" 
d="M549 1550l-21 17l267 284q11 11 22 11t23 -9l28 -20l-55 -61zM768 422h-20v113q0 57 -14 98t-35 64t-55 36.5t-65.5 17t-74.5 3.5h-90v-609q0 -61 -49 -106v-2h448q164 0 244 64.5t92 211.5l14 164h35l-39 -555l-18 2l6 94h-2q-21 -18 -84 -18h-1020v18h78
q82 0 101.5 17.5t19.5 91.5v1219q0 73 -19.5 90.5t-101.5 17.5h-78v19h899q63 0 82 -19h4l-8 94l20 2l41 -555h-41l-8 144q-10 161 -95 229t-253 68h-317v-2q49 -45 49 -107v-536h90q44 0 75 3.5t65 16.5t55 35.5t35 63.5t14 98v71h20v-657z" />
    <glyph glyph-name="Ecircumflex" unicode="&#xca;" horiz-adv-x="1243" 
d="M686 1862l229 -209l-34 -37l-111 100q-113 105 -113 121h-8q0 -7 -31.5 -41t-78.5 -76l-111 -100l-33 37l230 205h61zM764 418h-21v112q0 71 -19 117t-56 67.5t-75 28.5t-93 7h-90v-609q0 -60 -50 -106v-2h449q164 0 244 64.5t92 211.5l12 164h37l-39 -555l-20 2l8 94h-2
q-21 -18 -84 -18h-1020v18h78q81 0 99.5 17.5t18.5 91.5v1218q0 74 -18.5 91.5t-99.5 17.5h-78v18h899q64 0 82 -18h2l-6 94l20 2l41 -555h-41l-8 144q-10 161 -95 229t-253 68h-318v-2q50 -46 50 -107v-537h90q44 0 75 3.5t65 16.5t55 36t34.5 64t13.5 98v71h21v-657z" />
    <glyph glyph-name="Edieresis" unicode="&#xcb;" horiz-adv-x="1243" 
d="M434 1806q45 0 74 -24t29 -66q0 -40 -28 -65t-75 -25q-44 0 -71 24t-27 66q0 40 26.5 65t71.5 25zM877 1806q45 0 71.5 -24t26.5 -66q0 -41 -26 -65.5t-72 -24.5q-45 0 -74 24t-29 66q0 40 28 65t75 25zM768 422h-20v113q0 57 -14 98t-35 64t-55 36.5t-65.5 17t-74.5 3.5
h-90v-609q0 -61 -49 -106v-2h448q164 0 244 64.5t92 211.5l14 164h35l-39 -555l-18 2l6 94h-2q-21 -18 -84 -18h-1020v18h78q82 0 101.5 17.5t19.5 91.5v1219q0 73 -19.5 90.5t-101.5 17.5h-78v19h899q63 0 82 -19h4l-8 94l20 2l41 -555h-41l-8 144q-10 161 -95 229t-253 68
h-317v-2q49 -45 49 -107v-536h90q44 0 75 3.5t65 16.5t55 35.5t35 63.5t14 98v71h20v-657z" />
    <glyph glyph-name="Igrave" unicode="&#xcc;" horiz-adv-x="653" 
d="M432 1550l-264 222l-53 61l26 20q15 9 23 9q14 0 22 -11l267 -284zM41 0v18h78q82 0 101.5 17t19.5 90v1223q0 73 -19.5 89.5t-101.5 16.5h-78v19h573v-23h-77q-83 0 -103 -17t-20 -90v-1218q0 -73 20 -90t103 -17h77v-18h-573z" />
    <glyph glyph-name="Iacute" unicode="&#xcd;" horiz-adv-x="653" 
d="M221 1550l-20 17l266 284q8 11 22 11q8 0 23 -9l27 -20l-54 -61zM41 0v18h78q82 0 101.5 17t19.5 90v1223q0 73 -19.5 89.5t-101.5 16.5h-78v19h573v-23h-77q-83 0 -103 -17t-20 -90v-1218q0 -73 20 -90t103 -17h77v-18h-573z" />
    <glyph glyph-name="Icircumflex" unicode="&#xce;" horiz-adv-x="653" 
d="M358 1862l228 -209l-35 -37l-109 100q-48 45 -80 80t-32 41h-11q0 -7 -31.5 -41t-78.5 -76l-111 -100l-32 37l229 205h63zM37 -4v18h78q82 0 100 16.5t18 90.5v1222q0 74 -18 90.5t-100 16.5h-78v18h573v-22h-78q-82 0 -102 -17t-20 -90v-1218q0 -73 20 -90t102 -17h78
v-18h-573z" />
    <glyph glyph-name="Idieresis" unicode="&#xcf;" horiz-adv-x="653" 
d="M106 1806q44 0 72.5 -24t28.5 -66q0 -40 -28 -65t-73 -25t-72.5 24t-27.5 66q0 40 26.5 65t73.5 25zM547 1806q45 0 72.5 -24t27.5 -66q0 -40 -26.5 -65t-73.5 -25q-44 0 -72.5 24t-28.5 66q0 40 28 65t73 25zM41 0v18h78q82 0 101.5 17t19.5 90v1223q0 73 -19.5 89.5
t-101.5 16.5h-78v19h573v-23h-77q-83 0 -103 -17t-20 -90v-1218q0 -73 20 -90t103 -17h77v-18h-573z" />
    <glyph glyph-name="Eth" unicode="&#xd0;" horiz-adv-x="1628" 
d="M815 776l-10 -61h-391v-580q0 -62 -37 -96v-2h237q365 0 556.5 179.5t191.5 520.5t-191.5 520t-556.5 179h-237v-2q37 -34 37 -97v-561h401zM41 0v18h78q82 0 101.5 17.5t19.5 91.5v588h-162l12 61h150v551q0 77 -21 102t-100 25h-78v19h635q261 0 461 -92t309.5 -259
t109.5 -385q0 -219 -109.5 -386.5t-309.5 -259t-461 -91.5h-635z" />
    <glyph glyph-name="Ntilde" unicode="&#xd1;" horiz-adv-x="1310" 
d="M942 1767v2q-25 -82 -60 -112.5t-87 -30.5q-50 0 -119 37.5t-131.5 75t-98.5 37.5q-52 0 -69 -68l-19 -63l-36 8l18 63q23 74 56.5 102.5t80.5 28.5q39 0 91 -23.5t94.5 -51t89.5 -51t77 -23.5q57 0 76 78l19 61l37 -8zM440 2h-399v18h57q82 0 102.5 18t20.5 91v1219
q0 73 -20.5 90.5t-102.5 17.5h-57v19h344l619 -1033q38 -59 38 -75h15q-2 23 -2 86v874q0 73 -32 101t-114 28h-100v19h463v-19h-35q-82 0 -113.5 -28t-31.5 -101v-1364h-17q0 8 -3 18t-11.5 25.5t-13.5 24.5t-18 30.5t-17 28.5l-699 1153q-45 76 -45 80h-12q4 -23 4 -88
v-1106q0 -74 19.5 -91.5t101.5 -17.5h59v-18z" />
    <glyph glyph-name="Ograve" unicode="&#xd2;" 
d="M1122 1550l-264 222l-53 61l26 20q12 9 23 9q15 0 23 -11l266 -284zM905 -16q-249 0 -438.5 93.5t-293 264.5t-103.5 395q0 338 229.5 545t605.5 207q247 0 436 -93.5t292.5 -264.5t103.5 -394q0 -224 -103.5 -395t-292.5 -264.5t-436 -93.5zM913 20q306 0 466.5 174
t160.5 504q0 367 -165 560.5t-478 193.5q-307 0 -469 -174t-162 -504q0 -367 165.5 -560.5t481.5 -193.5z" />
    <glyph glyph-name="Oacute" unicode="&#xd3;" 
d="M801 1550l-21 17l264 284q11 11 23 11q11 0 23 -9l28 -20l-55 -61zM905 -16q-249 0 -438.5 93.5t-293 264.5t-103.5 395q0 338 229.5 545t605.5 207q247 0 436 -93.5t292.5 -264.5t103.5 -394q0 -224 -103.5 -395t-292.5 -264.5t-436 -93.5zM913 20q306 0 466.5 174
t160.5 504q0 367 -165 560.5t-478 193.5q-307 0 -469 -174t-162 -504q0 -367 165.5 -560.5t481.5 -193.5z" />
    <glyph glyph-name="Ocircumflex" unicode="&#xd4;" 
d="M938 1862l227 -209l-35 -37l-110 100q-113 105 -113 121h-8q0 -6 -32 -40.5t-79 -76.5l-110 -100l-33 37l229 205h64zM901 -20q-249 0 -438.5 93.5t-293 264.5t-103.5 395q0 338 229.5 545t605.5 207q247 0 436 -93.5t292.5 -264.5t103.5 -394q0 -224 -103.5 -395
t-292.5 -264.5t-436 -93.5zM907 16q306 0 467.5 174t161.5 504q0 367 -165 560.5t-478 193.5q-309 0 -470 -174t-161 -504q0 -367 165 -560.5t480 -193.5z" />
    <glyph glyph-name="Otilde" unicode="&#xd5;" 
d="M1204 1763v2q-23 -82 -58 -112.5t-87 -30.5q-50 0 -119 37.5t-132 75t-99 37.5q-51 0 -70 -68l-16 -64l-37 9l18 63q22 75 55 103t82 28q39 0 91 -23.5t94 -51t89 -51t77 -23.5q55 0 77 78l19 61l35 -8zM905 -14q-249 0 -438.5 93.5t-293 264.5t-103.5 395
q0 338 229.5 545t605.5 207q247 0 436 -93.5t292.5 -264.5t103.5 -394q0 -224 -103.5 -395t-292.5 -264.5t-436 -93.5zM913 23q306 0 466.5 173.5t160.5 503.5q0 367 -165 560.5t-478 193.5q-307 0 -469 -174t-162 -504q0 -367 165.5 -560t481.5 -193z" />
    <glyph glyph-name="Odieresis" unicode="&#xd6;" 
d="M684 1806q45 0 73.5 -24t28.5 -66q0 -40 -27.5 -65t-74.5 -25q-44 0 -71 24t-27 66q0 40 26.5 65t71.5 25zM1126 1806q45 0 72 -24t27 -66q0 -41 -26.5 -65.5t-72.5 -24.5q-45 0 -72.5 24t-27.5 66q0 40 26.5 65t73.5 25zM905 -16q-249 0 -438.5 93.5t-293 264.5
t-103.5 395q0 338 229.5 545t605.5 207q247 0 436 -93.5t292.5 -264.5t103.5 -394q0 -224 -103.5 -395t-292.5 -264.5t-436 -93.5zM913 20q306 0 466.5 174t160.5 504q0 367 -165 560.5t-478 193.5q-307 0 -469 -174t-162 -504q0 -367 165.5 -560.5t481.5 -193.5z" />
    <glyph glyph-name="multiply" unicode="&#xd7;" horiz-adv-x="845" 
d="M473 600l289 -256l-60 -49l-280 258l-279 -258l-53 53l279 252l-291 260l61 49l283 -262l291 268l53 -53z" />
    <glyph glyph-name="Oslash" unicode="&#xd8;" 
d="M250 -98l-47 35l166 202q-143 100 -221 254t-78 346q0 338 229.5 545t605.5 207q281 0 484 -121l167 203l50 -33l-166 -203q143 -100 221 -254t78 -346q0 -224 -103.5 -395t-292.5 -264.5t-436 -93.5q-285 0 -487 120zM915 23q306 0 467.5 173.5t161.5 503.5
q0 370 -168 562l-901 -1090q166 -149 440 -149zM434 215l903 1090q-158 149 -436 149q-307 0 -469 -174t-162 -504q0 -370 164 -561z" />
    <glyph glyph-name="Ugrave" unicode="&#xd9;" horiz-adv-x="1306" 
d="M817 1550l-262 222l-55 61l26 20q15 9 23 9q14 0 22 -11l267 -284zM41 1473h573v-19h-98q-82 0 -100.5 -17t-18.5 -91v-1084q0 -118 69.5 -180t203.5 -62q180 0 275 81t95 235v973q0 78 -25.5 111.5t-101.5 33.5h-84v19h439v-19h-58q-78 0 -103.5 -33t-25.5 -112v-973
q0 -172 -105 -262t-306 -90t-325 97t-124 255v1010q0 73 -20.5 90.5t-102.5 17.5h-57v19z" />
    <glyph glyph-name="Uacute" unicode="&#xda;" horiz-adv-x="1306" 
d="M606 1550l-20 17l266 284q8 11 22 11q8 0 23 -9l27 -20l-54 -61zM41 1473h573v-19h-98q-82 0 -100.5 -17t-18.5 -91v-1084q0 -118 69.5 -180t203.5 -62q180 0 275 81t95 235v973q0 78 -25.5 111.5t-101.5 33.5h-84v19h439v-19h-58q-78 0 -103.5 -33t-25.5 -112v-973
q0 -172 -105 -262t-306 -90t-325 97t-124 255v1010q0 73 -20.5 90.5t-102.5 17.5h-57v19z" />
    <glyph glyph-name="Ucircumflex" unicode="&#xdb;" horiz-adv-x="1306" 
d="M743 1862l228 -209l-33 -37l-111 100q-48 45 -80 80t-32 41h-10q0 -6 -32 -40.5t-79 -76.5l-109 -100l-34 37l229 205h63zM37 1468h573v-18h-98q-82 0 -101.5 -17.5t-19.5 -91.5v-1083q0 -118 70.5 -180t202.5 -62q181 0 276.5 81t95.5 235v973q0 79 -25.5 112t-103.5 33
h-82v18h439v-18h-60q-76 0 -101.5 -33.5t-25.5 -111.5v-973q0 -172 -106 -262t-307 -90q-200 0 -323.5 97t-123.5 255v1009q0 73 -20.5 91t-102.5 18h-57v18z" />
    <glyph glyph-name="Udieresis" unicode="&#xdc;" horiz-adv-x="1306" 
d="M492 1806q44 0 72 -24t28 -66q0 -40 -26.5 -65t-73.5 -25q-45 0 -73 24t-28 66q0 40 27 65t74 25zM932 1806q45 0 72.5 -24t27.5 -66q0 -40 -26.5 -65t-73.5 -25q-44 0 -72.5 24t-28.5 66q0 40 28 65t73 25zM41 1473h573v-19h-98q-82 0 -100.5 -17t-18.5 -91v-1084
q0 -118 69.5 -180t203.5 -62q180 0 275 81t95 235v973q0 78 -25.5 111.5t-101.5 33.5h-84v19h439v-19h-58q-78 0 -103.5 -33t-25.5 -112v-973q0 -172 -105 -262t-306 -90t-325 97t-124 255v1010q0 73 -20.5 90.5t-102.5 17.5h-57v19z" />
    <glyph glyph-name="Yacute" unicode="&#xdd;" horiz-adv-x="1294" 
d="M569 1554l-20 17l266 284q11 11 23 11q11 0 22 -8l27 -21l-53 -61zM260 0v18h193q81 0 99.5 17.5t18.5 91.5v569l-352 619q-9 15 -24 42.5t-21 37t-18.5 26t-23 22t-26.5 10.5t-36 5h-47v17h426v-17h-140v-4q28 -9 82 -99q7 -10 10 -16l291 -503q26 -46 29 -66h16
q2 12 29 66l270 475q33 54 33 88q0 57 -96 57h-135v17h434v-17h-37q-49 0 -75.5 -28.5t-76.5 -116.5l-333 -586v-600q0 -74 19.5 -91.5t100.5 -17.5h166v-16h-776z" />
    <glyph glyph-name="Thorn" unicode="&#xde;" horiz-adv-x="1210" 
d="M41 0v18h78q82 0 101.5 17.5t19.5 91.5v1221q0 73 -19.5 89.5t-101.5 16.5h-78v19h573v-23h-77q-83 0 -103 -17t-20 -90v-55h172q255 0 410 -118t155 -312q0 -192 -155 -310t-410 -118h-172v-303q0 -73 20.5 -91t102.5 -18h55v-18h-551zM414 467h104q213 0 324.5 100
t111.5 291t-111.5 291t-324.5 100h-104v-782z" />
    <glyph glyph-name="germandbls" unicode="&#xdf;" horiz-adv-x="1232" 
d="M657 829q0 -40 29 -79.5t75.5 -75t102 -72t111.5 -76.5t102.5 -82.5t75.5 -96.5t29 -111q0 -123 -89 -187.5t-257 -64.5q-83 0 -153.5 22t-113.5 55q-18 18 -20 25l-6 -2q2 -8 2 -25v-96h-23v506h43v-184q0 -109 74.5 -187t196.5 -78q83 0 132.5 44.5t49.5 117.5
q0 48 -23.5 95.5t-61 88t-83 81.5t-91 83.5t-83 87t-61 99.5t-23.5 114q0 50 22 93.5t54 76.5t63.5 65.5t53.5 73t22 85.5q0 103 -65 165t-171 62q-95 0 -144.5 -53.5t-49.5 -155.5v-1128q0 -27 8 -109v-14l-344 8v18h37q82 0 102.5 18t20.5 91v799h-142v20h142v234
q0 76 33.5 137.5t88.5 97.5t119 55t131 19q152 0 247 -70t95 -196q0 -52 -26.5 -96.5t-64.5 -77.5t-76 -64.5t-64.5 -71.5t-26.5 -84z" />
    <glyph glyph-name="agrave" unicode="&#xe0;" horiz-adv-x="1214" 
d="M686 1550l-262 222l-55 61l28 20q12 9 23 9t22 -11l265 -284zM836 745v439q0 132 -68 200t-199 68q-162 0 -252 -76.5t-96 -201.5l-6 -127h-41l25 483h22l-6 -109q-8 -58 -10 -65l16 -4q2 6 14 23t21 24q134 90 311 90q218 0 333.5 -85.5t115.5 -246.5v-1012
q0 -65 12.5 -84.5t61.5 -19.5q7 0 22 1t23 1l39 2l2 -18q-135 -12 -250 -45v16q0 50 -21 168t-22 149h-23q-48 -174 -147 -252.5t-232 -78.5q-184 0 -304 93t-120 242q0 192 165.5 309t436.5 117h177zM836 709h-164q-189 0 -304.5 -107.5t-115.5 -282.5q0 -126 71 -203
t187 -77q61 0 118 26t104 75.5t75.5 133t28.5 189.5v246z" />
    <glyph glyph-name="aacute" unicode="&#xe1;" horiz-adv-x="1214" 
d="M475 1550l-20 17l266 284q8 11 22 11q11 0 23 -9l27 -20l-54 -61zM836 745v439q0 132 -68 200t-199 68q-162 0 -252 -76.5t-96 -201.5l-6 -127h-41l25 483h22l-6 -109q-8 -58 -10 -65l16 -4q2 6 14 23t21 24q134 90 311 90q218 0 333.5 -85.5t115.5 -246.5v-1012
q0 -65 12.5 -84.5t61.5 -19.5q7 0 22 1t23 1l39 2l2 -18q-135 -12 -250 -45v16q0 50 -21 168t-22 149h-23q-48 -174 -147 -252.5t-232 -78.5q-184 0 -304 93t-120 242q0 192 165.5 309t436.5 117h177zM836 709h-164q-189 0 -304.5 -107.5t-115.5 -282.5q0 -126 71 -203
t187 -77q61 0 118 26t104 75.5t75.5 133t28.5 189.5v246z" />
    <glyph glyph-name="acircumflex" unicode="&#xe2;" horiz-adv-x="1214" 
d="M612 1862l228 -209l-33 -37l-111 100q-48 45 -80 80t-32 41h-11q0 -6 -31 -40t-77 -77l-111 -100l-35 37l230 205h63zM831 741v439q0 132 -67.5 200t-198.5 68q-162 0 -252 -77t-96 -202l-8 -127h-41l27 484h22l-8 -109q-3 -49 -8 -65l16 -4q2 6 14 23t21 24
q134 90 311 90q218 0 333.5 -85.5t115.5 -246.5v-1012q0 -65 12 -84.5t61 -19.5q7 0 21 1t24 1l39 2l2 -18q-129 -12 -249 -46v17q0 50 -21 168t-22 149h-23q-48 -174 -147.5 -252.5t-231.5 -78.5q-185 0 -305.5 93t-120.5 242q0 192 166 309t438 117h176zM831 705h-163
q-190 0 -305 -107.5t-115 -282.5q0 -126 71 -203t185 -77q61 0 118 26t104.5 75.5t76 133t28.5 189.5v246z" />
    <glyph glyph-name="atilde" unicode="&#xe3;" horiz-adv-x="1214" 
d="M881 1763v2q-23 -82 -59 -112.5t-87 -30.5t-120 37.5t-131.5 75t-98.5 37.5q-51 0 -70 -68l-18 -64l-35 9l17 63q23 75 56.5 103t82.5 28q39 0 91 -23.5t93.5 -51t88.5 -51t77 -23.5q56 0 78 78l16 61l37 -8zM836 748v438q0 132 -68 200t-199 68q-162 0 -252 -76.5
t-96 -201.5l-6 -127h-41l25 483h22l-6 -109q-8 -58 -10 -65l16 -4q2 6 14 23t21 24q134 90 311 90q218 0 333.5 -85.5t115.5 -246.5v-1012q0 -65 12.5 -84.5t61.5 -19.5q7 0 22 1t23 1l39 2l2 -18q-135 -12 -250 -45v16q0 50 -21 168t-22 149h-23q-48 -174 -147 -252.5
t-232 -78.5q-184 0 -304 93.5t-120 242.5q0 192 165.5 309t436.5 117h177zM836 711h-164q-189 0 -304.5 -107t-115.5 -282q0 -126 71 -203.5t187 -77.5q61 0 118 26t104 75.5t75.5 133t28.5 189.5v246z" />
    <glyph glyph-name="adieresis" unicode="&#xe4;" horiz-adv-x="1214" 
d="M360 1806q45 0 74 -24t29 -66q0 -40 -28 -65t-75 -25q-45 0 -71.5 24t-26.5 66q0 41 26 65.5t72 24.5zM803 1806q44 0 71 -24t27 -66q0 -40 -26.5 -65t-71.5 -25t-74 24t-29 66q0 40 28 65t75 25zM836 745v439q0 132 -68 200t-199 68q-162 0 -252 -76.5t-96 -201.5
l-6 -127h-41l25 483h22l-6 -109q-8 -58 -10 -65l16 -4q2 6 14 23t21 24q134 90 311 90q218 0 333.5 -85.5t115.5 -246.5v-1012q0 -65 12.5 -84.5t61.5 -19.5q7 0 22 1t23 1l39 2l2 -18q-135 -12 -250 -45v16q0 50 -21 168t-22 149h-23q-48 -174 -147 -252.5t-232 -78.5
q-184 0 -304 93t-120 242q0 192 165.5 309t436.5 117h177zM836 709h-164q-189 0 -304.5 -107.5t-115.5 -282.5q0 -126 71 -203t187 -77q61 0 118 26t104 75.5t75.5 133t28.5 189.5v246z" />
    <glyph glyph-name="aring" unicode="&#xe5;" horiz-adv-x="1214" 
d="M582 1843q-51 0 -95.5 -38.5t-44.5 -88.5q0 -47 45 -87t95 -40q51 0 95 38.5t44 88.5t-44 88.5t-95 38.5zM582 1898q74 0 137 -55t63 -127t-63 -127t-137 -55q-75 0 -137 56t-62 126q0 72 62.5 127t136.5 55zM836 745v439q0 132 -68 200t-199 68q-162 0 -252 -76.5
t-96 -201.5l-6 -127h-41l25 483h22l-6 -109q-8 -58 -10 -65l16 -4q2 6 14 23t21 24q134 90 311 90q218 0 333.5 -85.5t115.5 -246.5v-1012q0 -65 12.5 -84.5t61.5 -19.5q7 0 22 1t23 1l39 2l2 -18q-135 -12 -250 -45v16q0 50 -21 168t-22 149h-23q-48 -174 -147 -252.5
t-232 -78.5q-184 0 -304 93t-120 242q0 192 165.5 309t436.5 117h177zM836 709h-164q-189 0 -304.5 -107.5t-115.5 -282.5q0 -126 71 -203t187 -77q61 0 118 26t104 75.5t75.5 133t28.5 189.5v246z" />
    <glyph glyph-name="ae" unicode="&#xe6;" horiz-adv-x="2461" 
d="M836 836l4 350q0 132 -68 201t-199 69q-160 0 -251 -77.5t-97 -202.5l-6 -127h-41l25 483h22l-6 -109q-3 -50 -10 -65l16 -4q2 7 14 23.5t23 23.5q134 90 309 90q193 0 307 -69t134 -199q109 128 277.5 197t381.5 69q197 0 360.5 -76.5t262 -219.5t98.5 -325v-10
q0 -25 -20.5 -42t-49.5 -17h-1282v-25q0 -361 170 -557.5t463 -196.5q225 0 398 83.5t272 234.5l31 -23q-105 -158 -289 -244.5t-422 -86.5q-276 0 -481.5 128.5t-290.5 350.5h-14q0 -209 -109.5 -344t-286.5 -135q-190 0 -307 103.5t-117 272.5q0 213 165.5 344.5
t436.5 131.5h177zM1042 838l1135 14q16 0 16 18q0 263 -144.5 423.5t-383.5 160.5q-289 0 -448.5 -157.5t-174.5 -458.5zM840 801h-164q-188 0 -304 -121.5t-116 -317.5q0 -145 71 -233t187 -88q61 0 118 26t104 75.5t75.5 133t28.5 189.5v336z" />
    <glyph glyph-name="ccedilla" unicode="&#xe7;" horiz-adv-x="1468" 
d="M78 741h-2q0 222 98 392t276.5 263t411.5 93q240 0 414 -131q11 -11 24 -41l15 4q-6 24 -6 59l-4 150h20l21 -592l-41 -2l-7 197q-9 93 -75.5 167.5t-166 114t-210.5 39.5q-278 0 -424 -174t-146 -506q0 -367 152.5 -560.5t441.5 -193.5q163 0 303 76t199 203l39 -14
q-64 -147 -210 -224t-331 -77l-24 -111q32 14 76 14q89 0 140.5 -45t51.5 -110q0 -84 -102 -140.5t-252 -56.5l6 37q101 0 171.5 51.5t70.5 128.5q0 42 -24.5 71.5t-63.5 29.5q-64 0 -95 -25l-30 4l34 152q-340 12 -545.5 219t-205.5 538z" />
    <glyph glyph-name="egrave" unicode="&#xe8;" horiz-adv-x="1695" 
d="M1552 799h-1278v-25q0 -361 170 -557.5t463 -196.5q225 0 398 83.5t272 234.5l31 -23q-105 -158 -289 -244.5t-422 -86.5q-235 0 -423 93.5t-296 267t-108 396.5q0 222 103.5 392t292 263t435.5 93q196 0 359.5 -76.5t262.5 -219.5t99 -325v-10q0 -25 -20.5 -42
t-49.5 -17zM276 836l1135 14q16 0 16 18q0 263 -145 423.5t-383 160.5q-289 0 -448.5 -157.5t-174.5 -458.5zM975 1554l-262 222l-56 61l27 21q13 8 23 8q14 0 22 -11l266 -284z" />
    <glyph glyph-name="eacute" unicode="&#xe9;" horiz-adv-x="1695" 
d="M1552 799h-1278v-25q0 -361 170 -557.5t463 -196.5q225 0 398 83.5t272 234.5l31 -23q-105 -158 -289 -244.5t-422 -86.5q-235 0 -423 93.5t-296 267t-108 396.5q0 222 103.5 392t292 263t435.5 93q196 0 359.5 -76.5t262.5 -219.5t99 -325v-10q0 -25 -20.5 -42
t-49.5 -17zM276 836l1135 14q16 0 16 18q0 263 -145 423.5t-383 160.5q-289 0 -448.5 -157.5t-174.5 -458.5zM764 1554l-21 17l267 284q8 11 22 11q10 0 23 -8l26 -21l-53 -61z" />
    <glyph glyph-name="ecircumflex" unicode="&#xea;" horiz-adv-x="1695" 
d="M1548 795h-1278v-25q0 -361 170 -557.5t463 -196.5q223 0 397 83.5t273 234.5l31 -23q-105 -158 -289 -244.5t-422 -86.5q-235 0 -423 93.5t-296 267t-108 396.5q0 222 103.5 392t292 263t435.5 93q196 0 359.5 -76.5t262.5 -219.5t99 -325v-10q0 -24 -21 -41.5
t-49 -17.5zM272 831l1133 15q18 0 18 18q0 263 -145 423.5t-383 160.5q-289 0 -448.5 -158t-174.5 -459zM901 1866l227 -209l-32 -37l-111 100q-113 105 -113 121h-10q0 -7 -31.5 -41t-78.5 -76l-111 -100l-33 37l230 205h63z" />
    <glyph glyph-name="edieresis" unicode="&#xeb;" horiz-adv-x="1695" 
d="M1552 799h-1278v-25q0 -361 170 -557.5t463 -196.5q225 0 398 83.5t272 234.5l31 -23q-105 -158 -289 -244.5t-422 -86.5q-235 0 -423 93.5t-296 267t-108 396.5q0 222 103.5 392t292 263t435.5 93q196 0 359.5 -76.5t262.5 -219.5t99 -325v-10q0 -25 -20.5 -42
t-49.5 -17zM276 836l1135 14q16 0 16 18q0 263 -145 423.5t-383 160.5q-289 0 -448.5 -157.5t-174.5 -458.5zM649 1810q44 0 72.5 -24t28.5 -66q0 -40 -27 -65t-74 -25q-45 0 -72.5 24t-27.5 66q0 40 26.5 65t73.5 25zM1090 1810q45 0 72.5 -24t27.5 -66q0 -40 -26.5 -65
t-73.5 -25q-44 0 -72.5 24t-28.5 66q0 40 28 65t73 25z" />
    <glyph glyph-name="igrave" unicode="&#xec;" horiz-adv-x="653" 
d="M432 1550l-264 222l-53 61l26 20q15 9 23 9q14 0 22 -11l267 -284zM41 1454v19h573v-23h-77q-83 0 -103 -17t-20 -90v-1218q0 -73 20 -90t103 -17h77v-18h-573v18h78q82 0 101.5 17t19.5 90v1223q0 73 -19.5 89.5t-101.5 16.5h-78z" />
    <glyph glyph-name="iacute" unicode="&#xed;" horiz-adv-x="653" 
d="M221 1550l-20 17l266 284q8 11 22 11q8 0 23 -9l27 -20l-54 -61zM41 1454v19h573v-23h-77q-83 0 -103 -17t-20 -90v-1218q0 -73 20 -90t103 -17h77v-18h-573v18h78q82 0 101.5 17t19.5 90v1223q0 73 -19.5 89.5t-101.5 16.5h-78z" />
    <glyph glyph-name="icircumflex" unicode="&#xee;" horiz-adv-x="653" 
d="M358 1862l228 -209l-35 -37l-109 100q-48 45 -80 80t-32 41h-11q0 -7 -31.5 -41t-78.5 -76l-111 -100l-32 37l229 205h63zM37 1450v18h573v-22h-78q-82 0 -102 -17t-20 -90v-1218q0 -73 20 -90t102 -17h78v-18h-573v18h78q82 0 100 16.5t18 90.5v1222q0 74 -18 90.5
t-100 16.5h-78z" />
    <glyph glyph-name="idieresis" unicode="&#xef;" horiz-adv-x="653" 
d="M106 1806q44 0 72.5 -24t28.5 -66q0 -40 -28 -65t-73 -25t-72.5 24t-27.5 66q0 40 26.5 65t73.5 25zM547 1806q45 0 72.5 -24t27.5 -66q0 -40 -26.5 -65t-73.5 -25q-44 0 -72.5 24t-28.5 66q0 40 28 65t73 25zM41 1454v19h573v-23h-77q-83 0 -103 -17t-20 -90v-1218
q0 -73 20 -90t103 -17h77v-18h-573v18h78q82 0 101.5 17t19.5 90v1223q0 73 -19.5 89.5t-101.5 16.5h-78z" />
    <glyph glyph-name="eth" unicode="&#xf0;" horiz-adv-x="1628" 
d="M815 776l-10 -61h-391v-580q0 -62 -37 -96v-2h237q365 0 556.5 179.5t191.5 520.5t-191.5 520t-556.5 179h-237v-2q37 -34 37 -97v-561h401zM41 0v18h78q82 0 101.5 17.5t19.5 91.5v588h-162l12 61h150v551q0 77 -21 102t-100 25h-78v19h635q261 0 461 -92t309.5 -259
t109.5 -385q0 -219 -109.5 -386.5t-309.5 -259t-461 -91.5h-635z" />
    <glyph glyph-name="ntilde" unicode="&#xf1;" horiz-adv-x="1435" 
d="M41 2l-2 18h78q82 0 101.5 17.5t19.5 91.5v1167q0 28 -21.5 47t-54.5 19h-6l-133 -10l-3 12l175 33q72 13 118.5 51t46.5 98v8h19v-268q0 -179 -4 -215h14q11 68 37 133q50 131 161.5 209t250.5 78q180 0 279.5 -83.5t99.5 -225.5v-1053q0 -74 18.5 -91.5t99.5 -17.5h82
v-18h-575v18h219v5q-13 11 -17 20.5t-4 32.5v1069q0 155 -52.5 232t-168.5 77q-174 0 -289.5 -139.5t-115.5 -360.5v-827q0 -73 20.5 -91t102.5 -18h77v-18h-573zM1012 1763v2q-25 -82 -60.5 -112.5t-87.5 -30.5q-50 0 -118.5 37.5t-131 75t-98.5 37.5q-53 0 -70 -68
l-18 -64l-37 9l19 63q23 74 56.5 102.5t80.5 28.5q39 0 91 -23.5t94.5 -51t89.5 -51t77 -23.5q57 0 76 78l18 61l37 -8z" />
    <glyph glyph-name="ograve" unicode="&#xf2;" 
d="M1012 1554l-264 222l-54 61l27 21q11 8 22 8q15 0 23 -11l266 -284zM905 -16q-249 0 -438.5 93.5t-293 264.5t-103.5 395q0 338 229.5 545t605.5 207q247 0 436 -93.5t292.5 -264.5t103.5 -394q0 -224 -103.5 -395t-292.5 -264.5t-436 -93.5zM913 20q306 0 466.5 174
t160.5 504q0 367 -165 560.5t-478 193.5q-307 0 -469 -174t-162 -504q0 -367 165.5 -560.5t481.5 -193.5z" />
    <glyph glyph-name="oacute" unicode="&#xf3;" 
d="M801 1554l-21 17l264 284q11 11 23 11t23 -8l28 -21l-55 -61zM905 -16q-249 0 -438.5 93.5t-293 264.5t-103.5 395q0 338 229.5 545t605.5 207q247 0 436 -93.5t292.5 -264.5t103.5 -394q0 -224 -103.5 -395t-292.5 -264.5t-436 -93.5zM913 20q306 0 466.5 174t160.5 504
q0 367 -165 560.5t-478 193.5q-307 0 -469 -174t-162 -504q0 -367 165.5 -560.5t481.5 -193.5z" />
    <glyph glyph-name="ocircumflex" unicode="&#xf4;" 
d="M938 1866l227 -209l-35 -37l-110 100q-113 105 -113 121h-8q0 -6 -32 -40.5t-79 -76.5l-110 -100l-33 37l229 205h64zM901 -20q-249 0 -438.5 93.5t-293 264.5t-103.5 395q0 338 229.5 545t605.5 207q247 0 436 -93.5t292.5 -264.5t103.5 -394q0 -224 -103.5 -395
t-292.5 -264.5t-436 -93.5zM907 16q306 0 467.5 174t161.5 504q0 367 -165 560.5t-478 193.5q-309 0 -470 -174t-161 -504q0 -367 165 -560.5t480 -193.5z" />
    <glyph glyph-name="otilde" unicode="&#xf5;" 
d="M1204 1767v2q-23 -82 -58 -112.5t-87 -30.5q-50 0 -119 37.5t-132 75t-99 37.5q-51 0 -70 -68l-16 -63l-37 8l18 63q22 75 55 103t82 28q39 0 91 -23.5t94 -51t89 -51t77 -23.5q55 0 77 78l19 61l35 -8zM905 -14q-249 0 -438.5 93.5t-293 264.5t-103.5 395
q0 338 229.5 545t605.5 207q247 0 436 -93.5t292.5 -264.5t103.5 -394q0 -224 -103.5 -395t-292.5 -264.5t-436 -93.5zM913 23q306 0 466.5 173.5t160.5 503.5q0 367 -165 560.5t-478 193.5q-307 0 -469 -174t-162 -504q0 -367 165.5 -560t481.5 -193z" />
    <glyph glyph-name="odieresis" unicode="&#xf6;" 
d="M684 1810q45 0 73.5 -24t28.5 -66q0 -40 -27.5 -65t-74.5 -25q-44 0 -71 24t-27 66q0 40 26.5 65t71.5 25zM1126 1810q45 0 72 -24t27 -66q0 -41 -26.5 -65.5t-72.5 -24.5q-45 0 -72.5 24t-27.5 66q0 40 26.5 65t73.5 25zM905 -16q-249 0 -438.5 93.5t-293 264.5
t-103.5 395q0 338 229.5 545t605.5 207q247 0 436 -93.5t292.5 -264.5t103.5 -394q0 -224 -103.5 -395t-292.5 -264.5t-436 -93.5zM913 20q306 0 466.5 174t160.5 504q0 367 -165 560.5t-478 193.5q-307 0 -469 -174t-162 -504q0 -367 165.5 -560.5t481.5 -193.5z" />
    <glyph glyph-name="divide" unicode="&#xf7;" horiz-adv-x="1048" 
d="M961 563h-883l10 53h-358v21h1239zM528 391q45 0 74 -25t29 -67q0 -40 -28 -65t-75 -25q-44 0 -71 24t-27 66q0 41 26.5 66.5t71.5 25.5zM631 899q0 -40 -28 -65t-75 -25q-44 0 -71 24t-27 66q0 41 26.5 66.5t71.5 25.5q53 0 80 -30v339h23v-401z" />
    <glyph glyph-name="oslash" unicode="&#xf8;" 
d="M250 -98l-47 35l166 202q-143 100 -221 254t-78 346q0 338 229.5 545t605.5 207q281 0 484 -121l167 203l50 -33l-166 -203q143 -100 221 -254t78 -346q0 -224 -103.5 -395t-292.5 -264.5t-436 -93.5q-285 0 -487 120zM915 23q306 0 467.5 173.5t161.5 503.5
q0 370 -168 562l-901 -1090q166 -149 440 -149zM434 215l903 1090q-158 149 -436 149q-307 0 -469 -174t-162 -504q0 -370 164 -561z" />
    <glyph glyph-name="ugrave" unicode="&#xf9;" horiz-adv-x="1372" 
d="M1346 37l-3 -19q-157 -6 -305 -36v16q11 113 11 117v32q0 27 -2.5 127.5t-2.5 118.5v8h-16q-17 -107 -59.5 -189t-103.5 -131t-132.5 -73t-152.5 -24q-171 0 -276 81t-105 228v1040q0 62 -66 62h-106v18h129q51 0 95 9t77.5 35t33.5 65v8h19v-1219q0 -139 60 -215
t161 -76q180 0 292 144.5t112 378.5v803q0 73 -20.5 90.5t-102.5 17.5h-37v19l348 8v-17q-8 -82 -8 -108v-1211q0 -73 19.5 -90.5t101.5 -17.5h39zM774 1550l-262 222l-55 61l28 20q12 9 23 9q12 0 20 -11l267 -284z" />
    <glyph glyph-name="uacute" unicode="&#xfa;" horiz-adv-x="1372" 
d="M1346 37l-3 -19q-157 -6 -305 -36v16q11 113 11 117v32q0 27 -2.5 127.5t-2.5 118.5v8h-16q-17 -107 -59.5 -189t-103.5 -131t-132.5 -73t-152.5 -24q-171 0 -276 81t-105 228v1040q0 62 -66 62h-106v18h129q51 0 95 9t77.5 35t33.5 65v8h19v-1219q0 -139 60 -215
t161 -76q180 0 292 144.5t112 378.5v803q0 73 -20.5 90.5t-102.5 17.5h-37v19l348 8v-17q-8 -82 -8 -108v-1211q0 -73 19.5 -90.5t101.5 -17.5h39zM563 1550l-20 17l266 284q8 11 22 11q11 0 23 -9l27 -20l-54 -61z" />
    <glyph glyph-name="ucircumflex" unicode="&#xfb;" horiz-adv-x="1372" 
d="M1339 33l-2 -19q-150 -6 -303 -37v17q8 82 8 117v32q0 27 -1 127.5t-1 118.5v8h-18q-34 -210 -156 -313.5t-293 -103.5q-169 0 -273.5 81t-104.5 228v1040q0 62 -66 62h-106v18h129q51 0 95 9t77.5 35t33.5 65v8h19v-1219q0 -139 60 -215t159 -76q181 0 292 144t111 379
v802q0 74 -19.5 91.5t-100.5 17.5h-39v18l350 9v-17q-10 -102 -10 -108v-1211q0 -73 20.5 -90.5t102.5 -17.5h36zM700 1862l228 -209l-33 -37l-111 100q-48 45 -80 80t-32 41h-10q0 -6 -32 -40.5t-79 -76.5l-109 -100l-34 37l229 205h63z" />
    <glyph glyph-name="udieresis" unicode="&#xfc;" horiz-adv-x="1372" 
d="M1346 37l-3 -19q-157 -6 -305 -36v16q11 113 11 117v32q0 27 -2.5 127.5t-2.5 118.5v8h-16q-17 -107 -59.5 -189t-103.5 -131t-132.5 -73t-152.5 -24q-171 0 -276 81t-105 228v1040q0 62 -66 62h-106v18h129q51 0 95 9t77.5 35t33.5 65v8h19v-1219q0 -139 60 -215
t161 -76q180 0 292 144.5t112 378.5v803q0 73 -20.5 90.5t-102.5 17.5h-37v19l348 8v-17q-8 -82 -8 -108v-1211q0 -73 19.5 -90.5t101.5 -17.5h39zM449 1806q45 0 72.5 -24t27.5 -66q0 -40 -26.5 -65t-73.5 -25q-45 0 -73 24t-28 66q0 40 27 65t74 25zM891 1806q44 0 71 -24
t27 -66q0 -40 -26.5 -65t-71.5 -25t-74 24t-29 66q0 40 28 65t75 25z" />
    <glyph glyph-name="yacute" unicode="&#xfd;" horiz-adv-x="1294" 
d="M569 1554l-20 17l266 284q11 11 23 11q11 0 22 -8l27 -21l-53 -61zM260 0v18h193q81 0 99.5 17.5t18.5 91.5v569l-352 619q-9 15 -24 42.5t-21 37t-18.5 26t-23 22t-26.5 10.5t-36 5h-47v17h426v-17h-140v-4q28 -9 82 -99q7 -10 10 -16l291 -503q26 -46 29 -66h16
q2 12 29 66l270 475q33 54 33 88q0 57 -96 57h-135v17h434v-17h-37q-49 0 -75.5 -28.5t-76.5 -116.5l-333 -586v-600q0 -74 19.5 -91.5t100.5 -17.5h166v-16h-776z" />
    <glyph glyph-name="thorn" unicode="&#xfe;" horiz-adv-x="1210" 
d="M41 0v18h78q82 0 101.5 17.5t19.5 91.5v1221q0 73 -19.5 89.5t-101.5 16.5h-78v19h573v-23h-77q-83 0 -103 -17t-20 -90v-55h172q255 0 410 -118t155 -312q0 -192 -155 -310t-410 -118h-172v-303q0 -73 20.5 -91t102.5 -18h55v-18h-551zM414 467h104q213 0 324.5 100
t111.5 291t-111.5 291t-324.5 100h-104v-782z" />
    <glyph glyph-name="ydieresis" unicode="&#xff;" horiz-adv-x="1294" 
d="M455 1810q45 0 73.5 -24t28.5 -66q0 -40 -27.5 -65t-74.5 -25q-44 0 -71.5 24t-27.5 66q0 41 26.5 65.5t72.5 24.5zM897 1810q44 0 71 -24t27 -66q0 -41 -26 -65.5t-72 -24.5q-45 0 -73.5 24t-28.5 66q0 40 27.5 65t74.5 25zM260 0v18h193q81 0 99.5 17.5t18.5 91.5v569
l-352 619q-9 15 -24 42.5t-21 37t-18.5 26t-23 22t-26.5 10.5t-36 5h-47v17h426v-17h-140v-4q28 -9 82 -99q7 -10 10 -16l291 -503q26 -46 29 -66h16q2 12 29 66l270 475q33 54 33 88q0 57 -96 57h-135v17h434v-17h-37q-49 0 -75.5 -28.5t-76.5 -116.5l-333 -586v-600
q0 -74 19.5 -91.5t100.5 -17.5h166v-16h-776z" />
    <glyph glyph-name="Amacron" unicode="&#x100;" horiz-adv-x="1708" 
d="M1186 1692h-617l4 53h617zM18 0v18h35q39 0 66 31.5t59 95.5l633 1328h174v-25q0 -75 21 -119l530 -1184q37 -82 51 -98q25 -29 82 -29h19v-18h-431v18h173v5q-31 10 -70 96l-125 280h-893l-121 -254q-12 -32 -12 -47q0 -36 29 -58t79 -22h111v-18h-410zM360 436h859
l-383 854q-19 39 -19 82h-20q0 -24 -27 -82z" />
    <glyph glyph-name="amacron" unicode="&#x101;" horiz-adv-x="1214" 
d="M887 1692h-615l4 53h617zM836 745v439q0 132 -68 200t-199 68q-162 0 -252 -76.5t-96 -201.5l-6 -127h-41l25 483h22l-6 -109q-8 -58 -10 -65l16 -4q2 6 14 23t21 24q134 90 311 90q218 0 333.5 -85.5t115.5 -246.5v-1012q0 -65 12.5 -84.5t61.5 -19.5q7 0 22 1t23 1
l39 2l2 -18q-135 -12 -250 -45v16q0 50 -21 168t-22 149h-23q-48 -174 -147 -252.5t-232 -78.5q-184 0 -304 93t-120 242q0 192 165.5 309t436.5 117h177zM836 709h-164q-189 0 -304.5 -107.5t-115.5 -282.5q0 -126 71 -203t187 -77q61 0 118 26t104 75.5t75.5 133
t28.5 189.5v246z" />
    <glyph glyph-name="Abreve" unicode="&#x102;" horiz-adv-x="1708" 
d="M567 1839l41 19q136 -183 271 -183q140 0 278 183l33 -19q-51 -105 -134 -171t-177 -66q-173 0 -312 237zM18 0v18h35q39 0 66 31.5t59 95.5l633 1328h174v-25q0 -75 21 -119l530 -1184q37 -82 51 -98q25 -29 82 -29h19v-18h-431v18h173v5q-31 10 -70 96l-125 280h-893
l-121 -254q-12 -32 -12 -47q0 -36 29 -58t79 -22h111v-18h-410zM360 436h859l-383 854q-19 39 -19 82h-20q0 -24 -27 -82z" />
    <glyph glyph-name="abreve" unicode="&#x103;" horiz-adv-x="1214" 
d="M270 1839l41 19q136 -183 271 -183q140 0 278 183l33 -19q-51 -105 -135 -171t-176 -66q-175 0 -312 237zM836 745v439q0 132 -68 200t-199 68q-162 0 -252 -76.5t-96 -201.5l-6 -127h-41l25 483h22l-6 -109q-8 -58 -10 -65l16 -4q2 6 14 23t21 24q134 90 311 90
q218 0 333.5 -85.5t115.5 -246.5v-1012q0 -65 12.5 -84.5t61.5 -19.5q7 0 22 1t23 1l39 2l2 -18q-135 -12 -250 -45v16q0 50 -21 168t-22 149h-23q-48 -174 -147 -252.5t-232 -78.5q-184 0 -304 93t-120 242q0 192 165.5 309t436.5 117h177zM836 709h-164
q-189 0 -304.5 -107.5t-115.5 -282.5q0 -126 71 -203t187 -77q61 0 118 26t104 75.5t75.5 133t28.5 189.5v246z" />
    <glyph glyph-name="Aogonek" unicode="&#x104;" horiz-adv-x="1708" 
d="M18 0v18h35q39 0 66 31.5t59 95.5l633 1328h174v-25q0 -75 21 -119l530 -1184q37 -83 52 -100q24 -27 81 -27h19v-18h-48q-173 0 -257.5 -75.5t-84.5 -196.5q0 -68 48 -110t124 -42q54 0 132 23l12 -35q-106 -29 -164 -29q-114 0 -184 50.5t-70 133.5q0 99 76 172.5
t192 112.5v25q-30 10 -59.5 32t-44.5 58l-125 280h-893l-121 -254q-12 -32 -12 -47q0 -36 29 -58t79 -22h111v-18h-410zM360 436h859l-383 854q-19 39 -19 82h-20q0 -24 -27 -82z" />
    <glyph glyph-name="aogonek" unicode="&#x105;" horiz-adv-x="1214" 
d="M836 745l-2 439q0 132 -68 201t-199 69q-162 0 -252 -77.5t-96 -202.5l-8 -127h-39l25 483h22l-8 -109q-3 -49 -8 -65l16 -4q2 6 14 23t21 24q134 90 311 90q218 0 333.5 -85.5t115.5 -246.5v-1012q0 -65 12 -84.5t61 -19.5q7 0 22 1t24 1l38 2l3 -18q-26 -2 -89 -11
q-106 -21 -177.5 -100.5t-71.5 -187.5q0 -68 48 -110t126 -42q48 0 131 23l10 -35q-106 -29 -162 -29q-115 0 -184.5 50.5t-69.5 133.5q0 127 191 250v29q0 50 -21 168t-22 149h-23q-48 -174 -147 -252.5t-232 -78.5q-184 0 -304 93t-120 242q0 192 165.5 309t436.5 117h177
zM834 709h-164q-189 0 -304.5 -107.5t-115.5 -282.5q0 -126 71 -203t187 -77q60 0 117 26t104.5 75.5t76 133.5t28.5 189v246z" />
    <glyph glyph-name="Cacute" unicode="&#x106;" horiz-adv-x="1468" 
d="M772 1554l-20 17l266 284q11 11 22 11q12 0 23 -8l27 -21l-54 -61zM78 741l-2 2q0 222 98 392t276.5 263t411.5 93q240 0 414 -131q11 -11 24 -41l15 4q-6 24 -6 59l-4 150h20l21 -592l-41 -2l-7 190q-9 135 -146 231.5t-306 96.5q-278 0 -424 -174t-146 -506
q0 -367 152.5 -560t441.5 -193q163 0 303 75.5t199 202.5l39 -14q-64 -148 -211 -225.5t-332 -77.5q-234 0 -413.5 94t-278 266t-98.5 397z" />
    <glyph glyph-name="cacute" unicode="&#x107;" horiz-adv-x="1468" 
d="M772 1554l-20 17l266 284q11 11 22 11q12 0 23 -8l27 -21l-54 -61zM78 741l-2 2q0 222 98 392t276.5 263t411.5 93q240 0 414 -131q11 -11 24 -41l15 4q-6 24 -6 59l-4 150h20l21 -592l-41 -2l-7 190q-9 135 -146 231.5t-306 96.5q-278 0 -424 -174t-146 -506
q0 -367 152.5 -560t441.5 -193q163 0 303 75.5t199 202.5l39 -14q-64 -148 -211 -225.5t-332 -77.5q-234 0 -413.5 94t-278 266t-98.5 397z" />
    <glyph glyph-name="Ccircumflex" unicode="&#x108;" horiz-adv-x="1468" 
d="M909 1866l228 -209l-33 -37l-111 100q-48 45 -80 80t-32 41h-9q0 -7 -31.5 -41t-78.5 -76l-111 -100l-35 37l232 205h61zM74 737l-2 2q0 222 98 392t276.5 263t411.5 93q241 0 412 -131q16 -13 24 -41l17 4q-6 24 -6 59l-5 150h21l18 -592l-39 -2l-8 190q-5 89 -71 165.5
t-168 119.5t-213 43q-277 0 -422.5 -174.5t-145.5 -505.5q0 -367 151.5 -560.5t440.5 -193.5q164 0 304.5 76t199.5 203l37 -14q-64 -148 -210.5 -225.5t-332.5 -77.5q-234 0 -413 94t-277 266t-98 397z" />
    <glyph glyph-name="ccircumflex" unicode="&#x109;" horiz-adv-x="1468" 
d="M909 1866l228 -209l-33 -37l-111 100q-48 45 -80 80t-32 41h-9q0 -7 -31.5 -41t-78.5 -76l-111 -100l-35 37l232 205h61zM74 737l-2 2q0 222 98 392t276.5 263t411.5 93q241 0 412 -131q16 -13 24 -41l17 4q-6 24 -6 59l-5 150h21l18 -592l-39 -2l-8 190q-5 89 -71 165.5
t-168 119.5t-213 43q-277 0 -422.5 -174.5t-145.5 -505.5q0 -367 151.5 -560.5t440.5 -193.5q164 0 304.5 76t199.5 203l37 -14q-64 -148 -210.5 -225.5t-332.5 -77.5q-234 0 -413 94t-277 266t-98 397z" />
    <glyph glyph-name="Cdotaccent" unicode="&#x10a;" horiz-adv-x="1468" 
d="M879 1847q45 0 71.5 -24t26.5 -66q0 -41 -26 -66.5t-72 -25.5q-45 0 -73 25t-28 67q0 40 27 65t74 25zM78 741l-2 2q0 222 98 392t276.5 263t411.5 93q240 0 414 -131q11 -11 24 -41l15 4q-6 24 -6 59l-4 150h20l21 -592l-41 -2l-7 190q-9 135 -146 231.5t-306 96.5
q-278 0 -424 -174t-146 -506q0 -367 152.5 -560t441.5 -193q163 0 303 75.5t199 202.5l39 -14q-64 -148 -211 -225.5t-332 -77.5q-234 0 -413.5 94t-278 266t-98.5 397z" />
    <glyph glyph-name="cdotaccent" unicode="&#x10b;" horiz-adv-x="1468" 
d="M879 1847q45 0 71.5 -24t26.5 -66q0 -41 -26 -66.5t-72 -25.5q-45 0 -73 25t-28 67q0 40 27 65t74 25zM78 741l-2 2q0 222 98 392t276.5 263t411.5 93q240 0 414 -131q11 -11 24 -41l15 4q-6 24 -6 59l-4 150h20l21 -592l-41 -2l-7 190q-9 135 -146 231.5t-306 96.5
q-278 0 -424 -174t-146 -506q0 -367 152.5 -560t441.5 -193q163 0 303 75.5t199 202.5l39 -14q-64 -148 -211 -225.5t-332 -77.5q-234 0 -413.5 94t-278 266t-98.5 397z" />
    <glyph glyph-name="Ccaron" unicode="&#x10c;" horiz-adv-x="1468" 
d="M909 1614l-67 -4l-230 205l35 36l111 -100q48 -42 81 -76.5t33 -40.5h9q0 6 33 41t83 80l111 100l35 -36zM74 737l-2 2q0 222 98 392t276.5 263t411.5 93q241 0 412 -131q16 -13 24 -41l17 4q-6 24 -6 59l-5 150h21l18 -592l-39 -2l-8 190q-5 89 -71 165.5t-168 119.5
t-213 43q-277 0 -422.5 -174.5t-145.5 -505.5q0 -367 151.5 -560.5t440.5 -193.5q164 0 304.5 76t199.5 203l37 -14q-64 -148 -210.5 -225.5t-332.5 -77.5q-234 0 -413 94t-277 266t-98 397z" />
    <glyph glyph-name="ccaron" unicode="&#x10d;" horiz-adv-x="1468" 
d="M909 1614l-67 -4l-230 205l35 36l111 -100q48 -42 81 -76.5t33 -40.5h9q0 6 33 41t83 80l111 100l35 -36zM74 737l-2 2q0 222 98 392t276.5 263t411.5 93q241 0 412 -131q16 -13 24 -41l17 4q-6 24 -6 59l-5 150h21l18 -592l-39 -2l-8 190q-5 89 -71 165.5t-168 119.5
t-213 43q-277 0 -422.5 -174.5t-145.5 -505.5q0 -367 151.5 -560.5t440.5 -193.5q164 0 304.5 76t199.5 203l37 -14q-64 -148 -210.5 -225.5t-332.5 -77.5q-234 0 -413 94t-277 266t-98 397z" />
    <glyph glyph-name="Dcaron" unicode="&#x10e;" horiz-adv-x="1628" 
d="M733 1610l-69 -4l-230 204l35 37l111 -100q48 -42 81 -76.5t33 -40.5h8q0 6 33 40.5t84 80.5l111 100l35 -36zM373 33h237q365 0 556.5 179.5t191.5 520.5t-191.5 520t-556.5 179h-237v-2q37 -34 37 -97v-1202q0 -62 -37 -96v-2zM37 -4v18h78q81 0 99.5 17.5t18.5 91.5
v1200q0 78 -20 102.5t-98 24.5h-78v18h635q261 0 461 -91.5t309.5 -258.5t109.5 -385q0 -219 -109.5 -386.5t-309.5 -259t-461 -91.5h-635z" />
    <glyph glyph-name="dcaron" unicode="&#x10f;" horiz-adv-x="1628" 
d="M733 1610l-69 -4l-230 204l35 37l111 -100q48 -42 81 -76.5t33 -40.5h8q0 6 33 40.5t84 80.5l111 100l35 -36zM373 33h237q365 0 556.5 179.5t191.5 520.5t-191.5 520t-556.5 179h-237v-2q37 -34 37 -97v-1202q0 -62 -37 -96v-2zM37 -4v18h78q81 0 99.5 17.5t18.5 91.5
v1200q0 78 -20 102.5t-98 24.5h-78v18h635q261 0 461 -91.5t309.5 -258.5t109.5 -385q0 -219 -109.5 -386.5t-309.5 -259t-461 -91.5h-635z" />
    <glyph glyph-name="Dcroat" unicode="&#x110;" horiz-adv-x="1628" 
d="M815 776l-10 -61h-391v-580q0 -62 -37 -96v-2h237q365 0 556.5 179.5t191.5 520.5t-191.5 520t-556.5 179h-237v-2q37 -34 37 -97v-561h401zM41 0v18h78q82 0 101.5 17.5t19.5 91.5v588h-162l12 61h150v551q0 77 -21 102t-100 25h-78v19h635q261 0 461 -92t309.5 -259
t109.5 -385q0 -219 -109.5 -386.5t-309.5 -259t-461 -91.5h-635z" />
    <glyph glyph-name="dcroat" unicode="&#x111;" horiz-adv-x="1628" 
d="M815 776l-10 -61h-391v-580q0 -62 -37 -96v-2h237q365 0 556.5 179.5t191.5 520.5t-191.5 520t-556.5 179h-237v-2q37 -34 37 -97v-561h401zM41 0v18h78q82 0 101.5 17.5t19.5 91.5v588h-162l12 61h150v551q0 77 -21 102t-100 25h-78v19h635q261 0 461 -92t309.5 -259
t109.5 -385q0 -219 -109.5 -386.5t-309.5 -259t-461 -91.5h-635z" />
    <glyph glyph-name="Emacron" unicode="&#x112;" horiz-adv-x="1243" 
d="M963 1692h-617l6 53h615zM768 422h-20v113q0 57 -14 98t-35 64t-55 36.5t-65.5 17t-74.5 3.5h-90v-609q0 -61 -49 -106v-2h448q164 0 244 64.5t92 211.5l14 164h35l-39 -555l-18 2l6 94h-2q-21 -18 -84 -18h-1020v18h78q82 0 101.5 17.5t19.5 91.5v1219q0 73 -19.5 90.5
t-101.5 17.5h-78v19h899q63 0 82 -19h4l-8 94l20 2l41 -555h-41l-8 144q-10 161 -95 229t-253 68h-317v-2q49 -45 49 -107v-536h90q44 0 75 3.5t65 16.5t55 35.5t35 63.5t14 98v71h20v-657z" />
    <glyph glyph-name="emacron" unicode="&#x113;" horiz-adv-x="1695" 
d="M1552 799h-1278v-25q0 -361 170 -557.5t463 -196.5q225 0 398 83.5t272 234.5l31 -23q-105 -158 -289 -244.5t-422 -86.5q-235 0 -423 93.5t-296 267t-108 396.5q0 222 103.5 392t292 263t435.5 93q196 0 359.5 -76.5t262.5 -219.5t99 -325v-10q0 -25 -20.5 -42
t-49.5 -17zM276 836l1135 14q16 0 16 18q0 263 -145 423.5t-383 160.5q-289 0 -448.5 -157.5t-174.5 -458.5zM1176 1696h-615l4 53h615z" />
    <glyph glyph-name="Ebreve" unicode="&#x114;" horiz-adv-x="1243" 
d="M344 1839l41 19q136 -183 270 -183q140 0 281 183l31 -19q-51 -105 -134.5 -171t-177.5 -66q-172 0 -311 237zM768 422h-20v113q0 57 -14 98t-35 64t-55 36.5t-65.5 17t-74.5 3.5h-90v-609q0 -61 -49 -106v-2h448q164 0 244 64.5t92 211.5l14 164h35l-39 -555l-18 2l6 94
h-2q-21 -18 -84 -18h-1020v18h78q82 0 101.5 17.5t19.5 91.5v1219q0 73 -19.5 90.5t-101.5 17.5h-78v19h899q63 0 82 -19h4l-8 94l20 2l41 -555h-41l-8 144q-10 161 -95 229t-253 68h-317v-2q49 -45 49 -107v-536h90q44 0 75 3.5t65 16.5t55 35.5t35 63.5t14 98v71h20v-657z
" />
    <glyph glyph-name="ebreve" unicode="&#x115;" horiz-adv-x="1695" 
d="M1552 799h-1278v-25q0 -361 170 -557.5t463 -196.5q225 0 398 83.5t272 234.5l31 -23q-105 -158 -289 -244.5t-422 -86.5q-235 0 -423 93.5t-296 267t-108 396.5q0 222 103.5 392t292 263t435.5 93q196 0 359.5 -76.5t262.5 -219.5t99 -325v-10q0 -25 -20.5 -42
t-49.5 -17zM276 836l1135 14q16 0 16 18q0 263 -145 423.5t-383 160.5q-289 0 -448.5 -157.5t-174.5 -458.5zM559 1843l41 19q136 -183 270 -183q138 0 279 183l31 -19q-51 -105 -134.5 -171t-175.5 -66q-174 0 -311 237z" />
    <glyph glyph-name="Edotaccent" unicode="&#x116;" horiz-adv-x="1243" 
d="M655 1843q45 0 73 -24t28 -66q0 -41 -27.5 -66.5t-73.5 -25.5q-45 0 -72.5 25t-27.5 67q0 40 26.5 65t73.5 25zM768 422h-20v113q0 57 -14 98t-35 64t-55 36.5t-65.5 17t-74.5 3.5h-90v-609q0 -61 -49 -106v-2h448q164 0 244 64.5t92 211.5l14 164h35l-39 -555l-18 2
l6 94h-2q-21 -18 -84 -18h-1020v18h78q82 0 101.5 17.5t19.5 91.5v1219q0 73 -19.5 90.5t-101.5 17.5h-78v19h899q63 0 82 -19h4l-8 94l20 2l41 -555h-41l-8 144q-10 161 -95 229t-253 68h-317v-2q49 -45 49 -107v-536h90q44 0 75 3.5t65 16.5t55 35.5t35 63.5t14 98v71h20
v-657z" />
    <glyph glyph-name="edotaccent" unicode="&#x117;" horiz-adv-x="1695" 
d="M1552 799h-1278v-25q0 -361 170 -557.5t463 -196.5q225 0 398 83.5t272 234.5l31 -23q-105 -158 -289 -244.5t-422 -86.5q-235 0 -423 93.5t-296 267t-108 396.5q0 222 103.5 392t292 263t435.5 93q196 0 359.5 -76.5t262.5 -219.5t99 -325v-10q0 -25 -20.5 -42
t-49.5 -17zM276 836l1135 14q16 0 16 18q0 263 -145 423.5t-383 160.5q-289 0 -448.5 -157.5t-174.5 -458.5zM870 1847q44 0 71.5 -24t27.5 -66q0 -40 -27 -66t-72 -26t-73.5 25t-28.5 67q0 40 27.5 65t74.5 25z" />
    <glyph glyph-name="Eogonek" unicode="&#x118;" horiz-adv-x="1243" 
d="M1122 -401l8 -39q-106 -29 -161 -29q-115 0 -184.5 50.5t-69.5 133.5q0 96 67 169t172 114l-2 12l-141 -12h-772v18h78q82 0 101.5 17.5t19.5 91.5v1218q0 74 -19.5 91.5t-101.5 17.5h-78v18h899q64 0 82 -18h2l-6 94l20 2l41 -555h-41l-8 144q-10 161 -95 229t-253 68
h-318v-2q50 -46 50 -107v-537h90q44 0 75 3.5t65 16.5t55 36t34.5 64t13.5 98v71h21v-657h-21v112q0 71 -19 117t-56 67.5t-75 28.5t-93 7h-90v-609q0 -60 -50 -106v-2h449q164 0 244 64.5t92 211.5l12 164h37l-31 -459q-21 -18 -84 -18q-23 0 -54.5 -8t-68.5 -28.5
t-68 -49.5t-52 -77.5t-21 -106.5q0 -68 48 -110t126 -42q53 0 131 23z" />
    <glyph glyph-name="eogonek" unicode="&#x119;" horiz-adv-x="1695" 
d="M270 799l2 -2v-25q0 -361 170 -557.5t463 -196.5q225 0 398 83.5t272 234.5l31 -23q-124 -189 -361 -274q-106 -37 -177 -120.5t-71 -190.5q0 -68 48 -110t126 -42q54 0 132 23l10 -35q-106 -29 -162 -29q-115 0 -184.5 50.5t-69.5 133.5q0 169 209 283q-99 -18 -209 -18
q-235 0 -423 93.5t-296 267t-108 396.5q0 222 103.5 392t292 263t435.5 93q196 0 359.5 -76.5t262.5 -219.5t99 -325v-10q0 -25 -20.5 -42t-49.5 -17h-1282zM274 834l1133 14q18 0 18 18q0 263 -144.5 423.5t-383.5 160.5q-289 0 -448.5 -157.5t-174.5 -458.5z" />
    <glyph glyph-name="Ecaron" unicode="&#x11a;" horiz-adv-x="1243" 
d="M686 1610l-68 -4l-229 204l35 37l111 -100q48 -42 81 -76.5t33 -40.5h8q0 6 33 40.5t84 80.5l111 100l35 -36zM764 418h-21v112q0 71 -19 117t-56 67.5t-75 28.5t-93 7h-90v-609q0 -60 -50 -106v-2h449q164 0 244 64.5t92 211.5l12 164h37l-39 -555l-20 2l8 94h-2
q-21 -18 -84 -18h-1020v18h78q81 0 99.5 17.5t18.5 91.5v1218q0 74 -18.5 91.5t-99.5 17.5h-78v18h899q64 0 82 -18h2l-6 94l20 2l41 -555h-41l-8 144q-10 161 -95 229t-253 68h-318v-2q50 -46 50 -107v-537h90q44 0 75 3.5t65 16.5t55 36t34.5 64t13.5 98v71h21v-657z" />
    <glyph glyph-name="ecaron" unicode="&#x11b;" horiz-adv-x="1695" 
d="M1548 795h-1278v-25q0 -361 170 -557.5t463 -196.5q223 0 397 83.5t273 234.5l31 -23q-105 -158 -289 -244.5t-422 -86.5q-235 0 -423 93.5t-296 267t-108 396.5q0 222 103.5 392t292 263t435.5 93q196 0 359.5 -76.5t262.5 -219.5t99 -325v-10q0 -24 -21 -41.5
t-49 -17.5zM272 831l1133 15q18 0 18 18q0 263 -145 423.5t-383 160.5q-289 0 -448.5 -158t-174.5 -459zM901 1614l-67 -4l-230 205l33 36l111 -100q48 -42 81 -76.5t33 -40.5h10q0 6 33 40.5t84 80.5l111 100l33 -36z" />
    <glyph glyph-name="Gcircumflex" unicode="&#x11c;" horiz-adv-x="1636" 
d="M1434 -86h-21v143q-2 39 -28 70t-62 31q-33 0 -66 -29q-76 -73 -180 -111t-221 -38q-233 0 -411.5 94t-276.5 266t-98 397q0 222 96 392t271.5 263t404.5 93q244 0 413 -129q19 -19 25 -39l8 2q-6 24 -6 47l-12 199l22 2l37 -631l-39 -2l-8 135q-12 173 -146.5 276
t-316.5 103q-270 0 -411.5 -173.5t-141.5 -504.5q0 -367 153 -560.5t445 -193.5q118 2 221 44t170 124v269q0 86 -58 138t-153 52h-260v37h840v-37h-190v-729zM887 1866l227 -209l-33 -37l-110 100q-113 105 -113 121h-8q0 -6 -32 -40.5t-79 -76.5l-110 -100l-35 37l231 205
h62z" />
    <glyph glyph-name="gcircumflex" unicode="&#x11d;" horiz-adv-x="1636" 
d="M1434 -86h-21v143q-2 39 -28 70t-62 31q-33 0 -66 -29q-76 -73 -180 -111t-221 -38q-233 0 -411.5 94t-276.5 266t-98 397q0 222 96 392t271.5 263t404.5 93q244 0 413 -129q19 -19 25 -39l8 2q-6 24 -6 47l-12 199l22 2l37 -631l-39 -2l-8 135q-12 173 -146.5 276
t-316.5 103q-270 0 -411.5 -173.5t-141.5 -504.5q0 -367 153 -560.5t445 -193.5q118 2 221 44t170 124v269q0 86 -58 138t-153 52h-260v37h840v-37h-190v-729zM887 1866l227 -209l-33 -37l-110 100q-113 105 -113 121h-8q0 -6 -32 -40.5t-79 -76.5l-110 -100l-35 37l231 205
h62z" />
    <glyph glyph-name="Gbreve" unicode="&#x11e;" horiz-adv-x="1636" 
d="M1438 -82h-21v143q-2 39 -28 70t-62 31q-32 0 -65 -29q-76 -73 -180.5 -111t-221.5 -38q-233 0 -411.5 94t-276.5 266t-98 397q0 222 96 392t272 263t406 93q242 0 412 -129q18 -18 24 -39l8 2q-6 24 -6 47l-10 199l22 2l35 -631l-39 -2l-8 135q-12 173 -146.5 276
t-314.5 103q-270 0 -412.5 -173.5t-142.5 -504.5q0 -367 153.5 -560.5t446.5 -193.5q116 2 220 44.5t170 123.5v269q0 86 -57.5 138t-151.5 52h-263v37h840v-37h-190v-729zM545 1843l41 19q136 -183 270 -183q141 0 279 183l32 -19q-51 -105 -134 -171t-177 -66
q-172 0 -311 237z" />
    <glyph glyph-name="gbreve" unicode="&#x11f;" horiz-adv-x="1636" 
d="M1438 -82h-21v143q-2 39 -28 70t-62 31q-32 0 -65 -29q-76 -73 -180.5 -111t-221.5 -38q-233 0 -411.5 94t-276.5 266t-98 397q0 222 96 392t272 263t406 93q242 0 412 -129q18 -18 24 -39l8 2q-6 24 -6 47l-10 199l22 2l35 -631l-39 -2l-8 135q-12 173 -146.5 276
t-314.5 103q-270 0 -412.5 -173.5t-142.5 -504.5q0 -367 153.5 -560.5t446.5 -193.5q116 2 220 44.5t170 123.5v269q0 86 -57.5 138t-151.5 52h-263v37h840v-37h-190v-729zM545 1843l41 19q136 -183 270 -183q141 0 279 183l32 -19q-51 -105 -134 -171t-177 -66
q-172 0 -311 237z" />
    <glyph glyph-name="Gdotaccent" unicode="&#x120;" horiz-adv-x="1636" 
d="M1438 -82h-21v143q-2 39 -28 70t-62 31q-32 0 -65 -29q-76 -73 -180.5 -111t-221.5 -38q-233 0 -411.5 94t-276.5 266t-98 397q0 222 96 392t272 263t406 93q242 0 412 -129q18 -18 24 -39l8 2q-6 24 -6 47l-10 199l22 2l35 -631l-39 -2l-8 135q-12 173 -146.5 276
t-314.5 103q-270 0 -412.5 -173.5t-142.5 -504.5q0 -367 153.5 -560.5t446.5 -193.5q116 2 220 44.5t170 123.5v269q0 86 -57.5 138t-151.5 52h-263v37h840v-37h-190v-729zM856 1847q45 0 71.5 -24t26.5 -66q0 -41 -26 -66.5t-72 -25.5q-45 0 -72.5 25t-27.5 67
q0 40 26.5 65t73.5 25z" />
    <glyph glyph-name="gdotaccent" unicode="&#x121;" horiz-adv-x="1636" 
d="M1438 -82h-21v143q-2 39 -28 70t-62 31q-32 0 -65 -29q-76 -73 -180.5 -111t-221.5 -38q-233 0 -411.5 94t-276.5 266t-98 397q0 222 96 392t272 263t406 93q242 0 412 -129q18 -18 24 -39l8 2q-6 24 -6 47l-10 199l22 2l35 -631l-39 -2l-8 135q-12 173 -146.5 276
t-314.5 103q-270 0 -412.5 -173.5t-142.5 -504.5q0 -367 153.5 -560.5t446.5 -193.5q116 2 220 44.5t170 123.5v269q0 86 -57.5 138t-151.5 52h-263v37h840v-37h-190v-729zM856 1847q45 0 71.5 -24t26.5 -66q0 -41 -26 -66.5t-72 -25.5q-45 0 -72.5 25t-27.5 67
q0 40 26.5 65t73.5 25z" />
    <glyph glyph-name="Gcommaaccent" unicode="&#x122;" horiz-adv-x="1636" 
d="M1438 -82h-21v143q-2 39 -28 70t-62 31q-32 0 -65 -29q-76 -73 -180.5 -111t-221.5 -38q-233 0 -411.5 94t-276.5 266t-98 397q0 222 96 392t272 263t406 93q242 0 412 -129q18 -18 24 -39l8 2q-6 24 -6 47l-10 199l22 2l35 -631l-39 -2l-8 135q-12 173 -146.5 276
t-314.5 103q-270 0 -412.5 -173.5t-142.5 -504.5q0 -367 153.5 -560.5t446.5 -193.5q116 2 220 44.5t170 123.5v269q0 86 -57.5 138t-151.5 52h-263v37h840v-37h-190v-729zM762 -446q45 0 82.5 34t46.5 78q5 39 8 45l-6 4q-14 -14 -45 -14q-103 0 -103 90q0 44 26.5 68
t76.5 24q44 0 71 -25.5t27 -66.5q0 -116 -50.5 -186t-133.5 -70v19z" />
    <glyph glyph-name="gcommaaccent" unicode="&#x123;" horiz-adv-x="1636" 
d="M1438 -82h-21v143q-2 39 -28 70t-62 31q-32 0 -65 -29q-76 -73 -180.5 -111t-221.5 -38q-233 0 -411.5 94t-276.5 266t-98 397q0 222 96 392t272 263t406 93q242 0 412 -129q18 -18 24 -39l8 2q-6 24 -6 47l-10 199l22 2l35 -631l-39 -2l-8 135q-12 173 -146.5 276
t-314.5 103q-270 0 -412.5 -173.5t-142.5 -504.5q0 -367 153.5 -560.5t446.5 -193.5q116 2 220 44.5t170 123.5v269q0 86 -57.5 138t-151.5 52h-263v37h840v-37h-190v-729zM762 -446q45 0 82.5 34t46.5 78q5 39 8 45l-6 4q-14 -14 -45 -14q-103 0 -103 90q0 44 26.5 68
t76.5 24q44 0 71 -25.5t27 -66.5q0 -116 -50.5 -186t-133.5 -70v19z" />
    <glyph glyph-name="Hcircumflex" unicode="&#x124;" horiz-adv-x="1445" 
d="M756 1866l227 -209l-35 -37l-110 100q-113 105 -113 121h-8q0 -6 -32 -40.5t-79 -76.5l-110 -100l-33 37l229 205h64zM37 -4v18h78q78 0 98 24.5t20 102.5v1182q0 78 -20 102.5t-98 24.5h-78v18h553v-18h-58q-79 0 -100.5 -25t-21.5 -102v-535h618v535q0 77 -22 102
t-101 25h-57v18h555v-18h-80q-79 0 -100 -25t-21 -102v-1182q0 -77 21 -102t100 -25h80v-18h-555v18h59q79 0 100 25t21 102v611h-618v-611q0 -77 21.5 -102t100.5 -25h58v-18h-553z" />
    <glyph glyph-name="hcircumflex" unicode="&#x125;" horiz-adv-x="1445" 
d="M756 1866l227 -209l-35 -37l-110 100q-113 105 -113 121h-8q0 -6 -32 -40.5t-79 -76.5l-110 -100l-33 37l229 205h64zM37 -4v18h78q78 0 98 24.5t20 102.5v1182q0 78 -20 102.5t-98 24.5h-78v18h553v-18h-58q-79 0 -100.5 -25t-21.5 -102v-535h618v535q0 77 -22 102
t-101 25h-57v18h555v-18h-80q-79 0 -100 -25t-21 -102v-1182q0 -77 21 -102t100 -25h80v-18h-555v18h59q79 0 100 25t21 102v611h-618v-611q0 -77 21.5 -102t100.5 -25h58v-18h-553z" />
    <glyph glyph-name="Hbar" unicode="&#x126;" horiz-adv-x="1445" 
d="M41 0v18h78q79 0 100 25t21 102v963h-142v55h142v164q0 77 -21 102t-100 25h-78v19h553v-19h-57q-79 0 -101 -25t-22 -102v-164h618v164q0 77 -22 102t-101 25h-57v19h555v-19h-80q-78 0 -98.5 -24.5t-20.5 -102.5v-164h140v-55h-140v-963q0 -78 20.5 -102.5t98.5 -24.5
h80v-18h-555v18h61q77 0 98 25t21 102v611h-618v-611q0 -77 22 -102t101 -25h57v-18h-553zM1032 1108h-618v-315h618v315z" />
    <glyph glyph-name="hbar" unicode="&#x127;" horiz-adv-x="1445" 
d="M41 0v18h78q79 0 100 25t21 102v963h-142v55h142v164q0 77 -21 102t-100 25h-78v19h553v-19h-57q-79 0 -101 -25t-22 -102v-164h618v164q0 77 -22 102t-101 25h-57v19h555v-19h-80q-78 0 -98.5 -24.5t-20.5 -102.5v-164h140v-55h-140v-963q0 -78 20.5 -102.5t98.5 -24.5
h80v-18h-555v18h61q77 0 98 25t21 102v611h-618v-611q0 -77 22 -102t101 -25h57v-18h-553zM1032 1108h-618v-315h618v315z" />
    <glyph glyph-name="Itilde" unicode="&#x128;" horiz-adv-x="653" 
d="M41 1454v19h573v-23h-77q-83 0 -103 -17t-20 -90v-1218q0 -73 20 -90t103 -17h77v-18h-573v18h78q82 0 101.5 17t19.5 90v1223q0 73 -19.5 89.5t-101.5 16.5h-78zM604 1763v2q-25 -82 -60 -112.5t-87 -30.5q-40 0 -85 23.5t-78 51.5t-72 51.5t-68 23.5q-53 0 -70 -68
l-18 -64l-37 9l18 63q22 74 55.5 102.5t81.5 28.5q39 0 84.5 -23.5t79 -51t74 -51t70.5 -23.5q53 0 75 78l19 61l37 -8z" />
    <glyph glyph-name="itilde" unicode="&#x129;" horiz-adv-x="653" 
d="M41 1454v19h573v-23h-77q-83 0 -103 -17t-20 -90v-1218q0 -73 20 -90t103 -17h77v-18h-573v18h78q82 0 101.5 17t19.5 90v1223q0 73 -19.5 89.5t-101.5 16.5h-78zM604 1763v2q-25 -82 -60 -112.5t-87 -30.5q-40 0 -85 23.5t-78 51.5t-72 51.5t-68 23.5q-53 0 -70 -68
l-18 -64l-37 9l18 63q22 74 55.5 102.5t81.5 28.5q39 0 84.5 -23.5t79 -51t74 -51t70.5 -23.5q53 0 75 78l19 61l37 -8z" />
    <glyph glyph-name="Imacron" unicode="&#x12a;" horiz-adv-x="653" 
d="M633 1692h-615l5 53h614zM41 0v18h78q82 0 101.5 17t19.5 90v1223q0 73 -19.5 89.5t-101.5 16.5h-78v19h573v-23h-77q-83 0 -103 -17t-20 -90v-1218q0 -73 20 -90t103 -17h77v-18h-573z" />
    <glyph glyph-name="imacron" unicode="&#x12b;" horiz-adv-x="653" 
d="M633 1692h-615l5 53h614zM41 1454v19h573v-23h-77q-83 0 -103 -17t-20 -90v-1218q0 -73 20 -90t103 -17h77v-18h-573v18h78q82 0 101.5 17t19.5 90v1223q0 73 -19.5 89.5t-101.5 16.5h-78z" />
    <glyph glyph-name="Ibreve" unicode="&#x12c;" horiz-adv-x="653" 
d="M16 1839l41 19q136 -183 269 -183q139 0 280 183l31 -19q-51 -105 -134 -171t-177 -66q-173 0 -310 237zM41 0v18h78q82 0 101.5 17t19.5 90v1223q0 73 -19.5 89.5t-101.5 16.5h-78v19h573v-23h-77q-83 0 -103 -17t-20 -90v-1218q0 -73 20 -90t103 -17h77v-18h-573z" />
    <glyph glyph-name="ibreve" unicode="&#x12d;" horiz-adv-x="653" 
d="M16 1839l41 19q136 -183 269 -183q139 0 280 183l31 -19q-51 -105 -134 -171t-177 -66q-173 0 -310 237zM41 1454v19h573v-23h-77q-83 0 -103 -17t-20 -90v-1218q0 -73 20 -90t103 -17h77v-18h-573v18h78q82 0 101.5 17t19.5 90v1223q0 73 -19.5 89.5t-101.5 16.5h-78z
" />
    <glyph glyph-name="Iogonek" unicode="&#x12e;" horiz-adv-x="653" 
d="M528 -401l13 -35q-106 -29 -162 -29q-115 0 -184.5 50.5t-69.5 133.5q0 97 70 169t180 110l-6 10q-45 -10 -109 -10h-221v18h78q82 0 101.5 17t19.5 90v1223q0 73 -19.5 89.5t-101.5 16.5h-78v18h573v-22h-77q-83 0 -103 -17t-20 -90v-1218q0 -73 20 -90t103 -17h77v-18
h-131q-110 -18 -183 -90t-73 -180q0 -68 48 -110t126 -42q51 0 129 23z" />
    <glyph glyph-name="iogonek" unicode="&#x12f;" horiz-adv-x="653" 
d="M528 -401l13 -37q-106 -29 -162 -29q-115 0 -184.5 50.5t-69.5 133.5q0 97 70 169t180 112l-6 10q-45 -10 -109 -10h-221v18h78q82 0 101.5 17t19.5 90v1223q0 73 -19.5 89.5t-101.5 16.5h-78v18h573v-22h-77q-83 0 -103 -17t-20 -90v-1218q0 -73 20 -90t103 -17h77v-18
h-131q-110 -18 -183 -90t-73 -180q0 -68 48 -110t126 -42q51 0 129 23z" />
    <glyph glyph-name="Idotaccent" unicode="&#x130;" horiz-adv-x="653" 
d="M322 1806q45 0 72.5 -24t27.5 -66q0 -41 -27 -66.5t-73 -25.5q-44 0 -72.5 25t-28.5 67q0 40 28 65t73 25zM41 0v18h78q82 0 101.5 17t19.5 90v1223q0 73 -19.5 89.5t-101.5 16.5h-78v19h573v-23h-77q-83 0 -103 -17t-20 -90v-1218q0 -73 20 -90t103 -17h77v-18h-573z
" />
    <glyph glyph-name="dotlessi" unicode="&#x131;" horiz-adv-x="653" 
d="M41 1454v19h573v-23h-77q-83 0 -103 -17t-20 -90v-1218q0 -73 20 -90t103 -17h77v-18h-573v18h78q82 0 101.5 17t19.5 90v1223q0 73 -19.5 89.5t-101.5 16.5h-78z" />
    <glyph glyph-name="IJ" unicode="&#x132;" horiz-adv-x="1568" 
d="M727 242q0 -98 74 -158.5t194 -60.5q88 0 134.5 55.5t46.5 161.5v1157q0 24 3.5 33t16.5 20v4h-311v19h645v-19h-60q-118 0 -118 -108v-1014q0 -154 -101 -250t-256 -96q-129 0 -208.5 70.5t-79.5 185.5h20zM41 0v18h78q82 0 101.5 17t19.5 90v1223q0 73 -19.5 89.5
t-101.5 16.5h-78v19h573v-23h-77q-83 0 -103 -17t-20 -90v-1218q0 -73 20 -90t103 -17h77v-18h-573z" />
    <glyph glyph-name="ij" unicode="&#x133;" horiz-adv-x="1196" 
d="M713 242q0 -98 73.5 -158.5t194.5 -60.5q88 0 133 55.5t45 161.5v1157q0 23 4.5 32t16.5 21v4h-310v19h643v-19h-57q-121 0 -121 -108v-1014q0 -154 -99.5 -250t-254.5 -96q-130 0 -209.5 70t-79.5 186h21zM41 0v18h78q82 0 101.5 17t19.5 90v1223q0 73 -19.5 89.5
t-101.5 16.5h-78v19h573v-23h-77q-83 0 -103 -17t-20 -90v-1218q0 -73 20 -90t103 -17h77v-18h-573z" />
    <glyph glyph-name="Jcircumflex" unicode="&#x134;" horiz-adv-x="915" 
d="M639 1862l229 -209l-34 -37l-111 100q-113 105 -113 121h-8q0 -7 -31.5 -41t-78.5 -76l-111 -100l-35 37l232 205h61zM70 238q0 -98 74 -159t194 -61q88 0 134 56t46 162v1157q0 23 4 32.5t17 20.5v4h-312v18h645v-18h-59q-119 0 -119 -109v-1013q0 -154 -100.5 -250
t-255.5 -96q-130 0 -209.5 70t-79.5 186h21z" />
    <glyph glyph-name="jcircumflex" unicode="&#x135;" horiz-adv-x="915" 
d="M639 1825l229 -209l-34 -37l-111 100q-113 105 -113 121h-8q0 -7 -31.5 -41t-78.5 -76l-111 -100l-35 37l232 205h61zM70 238q0 -98 74 -159t194 -61q88 0 134 56t46 162v1157q0 23 4 32.5t17 20.5v4h-312v18h645v-18h-59q-119 0 -119 -109v-1013q0 -154 -100.5 -250
t-255.5 -96q-130 0 -209.5 70t-79.5 186h21z" />
    <glyph glyph-name="Kcommaaccent" unicode="&#x136;" horiz-adv-x="1320" 
d="M655 -455q44 0 82 34.5t47 78.5q4 36 9 45l-7 4q-10 -14 -45 -14q-102 0 -102 90q0 44 26.5 68t75.5 24q45 0 72 -25t27 -67q0 -115 -51 -185.5t-134 -70.5v18zM41 0l6 18h80q80 0 99.5 20.5t19.5 106.5v1201q0 73 -19.5 90.5t-99.5 17.5h-80v19h516v-19h-20
q-82 0 -101.5 -17.5t-19.5 -90.5v-461q67 0 99 5t46 23l357 408q39 48 39 78q0 55 -117 55h-21v19h498v-19h-29q-86 0 -175 -33t-154 -108l-359 -412l2 -8q102 -21 178 -64.5t121 -104t70.5 -121t40.5 -136.5q8 -40 15.5 -93t12.5 -91.5t13 -81t19 -71.5t28.5 -54t44.5 -37
t63 -12q49 0 107 41l29 20l12 -14l-29 -21q-94 -76 -184 -76q-64 0 -112 25.5t-75.5 54t-52 97t-33 103.5t-25.5 125q-9 43 -13 64q-16 75 -31.5 127t-46 111.5t-70 96t-103 61t-145.5 24.5h-28v-721q0 -86 20.5 -106.5t102.5 -20.5h77v-18h-573z" />
    <glyph glyph-name="kcommaaccent" unicode="&#x137;" horiz-adv-x="1320" 
d="M543 -455q44 0 82 34.5t47 78.5q5 39 8 45l-6 4q-11 -14 -45 -14q-103 0 -103 90q0 44 26.5 68t76.5 24q45 0 71.5 -25t26.5 -67q0 -116 -50.5 -186t-133.5 -70v18zM39 0l6 18h80q80 0 99.5 20.5t19.5 106.5v1201q0 73 -19.5 90.5t-99.5 17.5h-80v19h516v-19h-20
q-82 0 -101.5 -17.5t-19.5 -90.5v-461q67 0 99 5t46 23l357 408q39 48 39 78q0 55 -119 55h-19v19h498v-19h-29q-86 0 -175 -33t-154 -108l-359 -412l2 -8q83 -17 148.5 -50t108 -72.5t74.5 -92.5t49 -102t30 -109q8 -40 15.5 -93t12.5 -91.5t13 -81t19 -71.5t28.5 -54
t44.5 -37t63 -12q50 0 105 41l31 20l12 -14l-29 -21q-94 -76 -184 -76q-64 0 -112 25.5t-75.5 54t-52 97t-33 103.5t-25.5 125q-9 43 -13 64q-16 75 -31.5 127t-46 111.5t-70 96t-103 61t-145.5 24.5h-28v-721q0 -86 20.5 -106.5t102.5 -20.5h77v-18h-573z" />
    <glyph glyph-name="kgreenlandic" unicode="&#x138;" horiz-adv-x="1320" 
d="M41 0l6 18h80q80 0 99.5 20.5t19.5 106.5v1201q0 73 -19.5 90.5t-99.5 17.5h-80v19h516v-19h-20q-82 0 -101.5 -17.5t-19.5 -90.5v-461q67 0 99 5t46 23l357 408q39 48 39 78q0 55 -117 55h-21v19h498v-19h-29q-86 0 -175 -33t-154 -108l-359 -412l2 -8
q102 -21 178 -64.5t121 -104t70.5 -121t40.5 -136.5q8 -40 15.5 -93t12.5 -91.5t13 -81t19 -71.5t28.5 -54t44.5 -37t63 -12q49 0 107 41l29 20l12 -14l-29 -21q-94 -76 -184 -76q-64 0 -112 25.5t-75.5 54t-52 97t-33 103.5t-25.5 125q-9 43 -13 64q-16 75 -31.5 127
t-46 111.5t-70 96t-103 61t-145.5 24.5h-28v-721q0 -86 20.5 -106.5t102.5 -20.5h77v-18h-573z" />
    <glyph glyph-name="Lacute" unicode="&#x139;" horiz-adv-x="1159" 
d="M223 1550l-20 17l266 284q8 11 23 11q7 0 22 -9l27 -20l-54 -61zM41 0v18h78q79 0 100 23.5t21 99.5v1207q0 73 -19.5 89.5t-101.5 16.5h-78v19h573v-19h-77q-83 0 -103 -16.5t-20 -89.5v-1203q0 -61 -49 -106v-2h305q69 0 120.5 5.5t100 20.5t80 41t52.5 68t26 100
l16 205h45l-45 -581l-23 2l11 120h-2q-13 -11 -24 -14.5t-38 -3.5h-948z" />
    <glyph glyph-name="lacute" unicode="&#x13a;" horiz-adv-x="1159" 
d="M223 1550l-20 17l266 284q8 11 23 11q7 0 22 -9l27 -20l-54 -61zM41 0v18h78q79 0 100 23.5t21 99.5v1207q0 73 -19.5 89.5t-101.5 16.5h-78v19h573v-19h-77q-83 0 -103 -16.5t-20 -89.5v-1203q0 -61 -49 -106v-2h305q69 0 120.5 5.5t100 20.5t80 41t52.5 68t26 100
l16 205h45l-45 -581l-23 2l11 120h-2q-13 -11 -24 -14.5t-38 -3.5h-948z" />
    <glyph glyph-name="Lcommaaccent" unicode="&#x13b;" horiz-adv-x="1159" 
d="M522 -446q45 0 82.5 34t46.5 78q5 39 8 45l-6 4q-11 -14 -45 -14q-100 0 -100 90q0 92 100 92q45 0 72 -25t27 -67q0 -115 -51 -185.5t-134 -70.5v19zM41 0v18h78q79 0 100 23.5t21 99.5v1207q0 73 -19.5 89.5t-101.5 16.5h-78v19h573v-19h-77q-83 0 -103 -16.5
t-20 -89.5v-1203q0 -61 -49 -106v-2h305q69 0 120.5 5.5t100 20.5t80 41t52.5 68t26 100l16 205h45l-45 -581l-23 2l11 120h-2q-13 -11 -24 -14.5t-38 -3.5h-948z" />
    <glyph glyph-name="lcommaaccent" unicode="&#x13c;" horiz-adv-x="1159" 
d="M41 0v18h78q79 0 100 23.5t21 99.5v1207q0 73 -19.5 89.5t-101.5 16.5h-78v19h573v-19h-77q-83 0 -103 -16.5t-20 -89.5v-1203q0 -61 -49 -106v-2h305q69 0 120.5 5.5t100 20.5t80 41t52.5 68t26 100l16 205h45l-45 -581l-23 2l11 120h-2q-13 -11 -24 -14.5t-38 -3.5
h-948zM522 -446q45 0 82.5 34t46.5 78q5 39 8 45l-6 4q-11 -14 -45 -14q-100 0 -100 90q0 92 100 92q45 0 72 -25t27 -67q0 -115 -51 -185.5t-134 -70.5v19z" />
    <glyph glyph-name="Lcaron" unicode="&#x13d;" horiz-adv-x="1181" 
d="M41 0v18h78q79 0 100 23.5t21 99.5v1207q0 73 -19.5 89.5t-101.5 16.5h-78v19h573v-19h-77q-83 0 -103 -16.5t-20 -89.5v-1203q0 -61 -49 -106v-2h305q69 0 120.5 5.5t100 20.5t80 41t52.5 68t26 100l16 205h45l-45 -581l-23 2l11 120h-2q-13 -11 -24 -14.5t-38 -3.5
h-948zM965 1159q45 0 82 34.5t45 78.5q2 6 3.5 16.5t3 18t3.5 10.5l-6 4q-14 -14 -45 -14q-103 0 -103 90q0 44 26.5 68t76.5 24q44 0 71 -25.5t27 -66.5q0 -116 -50.5 -186t-133.5 -70v18z" />
    <glyph glyph-name="lcaron" unicode="&#x13e;" horiz-adv-x="1181" 
d="M41 0v18h78q79 0 100 23.5t21 99.5v1207q0 73 -19.5 89.5t-101.5 16.5h-78v19h573v-19h-77q-83 0 -103 -16.5t-20 -89.5v-1203q0 -61 -49 -106v-2h305q69 0 120.5 5.5t100 20.5t80 41t52.5 68t26 100l16 205h45l-45 -581l-23 2l11 120h-2q-13 -11 -24 -14.5t-38 -3.5
h-948zM965 1159q45 0 82 34.5t45 78.5q2 6 3.5 16.5t3 18t3.5 10.5l-6 4q-14 -14 -45 -14q-103 0 -103 90q0 44 26.5 68t76.5 24q44 0 71 -25.5t27 -66.5q0 -116 -50.5 -186t-133.5 -70v18z" />
    <glyph glyph-name="Ldot" unicode="&#x13f;" horiz-adv-x="1159" 
d="M803 905q43 0 70.5 -25t27.5 -67q0 -40 -26.5 -65t-71.5 -25t-74 24t-29 66q0 40 28 66t75 26zM41 -2v18h78q79 0 100 23.5t21 99.5v1207q0 73 -19.5 89.5t-101.5 16.5h-78v18h573v-18h-77q-83 0 -103 -16.5t-20 -89.5v-1203q0 -61 -49 -106v-2h305q69 0 120.5 5.5
t100 20.5t80 41t52.5 68t26 100l16 205h45l-45 -581l-23 2l11 120h-2q-13 -11 -24 -14.5t-38 -3.5h-948z" />
    <glyph glyph-name="ldot" unicode="&#x140;" horiz-adv-x="1159" 
d="M41 0v18h78q79 0 100 23.5t21 99.5v1207q0 73 -19.5 89.5t-101.5 16.5h-78v19h573v-19h-77q-83 0 -103 -16.5t-20 -89.5v-1203q0 -61 -49 -106v-2h305q69 0 120.5 5.5t100 20.5t80 41t52.5 68t26 100l16 205h45l-45 -581l-23 2l11 120h-2q-13 -11 -24 -14.5t-38 -3.5
h-948zM803 905q43 0 70.5 -25t27.5 -67q0 -40 -26.5 -65t-71.5 -25t-74 24t-29 66q0 40 28 66t75 26z" />
    <glyph glyph-name="Lslash" unicode="&#x141;" horiz-adv-x="1177" 
d="M51 0v18h90q79 0 100 24t21 101v303q0 16 3 43.5t6 46.5l3 19h-12l-211 -141l-24 28l235 158v746q0 73 -19.5 90.5t-101.5 17.5h-78v19h574v-19h-78q-82 0 -102.5 -17.5t-20.5 -90.5v-517l-10 -110h10l443 297l24 -29l-467 -313v-529q0 -61 -49 -106v-2h299
q88 0 149.5 9.5t114 34t81 72t34.5 119.5l18 205h45l-45 -581l-22 2l8 120h-2q-18 -18 -59 -18h-957z" />
    <glyph glyph-name="lslash" unicode="&#x142;" horiz-adv-x="1177" 
d="M51 0v18h90q79 0 100 24t21 101v303q0 16 3 43.5t6 46.5l3 19h-12l-211 -141l-24 28l235 158v746q0 73 -19.5 90.5t-101.5 17.5h-78v19h574v-19h-78q-82 0 -102.5 -17.5t-20.5 -90.5v-517l-10 -110h10l443 297l24 -29l-467 -313v-529q0 -61 -49 -106v-2h299
q88 0 149.5 9.5t114 34t81 72t34.5 119.5l18 205h45l-45 -581l-22 2l8 120h-2q-18 -18 -59 -18h-957z" />
    <glyph glyph-name="Nacute" unicode="&#x143;" horiz-adv-x="1310" 
d="M537 1554l-21 17l266 284q8 11 23 11q9 0 22 -8l27 -21l-53 -61zM440 0h-399v18h57q82 0 102.5 18t20.5 91v1219q0 73 -20.5 90.5t-102.5 17.5h-57v19h344l619 -1033q38 -59 38 -75h15q-2 23 -2 86v874q0 73 -32 101t-114 28h-100v19h463v-19h-35q-82 0 -113.5 -28
t-31.5 -101v-1364h-17q0 8 -3 18t-11.5 25.5t-13.5 24.5t-18 30.5t-17 28.5l-699 1153q-45 76 -45 80h-12q4 -23 4 -88v-1106q0 -74 19.5 -91.5t101.5 -17.5h59v-18z" />
    <glyph glyph-name="nacute" unicode="&#x144;" horiz-adv-x="1435" 
d="M41 0l-2 18h78q82 0 101.5 17.5t19.5 91.5v1167q0 28 -21.5 47t-54.5 19h-6l-133 -10l-3 12l175 33q72 13 118.5 51t46.5 98v8h19v-268q0 -179 -4 -215h14q11 68 37 133q50 131 161.5 209t250.5 78q180 0 279.5 -83.5t99.5 -225.5v-1053q0 -74 18.5 -91.5t99.5 -17.5h82
v-18h-575v18h219v5q-13 11 -17 20.5t-4 32.5v1069q0 155 -52.5 232t-168.5 77q-174 0 -289.5 -139.5t-115.5 -360.5v-827q0 -73 20.5 -91t102.5 -18h77v-18h-573zM606 1550l-20 17l266 284q8 11 22 11q8 0 23 -9l27 -20l-54 -61z" />
    <glyph glyph-name="Ncommaaccent" unicode="&#x145;" horiz-adv-x="1310" 
d="M614 -446q45 0 83 34t46 78q5 36 9 45l-7 4q-11 -14 -45 -14q-100 0 -100 90q0 92 100 92q46 0 73.5 -25.5t27.5 -66.5q0 -115 -51.5 -185.5t-135.5 -70.5v19zM436 0h-397v18h57q82 0 102.5 18t20.5 91v1219q0 73 -20.5 90.5t-102.5 17.5h-57v19h344l616 -1033
q41 -59 41 -75h15q-2 23 -2 86v874q0 73 -32 101t-114 28h-100v19h463v-19h-35q-82 0 -113.5 -28t-31.5 -101v-1364h-17q0 8 -3 18t-11.5 25.5t-13.5 24.5t-18 30.5t-17 28.5l-699 1153q-45 76 -45 80h-12q2 -23 2 -88v-1106q0 -73 20.5 -91t102.5 -18h57v-18z" />
    <glyph glyph-name="ncommaaccent" unicode="&#x146;" horiz-adv-x="1435" 
d="M39 0l-2 18h78q81 0 99.5 17.5t18.5 91.5v1167q0 28 -20 47t-53 19h-6l-134 -10l-2 12l175 33q72 13 118.5 51t46.5 98v8h19v-268q0 -179 -4 -215h14q6 55 37 133q50 131 161.5 209t250.5 78q180 0 279 -83.5t99 -225.5v-1053q0 -74 19 -91.5t100 -17.5h82v-18h-575v18
h219v5q-13 11 -17 20.5t-4 32.5v1069q0 155 -52.5 232t-168.5 77q-174 0 -289.5 -139.5t-115.5 -360.5v-827q0 -73 20.5 -91t102.5 -18h77v-18h-573zM637 -446q45 0 83 34t46 78q5 39 8 45l-6 4q-10 -14 -45 -14q-100 0 -100 90q0 92 100 92q46 0 73 -25.5t27 -66.5
q0 -115 -51.5 -185.5t-134.5 -70.5v19z" />
    <glyph glyph-name="Ncaron" unicode="&#x147;" horiz-adv-x="1310" 
d="M674 1614l-68 -4l-229 205l33 36l110 -100q49 -42 82 -76.5t33 -40.5h10q0 6 33 40.5t84 80.5l110 100l33 -36zM434 -4h-397v18h57q82 0 102.5 18t20.5 91v1218q0 73 -20.5 91t-102.5 18h-57v18h344l616 -1032q41 -64 41 -76h15q-2 23 -2 86v875q0 73 -32 101t-114 28
h-100v18h463v-18h-35q-82 0 -114 -28t-32 -101v-1364h-18q0 24 -61 127l-699 1153q-45 76 -45 80h-12q2 -23 2 -88v-1106q0 -73 20.5 -91t102.5 -18h57v-18z" />
    <glyph glyph-name="ncaron" unicode="&#x148;" horiz-adv-x="1435" 
d="M37 -4l-4 18h80q81 0 99.5 17.5t18.5 91.5v1167q0 28 -20 47t-53 19h-6l-134 -10l-2 12l172 33q73 13 120.5 51t47.5 98v8h19v-268q0 -188 -6 -215h16q6 55 37 133q50 131 161.5 209t250.5 78q180 0 279 -83.5t99 -225.5v-1053q0 -74 19 -91.5t100 -17.5h82v-18h-575v18
h219v4q-13 11 -17 20.5t-4 33.5v1069q0 155 -52.5 232t-168.5 77q-174 0 -289.5 -139.5t-115.5 -360.5v-827q0 -73 20 -91t102 -18h78v-18h-573zM743 1610l-67 -4l-230 204l33 37l111 -100q49 -42 82 -76.5t33 -40.5h10q0 6 33 41t83 80l111 100l33 -36z" />
    <glyph glyph-name="napostrophe" unicode="&#x149;" horiz-adv-x="1705" 
d="M311 0l-2 18h78q82 0 101.5 17.5t19.5 91.5v1167q0 28 -21.5 47t-54.5 19h-6l-133 -10l-2 12l174 33q73 13 119.5 51t46.5 98v8h18v-268q0 -179 -4 -215h14q6 55 37 133q50 131 161.5 209t250.5 78q180 0 279.5 -83.5t99.5 -225.5v-1053q0 -73 19.5 -91t99.5 -18h82v-18
h-576v18h219v5q-13 11 -16.5 20t-3.5 33v1069q0 155 -52.5 232t-168.5 77q-174 0 -290 -139.5t-116 -360.5v-827q0 -73 20.5 -91t102.5 -18h78v-18h-574zM49 1159q44 0 82 34.5t47 78.5q5 39 8 45l-6 4q-10 -14 -45 -14q-102 0 -102 90q0 44 26.5 68t75.5 24q45 0 71.5 -25
t26.5 -67q0 -116 -50.5 -186t-133.5 -70v18z" />
    <glyph glyph-name="Eng" unicode="&#x14a;" horiz-adv-x="1351" 
d="M41 0l-2 18h78q82 0 101.5 17.5t19.5 91.5v1167q0 28 -21.5 47t-54.5 19h-6l-133 -10l-3 12l175 33q72 13 118.5 51t46.5 98v8h19v-268q0 -179 -4 -215h14q11 68 37 133q50 131 161.5 209t250.5 78q180 0 279.5 -83.5t99.5 -225.5v-1090q0 -155 -104 -249.5t-273 -94.5
q-27 0 -57.5 4.5t-49 9t-44 11.5t-30.5 8l17 41q10 -3 28 -7q108 -29 144 -30h10q93 0 137.5 58.5t44.5 160.5v1143q0 155 -52.5 232t-168.5 77q-174 0 -289.5 -139.5t-115.5 -360.5v-827q0 -73 20.5 -91t102.5 -18h77v-18h-573z" />
    <glyph glyph-name="eng" unicode="&#x14b;" horiz-adv-x="1351" 
d="M41 0l-2 18h78q82 0 101.5 17.5t19.5 91.5v1167q0 28 -21.5 47t-54.5 19h-6l-133 -10l-3 12l175 33q72 13 118.5 51t46.5 98v8h19v-268q0 -179 -4 -215h14q11 68 37 133q50 131 161.5 209t250.5 78q180 0 279.5 -83.5t99.5 -225.5v-1090q0 -155 -104 -249.5t-273 -94.5
q-27 0 -57.5 4.5t-49 9t-44 11.5t-30.5 8l17 41q10 -3 28 -7q108 -29 144 -30h10q93 0 137.5 58.5t44.5 160.5v1143q0 155 -52.5 232t-168.5 77q-174 0 -289.5 -139.5t-115.5 -360.5v-827q0 -73 20.5 -91t102.5 -18h77v-18h-573z" />
    <glyph glyph-name="Omacron" unicode="&#x14c;" 
d="M1212 1692h-616l6 53h615zM905 -16q-249 0 -438.5 93.5t-293 264.5t-103.5 395q0 338 229.5 545t605.5 207q247 0 436 -93.5t292.5 -264.5t103.5 -394q0 -224 -103.5 -395t-292.5 -264.5t-436 -93.5zM913 20q306 0 466.5 174t160.5 504q0 367 -165 560.5t-478 193.5
q-307 0 -469 -174t-162 -504q0 -367 165.5 -560.5t481.5 -193.5z" />
    <glyph glyph-name="omacron" unicode="&#x14d;" 
d="M1212 1696h-616l6 53h615zM905 -16q-249 0 -438.5 93.5t-293 264.5t-103.5 395q0 338 229.5 545t605.5 207q247 0 436 -93.5t292.5 -264.5t103.5 -394q0 -224 -103.5 -395t-292.5 -264.5t-436 -93.5zM913 20q306 0 466.5 174t160.5 504q0 367 -165 560.5t-478 193.5
q-307 0 -469 -174t-162 -504q0 -367 165.5 -560.5t481.5 -193.5z" />
    <glyph glyph-name="Obreve" unicode="&#x14e;" 
d="M594 1839l41 19q139 -183 270 -183q140 0 281 183l31 -19q-51 -105 -134.5 -171t-177.5 -66q-172 0 -311 237zM905 -16q-249 0 -438.5 93.5t-293 264.5t-103.5 395q0 338 229.5 545t605.5 207q247 0 436 -93.5t292.5 -264.5t103.5 -394q0 -224 -103.5 -395t-292.5 -264.5
t-436 -93.5zM913 20q306 0 466.5 174t160.5 504q0 367 -165 560.5t-478 193.5q-307 0 -469 -174t-162 -504q0 -367 165.5 -560.5t481.5 -193.5z" />
    <glyph glyph-name="obreve" unicode="&#x14f;" 
d="M594 1843l41 19q139 -183 270 -183q140 0 281 183l31 -19q-51 -105 -134.5 -171t-177.5 -66q-172 0 -311 237zM905 -16q-249 0 -438.5 93.5t-293 264.5t-103.5 395q0 338 229.5 545t605.5 207q247 0 436 -93.5t292.5 -264.5t103.5 -394q0 -224 -103.5 -395t-292.5 -264.5
t-436 -93.5zM913 20q306 0 466.5 174t160.5 504q0 367 -165 560.5t-478 193.5q-307 0 -469 -174t-162 -504q0 -367 165.5 -560.5t481.5 -193.5z" />
    <glyph glyph-name="Ohungarumlaut" unicode="&#x150;" 
d="M1204 1862l51 -41l-38 -41l-209 -168l-21 18zM846 1862l49 -41l-39 -41l-209 -168l-20 18zM905 -16q-249 0 -438.5 93.5t-293 264.5t-103.5 395q0 338 229.5 545t605.5 207q247 0 436 -93.5t292.5 -264.5t103.5 -394q0 -224 -103.5 -395t-292.5 -264.5t-436 -93.5z
M913 20q306 0 466.5 174t160.5 504q0 367 -165 560.5t-478 193.5q-307 0 -469 -174t-162 -504q0 -367 165.5 -560.5t481.5 -193.5z" />
    <glyph glyph-name="ohungarumlaut" unicode="&#x151;" 
d="M1204 1866l51 -41l-38 -41l-209 -168l-21 18zM846 1866l49 -41l-39 -41l-209 -168l-20 18zM905 -16q-249 0 -438.5 93.5t-293 264.5t-103.5 395q0 338 229.5 545t605.5 207q247 0 436 -93.5t292.5 -264.5t103.5 -394q0 -224 -103.5 -395t-292.5 -264.5t-436 -93.5z
M913 20q306 0 466.5 174t160.5 504q0 367 -165 560.5t-478 193.5q-307 0 -469 -174t-162 -504q0 -367 165.5 -560.5t481.5 -193.5z" />
    <glyph glyph-name="OE" unicode="&#x152;" horiz-adv-x="2111" 
d="M905 1473h901q62 0 84 -19h2l-6 94l21 2l39 -555h-39l-11 144q-9 161 -94 229t-252 68h-317v-2q49 -45 49 -107v-536h90q44 0 75 3.5t65 16.5t55 35.5t35 63.5t14 98v71h20v-657h-20v113q0 57 -14 98t-35 64t-55 36.5t-65.5 17t-74.5 3.5h-90v-609q0 -61 -49 -106v-2h448
q163 0 243.5 65t92.5 211l13 164h36l-38 -555l-21 2l6 94h-2q-18 -18 -82 -18h-1024q-250 0 -438.5 89t-292.5 256.5t-104 391.5q0 223 104 390t293 256.5t438 89.5zM897 1436q-309 0 -470 -167t-161 -495q0 -365 164.5 -551t482.5 -186h74q82 0 100.5 17t18.5 91v1182
q0 74 -19 91.5t-100 17.5h-90z" />
    <glyph glyph-name="oe" unicode="&#x153;" horiz-adv-x="2111" 
d="M905 1473h901q62 0 84 -19h2l-6 94l21 2l39 -555h-39l-11 144q-9 161 -94 229t-252 68h-317v-2q49 -45 49 -107v-536h90q44 0 75 3.5t65 16.5t55 35.5t35 63.5t14 98v71h20v-657h-20v113q0 57 -14 98t-35 64t-55 36.5t-65.5 17t-74.5 3.5h-90v-609q0 -61 -49 -106v-2h448
q163 0 243.5 65t92.5 211l13 164h36l-38 -555l-21 2l6 94h-2q-18 -18 -82 -18h-1024q-250 0 -438.5 89t-292.5 256.5t-104 391.5q0 223 104 390t293 256.5t438 89.5zM897 1436q-309 0 -470 -167t-161 -495q0 -365 164.5 -551t482.5 -186h74q82 0 100.5 17t18.5 91v1182
q0 74 -19 91.5t-100 17.5h-90z" />
    <glyph glyph-name="Racute" unicode="&#x154;" horiz-adv-x="1388" 
d="M494 1550l-21 17l266 284q8 11 23 11q7 0 22 -9l27 -20l-53 -61zM41 0l-2 16h78q82 0 101.5 17.5t19.5 91.5v1218q0 74 -19.5 91.5t-101.5 17.5h-78v18h588q270 0 434 -125t164 -329q0 -184 -135 -304.5t-342 -138.5l-46 -2v-12q77 -7 144.5 -46t105.5 -95l113 -162
q5 -7 25.5 -37t30 -42.5t29 -38t33 -38t32.5 -27.5t37 -21.5t36 -6.5q30 0 66 25l49 39l12 -15l-49 -39q-105 -78 -188 -78q-41 0 -78 16.5t-72 51.5t-57 63t-56 76l-157 222q-64 88 -108.5 122.5t-114.5 34.5h-27v35h102q205 0 313.5 108t108.5 312t-108 311t-314 107h-233
v-2q37 -34 37 -107v-1200q0 -73 20.5 -91t102.5 -18h131v-18h-627z" />
    <glyph glyph-name="racute" unicode="&#x155;" horiz-adv-x="1388" 
d="M494 1550l-21 17l266 284q8 11 23 11q7 0 22 -9l27 -20l-53 -61zM41 0l-2 16h78q82 0 101.5 17.5t19.5 91.5v1218q0 74 -19.5 91.5t-101.5 17.5h-78v18h588q270 0 434 -125t164 -329q0 -184 -135 -304.5t-342 -138.5l-46 -2v-12q77 -7 144.5 -46t105.5 -95l113 -162
q5 -7 25.5 -37t30 -42.5t29 -38t33 -38t32.5 -27.5t37 -21.5t36 -6.5q30 0 66 25l49 39l12 -15l-49 -39q-105 -78 -188 -78q-41 0 -78 16.5t-72 51.5t-57 63t-56 76l-157 222q-64 88 -108.5 122.5t-114.5 34.5h-27v35h102q205 0 313.5 108t108.5 312t-108 311t-314 107h-233
v-2q37 -34 37 -107v-1200q0 -73 20.5 -91t102.5 -18h131v-18h-627z" />
    <glyph glyph-name="Rcommaaccent" unicode="&#x156;" horiz-adv-x="1388" 
d="M713 -444q44 0 81.5 34t45.5 78q4 33 10 45l-8 4q-11 -14 -45 -14q-48 0 -74.5 23t-26.5 67t26.5 68t74.5 24q46 0 73 -25.5t27 -66.5q0 -116 -50.5 -186t-133.5 -70v19zM41 0l-2 16h78q82 0 101.5 17.5t19.5 91.5v1218q0 74 -19.5 91.5t-101.5 17.5h-78v18h588
q270 0 434 -125t164 -329q0 -184 -135 -304.5t-342 -138.5l-46 -2v-12q77 -7 144.5 -46t105.5 -95l113 -162q5 -7 25.5 -37t30 -42.5t29 -38t33 -38t32.5 -27.5t37 -21.5t36 -6.5q30 0 66 25l49 39l12 -15l-49 -39q-105 -78 -188 -78q-41 0 -78 16.5t-72 51.5t-57 63t-56 76
l-157 222q-64 88 -108.5 122.5t-114.5 34.5h-27v35h102q205 0 313.5 108t108.5 312t-108 311t-314 107h-233v-2q37 -34 37 -107v-1200q0 -73 20.5 -91t102.5 -18h131v-18h-627z" />
    <glyph glyph-name="rcommaaccent" unicode="&#x157;" horiz-adv-x="1388" 
d="M41 0l-2 16h78q82 0 101.5 17.5t19.5 91.5v1218q0 74 -19.5 91.5t-101.5 17.5h-78v18h588q270 0 434 -125t164 -329q0 -184 -135 -304.5t-342 -138.5l-46 -2v-12q77 -7 144.5 -46t105.5 -95l113 -162q5 -7 25.5 -37t30 -42.5t29 -38t33 -38t32.5 -27.5t37 -21.5t36 -6.5
q30 0 66 25l49 39l12 -15l-49 -39q-105 -78 -188 -78q-41 0 -78 16.5t-72 51.5t-57 63t-56 76l-157 222q-64 88 -108.5 122.5t-114.5 34.5h-27v35h102q205 0 313.5 108t108.5 312t-108 311t-314 107h-233v-2q37 -34 37 -107v-1200q0 -73 20.5 -91t102.5 -18h131v-18h-627z
M709 -446q45 0 83 34t46 78q5 38 10 45l-8 4q-10 -14 -45 -14q-101 0 -101 90q0 44 26 68t75 24q46 0 73 -25.5t27 -66.5q0 -115 -51.5 -185.5t-134.5 -70.5v19z" />
    <glyph glyph-name="Rcaron" unicode="&#x158;" horiz-adv-x="1388" 
d="M631 1610l-68 -4l-229 204l33 37l110 -100q49 -42 82 -76.5t33 -40.5h10q0 6 33 40.5t84 80.5l110 100l33 -36zM37 -4l-4 16h80q81 0 99.5 17.5t18.5 91.5v1218q0 74 -18.5 91.5t-99.5 17.5h-80v18h590q270 0 434 -125t164 -329q0 -184 -135.5 -304.5t-342.5 -138.5
l-45 -2v-12q77 -7 144.5 -46t105.5 -95l113 -162q5 -7 25.5 -37t30 -42.5t29 -38t33 -38t32.5 -27.5t37 -21.5t36 -6.5q30 0 66 25l49 38l12 -14l-51 -39q-102 -78 -186 -78q-41 0 -78 16.5t-72.5 52t-57 62t-57.5 76.5l-157 221q-62 87 -107.5 122.5t-116.5 35.5h-26v35
h104q205 0 313.5 108t108.5 312t-108 311t-314 107h-233v-2q37 -34 37 -107v-1200q0 -73 20 -91t102 -18h130v-18h-625z" />
    <glyph glyph-name="rcaron" unicode="&#x159;" horiz-adv-x="1388" 
d="M631 1610l-68 -4l-229 204l33 37l110 -100q49 -42 82 -76.5t33 -40.5h10q0 6 33 40.5t84 80.5l110 100l33 -36zM37 -4l-4 16h80q81 0 99.5 17.5t18.5 91.5v1218q0 74 -18.5 91.5t-99.5 17.5h-80v18h590q270 0 434 -125t164 -329q0 -184 -135.5 -304.5t-342.5 -138.5
l-45 -2v-12q77 -7 144.5 -46t105.5 -95l113 -162q5 -7 25.5 -37t30 -42.5t29 -38t33 -38t32.5 -27.5t37 -21.5t36 -6.5q30 0 66 25l49 38l12 -14l-51 -39q-102 -78 -186 -78q-41 0 -78 16.5t-72.5 52t-57 62t-57.5 76.5l-157 221q-62 87 -107.5 122.5t-116.5 35.5h-26v35
h104q205 0 313.5 108t108.5 312t-108 311t-314 107h-233v-2q37 -34 37 -107v-1200q0 -73 20 -91t102 -18h130v-18h-625z" />
    <glyph glyph-name="Sacute" unicode="&#x15a;" horiz-adv-x="1077" 
d="M449 1550l-21 17l266 284q8 11 23 11q7 0 22 -9l27 -20l-53 -61zM63 502l39 -2l4 -84q9 -178 126 -288t282 -110q156 0 247 81t91 229q0 76 -41 139.5t-106 110t-144 90.5t-158.5 90.5t-144.5 100t-106 130t-41 168.5q0 149 122 240.5t322 91.5q165 0 299 -90
q10 -6 37 -47l14 4q-5 16 -8 65l-6 109h22l25 -483l-41 -3l-4 86q-4 63 -26.5 119t-62.5 102.5t-104 73.5t-145 27q-137 0 -212 -64.5t-75 -185.5q0 -58 25.5 -108t69 -89t100 -74.5t119 -69.5t125 -69.5t119 -78.5t100 -92t69 -115.5t25.5 -143.5q0 -182 -133 -280
t-369 -98q-102 0 -184.5 26.5t-171.5 83.5q-12 8 -32 31.5t-24 36.5l-10 -2q4 -9 10 -88l7 -129h-21z" />
    <glyph glyph-name="sacute" unicode="&#x15b;" horiz-adv-x="1077" 
d="M455 1554l-21 17l266 284q8 11 23 11q11 0 22 -8l27 -21l-53 -61zM63 502l39 -2l4 -84q9 -178 126 -288t282 -110q156 0 247 81t91 229q0 76 -41 139.5t-106 110t-144 90.5t-158.5 90.5t-144.5 100t-106 130t-41 168.5q0 149 122 240.5t322 91.5q165 0 299 -90
q10 -6 37 -47l14 4q-5 16 -8 65l-6 109h22l25 -483l-41 -3l-4 86q-4 63 -26.5 119t-62.5 102.5t-104 73.5t-145 27q-137 0 -212 -64.5t-75 -185.5q0 -58 25.5 -108t69 -89t100 -74.5t119 -69.5t125 -69.5t119 -78.5t100 -92t69 -115.5t25.5 -143.5q0 -182 -133 -280
t-369 -98q-102 0 -184.5 26.5t-171.5 83.5q-12 8 -32 31.5t-24 36.5l-10 -2q4 -9 10 -88l7 -129h-21z" />
    <glyph glyph-name="Scircumflex" unicode="&#x15c;" horiz-adv-x="1077" 
d="M586 1862l227 -209l-33 -37l-110 100q-113 105 -113 121h-10q0 -6 -32 -40.5t-79 -76.5l-110 -100l-33 37l229 205h64zM59 498l37 -2l6 -84q9 -178 126 -288t282 -110q156 0 247 81t91 229q0 76 -41 139.5t-106.5 110t-144.5 90.5t-158 90.5t-144.5 100t-106.5 130
t-41 168.5q0 149 122.5 240.5t320.5 91.5q167 0 301 -90q9 -7 21 -24t14 -23l16 4q-5 16 -8 65l-8 109h22l25 -484l-39 -2l-6 86q-3 63 -25.5 119t-62.5 102.5t-104.5 73.5t-145.5 27q-137 0 -211 -64.5t-74 -185.5q0 -58 25.5 -108t69 -89t100 -74.5t119 -69.5t125 -69.5
t119 -78.5t100 -92t69 -115.5t25.5 -143.5q0 -182 -133 -280t-369 -98q-102 0 -184.5 26.5t-171.5 83.5q-12 8 -32 31.5t-24 36.5l-10 -2q3 -11 6 -45t4 -43l7 -129h-21z" />
    <glyph glyph-name="scircumflex" unicode="&#x15d;" horiz-adv-x="1077" 
d="M592 1866l227 -209l-33 -37l-110 100q-113 105 -113 121h-8q0 -6 -32 -40.5t-79 -76.5l-110 -100l-35 37l229 205h64zM59 498l37 -2l6 -84q9 -178 126 -288t282 -110q156 0 247 81t91 229q0 76 -41 139.5t-106.5 110t-144.5 90.5t-158 90.5t-144.5 100t-106.5 130
t-41 168.5q0 149 122.5 240.5t320.5 91.5q167 0 301 -90q9 -7 21 -24t14 -23l16 4q-5 16 -8 65l-8 109h22l25 -484l-39 -2l-6 86q-3 63 -25.5 119t-62.5 102.5t-104.5 73.5t-145.5 27q-137 0 -211 -64.5t-74 -185.5q0 -58 25.5 -108t69 -89t100 -74.5t119 -69.5t125 -69.5
t119 -78.5t100 -92t69 -115.5t25.5 -143.5q0 -182 -133 -280t-369 -98q-102 0 -184.5 26.5t-171.5 83.5q-12 8 -32 31.5t-24 36.5l-10 -2q3 -11 6 -45t4 -43l7 -129h-21z" />
    <glyph glyph-name="Scedilla" unicode="&#x15e;" horiz-adv-x="1077" 
d="M63 502l15 -4l6 -84q9 -176 135 -286t293 -110q156 0 247 81t91 229q0 56 -25.5 106t-68 89t-98.5 75.5t-117.5 71t-122.5 70.5t-117 79t-98.5 90.5t-68 111t-25.5 136.5q0 149 122 240.5t320 91.5q167 0 301 -90q10 -7 21.5 -23.5t13.5 -23.5l16 4q-5 16 -8 65l-8 109
h22l27 -483h-21l-6 86q-6 130 -102.5 224.5t-255.5 94.5q-137 0 -209 -64.5t-72 -185.5q0 -69 41.5 -128.5t107 -104.5t145.5 -89t160 -93.5t145.5 -106.5t107 -138.5t41.5 -179.5q0 -183 -132 -280.5t-368 -97.5l-24 -111q35 14 75 14q90 0 142.5 -45t52.5 -110
q0 -84 -103 -140.5t-253 -56.5l6 37q101 0 171 51.5t70 128.5q0 43 -24 72t-64 29q-63 0 -94 -25l-29 4l33 154q-86 4 -160 30.5t-155 77.5q-12 8 -32 31.5t-24 36.5l-10 -2q4 -9 10 -88l7 -129h-21z" />
    <glyph glyph-name="scedilla" unicode="&#x15f;" horiz-adv-x="1077" 
d="M63 502l15 -4l6 -84q9 -176 135 -286t293 -110q156 0 247 81t91 229q0 56 -25.5 106t-68 89t-98.5 75.5t-117.5 71t-122.5 70.5t-117 79t-98.5 90.5t-68 111t-25.5 136.5q0 149 122 240.5t320 91.5q167 0 301 -90q10 -7 21.5 -23.5t13.5 -23.5l16 4q-5 16 -8 65l-8 109
h22l27 -483h-21l-6 86q-6 130 -102.5 224.5t-255.5 94.5q-137 0 -209 -64.5t-72 -185.5q0 -69 41.5 -128.5t107 -104.5t145.5 -89t160 -93.5t145.5 -106.5t107 -138.5t41.5 -179.5q0 -183 -132 -280.5t-368 -97.5l-24 -111q35 14 75 14q90 0 142.5 -45t52.5 -110
q0 -84 -103 -140.5t-253 -56.5l6 37q101 0 171 51.5t70 128.5q0 43 -24 72t-64 29q-63 0 -94 -25l-29 4l33 154q-86 4 -160 30.5t-155 77.5q-12 8 -32 31.5t-24 36.5l-10 -2q4 -9 10 -88l7 -129h-21z" />
    <glyph glyph-name="Scaron" unicode="&#x160;" horiz-adv-x="1077" 
d="M586 1610l-68 -4l-229 204l33 37l110 -100q49 -42 82 -76.5t33 -40.5h10q0 6 33 40.5t84 80.5l110 100l33 -36zM59 498l37 -2l6 -84q9 -178 126 -288t282 -110q156 0 247 81t91 229q0 76 -41 139.5t-106.5 110t-144.5 90.5t-158 90.5t-144.5 100t-106.5 130t-41 168.5
q0 149 122.5 240.5t320.5 91.5q167 0 301 -90q9 -7 21 -24t14 -23l16 4q-5 16 -8 65l-8 109h22l25 -484l-39 -2l-6 86q-3 63 -25.5 119t-62.5 102.5t-104.5 73.5t-145.5 27q-137 0 -211 -64.5t-74 -185.5q0 -58 25.5 -108t69 -89t100 -74.5t119 -69.5t125 -69.5t119 -78.5
t100 -92t69 -115.5t25.5 -143.5q0 -182 -133 -280t-369 -98q-102 0 -184.5 26.5t-171.5 83.5q-12 8 -32 31.5t-24 36.5l-10 -2q3 -11 6 -45t4 -43l7 -129h-21z" />
    <glyph glyph-name="scaron" unicode="&#x161;" horiz-adv-x="1077" 
d="M592 1614l-68 -4l-229 205l35 36l110 -100q49 -42 82 -76.5t33 -40.5h8q0 6 33 40.5t84 80.5l111 100l34 -36zM59 498l37 -2l6 -84q9 -178 126 -288t282 -110q156 0 247 81t91 229q0 76 -41 139.5t-106.5 110t-144.5 90.5t-158 90.5t-144.5 100t-106.5 130t-41 168.5
q0 149 122.5 240.5t320.5 91.5q167 0 301 -90q9 -7 21 -24t14 -23l16 4q-5 16 -8 65l-8 109h22l25 -484l-39 -2l-6 86q-3 63 -25.5 119t-62.5 102.5t-104.5 73.5t-145.5 27q-137 0 -211 -64.5t-74 -185.5q0 -58 25.5 -108t69 -89t100 -74.5t119 -69.5t125 -69.5t119 -78.5
t100 -92t69 -115.5t25.5 -143.5q0 -182 -133 -280t-369 -98q-102 0 -184.5 26.5t-171.5 83.5q-12 8 -32 31.5t-24 36.5l-10 -2q3 -11 6 -45t4 -43l7 -129h-21z" />
    <glyph glyph-name="Tcedilla" unicode="&#x162;" horiz-adv-x="1212" 
d="M229 0v18h172q81 0 100 17.5t19 91.5v1309h-135q-86 0 -138 -9t-90 -35t-54.5 -71.5t-20.5 -120.5l-8 -84l-41 2l35 475l24 -2l-10 -118h1048l-10 116l25 2l33 -473l-41 -2l-7 84q-6 75 -23 120t-54.5 71.5t-89 35.5t-136.5 9h-131v-1309q0 -74 19 -91.5t100 -17.5h168
v-18h-414l-24 -98q35 14 78 14q89 0 140.5 -45.5t51.5 -110.5q0 -84 -103 -140t-253 -56l8 37q101 0 170.5 51.5t69.5 128.5q0 43 -21.5 69.5t-60.5 26.5q-65 0 -101 -20l-28 4l32 139h-299z" />
    <glyph glyph-name="tcedilla" unicode="&#x163;" horiz-adv-x="1212" 
d="M229 0v18h172q81 0 100 17.5t19 91.5v1309h-135q-86 0 -138 -9t-90 -35t-54.5 -71.5t-20.5 -120.5l-8 -84l-41 2l35 475l24 -2l-10 -118h1048l-10 116l25 2l33 -473l-41 -2l-7 84q-6 75 -23 120t-54.5 71.5t-89 35.5t-136.5 9h-131v-1309q0 -74 19 -91.5t100 -17.5h168
v-18h-414l-24 -98q35 14 78 14q89 0 140.5 -45.5t51.5 -110.5q0 -84 -103 -140t-253 -56l8 37q101 0 170.5 51.5t69.5 128.5q0 43 -21.5 69.5t-60.5 26.5q-65 0 -101 -20l-28 4l32 139h-299z" />
    <glyph glyph-name="Tcaron" unicode="&#x164;" horiz-adv-x="1212" 
d="M637 1610l-68 -4l-229 204l35 37l110 -100q115 -103 115 -117h8q0 6 33 40.5t84 80.5l111 100l34 -36zM225 -4v18h172q80 0 99.5 18t19.5 91v1309h-135q-86 0 -138.5 -9t-90.5 -35t-54.5 -71.5t-21.5 -120.5l-6 -84l-41 2l34 475l25 -2l-12 -119h1050l-12 117l27 2
l33 -473l-41 -2l-7 84q-6 75 -23 120t-54.5 71.5t-89 35.5t-136.5 9h-131v-1309q0 -74 19 -91.5t100 -17.5h166v-18h-752z" />
    <glyph glyph-name="tcaron" unicode="&#x165;" horiz-adv-x="1212" 
d="M229 0v18h172q81 0 100 17.5t19 91.5v1309h-135q-86 0 -138 -9t-90 -35t-54.5 -71.5t-20.5 -120.5l-8 -84l-41 2l35 475l24 -2l-10 -118h1048l-10 116l25 2l33 -473l-41 -2l-7 84q-6 75 -23 120t-54.5 71.5t-89 35.5t-136.5 9h-131v-1309q0 -74 19 -91.5t100 -17.5h168
v-18h-754zM637 1610l-68 -4l-229 204l35 37l110 -100q115 -103 115 -117h8q0 6 33 40.5t84 80.5l111 100l34 -36z" />
    <glyph glyph-name="Tbar" unicode="&#x166;" horiz-adv-x="1212" 
d="M930 872l-8 -55h-226v-690q0 -74 19 -91.5t100 -17.5h168v-18h-754v18h172q81 0 100 17.5t19 91.5v690h-239l10 55h229v564h-135q-86 0 -138 -9t-90 -35t-54.5 -71.5t-20.5 -120.5l-8 -84l-41 2l35 475l24 -2l-10 -118h1048l-10 116l25 2l33 -473l-41 -2l-7 84
q-6 75 -23 120t-54.5 71.5t-89 35.5t-136.5 9h-131v-564h234z" />
    <glyph glyph-name="tbar" unicode="&#x167;" horiz-adv-x="1212" 
d="M930 872l-8 -55h-226v-690q0 -74 19 -91.5t100 -17.5h168v-18h-754v18h172q81 0 100 17.5t19 91.5v690h-239l10 55h229v564h-135q-86 0 -138 -9t-90 -35t-54.5 -71.5t-20.5 -120.5l-8 -84l-41 2l35 475l24 -2l-10 -118h1048l-10 116l25 2l33 -473l-41 -2l-7 84
q-6 75 -23 120t-54.5 71.5t-89 35.5t-136.5 9h-131v-564h234z" />
    <glyph glyph-name="Utilde" unicode="&#x168;" horiz-adv-x="1306" 
d="M1012 1763v2q-25 -82 -60.5 -112.5t-87.5 -30.5q-50 0 -118.5 37.5t-131 75t-98.5 37.5q-53 0 -70 -68l-18 -64l-37 9l19 63q23 74 56.5 102.5t80.5 28.5q39 0 91 -23.5t94.5 -51t89.5 -51t77 -23.5q57 0 76 78l18 61l37 -8zM41 1475h573v-19h-98q-82 0 -100.5 -17
t-18.5 -91v-1084q0 -118 69.5 -179.5t203.5 -61.5q180 0 275 80.5t95 234.5v973q0 78 -25.5 111.5t-101.5 33.5h-84v19h439v-19h-58q-78 0 -103.5 -33t-25.5 -112v-973q0 -172 -105 -262t-306 -90t-325 97t-124 255v1010q0 73 -20.5 90.5t-102.5 17.5h-57v19z" />
    <glyph glyph-name="utilde" unicode="&#x169;" horiz-adv-x="1372" 
d="M1346 39l-3 -19q-157 -6 -305 -36v16q11 113 11 117v33q0 27 -2.5 127t-2.5 118v8h-16q-17 -107 -59.5 -189t-103.5 -131t-132.5 -73t-152.5 -24q-171 0 -276 81t-105 228v1040q0 62 -66 62h-106v18h129q51 0 95 9t77.5 35t33.5 65v8h19v-1219q0 -139 60 -214.5
t161 -75.5q180 0 292 144t112 378v803q0 73 -20.5 90.5t-102.5 17.5h-37v19l348 8v-17q-8 -82 -8 -108v-1211q0 -73 19.5 -90.5t101.5 -17.5h39zM969 1763v2q-23 -82 -59 -112.5t-87 -30.5t-120 37.5t-131.5 75t-98.5 37.5q-51 0 -70 -68l-18 -64l-37 9l19 63
q23 74 56.5 102.5t80.5 28.5q40 0 92 -23.5t94 -51t89 -51t77 -23.5q57 0 76 78l18 61l37 -8z" />
    <glyph glyph-name="Umacron" unicode="&#x16a;" horiz-adv-x="1306" 
d="M1018 1692h-615l5 53h614zM41 1473h573v-19h-98q-82 0 -100.5 -17t-18.5 -91v-1084q0 -118 69.5 -180t203.5 -62q180 0 275 81t95 235v973q0 78 -25.5 111.5t-101.5 33.5h-84v19h439v-19h-58q-78 0 -103.5 -33t-25.5 -112v-973q0 -172 -105 -262t-306 -90t-325 97
t-124 255v1010q0 73 -20.5 90.5t-102.5 17.5h-57v19z" />
    <glyph glyph-name="umacron" unicode="&#x16b;" horiz-adv-x="1372" 
d="M1346 37l-3 -19q-157 -6 -305 -36v16q11 113 11 117v32q0 27 -2.5 127.5t-2.5 118.5v8h-16q-17 -107 -59.5 -189t-103.5 -131t-132.5 -73t-152.5 -24q-171 0 -276 81t-105 228v1040q0 62 -66 62h-106v18h129q51 0 95 9t77.5 35t33.5 65v8h19v-1219q0 -139 60 -215
t161 -76q180 0 292 144.5t112 378.5v803q0 73 -20.5 90.5t-102.5 17.5h-37v19l348 8v-17q-8 -82 -8 -108v-1211q0 -73 19.5 -90.5t101.5 -17.5h39zM975 1692h-615l5 53h616z" />
    <glyph glyph-name="Ubreve" unicode="&#x16c;" horiz-adv-x="1306" 
d="M401 1839l41 19q136 -183 271 -183q137 0 278 183l31 -19q-49 -104 -132.5 -170.5t-176.5 -66.5q-175 0 -312 237zM41 1473h573v-19h-98q-82 0 -100.5 -17t-18.5 -91v-1084q0 -118 69.5 -180t203.5 -62q180 0 275 81t95 235v973q0 78 -25.5 111.5t-101.5 33.5h-84v19h439
v-19h-58q-78 0 -103.5 -33t-25.5 -112v-973q0 -172 -105 -262t-306 -90t-325 97t-124 255v1010q0 73 -20.5 90.5t-102.5 17.5h-57v19z" />
    <glyph glyph-name="ubreve" unicode="&#x16d;" horiz-adv-x="1372" 
d="M1346 37l-3 -19q-157 -6 -305 -36v16q11 113 11 117v32q0 27 -2.5 127.5t-2.5 118.5v8h-16q-17 -107 -59.5 -189t-103.5 -131t-132.5 -73t-152.5 -24q-171 0 -276 81t-105 228v1040q0 62 -66 62h-106v18h129q51 0 95 9t77.5 35t33.5 65v8h19v-1219q0 -139 60 -215
t161 -76q180 0 292 144.5t112 378.5v803q0 73 -20.5 90.5t-102.5 17.5h-37v19l348 8v-17q-8 -82 -8 -108v-1211q0 -73 19.5 -90.5t101.5 -17.5h39zM358 1839l41 19q136 -183 271 -183q137 0 278 183l33 -19q-51 -105 -135 -171t-176 -66q-175 0 -312 237z" />
    <glyph glyph-name="Uring" unicode="&#x16e;" horiz-adv-x="1306" 
d="M713 1843q-51 0 -96.5 -38.5t-45.5 -88.5q0 -47 46 -87t96 -40q51 0 95 38.5t44 88.5t-44 88.5t-95 38.5zM713 1898q74 0 137 -55t63 -127t-63 -127t-137 -55q-75 0 -137 56t-62 126q0 72 62 127t137 55zM41 1473h573v-19h-98q-82 0 -100.5 -17t-18.5 -91v-1084
q0 -118 69.5 -180t203.5 -62q180 0 275 81t95 235v973q0 78 -25.5 111.5t-101.5 33.5h-84v19h439v-19h-58q-78 0 -103.5 -33t-25.5 -112v-973q0 -172 -105 -262t-306 -90t-325 97t-124 255v1010q0 73 -20.5 90.5t-102.5 17.5h-57v19z" />
    <glyph glyph-name="uring" unicode="&#x16f;" horiz-adv-x="1372" 
d="M1346 37l-3 -19q-157 -6 -305 -36v16q11 113 11 117v32q0 27 -2.5 127.5t-2.5 118.5v8h-16q-17 -107 -59.5 -189t-103.5 -131t-132.5 -73t-152.5 -24q-171 0 -276 81t-105 228v1040q0 62 -66 62h-106v18h129q51 0 95 9t77.5 35t33.5 65v8h19v-1219q0 -139 60 -215
t161 -76q180 0 292 144.5t112 378.5v803q0 73 -20.5 90.5t-102.5 17.5h-37v19l348 8v-17q-8 -82 -8 -108v-1211q0 -73 19.5 -90.5t101.5 -17.5h39zM670 1898q74 0 137 -55t63 -127t-63 -127t-137 -55q-75 0 -137 56t-62 126q0 72 62 127t137 55zM670 1843q-51 0 -96.5 -38.5
t-45.5 -88.5q0 -47 46 -87t96 -40q51 0 95 38.5t44 88.5t-44 88.5t-95 38.5z" />
    <glyph glyph-name="Uhungarumlaut" unicode="&#x170;" horiz-adv-x="1306" 
d="M1012 1862l49 -41l-39 -41l-209 -168l-20 18zM651 1862l49 -41l-38 -41l-209 -168l-21 18zM41 1473h573v-19h-98q-82 0 -100.5 -17t-18.5 -91v-1084q0 -118 69.5 -180t203.5 -62q180 0 275 81t95 235v973q0 78 -25.5 111.5t-101.5 33.5h-84v19h439v-19h-58
q-78 0 -103.5 -33t-25.5 -112v-973q0 -172 -105 -262t-306 -90t-325 97t-124 255v1010q0 73 -20.5 90.5t-102.5 17.5h-57v19z" />
    <glyph glyph-name="uhungarumlaut" unicode="&#x171;" horiz-adv-x="1372" 
d="M1346 37l-3 -19q-157 -6 -305 -36v16q11 113 11 117v32q0 27 -2.5 127.5t-2.5 118.5v8h-16q-17 -107 -59.5 -189t-103.5 -131t-132.5 -73t-152.5 -24q-171 0 -276 81t-105 228v1040q0 62 -66 62h-106v18h129q51 0 95 9t77.5 35t33.5 65v8h19v-1219q0 -139 60 -215
t161 -76q180 0 292 144.5t112 378.5v803q0 73 -20.5 90.5t-102.5 17.5h-37v19l348 8v-17q-8 -82 -8 -108v-1211q0 -73 19.5 -90.5t101.5 -17.5h39zM969 1862l49 -41l-37 -41l-211 -168l-20 18zM608 1862l49 -41l-39 -41l-208 -168l-21 18z" />
    <glyph glyph-name="Uogonek" unicode="&#x172;" horiz-adv-x="1306" 
d="M874 -401l7 -33q-106 -29 -162 -29q-115 0 -184.5 50.5t-69.5 133.5q0 88 57.5 155t151.5 108h-6q-201 0 -325 97t-124 255v1010q0 73 -20.5 90.5t-102.5 17.5h-57v19h573v-19h-98q-82 0 -100.5 -17t-18.5 -91v-1084q0 -118 69.5 -180t203.5 -62q180 0 275 81t95 235v973
q0 79 -25.5 112t-103.5 33h-82v19h439v-19h-58q-78 0 -103.5 -33t-25.5 -112v-973q0 -144 -74.5 -230.5t-216.5 -111.5q-95 -28 -157 -98.5t-62 -167.5q0 -68 48 -110t126 -42q53 0 131 23z" />
    <glyph glyph-name="uogonek" unicode="&#x173;" horiz-adv-x="1372" 
d="M1321 -401l12 -33q-106 -29 -162 -29q-115 0 -184 50.5t-69 133.5q0 89 67 164t170 117l-2 8l-113 -12q11 113 11 117v32q0 27 -1 127.5t-1 118.5v8h-19q-17 -107 -59.5 -189t-103.5 -131t-132.5 -73t-152.5 -24q-171 0 -276 81t-105 228v1040q0 62 -66 62h-106v18h129
q37 0 71.5 5.5t66 17.5t50.5 34t19 52v8h18v-1219q0 -139 60 -215t161 -76q181 0 292.5 144t111.5 379v803q0 73 -20.5 90.5t-102.5 17.5h-37v19l348 8v-17q-8 -82 -8 -108v-1211q0 -73 19.5 -90.5t101.5 -17.5h39v-19q-22 0 -76 -4q-108 -19 -182 -98t-74 -188
q0 -68 48 -110t126 -42q48 0 131 23z" />
    <glyph glyph-name="Wcircumflex" unicode="&#x174;" horiz-adv-x="2435" 
d="M1292 1862l230 -209l-35 -37l-111 100q-48 45 -80 80t-32 41h-9q0 -7 -31.5 -41t-78.5 -76l-111 -100l-35 37l232 205h61zM16 1468l326 -2v-28q0 -42 16 -88l467 -1141q13 -39 13 -74h22q0 24 17 76l321 975l-45 137q-25 76 -49.5 101.5t-83.5 25.5h-51v18h504v-18h-213
v-4q21 -7 40 -34.5t29 -59.5l377 -1141q12 -55 12 -74h33q0 29 21 80l442 1108q14 32 14 59q0 66 -112 66h-86v18h383v-18h-33q-51 0 -74.5 -28t-50.5 -99l-535 -1335l-125 -11l-378 1143l-375 -1134l-125 -9l-537 1346q-28 80 -50 103.5t-81 23.5h-33v18z" />
    <glyph glyph-name="wcircumflex" unicode="&#x175;" horiz-adv-x="2435" 
d="M1292 1862l230 -209l-35 -37l-111 100q-48 45 -80 80t-32 41h-9q0 -7 -31.5 -41t-78.5 -76l-111 -100l-35 37l232 205h61zM16 1468l326 -2v-28q0 -42 16 -88l467 -1141q13 -39 13 -74h22q0 24 17 76l321 975l-45 137q-25 76 -49.5 101.5t-83.5 25.5h-51v18h504v-18h-213
v-4q21 -7 40 -34.5t29 -59.5l377 -1141q12 -55 12 -74h33q0 29 21 80l442 1108q14 32 14 59q0 66 -112 66h-86v18h383v-18h-33q-51 0 -74.5 -28t-50.5 -99l-535 -1335l-125 -11l-378 1143l-375 -1134l-125 -9l-537 1346q-28 80 -50 103.5t-81 23.5h-33v18z" />
    <glyph glyph-name="Ycircumflex" unicode="&#x176;" horiz-adv-x="1294" 
d="M707 1866l229 -209l-35 -37l-110 100q-113 105 -113 121h-8q0 -6 -32 -40.5t-79 -76.5l-110 -100l-35 37l231 205h62zM254 -4v18h195q81 0 99.5 17.5t18.5 91.5v569l-352 619q-7 13 -24 42.5t-22 37.5t-18.5 25.5t-23.5 22.5t-25.5 10t-35.5 5h-48v16h426v-16h-141v-4
q14 -4 29 -19.5t25.5 -31.5t30.5 -49q2 -3 3 -5t3 -5t3 -5l289 -504q27 -40 31 -65h16q4 23 29 65l270 476q33 54 33 88q0 57 -96 57h-135v16h434v-16h-37q-50 0 -77 -28.5t-75 -116.5l-334 -586v-600q0 -73 19.5 -91t99.5 -18h168v-16h-778z" />
    <glyph glyph-name="ycircumflex" unicode="&#x177;" horiz-adv-x="1294" 
d="M707 1866l229 -209l-35 -37l-110 100q-113 105 -113 121h-8q0 -6 -32 -40.5t-79 -76.5l-110 -100l-35 37l231 205h62zM254 -4v18h195q81 0 99.5 17.5t18.5 91.5v569l-352 619q-7 13 -24 42.5t-22 37.5t-18.5 25.5t-23.5 22.5t-25.5 10t-35.5 5h-48v16h426v-16h-141v-4
q14 -4 29 -19.5t25.5 -31.5t30.5 -49q2 -3 3 -5t3 -5t3 -5l289 -504q27 -40 31 -65h16q4 23 29 65l270 476q33 54 33 88q0 57 -96 57h-135v16h434v-16h-37q-50 0 -77 -28.5t-75 -116.5l-334 -586v-600q0 -73 19.5 -91t99.5 -18h168v-16h-778z" />
    <glyph glyph-name="Ydieresis" unicode="&#x178;" horiz-adv-x="1294" 
d="M455 1810q45 0 73.5 -24t28.5 -66q0 -40 -27.5 -65t-74.5 -25q-44 0 -71.5 24t-27.5 66q0 41 26.5 65.5t72.5 24.5zM897 1810q44 0 71 -24t27 -66q0 -41 -26 -65.5t-72 -24.5q-45 0 -73.5 24t-28.5 66q0 40 27.5 65t74.5 25zM260 0v18h193q81 0 99.5 17.5t18.5 91.5v569
l-352 619q-9 15 -24 42.5t-21 37t-18.5 26t-23 22t-26.5 10.5t-36 5h-47v17h426v-17h-140v-4q28 -9 82 -99q7 -10 10 -16l291 -503q26 -46 29 -66h16q2 12 29 66l270 475q33 54 33 88q0 57 -96 57h-135v17h434v-17h-37q-49 0 -75.5 -28.5t-76.5 -116.5l-333 -586v-600
q0 -74 19.5 -91.5t100.5 -17.5h166v-16h-776z" />
    <glyph glyph-name="Zacute" unicode="&#x179;" horiz-adv-x="1171" 
d="M489 1550l-20 17l266 284q8 11 23 11q7 0 22 -9l27 -20l-55 -61zM0 0l-2 18q28 0 74 41t88 119l590 1127q25 47 73 82t92 45v6h-442q-87 0 -141.5 -9t-97.5 -35t-63.5 -73t-25.5 -123l-2 -41l-14 2l25 434l14 -2l-6 -137q13 12 23 15.5t36 3.5h877v-19q-24 0 -69 -40
t-87 -120l-590 -1122q-48 -90 -108 -129v-6h516q85 0 138 8.5t94 32.5t61 68t24 114l4 76l23 -2l-27 -436l-22 2l6 116h-2q-13 -11 -20.5 -13.5t-32.5 -2.5h-1006z" />
    <glyph glyph-name="zacute" unicode="&#x17a;" horiz-adv-x="1171" 
d="M489 1550l-20 17l266 284q8 11 23 11q7 0 22 -9l27 -20l-55 -61zM0 0l-2 18q28 0 74 41t88 119l590 1127q25 47 73 82t92 45v6h-442q-87 0 -141.5 -9t-97.5 -35t-63.5 -73t-25.5 -123l-2 -41l-14 2l25 434l14 -2l-6 -137q13 12 23 15.5t36 3.5h877v-19q-24 0 -69 -40
t-87 -120l-590 -1122q-48 -90 -108 -129v-6h516q85 0 138 8.5t94 32.5t61 68t24 114l4 76l23 -2l-27 -436l-22 2l6 116h-2q-13 -11 -20.5 -13.5t-32.5 -2.5h-1006z" />
    <glyph glyph-name="Zdotaccent" unicode="&#x17b;" horiz-adv-x="1171" 
d="M594 1843q45 0 72.5 -24t27.5 -66q0 -41 -27 -66.5t-73 -25.5q-44 0 -72 25t-28 67q0 40 27.5 65t72.5 25zM0 0l-2 18q28 0 74 41t88 119l590 1127q25 47 73 82t92 45v6h-442q-87 0 -141.5 -9t-97.5 -35t-63.5 -73t-25.5 -123l-2 -41l-14 2l25 434l14 -2l-6 -137
q13 12 23 15.5t36 3.5h877v-19q-24 0 -69 -40t-87 -120l-590 -1122q-48 -90 -108 -129v-6h516q85 0 138 8.5t94 32.5t61 68t24 114l4 76l23 -2l-27 -436l-22 2l6 116h-2q-13 -11 -20.5 -13.5t-32.5 -2.5h-1006z" />
    <glyph glyph-name="zdotaccent" unicode="&#x17c;" horiz-adv-x="1171" 
d="M594 1843q45 0 72.5 -24t27.5 -66q0 -41 -27 -66.5t-73 -25.5q-44 0 -72 25t-28 67q0 40 27.5 65t72.5 25zM0 0l-2 18q28 0 74 41t88 119l590 1127q25 47 73 82t92 45v6h-442q-87 0 -141.5 -9t-97.5 -35t-63.5 -73t-25.5 -123l-2 -41l-14 2l25 434l14 -2l-6 -137
q13 12 23 15.5t36 3.5h877v-19q-24 0 -69 -40t-87 -120l-590 -1122q-48 -90 -108 -129v-6h516q85 0 138 8.5t94 32.5t61 68t24 114l4 76l23 -2l-27 -436l-22 2l6 116h-2q-13 -11 -20.5 -13.5t-32.5 -2.5h-1006z" />
    <glyph glyph-name="Zcaron" unicode="&#x17d;" horiz-adv-x="1171" 
d="M627 1610l-68 -4l-229 204l32 37l111 -100q49 -42 82 -76.5t33 -40.5h8q0 14 119 121l110 100l33 -36zM-4 -4l-2 18q28 0 74 41t88 119l589 1126q25 47 73 82t91 45v7h-440q-87 0 -141.5 -9t-97.5 -35t-63.5 -73t-25.5 -123l-2 -41l-14 2l25 434l14 -2l-6 -137
q13 11 23 14.5t36 3.5h875v-18q-24 0 -68.5 -40t-85.5 -120l-592 -1122q-45 -89 -106 -129v-6h516q85 0 138 8.5t94 32.5t61 68t24 114l4 76l23 -2l-27 -436l-22 2l6 116h-2q-12 -11 -20.5 -13.5t-35.5 -2.5h-1003z" />
    <glyph glyph-name="zcaron" unicode="&#x17e;" horiz-adv-x="1171" 
d="M627 1610l-68 -4l-229 204l32 37l111 -100q49 -42 82 -76.5t33 -40.5h8q0 14 119 121l110 100l33 -36zM-4 -4l-2 18q28 0 74 41t88 119l589 1126q25 47 73 82t91 45v7h-440q-87 0 -141.5 -9t-97.5 -35t-63.5 -73t-25.5 -123l-2 -41l-14 2l25 434l14 -2l-6 -137
q13 11 23 14.5t36 3.5h875v-18q-24 0 -68.5 -40t-85.5 -120l-592 -1122q-45 -89 -106 -129v-6h516q85 0 138 8.5t94 32.5t61 68t24 114l4 76l23 -2l-27 -436l-22 2l6 116h-2q-12 -11 -20.5 -13.5t-35.5 -2.5h-1003z" />
    <glyph glyph-name="florin" unicode="&#x192;" horiz-adv-x="780" 
d="M717 1296q-50 50 -144 50q-88 0 -138.5 -60.5t-57.5 -175.5l-12 -166h200l-4 -53h-231v-4q24 -14 24 -64l-84 -1095h-159l90 1163h-140l5 53h139l4 74q15 186 110 284.5t261 98.5q116 0 178 -78z" />
    <glyph glyph-name="uni01CD" unicode="&#x1cd;" horiz-adv-x="1708" 
d="M909 1610l-67 -4l-230 204l35 37l111 -100q48 -42 81 -76.5t33 -40.5h9q0 6 33 41t83 80l111 100l35 -36zM14 -4v18h35q39 0 66 31.5t59 95.5l633 1327h174v-24q0 -74 18 -119l533 -1184q4 -8 10 -22q30 -67 50 -86t73 -19h18v-18h-430v18h172v4q-11 4 -21 13t-20 28
t-13.5 26t-14.5 30l-125 280h-893l-121 -254q-12 -24 -12 -47q0 -36 29 -58t79 -22h111v-18h-410zM356 432h858l-383 854q-18 37 -18 82h-20q0 -24 -27 -82z" />
    <glyph glyph-name="uni01CE" unicode="&#x1ce;" horiz-adv-x="1214" 
d="M612 1610l-67 -4l-230 204l33 37l111 -100q48 -42 81 -76.5t33 -40.5h11q0 6 33 41t83 80l111 100l35 -36zM831 741v439q0 132 -67.5 200t-198.5 68q-162 0 -252 -77t-96 -202l-8 -127h-41l27 484h22l-8 -109q-3 -49 -8 -65l16 -4q2 6 14 23t21 24q134 90 311 90
q218 0 333.5 -85.5t115.5 -246.5v-1012q0 -65 12 -84.5t61 -19.5q7 0 21 1t24 1l39 2l2 -18q-129 -12 -249 -46v17q0 50 -21 168t-22 149h-23q-48 -174 -147.5 -252.5t-231.5 -78.5q-185 0 -305.5 93t-120.5 242q0 192 166 309t438 117h176zM831 705h-163
q-190 0 -305 -107.5t-115 -282.5q0 -126 71 -203t185 -77q61 0 118 26t104.5 75.5t76 133t28.5 189.5v246z" />
    <glyph glyph-name="uni01CF" unicode="&#x1cf;" horiz-adv-x="653" 
d="M358 1610l-67 -4l-230 204l33 37l111 -100q48 -42 81 -76.5t33 -40.5h11q0 6 33 41t83 80l111 100l33 -36zM37 -4v18h78q82 0 100 16.5t18 90.5v1222q0 74 -18 90.5t-100 16.5h-78v18h573v-22h-78q-82 0 -102 -17t-20 -90v-1218q0 -73 20 -90t102 -17h78v-18h-573z" />
    <glyph glyph-name="uni01D0" unicode="&#x1d0;" horiz-adv-x="653" 
d="M358 1610l-67 -4l-230 204l33 37l111 -100q48 -42 81 -76.5t33 -40.5h11q0 6 33 41t83 80l111 100l33 -36zM37 1450v18h573v-22h-78q-82 0 -102 -17t-20 -90v-1218q0 -73 20 -90t102 -17h78v-18h-573v18h78q82 0 100 16.5t18 90.5v1222q0 74 -18 90.5t-100 16.5h-78z" />
    <glyph glyph-name="uni01D1" unicode="&#x1d1;" 
d="M938 1610l-68 -4l-231 204l35 37l110 -100q49 -42 82 -76.5t33 -40.5h8q0 6 34 41t85 80l109 100l34 -36zM901 -20q-249 0 -438.5 93.5t-293 264.5t-103.5 395q0 338 229.5 545t605.5 207q247 0 436 -93.5t292.5 -264.5t103.5 -394q0 -224 -103.5 -395t-292.5 -264.5
t-436 -93.5zM907 16q306 0 467.5 174t161.5 504q0 367 -165 560.5t-478 193.5q-309 0 -470 -174t-161 -504q0 -367 165 -560.5t480 -193.5z" />
    <glyph glyph-name="uni01D2" unicode="&#x1d2;" 
d="M938 1614l-68 -4l-231 205l35 36l110 -100q49 -42 82 -76.5t33 -40.5h8q0 6 34 41t85 80l109 100l34 -36zM901 -20q-249 0 -438.5 93.5t-293 264.5t-103.5 395q0 338 229.5 545t605.5 207q247 0 436 -93.5t292.5 -264.5t103.5 -394q0 -224 -103.5 -395t-292.5 -264.5
t-436 -93.5zM907 16q306 0 467.5 174t161.5 504q0 367 -165 560.5t-478 193.5q-309 0 -470 -174t-161 -504q0 -367 165 -560.5t480 -193.5z" />
    <glyph glyph-name="uni01D3" unicode="&#x1d3;" horiz-adv-x="1306" 
d="M743 1610l-67 -4l-230 204l33 37l111 -100q49 -42 82 -76.5t33 -40.5h10q0 6 33 41t83 80l111 100l33 -36zM37 1468h573v-18h-98q-82 0 -101.5 -17.5t-19.5 -91.5v-1083q0 -118 70.5 -180t202.5 -62q181 0 276.5 81t95.5 235v973q0 79 -25.5 112t-103.5 33h-82v18h439
v-18h-60q-76 0 -101.5 -33.5t-25.5 -111.5v-973q0 -172 -106 -262t-307 -90q-200 0 -323.5 97t-123.5 255v1009q0 73 -20.5 91t-102.5 18h-57v18z" />
    <glyph glyph-name="uni01D4" unicode="&#x1d4;" horiz-adv-x="1372" 
d="M1339 33l-2 -19q-150 -6 -303 -37v17q8 82 8 117v32q0 27 -1 127.5t-1 118.5v8h-18q-34 -210 -156 -313.5t-293 -103.5q-169 0 -273.5 81t-104.5 228v1040q0 62 -66 62h-106v18h129q51 0 95 9t77.5 35t33.5 65v8h19v-1219q0 -139 60 -215t159 -76q181 0 292 144t111 379
v802q0 74 -19.5 91.5t-100.5 17.5h-39v18l350 9v-17q-10 -102 -10 -108v-1211q0 -73 20.5 -90.5t102.5 -17.5h36zM700 1610l-67 -4l-230 204l33 37l111 -100q49 -42 82 -76.5t33 -40.5h10q0 6 33 41t83 80l111 100l33 -36z" />
    <glyph glyph-name="uni01E2" unicode="&#x1e2;" horiz-adv-x="2043" 
d="M1436 1692h-617l6 53h615zM1038 1448h-161q-57 0 -95 -82l-352 -766h608v848zM840 0l2 18h80q81 0 99.5 17.5t18.5 91.5v436h-626l-191 -418q-12 -32 -12 -47q0 -36 29 -58t79 -22h111v-18h-410v18h37q67 0 123 127l561 1219q15 38 15 53q0 31 -37 31v25h1020
q62 0 84 -19h2l-6 94l20 2l39 -555h-39l-10 144q-9 161 -94 229t-252 68h-318v-2q49 -45 49 -107v-536h91q43 0 74 3.5t65 16.5t55 35.5t35 63.5t14 98v71h21v-657h-21v113q0 57 -14 98t-35 64t-55 36.5t-65 17t-74 3.5h-91v-609q0 -61 -49 -106v-2h449q163 0 243.5 65
t92.5 211l12 164h37l-39 -555l-21 2l7 94h-2q-18 -18 -82 -18h-1022z" />
    <glyph glyph-name="uni01E3" unicode="&#x1e3;" horiz-adv-x="2461" 
d="M836 836l4 350q0 132 -68 201t-199 69q-160 0 -251 -77.5t-97 -202.5l-6 -127h-41l25 483h22l-6 -109q-3 -50 -10 -65l16 -4q2 7 14 23.5t23 23.5q134 90 309 90q193 0 307 -69t134 -199q109 128 277.5 197t381.5 69q197 0 360.5 -76.5t262 -219.5t98.5 -325v-10
q0 -25 -20.5 -42t-49.5 -17h-1282v-25q0 -361 170 -557.5t463 -196.5q225 0 398 83.5t272 234.5l31 -23q-105 -158 -289 -244.5t-422 -86.5q-276 0 -481.5 128.5t-290.5 350.5h-14q0 -209 -109.5 -344t-286.5 -135q-190 0 -307 103.5t-117 272.5q0 213 165.5 344.5
t436.5 131.5h177zM1042 838l1135 14q16 0 16 18q0 263 -144.5 423.5t-383.5 160.5q-289 0 -448.5 -157.5t-174.5 -458.5zM840 801h-164q-188 0 -304 -121.5t-116 -317.5q0 -145 71 -233t187 -88q61 0 118 26t104 75.5t75.5 133t28.5 189.5v336zM1333 1696h-614l4 53h614z
" />
    <glyph glyph-name="Gcaron" unicode="&#x1e6;" horiz-adv-x="1636" 
d="M1434 -86h-21v143q-2 39 -28 70t-62 31q-33 0 -66 -29q-76 -73 -180 -111t-221 -38q-233 0 -411.5 94t-276.5 266t-98 397q0 222 96 392t271.5 263t404.5 93q244 0 413 -129q19 -19 25 -39l8 2q-6 24 -6 47l-12 199l22 2l37 -631l-39 -2l-8 135q-12 173 -146.5 276
t-316.5 103q-270 0 -411.5 -173.5t-141.5 -504.5q0 -367 153 -560.5t445 -193.5q118 2 221 44t170 124v269q0 86 -58 138t-153 52h-260v37h840v-37h-190v-729zM887 1614l-68 -4l-229 205l35 36l110 -100q49 -42 82 -76.5t33 -40.5h8q0 6 33 40.5t84 80.5l110 100l35 -36z
" />
    <glyph glyph-name="gcaron" unicode="&#x1e7;" horiz-adv-x="1636" 
d="M1434 -86h-21v143q-2 39 -28 70t-62 31q-33 0 -66 -29q-76 -73 -180 -111t-221 -38q-233 0 -411.5 94t-276.5 266t-98 397q0 222 96 392t271.5 263t404.5 93q244 0 413 -129q19 -19 25 -39l8 2q-6 24 -6 47l-12 199l22 2l37 -631l-39 -2l-8 135q-12 173 -146.5 276
t-316.5 103q-270 0 -411.5 -173.5t-141.5 -504.5q0 -367 153 -560.5t445 -193.5q118 2 221 44t170 124v269q0 86 -58 138t-153 52h-260v37h840v-37h-190v-729zM887 1614l-68 -4l-229 205l35 36l110 -100q49 -42 82 -76.5t33 -40.5h8q0 6 33 40.5t84 80.5l110 100l35 -36z
" />
    <glyph glyph-name="uni01E8" unicode="&#x1e8;" horiz-adv-x="1320" 
d="M700 1610l-67 -4l-230 204l33 37l111 -100q49 -42 82 -76.5t33 -40.5h10q0 6 33 41t83 80l111 100l33 -36zM37 -4l6 18h78q82 0 101.5 20.5t19.5 106.5v1200q0 74 -19.5 91.5t-101.5 17.5h-78v18h516v-18h-20q-82 0 -101.5 -17.5t-19.5 -91.5v-460q67 0 99 5t46 23
l357 408q38 46 38 78q0 55 -118 55h-21v18h498v-18h-27q-86 0 -175 -33t-154 -108l-359 -412l2 -8q102 -21 177 -64.5t120.5 -104t71 -121t41.5 -136.5q8 -40 15.5 -93t12.5 -91.5t13 -81t19 -71.5t28.5 -54t44.5 -37t63 -12q51 0 105 40l31 21l12 -14l-29 -21
q-94 -76 -184 -76q-64 0 -112 25.5t-75.5 54t-52 97t-33 103.5t-25.5 125q-9 43 -13 64q-16 75 -31.5 127t-46 111.5t-70 96t-103.5 61t-147 24.5h-26v-721q0 -86 20 -106.5t102 -20.5h78v-18h-573z" />
    <glyph glyph-name="uni01E9" unicode="&#x1e9;" horiz-adv-x="1320" 
d="M700 1610l-67 -4l-230 204l33 37l111 -100q49 -42 82 -76.5t33 -40.5h10q0 6 33 41t83 80l111 100l33 -36zM37 -4l6 18h78q82 0 101.5 20.5t19.5 106.5v1200q0 74 -19.5 91.5t-101.5 17.5h-78v18h516v-18h-20q-82 0 -101.5 -17.5t-19.5 -91.5v-460q67 0 99 5t46 23
l357 408q38 46 38 78q0 55 -118 55h-21v18h498v-18h-27q-86 0 -175 -33t-154 -108l-359 -412l2 -8q102 -21 177 -64.5t120.5 -104t71 -121t41.5 -136.5q8 -40 15.5 -93t12.5 -91.5t13 -81t19 -71.5t28.5 -54t44.5 -37t63 -12q51 0 105 40l31 21l12 -14l-29 -21
q-94 -76 -184 -76q-64 0 -112 25.5t-75.5 54t-52 97t-33 103.5t-25.5 125q-9 43 -13 64q-16 75 -31.5 127t-46 111.5t-70 96t-103.5 61t-147 24.5h-26v-721q0 -86 20 -106.5t102 -20.5h78v-18h-573z" />
    <glyph glyph-name="uni01EA" unicode="&#x1ea;" 
d="M1147 -401l10 -37q-106 -29 -162 -29q-115 0 -184.5 50.5t-69.5 133.5q0 89 60 157.5t157 109.5h-53q-249 0 -438.5 93.5t-293 264.5t-103.5 395q0 338 229.5 545t605.5 207q247 0 436 -93.5t292.5 -264.5t103.5 -394q0 -290 -171.5 -487t-463.5 -250l-10 -2
q-108 -20 -179 -92t-71 -178q0 -67 48.5 -109.5t125.5 -42.5q53 0 131 23zM913 18q306 0 466.5 174t160.5 504q0 367 -165 560.5t-478 193.5q-307 0 -469 -174t-162 -504q0 -367 165.5 -560.5t481.5 -193.5z" />
    <glyph glyph-name="uni01EB" unicode="&#x1eb;" 
d="M1147 -401l10 -37q-106 -29 -162 -29q-115 0 -184.5 50.5t-69.5 133.5q0 89 60 157.5t157 109.5h-53q-249 0 -438.5 93.5t-293 264.5t-103.5 395q0 338 229.5 545t605.5 207q247 0 436 -93.5t292.5 -264.5t103.5 -394q0 -290 -171.5 -487t-463.5 -250l-10 -2
q-108 -20 -179 -92t-71 -178q0 -67 48.5 -109.5t125.5 -42.5q53 0 131 23zM913 18q306 0 466.5 174t160.5 504q0 367 -165 560.5t-478 193.5q-307 0 -469 -174t-162 -504q0 -367 165.5 -560.5t481.5 -193.5z" />
    <glyph glyph-name="uni01EC" unicode="&#x1ec;" 
d="M1147 -401l10 -37q-106 -29 -162 -29q-115 0 -184.5 50.5t-69.5 133.5q0 89 60 157.5t157 109.5h-53q-249 0 -438.5 93.5t-293 264.5t-103.5 395q0 338 229.5 545t605.5 207q247 0 436 -93.5t292.5 -264.5t103.5 -394q0 -290 -171.5 -487t-463.5 -250l-10 -2
q-108 -20 -179 -92t-71 -178q0 -67 48.5 -109.5t125.5 -42.5q53 0 131 23zM913 18q306 0 466.5 174t160.5 504q0 367 -165 560.5t-478 193.5q-307 0 -469 -174t-162 -504q0 -367 165.5 -560.5t481.5 -193.5zM1212 1692h-616l6 53h615z" />
    <glyph glyph-name="uni01ED" unicode="&#x1ed;" 
d="M1145 -401l10 -37q-106 -29 -162 -29q-115 0 -184.5 50.5t-69.5 133.5q0 89 59.5 157.5t155.5 109.5h-51q-249 0 -438.5 93.5t-293 264.5t-103.5 395q0 338 229.5 545t605.5 207q247 0 436 -93.5t292.5 -264.5t103.5 -394q0 -290 -171.5 -487t-463.5 -250l-10 -2
q-108 -20 -179 -92t-71 -178q0 -68 48 -110t126 -42q53 0 131 23zM909 18q306 0 467.5 174t161.5 504q0 367 -165 560.5t-478 193.5q-307 0 -469 -174t-162 -504q0 -367 165 -560.5t480 -193.5zM1210 1694h-616l6 53h614z" />
    <glyph glyph-name="uni01F0" unicode="&#x1f0;" horiz-adv-x="915" 
d="M639 1573l-68 -4l-229 205l35 36l110 -100q49 -42 82 -76.5t33 -40.5h8q0 6 33 40.5t84 80.5l111 101l34 -37zM70 238q0 -98 74 -159t194 -61q88 0 134 56t46 162v1157q0 23 4 32.5t17 20.5v4h-312v18h645v-18h-59q-119 0 -119 -109v-1013q0 -154 -100.5 -250t-255.5 -96
q-130 0 -209.5 70t-79.5 186h21z" />
    <glyph glyph-name="uni01F4" unicode="&#x1f4;" horiz-adv-x="1636" 
d="M1438 -82h-21v143q-2 39 -28 70t-62 31q-32 0 -65 -29q-76 -73 -180.5 -111t-221.5 -38q-233 0 -411.5 94t-276.5 266t-98 397q0 222 96 392t272 263t406 93q242 0 412 -129q18 -18 24 -39l8 2q-6 24 -6 47l-10 199l22 2l35 -631l-39 -2l-8 135q-12 173 -146.5 276
t-314.5 103q-270 0 -412.5 -173.5t-142.5 -504.5q0 -367 153.5 -560.5t446.5 -193.5q116 2 220 44.5t170 123.5v269q0 86 -57.5 138t-151.5 52h-263v37h840v-37h-190v-729zM750 1554l-21 17l266 284q11 11 23 11q11 0 22 -8l27 -21l-53 -61z" />
    <glyph glyph-name="uni01F5" unicode="&#x1f5;" horiz-adv-x="1636" 
d="M1438 -82h-21v143q-2 39 -28 70t-62 31q-32 0 -65 -29q-76 -73 -180.5 -111t-221.5 -38q-233 0 -411.5 94t-276.5 266t-98 397q0 222 96 392t272 263t406 93q242 0 412 -129q18 -18 24 -39l8 2q-6 24 -6 47l-10 199l22 2l35 -631l-39 -2l-8 135q-12 173 -146.5 276
t-314.5 103q-270 0 -412.5 -173.5t-142.5 -504.5q0 -367 153.5 -560.5t446.5 -193.5q116 2 220 44.5t170 123.5v269q0 86 -57.5 138t-151.5 52h-263v37h840v-37h-190v-729zM750 1554l-21 17l266 284q11 11 23 11q11 0 22 -8l27 -21l-53 -61z" />
    <glyph glyph-name="uni01F8" unicode="&#x1f8;" horiz-adv-x="1310" 
d="M748 1554l-263 222l-55 61l27 21q13 8 22 8q15 0 23 -11l266 -284zM440 0h-399v18h57q82 0 102.5 18t20.5 91v1219q0 73 -20.5 90.5t-102.5 17.5h-57v19h344l619 -1033q38 -59 38 -75h15q-2 23 -2 86v874q0 73 -32 101t-114 28h-100v19h463v-19h-35q-82 0 -113.5 -28
t-31.5 -101v-1364h-17q0 8 -3 18t-11.5 25.5t-13.5 24.5t-18 30.5t-17 28.5l-699 1153q-45 76 -45 80h-12q4 -23 4 -88v-1106q0 -74 19.5 -91.5t101.5 -17.5h59v-18z" />
    <glyph glyph-name="uni01F9" unicode="&#x1f9;" horiz-adv-x="1435" 
d="M41 0l-2 18h78q82 0 101.5 17.5t19.5 91.5v1167q0 28 -21.5 47t-54.5 19h-6l-133 -10l-3 12l175 33q72 13 118.5 51t46.5 98v8h19v-268q0 -179 -4 -215h14q11 68 37 133q50 131 161.5 209t250.5 78q180 0 279.5 -83.5t99.5 -225.5v-1053q0 -74 18.5 -91.5t99.5 -17.5h82
v-18h-575v18h219v5q-13 11 -17 20.5t-4 32.5v1069q0 155 -52.5 232t-168.5 77q-174 0 -289.5 -139.5t-115.5 -360.5v-827q0 -73 20.5 -91t102.5 -18h77v-18h-573zM817 1550l-262 222l-55 61l26 20q15 9 23 9q14 0 22 -11l267 -284z" />
    <glyph glyph-name="AEacute" unicode="&#x1fc;" horiz-adv-x="2043" 
d="M1022 1550l-18 17l264 284q11 11 22 11t23 -9l26 -20l-53 -61zM1038 1448h-161q-57 0 -95 -82l-352 -766h608v848zM840 0l2 18h80q81 0 99.5 17.5t18.5 91.5v436h-626l-191 -418q-12 -32 -12 -47q0 -36 29 -58t79 -22h111v-18h-410v18h37q67 0 123 127l561 1219
q15 38 15 53q0 31 -37 31v25h1020q62 0 84 -19h2l-6 94l20 2l39 -555h-39l-10 144q-9 161 -94 229t-252 68h-318v-2q49 -45 49 -107v-536h91q43 0 74 3.5t65 16.5t55 35.5t35 63.5t14 98v71h21v-657h-21v113q0 57 -14 98t-35 64t-55 36.5t-65 17t-74 3.5h-91v-609
q0 -61 -49 -106v-2h449q163 0 243.5 65t92.5 211l12 164h37l-39 -555l-21 2l7 94h-2q-18 -18 -82 -18h-1022z" />
    <glyph glyph-name="aeacute" unicode="&#x1fd;" horiz-adv-x="2461" 
d="M836 836l4 350q0 132 -68 201t-199 69q-160 0 -251 -77.5t-97 -202.5l-6 -127h-41l25 483h22l-6 -109q-3 -50 -10 -65l16 -4q2 7 14 23.5t23 23.5q134 90 309 90q193 0 307 -69t134 -199q109 128 277.5 197t381.5 69q197 0 360.5 -76.5t262 -219.5t98.5 -325v-10
q0 -25 -20.5 -42t-49.5 -17h-1282v-25q0 -361 170 -557.5t463 -196.5q225 0 398 83.5t272 234.5l31 -23q-105 -158 -289 -244.5t-422 -86.5q-276 0 -481.5 128.5t-290.5 350.5h-14q0 -209 -109.5 -344t-286.5 -135q-190 0 -307 103.5t-117 272.5q0 213 165.5 344.5
t436.5 131.5h177zM1042 838l1135 14q16 0 16 18q0 263 -144.5 423.5t-383.5 160.5q-289 0 -448.5 -157.5t-174.5 -458.5zM840 801h-164q-188 0 -304 -121.5t-116 -317.5q0 -145 71 -233t187 -88q61 0 118 26t104 75.5t75.5 133t28.5 189.5v336zM922 1554l-21 17l266 284
q8 11 23 11q9 0 22 -8l27 -21l-53 -61z" />
    <glyph glyph-name="Oslashacute" unicode="&#x1fe;" 
d="M801 1550l-21 17l264 284q11 11 23 11q11 0 23 -9l28 -20l-55 -61zM250 -98l-47 35l166 202q-143 100 -221 254t-78 346q0 338 229.5 545t605.5 207q281 0 484 -121l167 203l50 -33l-166 -203q143 -100 221 -254t78 -346q0 -224 -103.5 -395t-292.5 -264.5t-436 -93.5
q-285 0 -487 120zM915 23q306 0 467.5 173.5t161.5 503.5q0 370 -168 562l-901 -1090q166 -149 440 -149zM434 215l903 1090q-158 149 -436 149q-307 0 -469 -174t-162 -504q0 -370 164 -561z" />
    <glyph glyph-name="oslashacute" unicode="&#x1ff;" 
d="M250 -98l-47 35l166 202q-143 100 -221 254t-78 346q0 338 229.5 545t605.5 207q281 0 484 -121l167 203l50 -33l-166 -203q143 -100 221 -254t78 -346q0 -224 -103.5 -395t-292.5 -264.5t-436 -93.5q-285 0 -487 120zM915 23q306 0 467.5 173.5t161.5 503.5
q0 370 -168 562l-901 -1090q166 -149 440 -149zM434 215l903 1090q-158 149 -436 149q-307 0 -469 -174t-162 -504q0 -370 164 -561zM805 1552l-21 17l267 284q8 11 22 11q8 0 23 -9l26 -20l-55 -61z" />
    <glyph glyph-name="uni0200" unicode="&#x200;" horiz-adv-x="1708" 
d="M580 1862l217 -232l-19 -18l-211 168l-39 41zM940 1862l217 -232l-20 -18l-209 168l-37 41zM18 0v18h35q39 0 66 31.5t59 95.5l633 1328h174v-25q0 -75 21 -119l530 -1184q37 -82 51 -98q25 -29 82 -29h19v-18h-431v18h173v5q-31 10 -70 96l-125 280h-893l-121 -254
q-12 -32 -12 -47q0 -36 29 -58t79 -22h111v-18h-410zM360 436h859l-383 854q-19 39 -19 82h-20q0 -24 -27 -82z" />
    <glyph glyph-name="uni0201" unicode="&#x201;" horiz-adv-x="1214" 
d="M281 1862l219 -232l-21 -18l-209 168l-39 41zM641 1862l219 -232l-20 -18l-209 168l-39 41zM836 745v439q0 132 -68 200t-199 68q-162 0 -252 -76.5t-96 -201.5l-6 -127h-41l25 483h22l-6 -109q-8 -58 -10 -65l16 -4q2 6 14 23t21 24q134 90 311 90q218 0 333.5 -85.5
t115.5 -246.5v-1012q0 -65 12.5 -84.5t61.5 -19.5q7 0 22 1t23 1l39 2l2 -18q-135 -12 -250 -45v16q0 50 -21 168t-22 149h-23q-48 -174 -147 -252.5t-232 -78.5q-184 0 -304 93t-120 242q0 192 165.5 309t436.5 117h177zM836 709h-164q-189 0 -304.5 -107.5t-115.5 -282.5
q0 -126 71 -203t187 -77q61 0 118 26t104 75.5t75.5 133t28.5 189.5v246z" />
    <glyph glyph-name="uni0202" unicode="&#x202;" horiz-adv-x="1708" 
d="M567 1618q139 237 312 237q94 0 177 -66t134 -171l-33 -19q-138 183 -278 183q-135 0 -271 -183zM18 0v18h35q39 0 66 31.5t59 95.5l633 1328h174v-25q0 -75 21 -119l530 -1184q37 -82 51 -98q25 -29 82 -29h19v-18h-431v18h173v5q-31 10 -70 96l-125 280h-893l-121 -254
q-12 -32 -12 -47q0 -36 29 -58t79 -22h111v-18h-410zM360 436h859l-383 854q-19 39 -19 82h-20q0 -24 -27 -82z" />
    <glyph glyph-name="uni0203" unicode="&#x203;" horiz-adv-x="1214" 
d="M270 1618q137 237 312 237q92 0 176 -66t135 -171l-33 -19q-138 183 -278 183q-135 0 -271 -183zM836 745v439q0 132 -68 200t-199 68q-162 0 -252 -76.5t-96 -201.5l-6 -127h-41l25 483h22l-6 -109q-8 -58 -10 -65l16 -4q2 6 14 23t21 24q134 90 311 90
q218 0 333.5 -85.5t115.5 -246.5v-1012q0 -65 12.5 -84.5t61.5 -19.5q7 0 22 1t23 1l39 2l2 -18q-135 -12 -250 -45v16q0 50 -21 168t-22 149h-23q-48 -174 -147 -252.5t-232 -78.5q-184 0 -304 93t-120 242q0 192 165.5 309t436.5 117h177zM836 709h-164
q-189 0 -304.5 -107.5t-115.5 -282.5q0 -126 71 -203t187 -77q61 0 118 26t104 75.5t75.5 133t28.5 189.5v246z" />
    <glyph glyph-name="uni0204" unicode="&#x204;" horiz-adv-x="1243" 
d="M356 1862l217 -232l-18 -18l-211 168l-37 41zM717 1862l219 -232l-21 -18l-210 168l-37 41zM768 422h-20v113q0 57 -14 98t-35 64t-55 36.5t-65.5 17t-74.5 3.5h-90v-609q0 -61 -49 -106v-2h448q164 0 244 64.5t92 211.5l14 164h35l-39 -555l-18 2l6 94h-2
q-21 -18 -84 -18h-1020v18h78q82 0 101.5 17.5t19.5 91.5v1219q0 73 -19.5 90.5t-101.5 17.5h-78v19h899q63 0 82 -19h4l-8 94l20 2l41 -555h-41l-8 144q-10 161 -95 229t-253 68h-317v-2q49 -45 49 -107v-536h90q44 0 75 3.5t65 16.5t55 35.5t35 63.5t14 98v71h20v-657z
" />
    <glyph glyph-name="uni0205" unicode="&#x205;" horiz-adv-x="1695" 
d="M1552 799h-1278v-25q0 -361 170 -557.5t463 -196.5q225 0 398 83.5t272 234.5l31 -23q-105 -158 -289 -244.5t-422 -86.5q-235 0 -423 93.5t-296 267t-108 396.5q0 222 103.5 392t292 263t435.5 93q196 0 359.5 -76.5t262.5 -219.5t99 -325v-10q0 -25 -20.5 -42
t-49.5 -17zM276 836l1135 14q16 0 16 18q0 263 -145 423.5t-383 160.5q-289 0 -448.5 -157.5t-174.5 -458.5zM569 1866l219 -232l-20 -18l-209 168l-39 41zM930 1866l219 -232l-21 -18l-208 168l-39 41z" />
    <glyph glyph-name="uni0206" unicode="&#x206;" horiz-adv-x="1243" 
d="M344 1618q139 237 311 237q94 0 177.5 -66t134.5 -171l-31 -19q-141 183 -281 183q-134 0 -270 -183zM768 422h-20v113q0 57 -14 98t-35 64t-55 36.5t-65.5 17t-74.5 3.5h-90v-609q0 -61 -49 -106v-2h448q164 0 244 64.5t92 211.5l14 164h35l-39 -555l-18 2l6 94h-2
q-21 -18 -84 -18h-1020v18h78q82 0 101.5 17.5t19.5 91.5v1219q0 73 -19.5 90.5t-101.5 17.5h-78v19h899q63 0 82 -19h4l-8 94l20 2l41 -555h-41l-8 144q-10 161 -95 229t-253 68h-317v-2q49 -45 49 -107v-536h90q44 0 75 3.5t65 16.5t55 35.5t35 63.5t14 98v71h20v-657z
" />
    <glyph glyph-name="uni0207" unicode="&#x207;" horiz-adv-x="1695" 
d="M1552 799h-1278v-25q0 -361 170 -557.5t463 -196.5q225 0 398 83.5t272 234.5l31 -23q-105 -158 -289 -244.5t-422 -86.5q-235 0 -423 93.5t-296 267t-108 396.5q0 222 103.5 392t292 263t435.5 93q196 0 359.5 -76.5t262.5 -219.5t99 -325v-10q0 -25 -20.5 -42
t-49.5 -17zM276 836l1135 14q16 0 16 18q0 263 -145 423.5t-383 160.5q-289 0 -448.5 -157.5t-174.5 -458.5zM559 1622q137 238 311 238q92 0 175.5 -66.5t134.5 -171.5l-31 -18q-140 182 -279 182q-135 0 -270 -182z" />
    <glyph glyph-name="uni0208" unicode="&#x208;" horiz-adv-x="653" 
d="M27 1862l219 -232l-21 -18l-209 168l-39 41zM387 1862l219 -232l-20 -18l-209 168l-39 41zM41 0v18h78q82 0 101.5 17t19.5 90v1223q0 73 -19.5 89.5t-101.5 16.5h-78v19h573v-23h-77q-83 0 -103 -17t-20 -90v-1218q0 -73 20 -90t103 -17h77v-18h-573z" />
    <glyph glyph-name="uni0209" unicode="&#x209;" horiz-adv-x="653" 
d="M27 1862l219 -232l-21 -18l-209 168l-39 41zM387 1862l219 -232l-20 -18l-209 168l-39 41zM41 1454v19h573v-23h-77q-83 0 -103 -17t-20 -90v-1218q0 -73 20 -90t103 -17h77v-18h-573v18h78q82 0 101.5 17t19.5 90v1223q0 73 -19.5 89.5t-101.5 16.5h-78z" />
    <glyph glyph-name="uni020A" unicode="&#x20a;" horiz-adv-x="653" 
d="M16 1618q137 237 310 237q94 0 177 -66t134 -171l-31 -19q-141 183 -280 183q-133 0 -269 -183zM41 0v18h78q82 0 101.5 17t19.5 90v1223q0 73 -19.5 89.5t-101.5 16.5h-78v19h573v-23h-77q-83 0 -103 -17t-20 -90v-1218q0 -73 20 -90t103 -17h77v-18h-573z" />
    <glyph glyph-name="uni020B" unicode="&#x20b;" horiz-adv-x="653" 
d="M16 1618q137 237 310 237q94 0 177 -66t134 -171l-31 -19q-141 183 -280 183q-133 0 -269 -183zM41 1454v19h573v-23h-77q-83 0 -103 -17t-20 -90v-1218q0 -73 20 -90t103 -17h77v-18h-573v18h78q82 0 101.5 17t19.5 90v1223q0 73 -19.5 89.5t-101.5 16.5h-78z" />
    <glyph glyph-name="uni020C" unicode="&#x20c;" 
d="M606 1862l219 -232l-20 -18l-211 168l-37 41zM967 1862l219 -232l-21 -18l-211 168l-36 41zM905 -16q-249 0 -438.5 93.5t-293 264.5t-103.5 395q0 338 229.5 545t605.5 207q247 0 436 -93.5t292.5 -264.5t103.5 -394q0 -224 -103.5 -395t-292.5 -264.5t-436 -93.5z
M913 20q306 0 466.5 174t160.5 504q0 367 -165 560.5t-478 193.5q-307 0 -469 -174t-162 -504q0 -367 165.5 -560.5t481.5 -193.5z" />
    <glyph glyph-name="uni020D" unicode="&#x20d;" 
d="M606 1866l219 -232l-20 -18l-211 168l-37 41zM967 1866l219 -232l-21 -18l-211 168l-36 41zM905 -16q-249 0 -438.5 93.5t-293 264.5t-103.5 395q0 338 229.5 545t605.5 207q247 0 436 -93.5t292.5 -264.5t103.5 -394q0 -224 -103.5 -395t-292.5 -264.5t-436 -93.5z
M913 20q306 0 466.5 174t160.5 504q0 367 -165 560.5t-478 193.5q-307 0 -469 -174t-162 -504q0 -367 165.5 -560.5t481.5 -193.5z" />
    <glyph glyph-name="uni020E" unicode="&#x20e;" 
d="M594 1618q139 237 311 237q94 0 177.5 -66t134.5 -171l-31 -19q-141 183 -281 183q-131 0 -270 -183zM905 -16q-249 0 -438.5 93.5t-293 264.5t-103.5 395q0 338 229.5 545t605.5 207q247 0 436 -93.5t292.5 -264.5t103.5 -394q0 -224 -103.5 -395t-292.5 -264.5
t-436 -93.5zM913 20q306 0 466.5 174t160.5 504q0 367 -165 560.5t-478 193.5q-307 0 -469 -174t-162 -504q0 -367 165.5 -560.5t481.5 -193.5z" />
    <glyph glyph-name="uni020F" unicode="&#x20f;" 
d="M594 1622q140 238 311 238q94 0 177.5 -66.5t134.5 -171.5l-31 -18q-140 182 -281 182q-132 0 -270 -182zM905 -16q-249 0 -438.5 93.5t-293 264.5t-103.5 395q0 338 229.5 545t605.5 207q247 0 436 -93.5t292.5 -264.5t103.5 -394q0 -224 -103.5 -395t-292.5 -264.5
t-436 -93.5zM913 20q306 0 466.5 174t160.5 504q0 367 -165 560.5t-478 193.5q-307 0 -469 -174t-162 -504q0 -367 165.5 -560.5t481.5 -193.5z" />
    <glyph glyph-name="uni0210" unicode="&#x210;" horiz-adv-x="1388" 
d="M299 1862l219 -232l-20 -18l-209 168l-39 41zM659 1862l220 -232l-21 -18l-209 168l-39 41zM41 0l-2 16h78q82 0 101.5 17.5t19.5 91.5v1218q0 74 -19.5 91.5t-101.5 17.5h-78v18h588q270 0 434 -125t164 -329q0 -184 -135 -304.5t-342 -138.5l-46 -2v-12
q77 -7 144.5 -46t105.5 -95l113 -162q5 -7 25.5 -37t30 -42.5t29 -38t33 -38t32.5 -27.5t37 -21.5t36 -6.5q30 0 66 25l49 39l12 -15l-49 -39q-105 -78 -188 -78q-41 0 -78 16.5t-72 51.5t-57 63t-56 76l-157 222q-64 88 -108.5 122.5t-114.5 34.5h-27v35h102
q205 0 313.5 108t108.5 312t-108 311t-314 107h-233v-2q37 -34 37 -107v-1200q0 -73 20.5 -91t102.5 -18h131v-18h-627z" />
    <glyph glyph-name="uni0211" unicode="&#x211;" horiz-adv-x="1388" 
d="M299 1862l219 -232l-20 -18l-209 168l-39 41zM659 1862l220 -232l-21 -18l-209 168l-39 41zM41 0l-2 16h78q82 0 101.5 17.5t19.5 91.5v1218q0 74 -19.5 91.5t-101.5 17.5h-78v18h588q270 0 434 -125t164 -329q0 -184 -135 -304.5t-342 -138.5l-46 -2v-12
q77 -7 144.5 -46t105.5 -95l113 -162q5 -7 25.5 -37t30 -42.5t29 -38t33 -38t32.5 -27.5t37 -21.5t36 -6.5q30 0 66 25l49 39l12 -15l-49 -39q-105 -78 -188 -78q-41 0 -78 16.5t-72 51.5t-57 63t-56 76l-157 222q-64 88 -108.5 122.5t-114.5 34.5h-27v35h102
q205 0 313.5 108t108.5 312t-108 311t-314 107h-233v-2q37 -34 37 -107v-1200q0 -73 20.5 -91t102.5 -18h131v-18h-627z" />
    <glyph glyph-name="uni0212" unicode="&#x212;" horiz-adv-x="1388" 
d="M289 1618q137 237 311 237q93 0 176.5 -66.5t132.5 -170.5l-30 -19q-141 183 -279 183q-134 0 -270 -183zM41 0l-2 16h78q82 0 101.5 17.5t19.5 91.5v1218q0 74 -19.5 91.5t-101.5 17.5h-78v18h588q270 0 434 -125t164 -329q0 -184 -135 -304.5t-342 -138.5l-46 -2v-12
q77 -7 144.5 -46t105.5 -95l113 -162q5 -7 25.5 -37t30 -42.5t29 -38t33 -38t32.5 -27.5t37 -21.5t36 -6.5q30 0 66 25l49 39l12 -15l-49 -39q-105 -78 -188 -78q-41 0 -78 16.5t-72 51.5t-57 63t-56 76l-157 222q-64 88 -108.5 122.5t-114.5 34.5h-27v35h102
q205 0 313.5 108t108.5 312t-108 311t-314 107h-233v-2q37 -34 37 -107v-1200q0 -73 20.5 -91t102.5 -18h131v-18h-627z" />
    <glyph glyph-name="uni0213" unicode="&#x213;" horiz-adv-x="1388" 
d="M289 1618q137 237 311 237q93 0 176.5 -66.5t132.5 -170.5l-30 -19q-141 183 -279 183q-134 0 -270 -183zM41 0l-2 16h78q82 0 101.5 17.5t19.5 91.5v1218q0 74 -19.5 91.5t-101.5 17.5h-78v18h588q270 0 434 -125t164 -329q0 -184 -135 -304.5t-342 -138.5l-46 -2v-12
q77 -7 144.5 -46t105.5 -95l113 -162q5 -7 25.5 -37t30 -42.5t29 -38t33 -38t32.5 -27.5t37 -21.5t36 -6.5q30 0 66 25l49 39l12 -15l-49 -39q-105 -78 -188 -78q-41 0 -78 16.5t-72 51.5t-57 63t-56 76l-157 222q-64 88 -108.5 122.5t-114.5 34.5h-27v35h102
q205 0 313.5 108t108.5 312t-108 311t-314 107h-233v-2q37 -34 37 -107v-1200q0 -73 20.5 -91t102.5 -18h131v-18h-627z" />
    <glyph glyph-name="uni0214" unicode="&#x214;" horiz-adv-x="1306" 
d="M412 1862l219 -232l-21 -18l-209 168l-39 41zM772 1862l219 -232l-20 -18l-209 168l-39 41zM41 1473h573v-19h-98q-82 0 -100.5 -17t-18.5 -91v-1084q0 -118 69.5 -180t203.5 -62q180 0 275 81t95 235v973q0 78 -25.5 111.5t-101.5 33.5h-84v19h439v-19h-58
q-78 0 -103.5 -33t-25.5 -112v-973q0 -172 -105 -262t-306 -90t-325 97t-124 255v1010q0 73 -20.5 90.5t-102.5 17.5h-57v19z" />
    </font>
</defs>
</svg>
