<svg version="1.0" width="80" height="80" xmlns="http://www.w3.org/2000/svg">
    <circle style="fill: none; stroke: #fff; stroke-width: 7.99928; stroke-miterlimit: 4; stroke-dasharray: none; stroke-opacity: 1;" cx="40" cy="40" r="36"/>
    <path d="M52.19 45.71c1.306-2.184 2.172-4.946 2.34-7.68.106-1.754-.285-3.596-1.131-5.328-1.328-2.72-3.61-4.248-5.813-5.725-1.645-1.102-3.199-2.142-4.297-3.628l-.197-.265c-.65-.873-1.383-1.862-1.5-2.692-.116-.84-.878-1.438-1.712-1.39a1.611 1.611 0 0 0-1.503 1.61V49.4c-1.353-.821-3.02-1.325-4.846-1.325-4.452 0-8.078 2.898-8.078 6.462 0 3.564 3.626 6.462 8.078 6.462s8.078-2.898 8.078-6.462v-18.83c2.426.927 6.397 3.289 7.49 8.804-.204.3-.398.624-.624.882a1.61 1.61 0 0 0 .145 2.278 1.61 1.61 0 0 0 2.278-.145c.433-.492.817-1.067 1.186-1.668.038-.045.074-.093.106-.148z" style="fill: #fff; stroke-width: 0.10097;"/>
</svg>
