<?xml version="1.0"?>
<svg xmlns="http://www.w3.org/2000/svg" viewBox="0 0 28 28">
  <path fill="#fff" d="M22.167 0H5.833A5.834 5.834 0 0 0 0 5.833v16.334A5.834 5.834 0 0 0 5.833 28h16.334A5.833 5.833 0 0 0 28 22.167V5.833A5.833 5.833 0 0 0 22.167 0zM10.11 19.445A5.44 5.44 0 0 1 4.667 14a5.44 5.44 0 0 1 5.445-5.445c1.47 0 2.698.537 3.648 1.424l-1.479 1.423c-.404-.389-1.113-.84-2.17-.84-1.858 0-3.375 1.54-3.375 3.438 0 1.898 1.517 3.438 3.376 3.438 2.154 0 2.963-1.548 3.088-2.348h-3.088v-1.867h5.14c.048.272.086.545.086.902-.001 3.11-2.085 5.32-5.227 5.32zm13.222-4.667H21v2.333h-1.556v-2.333H17.11v-1.555h2.334V10.89H21v2.333h2.333z"/>
</svg>
