<svg xmlns="http://www.w3.org/2000/svg" width="261" height="51">
    <path d="M220.882 38.46h-3.792v3.102h3.792zm25.863 0h-3.792v3.102h3.792zm-202.816 0h-3.792v3.102h3.792zm-25.863 0h-3.793v3.102h3.793z" style="fill:#fff"/>
    <path d="M221.41 37.93h-4.863v10.98h4.863zm25.86 0h-4.864v10.98h4.864zm-202.797 0h-4.864v10.98h4.864zm-25.879 0H13.73v10.98h4.864zm55.584.582h-3.354v7.555h3.354zm15.117-.617H84.66V46.7h4.635v-8.806z" style="fill:#fff"/>
    <path d="M88.662 38.512h-3.353v7.555h3.353zm-77.425-.617H6.602V46.7h4.635v-8.806z" style="fill:#fff"/>
    <path d="M10.603 38.512H7.25v7.555h3.353zm15.117-.617h-4.634V46.7h4.635v-8.806z" style="fill:#fff"/>
    <path d="M25.088 38.512h-3.354v7.555h3.354zm12.008-.617H32.46V46.7h4.635v-8.806z" style="fill:#fff"/>
    <path d="M36.467 38.512h-3.354v7.555h3.354zm15.113-.617h-4.635V46.7h4.635v-8.806z" style="fill:#fff"/>
    <path d="M50.951 38.512h-3.353v7.555h3.353z" style="fill:#fff"/>
    <path fill-rule="evenodd" clip-rule="evenodd" d="M25.317 23.28v8.154h.281v.463h-4.371v-.463h.28V23.28h1.458v-.977h-1.457v-.205h3.827v.205H23.86v.977z" style="fill:#fff"/>
    <path d="M24.669 23.914H22.14v7.35h2.528v-7.35z" style="fill:#fff"/>
    <path fill-rule="evenodd" clip-rule="evenodd" d="M36.692 23.28v8.154h.281v.463h-4.371v-.463h.28V23.28h1.458v-.977h-1.458v-.205h3.81v.205h-1.457v.977z" style="fill:#fff"/>
    <path d="M36.044 23.914h-2.528v7.35h2.528z" style="fill:#fff"/>
    <path fill-rule="evenodd" clip-rule="evenodd" d="M74.407 23.28v8.154h.281v.463h-4.372v-.463h.281V23.28h1.458v-.977h-1.458v-.205h3.81v.205H72.95v.977z" style="fill:#fff"/>
    <path d="M73.755 23.914h-2.528v7.35h2.528z" style="fill:#fff"/>
    <path fill-rule="evenodd" clip-rule="evenodd" d="M51.177 23.28v8.154h.28v.463h-4.371v-.463h.28V23.28h1.458v-.977h-1.457v-.205h3.81v.205h-1.458v.977z" style="fill:#fff"/>
    <path d="M50.528 23.914H48v7.35h2.528z" style="fill:#fff"/>
    <path fill-rule="evenodd" clip-rule="evenodd" d="M81.657 23.28v8.154h.264v.463h-4.355v-.463h.264V23.28h1.457v-.977H77.83v-.205h3.827v.205H80.2v.977z" style="fill:#fff"/>
    <path d="M81.009 23.914H78.48v7.35h2.528v-7.35z" style="fill:#fff"/>
    <path fill-rule="evenodd" clip-rule="evenodd" d="M88.891 23.28v8.154h.281v.463h-4.371v-.463h.28V23.28h1.458v-.977h-1.457v-.205h3.81v.205h-1.458v.977z" style="fill:#fff"/>
    <path d="M88.24 23.914h-2.53v7.35h2.53z" style="fill:#fff"/>
    <path fill-rule="evenodd" clip-rule="evenodd" d="M10.833 23.28v8.154h.263v.463H6.742v-.463h.281V23.28h1.44v-.977h-1.44v-.205h3.81v.205H9.376v.977z" style="fill:#fff"/>
    <path d="M10.184 23.914H7.656v7.35h2.528z" style="fill:#fff"/>
    <path fill-rule="evenodd" clip-rule="evenodd" d="M18.083 23.28v8.154h.263v.463h-4.354v-.463h.263V23.28h1.458v-.977h-1.457v-.205h3.827v.205h-1.457v.977z" style="fill:#fff"/>
    <path d="M17.434 23.914h-2.528v7.35h2.528z" style="fill:#fff"/>
    <path fill-rule="evenodd" clip-rule="evenodd" d="M43.946 23.28v8.154h.264v.463h-4.355v-.463h.264V23.28h1.457v-.977h-1.457v-.205h3.827v.205H42.49v.977h1.457z" style="fill:#fff"/>
    <path d="M43.294 23.914h-2.528v7.35h2.528zm-11.376-1.832h-.211v11.752h.21V22.082zm-5.442 0h-.21v11.752h.21zm10.339 11.254h-4.073v.531h4.073zm-11.375 0h-4.073v.531h4.073zm40.24-20.215h-9.586v.206h9.586z" style="fill:#fff"/>
    <path fill-rule="evenodd" clip-rule="evenodd" d="M68.085 21.501v-9.32H65.33l-1.58.138h-5.724l-1.58-.137h-2.721v9.32h3.265v.205h-2.826v11.992h-.65V21.707h-.439v-9.868h2.616c1.716-.464 3.487-.7 5.267-.702 1.78.005 3.551.24 5.267.702h2.634v10.005h-.597v11.992h-.65V21.844h-2.826v-.223h3.3v-.12z" style="fill:#fff"/>
    <path fill-rule="evenodd" clip-rule="evenodd" d="M64.891 19.564h-.316c0-.474-.096-.944-.282-1.383a3.612 3.612 0 0 0-.803-1.173 3.712 3.712 0 0 0-1.202-.783 3.783 3.783 0 0 0-2.835 0c-.45.181-.858.448-1.202.783a3.612 3.612 0 0 0-.803 1.173 3.538 3.538 0 0 0-.282 1.383h-.298a3.842 3.842 0 0 1 .29-1.517c.2-.482.494-.92.868-1.29s.82-.663 1.311-.864a4.11 4.11 0 0 1 1.551-.303 4.14 4.14 0 0 1 2.83 1.193 3.942 3.942 0 0 1 1.173 2.781zm2.843-4.18v.206h-1.738v-3.067h.21v2.861zm-13.694 0h1.526v-2.86h.211v3.066H54.04z" style="fill:#fff"/>
    <path d="M52.39 20.574H1.421v.583h50.967v-.583zm37.657 0H69.383v.583h20.664zm0-.976H69.383v.205h20.664zm-37.677 0H.367v.205h52.004v-.205zM2.702 35.633h-.948v11.204h.948z" style="fill:#fff"/>
    <path fill-rule="evenodd" clip-rule="evenodd" d="M1.982 21.535h.334v.36h.93v10.947h-.86v1.045h-.632v-1.388h.544V22.237h-.316zm51.074 12.762 15.661-.05 21.929.05v.292H68.699l-15.625-.052-51.793.052v-.291h51.775zm0 .601 15.661-.035 21.929.035v.29H68.699l-15.625-.034-51.793.035v-.291z" style="fill:#fff"/>
    <path d="M68.208 35.754h-.65V46.58h.65zm-13.976 0h-.65V46.58h.65z" style="fill:#fff"/>
    <path fill-rule="evenodd" clip-rule="evenodd" d="M64.242 44.371h-.246v-3.375H57.78v3.375h-.246v-3.923h-.14v-.343h6.987v.343h-.14v3.923zm-.896-4.797h-.193v-3.17h-4.53v3.17h-.193v-3.597h4.916z" style="fill:#fff"/>
    <path d="M63.328 41.578h-4.863v7.35h4.863zm-.178-8.242h-4.529v.531h4.53v-.531zm-.015-10.055h-4.494v9.457h4.494V23.28z" style="fill:#fff"/>
    <path fill-rule="evenodd" clip-rule="evenodd" d="M60.887 17.098c.324.009.644.08.94.21.296.13.562.315.784.546.222.231.395.503.509.8.114.296.166.611.155.928h-4.776a2.313 2.313 0 0 1 .145-.934 2.36 2.36 0 0 1 .508-.804c.223-.232.491-.417.79-.546a2.47 2.47 0 0 1 .945-.2zm18.855 20.13a2.56 2.56 0 0 0-1.701.702 2.44 2.44 0 0 0-.757 1.645h-.123a2.575 2.575 0 0 1 .693-1.912c.24-.257.532-.464.856-.61a2.722 2.722 0 0 1 1.032-.237 2.749 2.749 0 0 1 1.871.862c.484.516.738 1.198.71 1.897h-.193a2.491 2.491 0 0 0-.744-1.61 2.61 2.61 0 0 0-1.644-.737zm3.355 7.143h-.246v-3.375h-6.215v3.375h-.245v-3.923h-.141v-.343h6.988v.343h-.14v3.923z" style="fill:#fff"/>
    <path d="M51.3 33.336h-4.073v.531H51.3zm23.23 0h-4.073v.531h4.073zm7.654 8.242H77.32v7.35h4.864zm-.404-8.242h-4.073v.531h4.073zm7.235 0H84.94v.531h4.074v-.531z" style="fill:#fff"/>
    <path fill-rule="evenodd" clip-rule="evenodd" d="M69.299 35.908a.591.591 0 0 1 .14-.377h6.128a.71.71 0 0 1 .14.377v1.062a.592.592 0 0 1-.174.418.622.622 0 0 1-.423.182h-5.267a.622.622 0 0 1-.423-.182.592.592 0 0 1-.174-.418z" style="fill:#fff"/>
    <path d="M10.956 33.336H6.883v.531h4.073z" style="fill:#fff"/>
    <path fill-rule="evenodd" clip-rule="evenodd" d="M83.783 35.908a.59.59 0 0 1 .14-.377h6.128a.71.71 0 0 1 .14.377v1.062a.592.592 0 0 1-.173.418.622.622 0 0 1-.424.182h-5.267a.622.622 0 0 1-.423-.182.592.592 0 0 1-.173-.418z" style="fill:#fff"/>
    <path d="M18.206 33.336h-4.073v.531h4.073z" style="fill:#fff"/>
    <path fill-rule="evenodd" clip-rule="evenodd" d="M5.723 35.908a.591.591 0 0 1 .14-.377h6.127a.71.71 0 0 1 .14.377v1.062a.592.592 0 0 1-.18.424.622.622 0 0 1-.434.176H6.25a.622.622 0 0 1-.423-.182.592.592 0 0 1-.174-.418zm7.234 0a.71.71 0 0 1 .14-.377h6.128c.09.106.14.24.14.377v1.062a.593.593 0 0 1-.173.418.622.622 0 0 1-.424.182H13.66a.622.622 0 0 1-.434-.176.593.593 0 0 1-.18-.424l-.088-1.062zm7.25 0a.59.59 0 0 1 .14-.377h6.128a.71.71 0 0 1 .14.377v1.062a.593.593 0 0 1-.18.424.622.622 0 0 1-.434.176h-5.267a.622.622 0 0 1-.424-.182.593.593 0 0 1-.173-.418zm11.377 0a.59.59 0 0 1 .14-.377h6.128a.71.71 0 0 1 .14.377v1.062a.592.592 0 0 1-.174.418.622.622 0 0 1-.423.182h-5.267a.622.622 0 0 1-.423-.182.592.592 0 0 1-.174-.418zm7.252 0a.59.59 0 0 1 .14-.377h6.11c.09.106.14.24.14.377v1.062a.592.592 0 0 1-.173.418.622.622 0 0 1-.423.182h-5.267a.621.621 0 0 1-.424-.182.592.592 0 0 1-.173-.418z" style="fill:#fff"/>
    <path d="M44.07 33.336h-4.074v.531h4.073v-.531z" style="fill:#fff"/>
    <path fill-rule="evenodd" clip-rule="evenodd" d="M46.07 35.908a.591.591 0 0 1 .14-.377h6.075a.71.71 0 0 1 .14.377v1.062a.592.592 0 0 1-.173.418.622.622 0 0 1-.423.182h-5.267a.622.622 0 0 1-.423-.182.592.592 0 0 1-.174-.418zm-29.9-18.263h-3.39c1.141-.514 1.931-1.56 3.389-1.56 1.457 0 2.23 1.046 3.37 1.56h-3.37zm25.861-.121h-3.37c1.123-.531 1.913-1.56 3.37-1.56s2.247 1.029 3.371 1.56h-3.37zm37.711-.067h-3.37c1.123-.53 1.913-1.559 3.37-1.559s2.247 1.028 3.37 1.56h-3.37z" style="fill:#fff"/>
    <path fill-rule="evenodd" clip-rule="evenodd" d="M6.496 18.312h45.893v.633H6.285v-2.312h.21v1.679z" style="fill:#fff"/>
    <path d="M90.047 18.313H69.383v.633h20.664v-.634z" style="fill:#fff"/>
    <path fill-rule="evenodd" clip-rule="evenodd" d="M32.005 17.987h-.228V15.76h-.597v-.48h-4.161v.48h-.615v2.227h-.21v-2.57h.614v-.394H10.445v-.891H8.321l-2.212 1.885H2.72v3.032H.613v-.84h1.703v-3.032h3.459l2.23-1.884h2.826v1.182h41.557v.548H31.39v.394h.615z" style="fill:#fff"/>
    <path d="M90.047 14.477H69.383v.548h20.664z" style="fill:#fff"/>
    <path fill-rule="evenodd" clip-rule="evenodd" d="M76.882 47.25v1.679h-1.966v-.788h-4.828v.788H63.75V47.25zm-37.712 0v1.679h-1.965v-.788h-4.829v.788h-6.548v-.788h-4.846v.788h-1.966V47.25zm18.857 0v1.679h-6.338v-.788h-4.828v.788h-1.966V47.25zm-44.718 0v1.679h-1.966v-.788H6.496v.788H.633V47.25zm77.583 0v1.679H89.4v-.788h-4.828v.788h-1.966V47.25zM66.907 11.6a20.742 20.742 0 0 0-6.04-.926c-2.037.008-4.062.32-6.004.925 2.529-1.935 3.512-2.33 6.022-2.33 2.51 0 3.494.395 6.022 2.33z" style="fill:#fff"/>
    <path d="M190.826 37.895h-4.635V46.7h4.635v-8.806z" style="fill:#fff"/>
    <path d="M190.178 38.512h-3.354v7.555h3.354zm-13.836-.617h-4.635V46.7h4.635v-8.806z" style="fill:#fff"/>
    <path d="M175.693 38.512h-3.353v7.555h3.353zm78.704-.617h-4.635V46.7h4.635v-8.806z" style="fill:#fff"/>
    <path d="M253.767 38.512h-3.353v7.555h3.353zm-13.855-.617h-4.635V46.7h4.635v-8.806z" style="fill:#fff"/>
    <path d="M239.283 38.512h-3.353v7.555h3.353zm-10.746-.617h-4.635V46.7h4.635v-8.806z" style="fill:#fff"/>
    <path d="M227.889 38.512h-3.354v7.555h3.354zm-13.836-.617h-4.635V46.7h4.635v-8.806z" style="fill:#fff"/>
    <path d="M213.404 38.512h-3.353v7.555h3.353z" style="fill:#fff"/>
    <path fill-rule="evenodd" clip-rule="evenodd" d="M235.681 23.28h1.458v-.977h-1.458v-.205h3.81v.205h-1.44v.977h1.458v8.154h.263v.463h-4.354v-.463h.263z" style="fill:#fff"/>
    <path d="M238.86 23.914h-2.528v7.35h2.528z" style="fill:#fff"/>
    <path fill-rule="evenodd" clip-rule="evenodd" d="M224.306 23.28h1.458v-.977h-1.458v-.205h3.828v.205h-1.458v.977h1.458v8.154h.263v.463h-4.354v-.463h.263z" style="fill:#fff"/>
    <path d="M227.485 23.914h-2.528v7.35h2.528z" style="fill:#fff"/>
    <path fill-rule="evenodd" clip-rule="evenodd" d="M186.595 23.28h1.458v-.977h-1.458v-.205h3.828v.205h-1.457v.977h1.457v8.154h.263v.463h-4.354v-.463h.263z" style="fill:#fff"/>
    <path d="M189.77 23.914h-2.528v7.35h2.528z" style="fill:#fff"/>
    <path fill-rule="evenodd" clip-rule="evenodd" d="M209.822 23.28h1.457v-.977h-1.457v-.205h3.827v.205h-1.457v.977h1.457v8.154h.264v.463h-4.354v-.463h.263z" style="fill:#fff"/>
    <path d="M213.001 23.914h-2.528v7.35h2.528z" style="fill:#fff"/>
    <path fill-rule="evenodd" clip-rule="evenodd" d="M179.359 23.28h1.457v-.977h-1.457v-.205h3.81v.205h-1.457v.977h1.457v8.154h.281v.463h-4.372v-.463h.281z" style="fill:#fff"/>
    <path d="M182.52 23.914h-2.528v7.35h2.528z" style="fill:#fff"/>
    <path fill-rule="evenodd" clip-rule="evenodd" d="M172.111 23.28h1.457v-.977h-1.457v-.205h3.827v.205h-1.457v.977h1.457v8.154h.264v.463h-4.354v-.463h.263z" style="fill:#fff"/>
    <path d="M175.286 23.914h-2.528v7.35h2.528z" style="fill:#fff"/>
    <path fill-rule="evenodd" clip-rule="evenodd" d="M250.166 23.28h1.457v-.977h-1.457v-.205h3.827v.205h-1.457v.977h1.457v8.154h.263v.463h-4.354v-.463h.264z" style="fill:#fff"/>
    <path d="M253.345 23.914h-2.529v7.35h2.529z" style="fill:#fff"/>
    <path fill-rule="evenodd" clip-rule="evenodd" d="M242.933 23.28h1.457v-.977h-1.457v-.205h3.81v.205h-1.457v.977h1.457v8.154h.281v.463h-4.372v-.463h.281z" style="fill:#fff"/>
    <path d="M246.11 23.914h-2.528v7.35h2.528z" style="fill:#fff"/>
    <path fill-rule="evenodd" clip-rule="evenodd" d="M217.074 23.28h1.457v-.977h-1.457v-.205h3.81v.205h-1.458v.977h1.458v8.154h.281v.463h-4.372v-.463h.281z" style="fill:#fff"/>
    <path d="M220.231 23.914h-2.528v7.35h2.528zm9.062-1.832h-.211v11.752h.211zm5.441 0h-.211v11.752h.211zm-6.477 11.254h-4.073v.531h4.073zm11.375 0h-4.073v.531h4.073zm-34.726-20.215h-9.586v.206h9.586z" style="fill:#fff"/>
    <path fill-rule="evenodd" clip-rule="evenodd" d="M192.95 21.501h3.301v.223h-2.827v11.992h-.684V21.724h-.439v-9.885h2.616a20.658 20.658 0 0 1 5.267-.702c1.745.01 3.48.247 5.162.702h2.615v10.005h-.438v11.992h-.738V21.844h-2.826v-.206h3.283v-9.456h-2.722l-1.58.137h-5.741l-1.58-.137h-2.721l.052 9.32z" style="fill:#fff"/>
    <path fill-rule="evenodd" clip-rule="evenodd" d="M196.109 19.564a3.965 3.965 0 0 1 1.178-2.777 4.159 4.159 0 0 1 2.825-1.197 4.11 4.11 0 0 1 1.546.308c.489.202.933.496 1.305.865.372.37.665.807.863 1.288.198.481.296.995.289 1.513h-.298a3.607 3.607 0 0 0-1.089-2.557 3.786 3.786 0 0 0-2.616-1.075 3.82 3.82 0 0 0-2.612 1.11 3.639 3.639 0 0 0-1.075 2.574zm-2.828-4.18h1.51v-2.86h.228v3.066h-1.738zm13.68 0v.206h-1.738v-3.067h.228v2.861z" style="fill:#fff"/>
    <path d="M259.596 20.574h-50.967v.583h50.967zm-67.982 0h-20.665v.583h20.665zm0-.976h-20.665v.205h20.665zm69.018 0h-52.003v.205h52.003zm-1.371 16.035h-.949v11.204h.949z" style="fill:#fff"/>
    <path fill-rule="evenodd" clip-rule="evenodd" d="M259.034 21.535v.703h-.316v10.261h.544v1.388h-.65v-1.045h-.842V21.895h.912v-.36zm-51.091 12.762h51.792v.292h-51.792l-15.643-.052-21.929.052v-.291H192.3l15.643-.052zm0 .601h51.792v.29h-51.792l-15.643-.034-21.929.035v-.291H192.3l15.643-.035z" style="fill:#fff"/>
    <path d="M193.458 35.754h-.649V46.58h.649zm13.977 0h-.65V46.58h.65z" style="fill:#fff"/>
    <path fill-rule="evenodd" clip-rule="evenodd" d="M196.76 44.371v-3.923h-.123v-.343h6.97v.343h-.123v3.923h-.263v-3.375h-6.198v3.375zm.912-4.797v-3.597h4.898v3.597h-.193v-3.17h-4.512v3.17z" style="fill:#fff"/>
    <path d="M202.555 41.578h-4.864v7.35h4.864zm-.178-8.242h-4.529v.531h4.529zm0-10.055h-4.494v9.457h4.494V23.28z" style="fill:#fff"/>
    <path fill-rule="evenodd" clip-rule="evenodd" d="M200.115 17.098a2.43 2.43 0 0 1 1.741.741 2.3 2.3 0 0 1 .646 1.743h-4.757a2.309 2.309 0 0 1 .148-.927 2.38 2.38 0 0 1 .503-.8 2.488 2.488 0 0 1 1.719-.758zm-18.858 20.127a2.61 2.61 0 0 0-1.688.716 2.487 2.487 0 0 0-.77 1.63h-.106a2.49 2.49 0 0 1 .64-1.979c.244-.267.543-.481.877-.628a2.658 2.658 0 0 1 2.128 0 2.6 2.6 0 0 1 .877.628c.244.267.427.582.537.923.111.341.146.702.103 1.057h-.14a2.424 2.424 0 0 0-.753-1.649 2.544 2.544 0 0 0-1.705-.698zm-3.355 7.146v-3.923h-.14v-.343h6.987v.343h-.123v3.923h-.263v-3.375h-6.215v3.375z" style="fill:#fff"/>
    <path d="M213.772 33.336h-4.073v.531h4.073zm-23.226 0h-4.073v.531h4.073zm-6.847 8.242h-4.863v7.35h4.863zm-.407-8.242h-4.073v.531h4.073zm-7.231 0h-4.073v.531h4.073z" style="fill:#fff"/>
    <path fill-rule="evenodd" clip-rule="evenodd" d="M191.703 35.908v1.062a.59.59 0 0 1-.174.418.62.62 0 0 1-.423.182h-5.267a.62.62 0 0 1-.423-.182.59.59 0 0 1-.174-.418v-1.062a.59.59 0 0 1 .141-.377h6.109c.116.096.191.23.211.377z" style="fill:#fff"/>
    <path d="M254.116 33.336h-4.073v.531h4.073z" style="fill:#fff"/>
    <path fill-rule="evenodd" clip-rule="evenodd" d="M177.219 35.908v1.062a.595.595 0 0 1-.174.418.62.62 0 0 1-.423.182h-5.267a.62.62 0 0 1-.423-.182.59.59 0 0 1-.174-.418v-1.062a.589.589 0 0 1 .14-.377h6.11c.116.096.191.23.211.377z" style="fill:#fff"/>
    <path d="M246.866 33.336h-4.073v.531h4.073z" style="fill:#fff"/>
    <path fill-rule="evenodd" clip-rule="evenodd" d="M255.277 35.908v1.062a.594.594 0 0 1-.173.418.625.625 0 0 1-.424.182h-5.267a.622.622 0 0 1-.423-.182.595.595 0 0 1-.174-.418v-1.062a.595.595 0 0 1 .141-.377h6.11c.115.096.19.23.21.377zm-7.234 0v1.062a.59.59 0 0 1-.174.418.62.62 0 0 1-.423.182h-5.267a.62.62 0 0 1-.423-.182.59.59 0 0 1-.174-.418v-1.062a.71.71 0 0 1 .14-.377h6.128a.597.597 0 0 1 .193.377zm-7.25 0v1.062a.59.59 0 0 1-.174.418.62.62 0 0 1-.423.182h-5.267a.62.62 0 0 1-.423-.182.59.59 0 0 1-.174-.418v-1.062a.594.594 0 0 1 .14-.377h6.11c.116.096.191.23.211.377zm-11.379 0v1.062a.59.59 0 0 1-.174.418.62.62 0 0 1-.423.182h-5.267a.62.62 0 0 1-.423-.182.59.59 0 0 1-.174-.418v-1.062a.59.59 0 0 1 .141-.377h6.109c.116.096.191.23.211.377zm-7.23 0v1.062a.595.595 0 0 1-.174.418.622.622 0 0 1-.423.182h-5.267a.625.625 0 0 1-.424-.182.594.594 0 0 1-.173-.418v-1.062a.71.71 0 0 1 .14-.377h6.127a.716.716 0 0 1 .194.377z" style="fill:#fff"/>
    <path d="M221.007 33.336h-4.073v.531h4.073z" style="fill:#fff"/>
    <path fill-rule="evenodd" clip-rule="evenodd" d="M214.93 35.908v1.062a.595.595 0 0 1-.174.418.622.622 0 0 1-.423.182h-5.267a.625.625 0 0 1-.424-.182.594.594 0 0 1-.173-.418v-1.062a.589.589 0 0 1 .14-.377h6.11c.116.096.191.23.211.377zm29.902-18.263h-3.371c1.141-.514 1.931-1.56 3.388-1.56 1.458 0 2.23 1.046 3.371 1.56zm-25.863-.121h-3.407c1.142-.531 1.932-1.56 3.371-1.56 1.44 0 2.248 1.029 3.389 1.56zm-37.711-.067h-3.371c1.141-.53 1.913-1.559 3.371-1.559 1.457 0 2.247 1.028 3.388 1.56h-3.388z" style="fill:#fff"/>
    <path fill-rule="evenodd" clip-rule="evenodd" d="M254.505 18.312v-1.68h.228v2.314h-46.104v-.633h45.876z" style="fill:#fff"/>
    <path d="M191.614 18.313h-20.665v.633h20.665v-.634z" style="fill:#fff"/>
    <path fill-rule="evenodd" clip-rule="evenodd" d="M229.012 17.987v-2.57h.597v-.394h-20.98v-.548h41.557v-1.182h2.809l2.23 1.884h3.476v3.033h1.685v.84h-2.089v-3.033h-3.388l-2.23-1.885h-2.107v.891h-16.363v.394h.597v2.57h-.211V15.76h-.614v-.48h-4.143v.48h-.615v2.227z" style="fill:#fff"/>
    <path d="M191.614 14.477h-20.665v.548h20.665z" style="fill:#fff"/>
    <path fill-rule="evenodd" clip-rule="evenodd" d="M184.117 47.25h13.15v1.679h-6.338v-.788h-4.845v.788h-1.967zm37.715 0h20.155v1.679h-1.966v-.788h-4.846v.788h-6.531v-.788h-4.846v.788h-1.966zm-18.855 0h13.15v1.679h-1.967v-.788h-4.845v.788h-6.338zm44.714 0h12.694v1.679h-5.882v-.788h-4.845v.788h-1.967zm-77.582 0h8.305v1.679h-1.967v-.788h-4.845v.788h-1.493zm24-35.65c2.529-1.936 3.406-2.33 6.005-2.33 2.598 0 3.511.394 6.022 2.33a20.316 20.316 0 0 0-5.987-.926c-2.05.008-4.086.32-6.04.925zm-36.082 35.357h12.027v1.97h-4.881v-1.165h-4.372v1.165h-2.774z" style="fill:#fff"/>
    <path d="M170.11 34.707h-35.219v.291h35.219zm-37.382-2.516h-.123v1.696h.123zm.477 0h-.123v1.696h.123zm.453 0h-.123v1.696h.123zm-6.195 0h-.123v1.696h.123zm.457 0h-.123v1.696h.123zm.472 0h-.122v1.696h.122z" style="fill:#fff"/>
    <path fill-rule="evenodd" clip-rule="evenodd" d="M139.77 14.51a.27.27 0 0 1 0 .12.392.392 0 0 1-.149.258.41.41 0 0 1-.29.085h-3.336a.397.397 0 0 1-.284-.086.373.373 0 0 1-.137-.257.243.243 0 0 1 0-.12v-.291h4.178z" style="fill:#fff"/>
    <path d="M139.349 15.453h-3.353v4.557h3.353z" style="fill:#fff"/>
    <path fill-rule="evenodd" clip-rule="evenodd" d="M121.246 14.51v-.291h4.179v.377a.395.395 0 0 1-.149.258.41.41 0 0 1-.29.084h-3.336a.411.411 0 0 1-.291-.084.39.39 0 0 1-.148-.258.242.242 0 0 1 .035-.086z" style="fill:#fff"/>
    <path d="M125.006 15.453h-3.354v4.557h3.354zm3.231.238h-2.651v.206h2.651zm-.265.497h-.21v14.664h.21V16.187zm-1.894 0h-.211V31.04h.211zm9.339-.497h-2.651v.206h2.651zm-2.159.497h-.211v14.664h.211V16.187zm1.878 0h-.21V31.04h.21zm-.983 15.281h-7.18v.342h7.18z" style="fill:#fff"/>
    <path fill-rule="evenodd" clip-rule="evenodd" d="M134.153 32.036h-7.181v1.884h-.298v-2.45h-.229v-.41h2.353v-8.67h3.406v8.67h2.353v.41h-.106v2.45h-.298zM132.59 14.51c.01.04.01.08 0 .12a.373.373 0 0 1-.271.327.392.392 0 0 1-.15.015h-3.354a.392.392 0 0 1-.379-.2.373.373 0 0 1-.042-.142.243.243 0 0 1 0-.12v-.291h4.179z" style="fill:#fff"/>
    <path d="M132.185 15.453h-3.353v4.557h3.353zm8.289-2.211h-19.927v.206h19.927zm-.055-2.039h-19.821v.48h19.821z" style="fill:#fff"/>
    <path fill-rule="evenodd" clip-rule="evenodd" d="M136.978 0v1.353h4.723v1.49h4.09V4.25h19.576v-.463h4.425v5.276h1.439v.634h-25.808v-.634h23.508V4.625h-3.16v.155h-20.383V3.683h-4.091v-1.49h-4.723V.839h-12.149v1.354h-4.723v1.49h-4.091V4.78H95.228v-.155h-3.16v4.437h23.508v.634h-25.79v-.634h1.421V3.786h4.425v.463h19.575V2.844h4.091v-1.49h4.723V0z" style="fill:#fff"/>
    <path d="M134.399 34.04h-7.778v.205h7.778v-.206zm-2.196-1.849h-3.406v1.49h3.406z" style="fill:#fff"/>
    <path fill-rule="evenodd" clip-rule="evenodd" d="M130.5 37.398c.288.022.568.103.822.237.254.133.476.318.653.54a1.995 1.995 0 0 1 .404 1.587h-3.74a2.007 2.007 0 0 1 .41-1.571c.174-.222.393-.406.642-.542a2.15 2.15 0 0 1 .809-.25z" style="fill:#fff"/>
    <path d="M132.345 42.195h-3.669v6.733h3.669zm.647-1.902h-4.986a.26.26 0 0 0-.264.257v.805a.26.26 0 0 0 .264.257h4.986a.26.26 0 0 0 .263-.257v-.805a.26.26 0 0 0-.263-.257z" style="fill:#fff"/>
    <path d="M133.009 39.95h-5.021a.59.59 0 0 0-.597.582v.822a.59.59 0 0 0 .597.583h5.021a.59.59 0 0 0 .597-.583v-.822a.59.59 0 0 0-.597-.583zm1.423-5.38h-7.795v.634h7.795zm-9.356-1.644h-3.494v.514h3.494z" style="fill:#fff"/>
    <path fill-rule="evenodd" clip-rule="evenodd" d="M125.284 31.316v.463h.509v.274h-4.934v-.274h.527v-.463z" style="fill:#fff"/>
    <path d="M125.023 22.39h-3.371v8.652h3.371zm14.397 10.536h-3.494v.514h3.494z" style="fill:#fff"/>
    <path fill-rule="evenodd" clip-rule="evenodd" d="M135.73 31.316h3.897v.463h.51v.274h-4.934v-.274h.527z" style="fill:#fff"/>
    <path d="M139.367 22.39h-3.371v8.652h3.371z" style="fill:#fff"/>
    <path fill-rule="evenodd" clip-rule="evenodd" d="M110.381 14.51v-.291h4.178v.257c.01.04.01.08 0 .12a.356.356 0 0 1-.042.142.386.386 0 0 1-.379.2h-3.353a.397.397 0 0 1-.284-.085.372.372 0 0 1-.138-.257.252.252 0 0 1 .018-.086z" style="fill:#fff"/>
    <path d="M114.154 15.453h-3.353v4.557h3.353z" style="fill:#fff"/>
    <path fill-rule="evenodd" clip-rule="evenodd" d="M103.199 14.51v-.291h4.179v.377a.395.395 0 0 1-.149.258.41.41 0 0 1-.29.084h-3.371a.411.411 0 0 1-.291-.084.39.39 0 0 1-.148-.258.236.236 0 0 1 .07-.086z" style="fill:#fff"/>
    <path d="M106.92 15.453h-3.354v4.557h3.354z" style="fill:#fff"/>
    <path fill-rule="evenodd" clip-rule="evenodd" d="M95.932 14.51v-.291h4.178v.257c.01.04.01.08 0 .12a.373.373 0 0 1-.27.327.396.396 0 0 1-.151.015h-3.354a.396.396 0 0 1-.283-.085.378.378 0 0 1-.138-.257c0-.03.007-.059.018-.086z" style="fill:#fff"/>
    <path d="M99.69 15.453h-3.354v4.557h3.353v-4.557zm.07 17.437h-3.494v.515h3.493v-.514z" style="fill:#fff"/>
    <path fill-rule="evenodd" clip-rule="evenodd" d="M99.97 31.281v.463h.508v.274h-4.915v-.274h.509v-.463h3.897z" style="fill:#fff"/>
    <path d="M99.707 22.39h-3.371v8.652h3.37V22.39zm7.283 10.5h-3.494v.515h3.494v-.514z" style="fill:#fff"/>
    <path fill-rule="evenodd" clip-rule="evenodd" d="M107.202 31.281v.463h.509v.274h-4.934v-.274h.527v-.463z" style="fill:#fff"/>
    <path d="M106.937 22.39h-3.371v8.652h3.371zm7.289 10.5h-3.511v.515h3.511v-.514z" style="fill:#fff"/>
    <path fill-rule="evenodd" clip-rule="evenodd" d="M114.418 31.281v.463h.527v.274h-4.933v-.274h.509v-.463z" style="fill:#fff"/>
    <path d="M114.156 22.39h-3.371v8.652h3.371zm1.123-17.234h-.299v3.41h.299zm-.758 0h-.298v3.41h.298zm-.754 0h-.298v3.41h.298zm-.734 0h-.299v3.41h.299zm-.758 0h-.298v3.41h.298zm-.754 0h-.298v3.41h.298zm-.738 0h-.299v3.41h.299zm-3 0h-.299v3.41h.299zm-.758 0h-.298v3.41h.298zm-.754 0h-.298v3.41h.298zm-.738 0h-.299v3.41h.299zm-.754 0h-.299v3.41h.299zm-.754 0h-.298v3.41h.298zm-.738 0h-.299v3.41h.299zm-3 0h-.299v3.41h.299zm-.758 0h-.298v3.41h.298zm-.754 0h-.298v3.41h.298zm-.738 0h-.299v3.41h.299zm-.754 0h-.299v3.41h.299zm-.754 0h-.298v3.41h.298zm-.739 0h-.298v3.41h.299v-3.41z" style="fill:#fff"/>
    <path fill-rule="evenodd" clip-rule="evenodd" d="M94.947 13.979v.222h-3.02v1.49h3.757v.206h-3.757V33.8h-.86V11.066h.86v2.913z" style="fill:#fff"/>
    <path d="M120.459 13.98h-5.057v.206h5.057zm-5.041-.652H94.894v.206h20.524zm-.016 2.86h-.211V31.04h.211zm5.195 0h-.21V31.04h.21zm.368-.497h-6.11v.206h6.11zm-20.172.497h-.211V31.04h.211zm1.879 0h-.211V31.04h.211zm.28-.497h-2.651v.206h2.651zm5.075.497h-.211V31.04h.211zm1.879 0h-.211V31.04h.211zm.28-.497h-2.651v.206h2.651zm-14.678.481h-.211v14.87h.21v-14.87zM91.84 35.395h-.86v10.947h.86z" style="fill:#fff"/>
    <path fill-rule="evenodd" clip-rule="evenodd" d="M105.253 37.398c.285.03.56.115.809.251.25.136.468.32.642.542a2.007 2.007 0 0 1 .41 1.572h-3.739a1.992 1.992 0 0 1 .403-1.587c.177-.224.4-.408.654-.541a2.11 2.11 0 0 1 .821-.237z" style="fill:#fff"/>
    <path d="M107.08 42.195h-3.67v6.733h3.67zm.65-1.902h-4.986a.26.26 0 0 0-.264.257v.805a.26.26 0 0 0 .264.257h4.986a.26.26 0 0 0 .263-.257v-.805a.26.26 0 0 0-.263-.257z" style="fill:#fff"/>
    <path d="M107.763 39.95h-5.022a.59.59 0 0 0-.596.582v.822a.59.59 0 0 0 .596.583h5.022a.59.59 0 0 0 .597-.583v-.822a.59.59 0 0 0-.597-.583zm18.366-5.243H90.91v.291h35.219zm.07-.597H90.91v.29h35.29v-.29z" style="fill:#fff"/>
    <path fill-rule="evenodd" clip-rule="evenodd" d="M102.989 46.957v1.97h-2.774v-1.165h-4.389v1.165h-4.88v-1.97zm25.265 0v1.97h-2.739v-1.165h-4.371v1.165h-6.479v-1.165h-4.389v1.165h-2.756v-1.97z" style="fill:#fff"/>
    <path d="M115.419 11.309H95v.48h20.419zm.105-.789H90.348v.205h25.176zm25.071-.106h-20.173v.206h20.173z" style="fill:#fff"/>
    <path fill-rule="evenodd" clip-rule="evenodd" d="M150.604 14.51a.27.27 0 0 1 0 .12.374.374 0 0 1-.138.257.385.385 0 0 1-.284.085h-3.335a.397.397 0 0 1-.284-.085.373.373 0 0 1-.138-.257.27.27 0 0 1 0-.12v-.291h4.179z" style="fill:#fff"/>
    <path d="M150.217 15.453h-3.354v4.557h3.354z" style="fill:#fff"/>
    <path fill-rule="evenodd" clip-rule="evenodd" d="M157.852 14.51c.01.04.01.08 0 .12a.374.374 0 0 1-.138.257.385.385 0 0 1-.284.085h-3.318a.39.39 0 0 1-.379-.2.373.373 0 0 1-.042-.142.243.243 0 0 1 0-.12v-.291h4.178z" style="fill:#fff"/>
    <path d="M157.431 15.453h-3.353v4.557h3.353z" style="fill:#fff"/>
    <path fill-rule="evenodd" clip-rule="evenodd" d="M165.071 14.51c.011.04.011.08 0 .12a.39.39 0 0 1-.148.258.411.411 0 0 1-.291.085h-3.318a.411.411 0 0 1-.291-.085.39.39 0 0 1-.148-.258v-.411h4.179z" style="fill:#fff"/>
    <path d="M164.666 15.453h-3.354v4.557h3.354zm.07 17.437h-3.494v.515h3.494v-.514z" style="fill:#fff"/>
    <path fill-rule="evenodd" clip-rule="evenodd" d="M161.033 31.281h3.897v.463h.527v.274h-4.934v-.274h.51z" style="fill:#fff"/>
    <path d="M164.683 22.39h-3.371v8.652h3.371zm-7.181 10.5h-3.494v.515h3.494v-.514z" style="fill:#fff"/>
    <path fill-rule="evenodd" clip-rule="evenodd" d="M153.816 31.281h3.897v.463h.51v.274h-4.934v-.274h.527z" style="fill:#fff"/>
    <path d="M157.449 22.39h-3.371v8.652h3.371zm-7.164 10.5h-3.512v.515h3.512v-.514z" style="fill:#fff"/>
    <path fill-rule="evenodd" clip-rule="evenodd" d="M146.583 31.281h3.898v.463h.527v.274h-4.934v-.274h.509z" style="fill:#fff"/>
    <path d="M150.215 22.39h-3.371v8.652h3.371zm-4.178-17.234h-.299v3.41h.299zm.738 0h-.298v3.41h.298zm.754 0h-.299v3.41h.299zm.758 0h-.299v3.41h.299zm.734 0h-.298v3.41h.298zm.758 0h-.299v3.41h.299zm.754 0h-.299v3.41h.299zm3 0h-.299v3.41h.299zm.738 0h-.298v3.41h.298zm.754 0h-.298v3.41h.298zm.758 0h-.299v3.41h.299zm.738 0h-.298v3.41h.298zm.754 0h-.298v3.41h.298zm.754 0h-.299v3.41h.299zm3.004 0h-.299v3.41h.299zm.734 0h-.298v3.41h.298zm.758 0h-.298v3.41h.298zm.754 0h-.299v3.41h.299zm.738 0h-.298v3.41h.298zm.754 0h-.298v3.41h.298zm.754 0h-.298v3.41h.298z" style="fill:#fff"/>
    <path fill-rule="evenodd" clip-rule="evenodd" d="M166.052 13.979h3.02v-2.913h.86V33.8h-.843l-.017-17.903h-3.74v-.205h3.74v-1.49h-3.02z" style="fill:#fff"/>
    <path d="M145.599 13.98h-5.056v.206h5.056zm20.507-.652h-20.524v.206h20.524zm-20.298 2.86h-.21V31.04h.21zm-5.195 0h-.211V31.04h.211zm5.548-.497h-6.11v.206h6.11zm14.257.497h-.211V31.04h.211zm-1.879 0h-.211V31.04h.211zm2.159-.497h-2.651v.206h2.651zm-7.499.497h-.211V31.04h.211zm-1.895 0h-.21V31.04h.21zm2.16-.497h-2.652v.206h2.652zm12.255.481h-.211v14.87h.211zm4.301 19.223h-.86v10.947h.86z" style="fill:#fff"/>
    <path fill-rule="evenodd" clip-rule="evenodd" d="M155.765 37.398a2.066 2.066 0 0 1 1.463.783 1.996 1.996 0 0 1 .398 1.582h-3.74a2.035 2.035 0 0 1 .423-1.573c.175-.221.395-.405.645-.541s.526-.221.811-.25z" style="fill:#fff"/>
    <path d="M157.591 42.195h-3.669v6.733h3.669zm.666-1.902h-4.986a.26.26 0 0 0-.263.257v.805a.26.26 0 0 0 .263.257h4.986a.26.26 0 0 0 .264-.257v-.805a.26.26 0 0 0-.264-.257z" style="fill:#fff"/>
    <path d="M158.274 39.95h-5.021a.59.59 0 0 0-.597.582v.822a.59.59 0 0 0 .597.583h5.021a.59.59 0 0 0 .597-.583v-.822a.59.59 0 0 0-.597-.583z" style="fill:#fff"/>
    <path fill-rule="evenodd" clip-rule="evenodd" d="M132.746 46.957h20.752v1.97h-2.774v-1.165h-4.389v1.165h-6.461v-1.165h-4.389v1.165h-2.739z" style="fill:#fff"/>
    <path d="M166.016 11.309h-20.418v.48h20.418zm4.637-.789h-25.176v.205h25.176z" style="fill:#fff"/>
    <path fill-rule="evenodd" clip-rule="evenodd" d="M130.501 4.164c1.543 0 3.054.432 4.352 1.246a7.906 7.906 0 0 1 2.969 3.345h-.509a7.463 7.463 0 0 0-2.798-3.025 7.723 7.723 0 0 0-4.014-1.121 7.73 7.73 0 0 0-4.015 1.121 7.467 7.467 0 0 0-2.797 3.025h-.509a7.937 7.937 0 0 1 2.972-3.34 8.226 8.226 0 0 1 4.349-1.25z" style="fill:#fff"/>
    <path fill-rule="evenodd" clip-rule="evenodd" d="M130.499 5.313a7.156 7.156 0 0 1 3.477.932 6.947 6.947 0 0 1 2.545 2.494h-12.044a6.937 6.937 0 0 1 2.544-2.494 7.156 7.156 0 0 1 3.478-.933z" style="fill:#fff"/>
    <path fill-rule="evenodd" clip-rule="evenodd" d="M140.071 9.08a3.774 3.774 0 0 0-.264-.994 9.878 9.878 0 0 0-3.71-4.281 10.24 10.24 0 0 0-5.507-1.602c-1.956 0-3.87.557-5.507 1.602a9.884 9.884 0 0 0-3.71 4.281 5.906 5.906 0 0 0-.264.994z" style="fill:#fff"/>
    <path fill-rule="evenodd" clip-rule="evenodd" d="M120.406 9.407V9.08h.351c.048-.375.142-.743.281-1.096a10.177 10.177 0 0 1 3.82-4.42 10.547 10.547 0 0 1 5.679-1.655c2.017 0 3.991.575 5.678 1.654a10.177 10.177 0 0 1 3.82 4.42c.136.356.236.723.298 1.097h.316v.343l-20.243-.017zm-.281 26.362a.693.693 0 0 1 .158-.394h6.11a.674.674 0 0 1 .14.394v1.062a.575.575 0 0 1-.175.412.603.603 0 0 1-.422.17h-5.179a.605.605 0 0 1-.422-.17.575.575 0 0 1-.175-.412zm20.752 0v1.062a.575.575 0 0 1-.175.412.605.605 0 0 1-.422.17h-5.267a.62.62 0 0 1-.428-.169.595.595 0 0 1-.187-.413V35.77a.7.7 0 0 1 .158-.394h6.11a.679.679 0 0 1 .211.394zm-31.602.051a.58.58 0 0 1 .211-.445h6.004a.63.63 0 0 1 .211.445v1.063a.585.585 0 0 1-.18.423.619.619 0 0 1-.434.176h-5.267a.625.625 0 0 1-.424-.181.594.594 0 0 1-.173-.418zm-14.451-.051a.674.674 0 0 1 .14-.394h6.11a.675.675 0 0 1 .141.394v1.062a.57.57 0 0 1-.175.412.59.59 0 0 1-.422.17h-5.267a.604.604 0 0 1-.422-.17.575.575 0 0 1-.175-.412zm71.371 0v1.062a.575.575 0 0 1-.175.412.601.601 0 0 1-.422.17h-5.267a.605.605 0 0 1-.422-.17.575.575 0 0 1-.175-.412V35.77a.675.675 0 0 1 .141-.394h6.127a.824.824 0 0 1 .193.394zm-14.451.051v1.063a.585.585 0 0 1-.18.423.619.619 0 0 1-.434.176h-5.267a.625.625 0 0 1-.424-.181.594.594 0 0 1-.173-.418V35.82a.58.58 0 0 1 .21-.445h5.987a.633.633 0 0 1 .281.445z" style="fill:#fff"/>
    <path d="M150.217 38.426h-3.354v7.4h3.354z" style="fill:#fff"/>
    <path d="M150.85 37.809h-4.635v8.65h4.635zm13.816.566h-3.354v7.4h3.354z" style="fill:#fff"/>
    <path d="M165.299 37.742h-4.635v8.652h4.635zm-51.145.684h-3.353v7.4h3.353z" style="fill:#fff"/>
    <path d="M114.787 37.809h-4.635v8.65h4.635zm-15.097.566h-3.354v7.4h3.353v-7.4z" style="fill:#fff"/>
    <path d="M100.338 37.742h-4.635v8.652h4.635zm39.011.633h-3.353v7.4h3.353z" style="fill:#fff"/>
    <path d="M139.998 37.758h-4.635v8.651h4.635zm-14.992.617h-3.354v7.4h3.354z" style="fill:#fff"/>
    <path d="M125.635 37.758H121v8.651h4.635zm44.455-3.648h-35.289v.29h35.289zM261 50.059H0V51h261v-.942zM74.81 37.895h-4.634V46.7h4.635v-8.806z" style="fill:#fff"/>
</svg>
